%TF.GenerationSoftware,KiCad,Pcbnew,9.0.2*%
%TF.CreationDate,2026-07-09T15:26:05-05:00*%
%TF.ProjectId,Tesseract,54657373-6572-4616-9374-2e6b69636164,rev?*%
%TF.SameCoordinates,Original*%
%TF.FileFunction,Legend,Bot*%
%TF.FilePolarity,Positive*%
%FSLAX46Y46*%
G04 Gerber Fmt 4.6, Leading zero omitted, Abs format (unit mm)*
G04 Created by KiCad (PCBNEW 9.0.2) date 2026-07-09 15:26:05*
%MOMM*%
%LPD*%
G01*
G04 APERTURE LIST*
%ADD10C,0.150000*%
%ADD11C,0.125000*%
%ADD12C,0.120000*%
G04 APERTURE END LIST*
D10*
X95667438Y-115360588D02*
X95619819Y-115265350D01*
X95619819Y-115265350D02*
X95619819Y-115122493D01*
X95619819Y-115122493D02*
X95667438Y-114979636D01*
X95667438Y-114979636D02*
X95762676Y-114884398D01*
X95762676Y-114884398D02*
X95857914Y-114836779D01*
X95857914Y-114836779D02*
X96048390Y-114789160D01*
X96048390Y-114789160D02*
X96191247Y-114789160D01*
X96191247Y-114789160D02*
X96381723Y-114836779D01*
X96381723Y-114836779D02*
X96476961Y-114884398D01*
X96476961Y-114884398D02*
X96572200Y-114979636D01*
X96572200Y-114979636D02*
X96619819Y-115122493D01*
X96619819Y-115122493D02*
X96619819Y-115217731D01*
X96619819Y-115217731D02*
X96572200Y-115360588D01*
X96572200Y-115360588D02*
X96524580Y-115408207D01*
X96524580Y-115408207D02*
X96191247Y-115408207D01*
X96191247Y-115408207D02*
X96191247Y-115217731D01*
X96619819Y-115836779D02*
X95619819Y-115836779D01*
X95619819Y-115836779D02*
X96619819Y-116408207D01*
X96619819Y-116408207D02*
X95619819Y-116408207D01*
X96619819Y-116884398D02*
X95619819Y-116884398D01*
X95619819Y-116884398D02*
X95619819Y-117122493D01*
X95619819Y-117122493D02*
X95667438Y-117265350D01*
X95667438Y-117265350D02*
X95762676Y-117360588D01*
X95762676Y-117360588D02*
X95857914Y-117408207D01*
X95857914Y-117408207D02*
X96048390Y-117455826D01*
X96048390Y-117455826D02*
X96191247Y-117455826D01*
X96191247Y-117455826D02*
X96381723Y-117408207D01*
X96381723Y-117408207D02*
X96476961Y-117360588D01*
X96476961Y-117360588D02*
X96572200Y-117265350D01*
X96572200Y-117265350D02*
X96619819Y-117122493D01*
X96619819Y-117122493D02*
X96619819Y-116884398D01*
D11*
X94145595Y-115189378D02*
X94145595Y-114951283D01*
X94145595Y-114951283D02*
X93345595Y-114951283D01*
X93726547Y-115356045D02*
X93726547Y-115522712D01*
X94145595Y-115594140D02*
X94145595Y-115356045D01*
X94145595Y-115356045D02*
X93345595Y-115356045D01*
X93345595Y-115356045D02*
X93345595Y-115594140D01*
X94145595Y-115808426D02*
X93345595Y-115808426D01*
X93345595Y-115808426D02*
X93345595Y-115927474D01*
X93345595Y-115927474D02*
X93383690Y-115998902D01*
X93383690Y-115998902D02*
X93459880Y-116046521D01*
X93459880Y-116046521D02*
X93536071Y-116070331D01*
X93536071Y-116070331D02*
X93688452Y-116094140D01*
X93688452Y-116094140D02*
X93802738Y-116094140D01*
X93802738Y-116094140D02*
X93955119Y-116070331D01*
X93955119Y-116070331D02*
X94031309Y-116046521D01*
X94031309Y-116046521D02*
X94107500Y-115998902D01*
X94107500Y-115998902D02*
X94145595Y-115927474D01*
X94145595Y-115927474D02*
X94145595Y-115808426D01*
X94221785Y-116189379D02*
X94221785Y-116570331D01*
X94145595Y-116689378D02*
X93345595Y-116689378D01*
X93345595Y-116689378D02*
X93345595Y-116808426D01*
X93345595Y-116808426D02*
X93383690Y-116879854D01*
X93383690Y-116879854D02*
X93459880Y-116927473D01*
X93459880Y-116927473D02*
X93536071Y-116951283D01*
X93536071Y-116951283D02*
X93688452Y-116975092D01*
X93688452Y-116975092D02*
X93802738Y-116975092D01*
X93802738Y-116975092D02*
X93955119Y-116951283D01*
X93955119Y-116951283D02*
X94031309Y-116927473D01*
X94031309Y-116927473D02*
X94107500Y-116879854D01*
X94107500Y-116879854D02*
X94145595Y-116808426D01*
X94145595Y-116808426D02*
X94145595Y-116689378D01*
X94145595Y-117189378D02*
X93345595Y-117189378D01*
X94145595Y-117427473D02*
X93345595Y-117427473D01*
X93345595Y-117427473D02*
X94145595Y-117713187D01*
X94145595Y-117713187D02*
X93345595Y-117713187D01*
D10*
X91238866Y-114836779D02*
X91238866Y-115598684D01*
X91619819Y-115217731D02*
X90857914Y-115217731D01*
X90619819Y-116551064D02*
X90619819Y-116074874D01*
X90619819Y-116074874D02*
X91096009Y-116027255D01*
X91096009Y-116027255D02*
X91048390Y-116074874D01*
X91048390Y-116074874D02*
X91000771Y-116170112D01*
X91000771Y-116170112D02*
X91000771Y-116408207D01*
X91000771Y-116408207D02*
X91048390Y-116503445D01*
X91048390Y-116503445D02*
X91096009Y-116551064D01*
X91096009Y-116551064D02*
X91191247Y-116598683D01*
X91191247Y-116598683D02*
X91429342Y-116598683D01*
X91429342Y-116598683D02*
X91524580Y-116551064D01*
X91524580Y-116551064D02*
X91572200Y-116503445D01*
X91572200Y-116503445D02*
X91619819Y-116408207D01*
X91619819Y-116408207D02*
X91619819Y-116170112D01*
X91619819Y-116170112D02*
X91572200Y-116074874D01*
X91572200Y-116074874D02*
X91524580Y-116027255D01*
X90619819Y-116884398D02*
X91619819Y-117217731D01*
X91619819Y-117217731D02*
X90619819Y-117551064D01*
X93583333Y-58254819D02*
X93583333Y-58969104D01*
X93583333Y-58969104D02*
X93630952Y-59111961D01*
X93630952Y-59111961D02*
X93726190Y-59207200D01*
X93726190Y-59207200D02*
X93869047Y-59254819D01*
X93869047Y-59254819D02*
X93964285Y-59254819D01*
X92678571Y-58254819D02*
X92869047Y-58254819D01*
X92869047Y-58254819D02*
X92964285Y-58302438D01*
X92964285Y-58302438D02*
X93011904Y-58350057D01*
X93011904Y-58350057D02*
X93107142Y-58492914D01*
X93107142Y-58492914D02*
X93154761Y-58683390D01*
X93154761Y-58683390D02*
X93154761Y-59064342D01*
X93154761Y-59064342D02*
X93107142Y-59159580D01*
X93107142Y-59159580D02*
X93059523Y-59207200D01*
X93059523Y-59207200D02*
X92964285Y-59254819D01*
X92964285Y-59254819D02*
X92773809Y-59254819D01*
X92773809Y-59254819D02*
X92678571Y-59207200D01*
X92678571Y-59207200D02*
X92630952Y-59159580D01*
X92630952Y-59159580D02*
X92583333Y-59064342D01*
X92583333Y-59064342D02*
X92583333Y-58826247D01*
X92583333Y-58826247D02*
X92630952Y-58731009D01*
X92630952Y-58731009D02*
X92678571Y-58683390D01*
X92678571Y-58683390D02*
X92773809Y-58635771D01*
X92773809Y-58635771D02*
X92964285Y-58635771D01*
X92964285Y-58635771D02*
X93059523Y-58683390D01*
X93059523Y-58683390D02*
X93107142Y-58731009D01*
X93107142Y-58731009D02*
X93154761Y-58826247D01*
X92833333Y-100954819D02*
X92833333Y-101669104D01*
X92833333Y-101669104D02*
X92880952Y-101811961D01*
X92880952Y-101811961D02*
X92976190Y-101907200D01*
X92976190Y-101907200D02*
X93119047Y-101954819D01*
X93119047Y-101954819D02*
X93214285Y-101954819D01*
X92452380Y-100954819D02*
X91833333Y-100954819D01*
X91833333Y-100954819D02*
X92166666Y-101335771D01*
X92166666Y-101335771D02*
X92023809Y-101335771D01*
X92023809Y-101335771D02*
X91928571Y-101383390D01*
X91928571Y-101383390D02*
X91880952Y-101431009D01*
X91880952Y-101431009D02*
X91833333Y-101526247D01*
X91833333Y-101526247D02*
X91833333Y-101764342D01*
X91833333Y-101764342D02*
X91880952Y-101859580D01*
X91880952Y-101859580D02*
X91928571Y-101907200D01*
X91928571Y-101907200D02*
X92023809Y-101954819D01*
X92023809Y-101954819D02*
X92309523Y-101954819D01*
X92309523Y-101954819D02*
X92404761Y-101907200D01*
X92404761Y-101907200D02*
X92452380Y-101859580D01*
X74083333Y-101204819D02*
X74083333Y-101919104D01*
X74083333Y-101919104D02*
X74130952Y-102061961D01*
X74130952Y-102061961D02*
X74226190Y-102157200D01*
X74226190Y-102157200D02*
X74369047Y-102204819D01*
X74369047Y-102204819D02*
X74464285Y-102204819D01*
X73083333Y-102204819D02*
X73654761Y-102204819D01*
X73369047Y-102204819D02*
X73369047Y-101204819D01*
X73369047Y-101204819D02*
X73464285Y-101347676D01*
X73464285Y-101347676D02*
X73559523Y-101442914D01*
X73559523Y-101442914D02*
X73654761Y-101490533D01*
X113583333Y-66954819D02*
X113583333Y-67669104D01*
X113583333Y-67669104D02*
X113630952Y-67811961D01*
X113630952Y-67811961D02*
X113726190Y-67907200D01*
X113726190Y-67907200D02*
X113869047Y-67954819D01*
X113869047Y-67954819D02*
X113964285Y-67954819D01*
X113154761Y-67050057D02*
X113107142Y-67002438D01*
X113107142Y-67002438D02*
X113011904Y-66954819D01*
X113011904Y-66954819D02*
X112773809Y-66954819D01*
X112773809Y-66954819D02*
X112678571Y-67002438D01*
X112678571Y-67002438D02*
X112630952Y-67050057D01*
X112630952Y-67050057D02*
X112583333Y-67145295D01*
X112583333Y-67145295D02*
X112583333Y-67240533D01*
X112583333Y-67240533D02*
X112630952Y-67383390D01*
X112630952Y-67383390D02*
X113202380Y-67954819D01*
X113202380Y-67954819D02*
X112583333Y-67954819D01*
X56833333Y-66779819D02*
X56833333Y-67494104D01*
X56833333Y-67494104D02*
X56880952Y-67636961D01*
X56880952Y-67636961D02*
X56976190Y-67732200D01*
X56976190Y-67732200D02*
X57119047Y-67779819D01*
X57119047Y-67779819D02*
X57214285Y-67779819D01*
X55928571Y-67113152D02*
X55928571Y-67779819D01*
X56166666Y-66732200D02*
X56404761Y-67446485D01*
X56404761Y-67446485D02*
X55785714Y-67446485D01*
X74083333Y-116279819D02*
X74083333Y-116994104D01*
X74083333Y-116994104D02*
X74130952Y-117136961D01*
X74130952Y-117136961D02*
X74226190Y-117232200D01*
X74226190Y-117232200D02*
X74369047Y-117279819D01*
X74369047Y-117279819D02*
X74464285Y-117279819D01*
X73464285Y-116708390D02*
X73559523Y-116660771D01*
X73559523Y-116660771D02*
X73607142Y-116613152D01*
X73607142Y-116613152D02*
X73654761Y-116517914D01*
X73654761Y-116517914D02*
X73654761Y-116470295D01*
X73654761Y-116470295D02*
X73607142Y-116375057D01*
X73607142Y-116375057D02*
X73559523Y-116327438D01*
X73559523Y-116327438D02*
X73464285Y-116279819D01*
X73464285Y-116279819D02*
X73273809Y-116279819D01*
X73273809Y-116279819D02*
X73178571Y-116327438D01*
X73178571Y-116327438D02*
X73130952Y-116375057D01*
X73130952Y-116375057D02*
X73083333Y-116470295D01*
X73083333Y-116470295D02*
X73083333Y-116517914D01*
X73083333Y-116517914D02*
X73130952Y-116613152D01*
X73130952Y-116613152D02*
X73178571Y-116660771D01*
X73178571Y-116660771D02*
X73273809Y-116708390D01*
X73273809Y-116708390D02*
X73464285Y-116708390D01*
X73464285Y-116708390D02*
X73559523Y-116756009D01*
X73559523Y-116756009D02*
X73607142Y-116803628D01*
X73607142Y-116803628D02*
X73654761Y-116898866D01*
X73654761Y-116898866D02*
X73654761Y-117089342D01*
X73654761Y-117089342D02*
X73607142Y-117184580D01*
X73607142Y-117184580D02*
X73559523Y-117232200D01*
X73559523Y-117232200D02*
X73464285Y-117279819D01*
X73464285Y-117279819D02*
X73273809Y-117279819D01*
X73273809Y-117279819D02*
X73178571Y-117232200D01*
X73178571Y-117232200D02*
X73130952Y-117184580D01*
X73130952Y-117184580D02*
X73083333Y-117089342D01*
X73083333Y-117089342D02*
X73083333Y-116898866D01*
X73083333Y-116898866D02*
X73130952Y-116803628D01*
X73130952Y-116803628D02*
X73178571Y-116756009D01*
X73178571Y-116756009D02*
X73273809Y-116708390D01*
X70833333Y-58254819D02*
X70833333Y-58969104D01*
X70833333Y-58969104D02*
X70880952Y-59111961D01*
X70880952Y-59111961D02*
X70976190Y-59207200D01*
X70976190Y-59207200D02*
X71119047Y-59254819D01*
X71119047Y-59254819D02*
X71214285Y-59254819D01*
X70452380Y-58254819D02*
X69785714Y-58254819D01*
X69785714Y-58254819D02*
X70214285Y-59254819D01*
D12*
%TO.C,J6*%
X82900000Y-58000000D02*
X82900000Y-56750000D01*
X83190000Y-51740000D02*
X103310000Y-51740000D01*
X83190000Y-57710000D02*
X83190000Y-51740000D01*
X83200000Y-55450000D02*
X83950000Y-55450000D01*
X83200000Y-56950000D02*
X85000000Y-56950000D01*
X83200000Y-57700000D02*
X83200000Y-56950000D01*
X83950000Y-52500000D02*
X93250000Y-52500000D01*
X83950000Y-55450000D02*
X83950000Y-52500000D01*
X84150000Y-58000000D02*
X82900000Y-58000000D01*
X85000000Y-56950000D02*
X85000000Y-57700000D01*
X85000000Y-57700000D02*
X83200000Y-57700000D01*
X86500000Y-56950000D02*
X100000000Y-56950000D01*
X86500000Y-57700000D02*
X86500000Y-56950000D01*
X100000000Y-56950000D02*
X100000000Y-57700000D01*
X100000000Y-57700000D02*
X86500000Y-57700000D01*
X101500000Y-56950000D02*
X103300000Y-56950000D01*
X101500000Y-57700000D02*
X101500000Y-56950000D01*
X102550000Y-52500000D02*
X93250000Y-52500000D01*
X102550000Y-55450000D02*
X102550000Y-52500000D01*
X103300000Y-55450000D02*
X102550000Y-55450000D01*
X103300000Y-56950000D02*
X103300000Y-57700000D01*
X103300000Y-57700000D02*
X101500000Y-57700000D01*
X103310000Y-51740000D02*
X103310000Y-57710000D01*
X103310000Y-57710000D02*
X83190000Y-57710000D01*
%TO.C,J3*%
X88400000Y-109000000D02*
X88400000Y-107750000D01*
X88690000Y-102740000D02*
X96310000Y-102740000D01*
X88690000Y-108710000D02*
X88690000Y-102740000D01*
X88700000Y-106450000D02*
X89450000Y-106450000D01*
X88700000Y-107950000D02*
X90500000Y-107950000D01*
X88700000Y-108700000D02*
X88700000Y-107950000D01*
X89450000Y-103500000D02*
X92500000Y-103500000D01*
X89450000Y-106450000D02*
X89450000Y-103500000D01*
X89650000Y-109000000D02*
X88400000Y-109000000D01*
X90500000Y-107950000D02*
X90500000Y-108700000D01*
X90500000Y-108700000D02*
X88700000Y-108700000D01*
X92000000Y-107950000D02*
X93000000Y-107950000D01*
X92000000Y-108700000D02*
X92000000Y-107950000D01*
X93000000Y-107950000D02*
X93000000Y-108700000D01*
X93000000Y-108700000D02*
X92000000Y-108700000D01*
X94500000Y-107950000D02*
X96300000Y-107950000D01*
X94500000Y-108700000D02*
X94500000Y-107950000D01*
X95550000Y-103500000D02*
X92500000Y-103500000D01*
X95550000Y-106450000D02*
X95550000Y-103500000D01*
X96300000Y-106450000D02*
X95550000Y-106450000D01*
X96300000Y-107950000D02*
X96300000Y-108700000D01*
X96300000Y-108700000D02*
X94500000Y-108700000D01*
X96310000Y-102740000D02*
X96310000Y-108710000D01*
X96310000Y-108710000D02*
X88690000Y-108710000D01*
%TO.C,J1*%
X59650000Y-109000000D02*
X59650000Y-107750000D01*
X59940000Y-102740000D02*
X87560000Y-102740000D01*
X59940000Y-108710000D02*
X59940000Y-102740000D01*
X59950000Y-106450000D02*
X60700000Y-106450000D01*
X59950000Y-107950000D02*
X61750000Y-107950000D01*
X59950000Y-108700000D02*
X59950000Y-107950000D01*
X60700000Y-103500000D02*
X73750000Y-103500000D01*
X60700000Y-106450000D02*
X60700000Y-103500000D01*
X60900000Y-109000000D02*
X59650000Y-109000000D01*
X61750000Y-107950000D02*
X61750000Y-108700000D01*
X61750000Y-108700000D02*
X59950000Y-108700000D01*
X63250000Y-107950000D02*
X84250000Y-107950000D01*
X63250000Y-108700000D02*
X63250000Y-107950000D01*
X84250000Y-107950000D02*
X84250000Y-108700000D01*
X84250000Y-108700000D02*
X63250000Y-108700000D01*
X85750000Y-107950000D02*
X87550000Y-107950000D01*
X85750000Y-108700000D02*
X85750000Y-107950000D01*
X86800000Y-103500000D02*
X73750000Y-103500000D01*
X86800000Y-106450000D02*
X86800000Y-103500000D01*
X87550000Y-106450000D02*
X86800000Y-106450000D01*
X87550000Y-107950000D02*
X87550000Y-108700000D01*
X87550000Y-108700000D02*
X85750000Y-108700000D01*
X87560000Y-102740000D02*
X87560000Y-108710000D01*
X87560000Y-108710000D02*
X59940000Y-108710000D01*
%TO.C,J2*%
X109150000Y-66500000D02*
X109150000Y-65250000D01*
X109440000Y-60240000D02*
X117060000Y-60240000D01*
X109440000Y-66210000D02*
X109440000Y-60240000D01*
X109450000Y-63950000D02*
X110200000Y-63950000D01*
X109450000Y-65450000D02*
X111250000Y-65450000D01*
X109450000Y-66200000D02*
X109450000Y-65450000D01*
X110200000Y-61000000D02*
X113250000Y-61000000D01*
X110200000Y-63950000D02*
X110200000Y-61000000D01*
X110400000Y-66500000D02*
X109150000Y-66500000D01*
X111250000Y-65450000D02*
X111250000Y-66200000D01*
X111250000Y-66200000D02*
X109450000Y-66200000D01*
X112750000Y-65450000D02*
X113750000Y-65450000D01*
X112750000Y-66200000D02*
X112750000Y-65450000D01*
X113750000Y-65450000D02*
X113750000Y-66200000D01*
X113750000Y-66200000D02*
X112750000Y-66200000D01*
X115250000Y-65450000D02*
X117050000Y-65450000D01*
X115250000Y-66200000D02*
X115250000Y-65450000D01*
X116300000Y-61000000D02*
X113250000Y-61000000D01*
X116300000Y-63950000D02*
X116300000Y-61000000D01*
X117050000Y-63950000D02*
X116300000Y-63950000D01*
X117050000Y-65450000D02*
X117050000Y-66200000D01*
X117050000Y-66200000D02*
X115250000Y-66200000D01*
X117060000Y-60240000D02*
X117060000Y-66210000D01*
X117060000Y-66210000D02*
X109440000Y-66210000D01*
%TO.C,J4*%
X51150000Y-66525000D02*
X51150000Y-65275000D01*
X51440000Y-60265000D02*
X61560000Y-60265000D01*
X51440000Y-66235000D02*
X51440000Y-60265000D01*
X51450000Y-63975000D02*
X52200000Y-63975000D01*
X51450000Y-65475000D02*
X53250000Y-65475000D01*
X51450000Y-66225000D02*
X51450000Y-65475000D01*
X52200000Y-61025000D02*
X56500000Y-61025000D01*
X52200000Y-63975000D02*
X52200000Y-61025000D01*
X52400000Y-66525000D02*
X51150000Y-66525000D01*
X53250000Y-65475000D02*
X53250000Y-66225000D01*
X53250000Y-66225000D02*
X51450000Y-66225000D01*
X54750000Y-65475000D02*
X58250000Y-65475000D01*
X54750000Y-66225000D02*
X54750000Y-65475000D01*
X58250000Y-65475000D02*
X58250000Y-66225000D01*
X58250000Y-66225000D02*
X54750000Y-66225000D01*
X59750000Y-65475000D02*
X61550000Y-65475000D01*
X59750000Y-66225000D02*
X59750000Y-65475000D01*
X60800000Y-61025000D02*
X56500000Y-61025000D01*
X60800000Y-63975000D02*
X60800000Y-61025000D01*
X61550000Y-63975000D02*
X60800000Y-63975000D01*
X61550000Y-65475000D02*
X61550000Y-66225000D01*
X61550000Y-66225000D02*
X59750000Y-66225000D01*
X61560000Y-60265000D02*
X61560000Y-66235000D01*
X61560000Y-66235000D02*
X51440000Y-66235000D01*
%TO.C,J8*%
X59650000Y-116025000D02*
X59650000Y-114775000D01*
X59940000Y-109765000D02*
X87560000Y-109765000D01*
X59940000Y-115735000D02*
X59940000Y-109765000D01*
X59950000Y-113475000D02*
X60700000Y-113475000D01*
X59950000Y-114975000D02*
X61750000Y-114975000D01*
X59950000Y-115725000D02*
X59950000Y-114975000D01*
X60700000Y-110525000D02*
X73750000Y-110525000D01*
X60700000Y-113475000D02*
X60700000Y-110525000D01*
X60900000Y-116025000D02*
X59650000Y-116025000D01*
X61750000Y-114975000D02*
X61750000Y-115725000D01*
X61750000Y-115725000D02*
X59950000Y-115725000D01*
X63250000Y-114975000D02*
X84250000Y-114975000D01*
X63250000Y-115725000D02*
X63250000Y-114975000D01*
X84250000Y-114975000D02*
X84250000Y-115725000D01*
X84250000Y-115725000D02*
X63250000Y-115725000D01*
X85750000Y-114975000D02*
X87550000Y-114975000D01*
X85750000Y-115725000D02*
X85750000Y-114975000D01*
X86800000Y-110525000D02*
X73750000Y-110525000D01*
X86800000Y-113475000D02*
X86800000Y-110525000D01*
X87550000Y-113475000D02*
X86800000Y-113475000D01*
X87550000Y-114975000D02*
X87550000Y-115725000D01*
X87550000Y-115725000D02*
X85750000Y-115725000D01*
X87560000Y-109765000D02*
X87560000Y-115735000D01*
X87560000Y-115735000D02*
X59940000Y-115735000D01*
%TO.C,J7*%
X60150000Y-58000000D02*
X60150000Y-56750000D01*
X60440000Y-51740000D02*
X80560000Y-51740000D01*
X60440000Y-57710000D02*
X60440000Y-51740000D01*
X60450000Y-55450000D02*
X61200000Y-55450000D01*
X60450000Y-56950000D02*
X62250000Y-56950000D01*
X60450000Y-57700000D02*
X60450000Y-56950000D01*
X61200000Y-52500000D02*
X70500000Y-52500000D01*
X61200000Y-55450000D02*
X61200000Y-52500000D01*
X61400000Y-58000000D02*
X60150000Y-58000000D01*
X62250000Y-56950000D02*
X62250000Y-57700000D01*
X62250000Y-57700000D02*
X60450000Y-57700000D01*
X63750000Y-56950000D02*
X77250000Y-56950000D01*
X63750000Y-57700000D02*
X63750000Y-56950000D01*
X77250000Y-56950000D02*
X77250000Y-57700000D01*
X77250000Y-57700000D02*
X63750000Y-57700000D01*
X78750000Y-56950000D02*
X80550000Y-56950000D01*
X78750000Y-57700000D02*
X78750000Y-56950000D01*
X79800000Y-52500000D02*
X70500000Y-52500000D01*
X79800000Y-55450000D02*
X79800000Y-52500000D01*
X80550000Y-55450000D02*
X79800000Y-55450000D01*
X80550000Y-56950000D02*
X80550000Y-57700000D01*
X80550000Y-57700000D02*
X78750000Y-57700000D01*
X80560000Y-51740000D02*
X80560000Y-57710000D01*
X80560000Y-57710000D02*
X60440000Y-57710000D01*
%TD*%
M02*
