%TF.GenerationSoftware,KiCad,Pcbnew,9.0.2*%
%TF.CreationDate,2026-07-09T15:26:05-05:00*%
%TF.ProjectId,Tesseract,54657373-6572-4616-9374-2e6b69636164,rev?*%
%TF.SameCoordinates,Original*%
%TF.FileFunction,Soldermask,Bot*%
%TF.FilePolarity,Negative*%
%FSLAX46Y46*%
G04 Gerber Fmt 4.6, Leading zero omitted, Abs format (unit mm)*
G04 Created by KiCad (PCBNEW 9.0.2) date 2026-07-09 15:26:05*
%MOMM*%
%LPD*%
G01*
G04 APERTURE LIST*
G04 Aperture macros list*
%AMRoundRect*
0 Rectangle with rounded corners*
0 $1 Rounding radius*
0 $2 $3 $4 $5 $6 $7 $8 $9 X,Y pos of 4 corners*
0 Add a 4 corners polygon primitive as box body*
4,1,4,$2,$3,$4,$5,$6,$7,$8,$9,$2,$3,0*
0 Add four circle primitives for the rounded corners*
1,1,$1+$1,$2,$3*
1,1,$1+$1,$4,$5*
1,1,$1+$1,$6,$7*
1,1,$1+$1,$8,$9*
0 Add four rect primitives between the rounded corners*
20,1,$1+$1,$2,$3,$4,$5,0*
20,1,$1+$1,$4,$5,$6,$7,0*
20,1,$1+$1,$6,$7,$8,$9,0*
20,1,$1+$1,$8,$9,$2,$3,0*%
G04 Aperture macros list end*
%ADD10C,3.600000*%
%ADD11C,6.400000*%
%ADD12C,2.000000*%
%ADD13RoundRect,0.250000X-0.600000X-0.725000X0.600000X-0.725000X0.600000X0.725000X-0.600000X0.725000X0*%
%ADD14O,1.700000X1.950000*%
%ADD15RoundRect,0.250000X-0.600000X-0.750000X0.600000X-0.750000X0.600000X0.750000X-0.600000X0.750000X0*%
%ADD16O,1.700000X2.000000*%
G04 APERTURE END LIST*
D10*
%TO.C,REF\u002A\u002A*%
X66000000Y-73000000D03*
D11*
X66000000Y-73000000D03*
%TD*%
D12*
%TO.C,SW1*%
X56883000Y-70824500D03*
X56883000Y-77324500D03*
X52383000Y-70824500D03*
X52383000Y-77324500D03*
%TD*%
D13*
%TO.C,J5*%
X91250000Y-113225000D03*
D14*
X93750000Y-113225000D03*
X96250000Y-113225000D03*
%TD*%
D10*
%TO.C,REF\u002A\u002A*%
X114000000Y-114000000D03*
D11*
X114000000Y-114000000D03*
%TD*%
D12*
%TO.C,SW4*%
X111867000Y-98624500D03*
X111867000Y-92124500D03*
X116367000Y-98624500D03*
X116367000Y-92124500D03*
%TD*%
%TO.C,SW3*%
X111867000Y-77124500D03*
X111867000Y-70624500D03*
X116367000Y-77124500D03*
X116367000Y-70624500D03*
%TD*%
D10*
%TO.C,REF\u002A\u002A*%
X103000000Y-96000000D03*
D11*
X103000000Y-96000000D03*
%TD*%
D10*
%TO.C,REF\u002A\u002A*%
X54750000Y-55250000D03*
D11*
X54750000Y-55250000D03*
%TD*%
D12*
%TO.C,SW2*%
X56883000Y-92324500D03*
X56883000Y-98824500D03*
X52383000Y-92324500D03*
X52383000Y-98824500D03*
%TD*%
D10*
%TO.C,REF\u002A\u002A*%
X114000000Y-55250000D03*
D11*
X114000000Y-55250000D03*
%TD*%
D10*
%TO.C,REF\u002A\u002A*%
X54750000Y-114000000D03*
D11*
X54750000Y-114000000D03*
%TD*%
D13*
%TO.C,J6*%
X85750000Y-55250000D03*
D14*
X88250000Y-55250000D03*
X90750000Y-55250000D03*
X93250000Y-55250000D03*
X95750000Y-55250000D03*
X98250000Y-55250000D03*
X100750000Y-55250000D03*
%TD*%
D15*
%TO.C,J3*%
X91250000Y-106250000D03*
D16*
X93750000Y-106250000D03*
%TD*%
D13*
%TO.C,J1*%
X62500000Y-106250000D03*
D14*
X65000000Y-106250000D03*
X67500000Y-106250000D03*
X70000000Y-106250000D03*
X72500000Y-106250000D03*
X75000000Y-106250000D03*
X77500000Y-106250000D03*
X80000000Y-106250000D03*
X82500000Y-106250000D03*
X85000000Y-106250000D03*
%TD*%
D15*
%TO.C,J2*%
X112000000Y-63750000D03*
D16*
X114500000Y-63750000D03*
%TD*%
D13*
%TO.C,J4*%
X54000000Y-63775000D03*
D14*
X56500000Y-63775000D03*
X59000000Y-63775000D03*
%TD*%
D13*
%TO.C,J8*%
X62500000Y-113275000D03*
D14*
X65000000Y-113275000D03*
X67500000Y-113275000D03*
X70000000Y-113275000D03*
X72500000Y-113275000D03*
X75000000Y-113275000D03*
X77500000Y-113275000D03*
X80000000Y-113275000D03*
X82500000Y-113275000D03*
X85000000Y-113275000D03*
%TD*%
D13*
%TO.C,J7*%
X63000000Y-55250000D03*
D14*
X65500000Y-55250000D03*
X68000000Y-55250000D03*
X70500000Y-55250000D03*
X73000000Y-55250000D03*
X75500000Y-55250000D03*
X78000000Y-55250000D03*
%TD*%
M02*
