%TF.GenerationSoftware,KiCad,Pcbnew,9.0.2*%
%TF.CreationDate,2026-07-09T15:26:04-05:00*%
%TF.ProjectId,Tesseract,54657373-6572-4616-9374-2e6b69636164,rev?*%
%TF.SameCoordinates,Original*%
%TF.FileFunction,Copper,L2,Bot*%
%TF.FilePolarity,Positive*%
%FSLAX46Y46*%
G04 Gerber Fmt 4.6, Leading zero omitted, Abs format (unit mm)*
G04 Created by KiCad (PCBNEW 9.0.2) date 2026-07-09 15:26:04*
%MOMM*%
%LPD*%
G01*
G04 APERTURE LIST*
G04 Aperture macros list*
%AMRoundRect*
0 Rectangle with rounded corners*
0 $1 Rounding radius*
0 $2 $3 $4 $5 $6 $7 $8 $9 X,Y pos of 4 corners*
0 Add a 4 corners polygon primitive as box body*
4,1,4,$2,$3,$4,$5,$6,$7,$8,$9,$2,$3,0*
0 Add four circle primitives for the rounded corners*
1,1,$1+$1,$2,$3*
1,1,$1+$1,$4,$5*
1,1,$1+$1,$6,$7*
1,1,$1+$1,$8,$9*
0 Add four rect primitives between the rounded corners*
20,1,$1+$1,$2,$3,$4,$5,0*
20,1,$1+$1,$4,$5,$6,$7,0*
20,1,$1+$1,$6,$7,$8,$9,0*
20,1,$1+$1,$8,$9,$2,$3,0*%
G04 Aperture macros list end*
%TA.AperFunction,ComponentPad*%
%ADD10C,3.600000*%
%TD*%
%TA.AperFunction,ConnectorPad*%
%ADD11C,6.400000*%
%TD*%
%TA.AperFunction,ComponentPad*%
%ADD12C,2.000000*%
%TD*%
%TA.AperFunction,ComponentPad*%
%ADD13RoundRect,0.250000X-0.600000X-0.725000X0.600000X-0.725000X0.600000X0.725000X-0.600000X0.725000X0*%
%TD*%
%TA.AperFunction,ComponentPad*%
%ADD14O,1.700000X1.950000*%
%TD*%
%TA.AperFunction,ComponentPad*%
%ADD15RoundRect,0.250000X-0.600000X-0.750000X0.600000X-0.750000X0.600000X0.750000X-0.600000X0.750000X0*%
%TD*%
%TA.AperFunction,ComponentPad*%
%ADD16O,1.700000X2.000000*%
%TD*%
%TA.AperFunction,ViaPad*%
%ADD17C,0.600000*%
%TD*%
%TA.AperFunction,Conductor*%
%ADD18C,0.600000*%
%TD*%
%TA.AperFunction,Conductor*%
%ADD19C,0.200000*%
%TD*%
G04 APERTURE END LIST*
D10*
%TO.P,REF\u002A\u002A,1*%
%TO.N,N/C*%
X66000000Y-73000000D03*
D11*
X66000000Y-73000000D03*
%TD*%
D12*
%TO.P,SW1,1,1*%
%TO.N,GND*%
X56883000Y-70824500D03*
X56883000Y-77324500D03*
%TO.P,SW1,2,2*%
%TO.N,SW1*%
X52383000Y-70824500D03*
X52383000Y-77324500D03*
%TD*%
D13*
%TO.P,J5,1,Pin_1*%
%TO.N,+5V*%
X91250000Y-113225000D03*
D14*
%TO.P,J5,2,Pin_2*%
%TO.N,LED_DIN*%
X93750000Y-113225000D03*
%TO.P,J5,3,Pin_3*%
%TO.N,GND*%
X96250000Y-113225000D03*
%TD*%
D10*
%TO.P,REF\u002A\u002A,1*%
%TO.N,N/C*%
X114000000Y-114000000D03*
D11*
X114000000Y-114000000D03*
%TD*%
D12*
%TO.P,SW4,1,1*%
%TO.N,GND*%
X111867000Y-98624500D03*
X111867000Y-92124500D03*
%TO.P,SW4,2,2*%
%TO.N,SW4*%
X116367000Y-98624500D03*
X116367000Y-92124500D03*
%TD*%
%TO.P,SW3,1,1*%
%TO.N,GND*%
X111867000Y-77124500D03*
X111867000Y-70624500D03*
%TO.P,SW3,2,2*%
%TO.N,SW3*%
X116367000Y-77124500D03*
X116367000Y-70624500D03*
%TD*%
D10*
%TO.P,REF\u002A\u002A,1*%
%TO.N,N/C*%
X103000000Y-96000000D03*
D11*
X103000000Y-96000000D03*
%TD*%
D10*
%TO.P,REF\u002A\u002A,1*%
%TO.N,N/C*%
X54750000Y-55250000D03*
D11*
X54750000Y-55250000D03*
%TD*%
D12*
%TO.P,SW2,1,1*%
%TO.N,GND*%
X56883000Y-92324500D03*
X56883000Y-98824500D03*
%TO.P,SW2,2,2*%
%TO.N,SW2*%
X52383000Y-92324500D03*
X52383000Y-98824500D03*
%TD*%
D10*
%TO.P,REF\u002A\u002A,1*%
%TO.N,N/C*%
X114000000Y-55250000D03*
D11*
X114000000Y-55250000D03*
%TD*%
D10*
%TO.P,REF\u002A\u002A,1*%
%TO.N,N/C*%
X54750000Y-114000000D03*
D11*
X54750000Y-114000000D03*
%TD*%
D13*
%TO.P,J6,1,Pin_1*%
%TO.N,DIN*%
X85750000Y-55250000D03*
D14*
%TO.P,J6,2,Pin_2*%
%TO.N,RES#*%
X88250000Y-55250000D03*
%TO.P,J6,3,Pin_3*%
%TO.N,D{slash}C#*%
X90750000Y-55250000D03*
%TO.P,J6,4,Pin_4*%
%TO.N,SDIN*%
X93250000Y-55250000D03*
%TO.P,J6,5,Pin_5*%
%TO.N,SCLK*%
X95750000Y-55250000D03*
%TO.P,J6,6,Pin_6*%
%TO.N,WS*%
X98250000Y-55250000D03*
%TO.P,J6,7,Pin_7*%
%TO.N,LED_DIN*%
X100750000Y-55250000D03*
%TD*%
D15*
%TO.P,J3,1,Pin_1*%
%TO.N,OUTP*%
X91250000Y-106250000D03*
D16*
%TO.P,J3,2,Pin_2*%
%TO.N,OUTN*%
X93750000Y-106250000D03*
%TD*%
D13*
%TO.P,J1,1,Pin_1*%
%TO.N,GND*%
X62500000Y-106250000D03*
D14*
%TO.P,J1,2,Pin_2*%
%TO.N,+5V*%
X65000000Y-106250000D03*
%TO.P,J1,3,Pin_3*%
%TO.N,unconnected-(J1-Pin_3-Pad3)*%
X67500000Y-106250000D03*
%TO.P,J1,4,Pin_4*%
%TO.N,D{slash}C#*%
X70000000Y-106250000D03*
%TO.P,J1,5,Pin_5*%
%TO.N,GND*%
X72500000Y-106250000D03*
%TO.P,J1,6,Pin_6*%
X75000000Y-106250000D03*
%TO.P,J1,7,Pin_7*%
%TO.N,SCLK*%
X77500000Y-106250000D03*
%TO.P,J1,8,Pin_8*%
%TO.N,SDIN*%
X80000000Y-106250000D03*
%TO.P,J1,9,Pin_9*%
%TO.N,GND*%
X82500000Y-106250000D03*
%TO.P,J1,10,Pin_10*%
X85000000Y-106250000D03*
%TD*%
D15*
%TO.P,J2,1,Pin_1*%
%TO.N,+5V*%
X112000000Y-63750000D03*
D16*
%TO.P,J2,2,Pin_2*%
%TO.N,GND*%
X114500000Y-63750000D03*
%TD*%
D13*
%TO.P,J4,1,Pin_1*%
%TO.N,+5V*%
X54000000Y-63775000D03*
D14*
%TO.P,J4,2,Pin_2*%
%TO.N,+3V3*%
X56500000Y-63775000D03*
%TO.P,J4,3,Pin_3*%
%TO.N,GND*%
X59000000Y-63775000D03*
%TD*%
D13*
%TO.P,J8,1,Pin_1*%
%TO.N,GND*%
X62500000Y-113275000D03*
D14*
%TO.P,J8,2,Pin_2*%
X65000000Y-113275000D03*
%TO.P,J8,3,Pin_3*%
X67500000Y-113275000D03*
%TO.P,J8,4,Pin_4*%
X70000000Y-113275000D03*
%TO.P,J8,5,Pin_5*%
X72500000Y-113275000D03*
%TO.P,J8,6,Pin_6*%
%TO.N,RES#*%
X75000000Y-113275000D03*
%TO.P,J8,7,Pin_7*%
%TO.N,CS#*%
X77500000Y-113275000D03*
%TO.P,J8,8,Pin_8*%
%TO.N,GND*%
X80000000Y-113275000D03*
%TO.P,J8,9,Pin_9*%
X82500000Y-113275000D03*
%TO.P,J8,10,Pin_10*%
X85000000Y-113275000D03*
%TD*%
D13*
%TO.P,J7,1,Pin_1*%
%TO.N,SCK*%
X63000000Y-55250000D03*
D14*
%TO.P,J7,2,Pin_2*%
%TO.N,CS#*%
X65500000Y-55250000D03*
%TO.P,J7,3,Pin_3*%
%TO.N,SW1*%
X68000000Y-55250000D03*
%TO.P,J7,4,Pin_4*%
%TO.N,SW2*%
X70500000Y-55250000D03*
%TO.P,J7,5,Pin_5*%
%TO.N,SW3*%
X73000000Y-55250000D03*
%TO.P,J7,6,Pin_6*%
%TO.N,SW4*%
X75500000Y-55250000D03*
%TO.P,J7,7,Pin_7*%
%TO.N,SD*%
X78000000Y-55250000D03*
%TD*%
D17*
%TO.N,GND*%
X80750000Y-91000000D03*
%TO.N,+3V3*%
X88500000Y-98500000D03*
X100750000Y-100750000D03*
%TO.N,GND*%
X81500000Y-96250000D03*
X114538500Y-105788500D03*
X87000000Y-100500000D03*
X116500000Y-110250000D03*
X114250000Y-101750000D03*
X65750000Y-100000000D03*
X105750000Y-102000000D03*
X87248223Y-94748223D03*
X112200000Y-109000000D03*
%TO.N,DIN*%
X106750000Y-58750000D03*
X114500000Y-107350000D03*
%TO.N,SDIN*%
X95000000Y-71500000D03*
%TO.N,SCLK*%
X94250000Y-68750000D03*
%TO.N,D{slash}C#*%
X77000000Y-72750000D03*
X80875000Y-68875000D03*
%TO.N,CS#*%
X69500000Y-60750000D03*
%TO.N,SD*%
X80875000Y-63375000D03*
%TO.N,WS*%
X110750000Y-109250000D03*
X93625000Y-88625000D03*
%TO.N,SCK*%
X113750000Y-109000000D03*
X83438900Y-90750000D03*
%TD*%
D18*
%TO.N,+3V3*%
X96250000Y-100750000D02*
X94000000Y-98500000D01*
X94000000Y-98500000D02*
X88500000Y-98500000D01*
X100750000Y-100750000D02*
X96250000Y-100750000D01*
D19*
%TO.N,DIN*%
X106750000Y-80000000D02*
X113750000Y-87000000D01*
X115500000Y-106350000D02*
X114500000Y-107350000D01*
X115500000Y-100750000D02*
X115500000Y-106350000D01*
X106750000Y-58750000D02*
X106750000Y-80000000D01*
X113750000Y-99000000D02*
X115500000Y-100750000D01*
X113750000Y-87000000D02*
X113750000Y-99000000D01*
%TO.N,SDIN*%
X93250000Y-69750000D02*
X93250000Y-55250000D01*
X95000000Y-71500000D02*
X93250000Y-69750000D01*
%TO.N,SCLK*%
X94250000Y-56750000D02*
X95750000Y-55250000D01*
X94250000Y-68750000D02*
X94250000Y-56750000D01*
%TO.N,D{slash}C#*%
X77000000Y-99250000D02*
X77000000Y-72750000D01*
X83500000Y-66250000D02*
X87750000Y-66250000D01*
X90750000Y-63250000D02*
X90750000Y-55250000D01*
X70000000Y-106250000D02*
X77000000Y-99250000D01*
X87750000Y-66250000D02*
X90750000Y-63250000D01*
X80875000Y-68875000D02*
X83500000Y-66250000D01*
%TO.N,LED_DIN*%
X100750000Y-68250000D02*
X100750000Y-55250000D01*
X79500000Y-77250000D02*
X82500000Y-74250000D01*
X82500000Y-74250000D02*
X94750000Y-74250000D01*
X79525000Y-99000000D02*
X79500000Y-99000000D01*
X79500000Y-99000000D02*
X79500000Y-77250000D01*
X93750000Y-113225000D02*
X79525000Y-99000000D01*
X94750000Y-74250000D02*
X100750000Y-68250000D01*
%TO.N,CS#*%
X78776000Y-111999000D02*
X77500000Y-113275000D01*
X78776000Y-70026000D02*
X78776000Y-111999000D01*
X69500000Y-60750000D02*
X78776000Y-70026000D01*
%TO.N,SW1*%
X57008000Y-65750000D02*
X52383000Y-70375000D01*
X52383000Y-70375000D02*
X52383000Y-76875000D01*
X68000000Y-57250000D02*
X59500000Y-65750000D01*
X59500000Y-65750000D02*
X57008000Y-65750000D01*
X68000000Y-55250000D02*
X68000000Y-57250000D01*
%TO.N,SW2*%
X52383000Y-85617000D02*
X52383000Y-98375000D01*
X70500000Y-55500000D02*
X61500000Y-64500000D01*
X70500000Y-55250000D02*
X70500000Y-55500000D01*
X61500000Y-64500000D02*
X61500000Y-76500000D01*
X61500000Y-76500000D02*
X52383000Y-85617000D01*
%TO.N,SD*%
X78000000Y-60500000D02*
X78000000Y-55250000D01*
X80875000Y-63375000D02*
X78000000Y-60500000D01*
%TO.N,WS*%
X103250000Y-79000000D02*
X93625000Y-88625000D01*
X102000000Y-103000000D02*
X108250000Y-109250000D01*
X102500000Y-53500000D02*
X103250000Y-54250000D01*
X100000000Y-53500000D02*
X102500000Y-53500000D01*
X102000000Y-100750000D02*
X102000000Y-103000000D01*
X98250000Y-55250000D02*
X100000000Y-53500000D01*
X93625000Y-92375000D02*
X102000000Y-100750000D01*
X103250000Y-54250000D02*
X103250000Y-79000000D01*
X108250000Y-109250000D02*
X110750000Y-109250000D01*
X93625000Y-88625000D02*
X93625000Y-92375000D01*
%TO.N,SW3*%
X109000000Y-55500000D02*
X109000000Y-64250000D01*
X105000000Y-51500000D02*
X109000000Y-55500000D01*
X109000000Y-64250000D02*
X115125000Y-70375000D01*
X73000000Y-55250000D02*
X76750000Y-51500000D01*
X116367000Y-70375000D02*
X116367000Y-76875000D01*
X115125000Y-70375000D02*
X116367000Y-70375000D01*
X76750000Y-51500000D02*
X105000000Y-51500000D01*
%TO.N,SW4*%
X104501380Y-52000000D02*
X78750000Y-52000000D01*
X107500000Y-54998620D02*
X104501380Y-52000000D01*
X116367000Y-88756135D02*
X107500000Y-79889135D01*
X78750000Y-52000000D02*
X75500000Y-55250000D01*
X116367000Y-98375000D02*
X116367000Y-88756135D01*
X107500000Y-79889135D02*
X107500000Y-54998620D01*
%TO.N,SCK*%
X88000000Y-99750000D02*
X93500000Y-99750000D01*
X103750000Y-110000000D02*
X112750000Y-110000000D01*
X112750000Y-110000000D02*
X113750000Y-109000000D01*
X83438900Y-95188900D02*
X88000000Y-99750000D01*
X93500000Y-99750000D02*
X103750000Y-110000000D01*
X83438900Y-90750000D02*
X83438900Y-95188900D01*
%TD*%
%TA.AperFunction,Conductor*%
%TO.N,GND*%
G36*
X76167941Y-51020185D02*
G01*
X76213696Y-51072989D01*
X76223640Y-51142147D01*
X76194615Y-51205703D01*
X76188583Y-51212181D01*
X73578867Y-53821896D01*
X73517544Y-53855381D01*
X73452868Y-53852146D01*
X73316240Y-53807753D01*
X73154957Y-53782208D01*
X73106287Y-53774500D01*
X72893713Y-53774500D01*
X72845042Y-53782208D01*
X72683760Y-53807753D01*
X72481585Y-53873444D01*
X72292179Y-53969951D01*
X72120213Y-54094890D01*
X71969894Y-54245209D01*
X71969890Y-54245214D01*
X71850318Y-54409793D01*
X71794989Y-54452459D01*
X71725375Y-54458438D01*
X71663580Y-54425833D01*
X71649682Y-54409793D01*
X71530109Y-54245214D01*
X71530105Y-54245209D01*
X71379786Y-54094890D01*
X71207820Y-53969951D01*
X71018414Y-53873444D01*
X71018413Y-53873443D01*
X71018412Y-53873443D01*
X70816243Y-53807754D01*
X70816241Y-53807753D01*
X70816240Y-53807753D01*
X70654957Y-53782208D01*
X70606287Y-53774500D01*
X70393713Y-53774500D01*
X70345042Y-53782208D01*
X70183760Y-53807753D01*
X69981585Y-53873444D01*
X69792179Y-53969951D01*
X69620213Y-54094890D01*
X69469894Y-54245209D01*
X69469890Y-54245214D01*
X69350318Y-54409793D01*
X69294989Y-54452459D01*
X69225375Y-54458438D01*
X69163580Y-54425833D01*
X69149682Y-54409793D01*
X69030109Y-54245214D01*
X69030105Y-54245209D01*
X68879786Y-54094890D01*
X68707820Y-53969951D01*
X68518414Y-53873444D01*
X68518413Y-53873443D01*
X68518412Y-53873443D01*
X68316243Y-53807754D01*
X68316241Y-53807753D01*
X68316240Y-53807753D01*
X68154957Y-53782208D01*
X68106287Y-53774500D01*
X67893713Y-53774500D01*
X67845042Y-53782208D01*
X67683760Y-53807753D01*
X67481585Y-53873444D01*
X67292179Y-53969951D01*
X67120213Y-54094890D01*
X66969894Y-54245209D01*
X66969890Y-54245214D01*
X66850318Y-54409793D01*
X66794989Y-54452459D01*
X66725375Y-54458438D01*
X66663580Y-54425833D01*
X66649682Y-54409793D01*
X66530109Y-54245214D01*
X66530105Y-54245209D01*
X66379786Y-54094890D01*
X66207820Y-53969951D01*
X66018414Y-53873444D01*
X66018413Y-53873443D01*
X66018412Y-53873443D01*
X65816243Y-53807754D01*
X65816241Y-53807753D01*
X65816240Y-53807753D01*
X65654957Y-53782208D01*
X65606287Y-53774500D01*
X65393713Y-53774500D01*
X65345042Y-53782208D01*
X65183760Y-53807753D01*
X64981585Y-53873444D01*
X64792179Y-53969951D01*
X64620215Y-54094889D01*
X64481398Y-54233706D01*
X64420075Y-54267190D01*
X64350383Y-54262206D01*
X64294450Y-54220334D01*
X64288178Y-54211120D01*
X64192712Y-54056344D01*
X64068657Y-53932289D01*
X64068656Y-53932288D01*
X63943969Y-53855381D01*
X63919336Y-53840187D01*
X63919331Y-53840185D01*
X63917862Y-53839698D01*
X63752797Y-53785001D01*
X63752795Y-53785000D01*
X63650010Y-53774500D01*
X62349998Y-53774500D01*
X62349981Y-53774501D01*
X62247203Y-53785000D01*
X62247200Y-53785001D01*
X62080668Y-53840185D01*
X62080663Y-53840187D01*
X61931342Y-53932289D01*
X61807289Y-54056342D01*
X61715187Y-54205663D01*
X61715185Y-54205668D01*
X61710325Y-54220334D01*
X61660001Y-54372203D01*
X61660001Y-54372204D01*
X61660000Y-54372204D01*
X61649500Y-54474983D01*
X61649500Y-56025001D01*
X61649501Y-56025018D01*
X61660000Y-56127796D01*
X61660001Y-56127799D01*
X61705894Y-56266294D01*
X61715186Y-56294334D01*
X61807288Y-56443656D01*
X61931344Y-56567712D01*
X62080666Y-56659814D01*
X62247203Y-56714999D01*
X62349991Y-56725500D01*
X63650008Y-56725499D01*
X63752797Y-56714999D01*
X63919334Y-56659814D01*
X64068656Y-56567712D01*
X64192712Y-56443656D01*
X64284814Y-56294334D01*
X64284814Y-56294331D01*
X64288178Y-56288879D01*
X64340126Y-56242154D01*
X64409088Y-56230931D01*
X64473170Y-56258774D01*
X64481398Y-56266294D01*
X64620213Y-56405109D01*
X64792179Y-56530048D01*
X64792181Y-56530049D01*
X64792184Y-56530051D01*
X64981588Y-56626557D01*
X65183757Y-56692246D01*
X65393713Y-56725500D01*
X65393714Y-56725500D01*
X65606286Y-56725500D01*
X65606287Y-56725500D01*
X65816243Y-56692246D01*
X66018412Y-56626557D01*
X66207816Y-56530051D01*
X66251705Y-56498164D01*
X66379786Y-56405109D01*
X66379788Y-56405106D01*
X66379792Y-56405104D01*
X66530104Y-56254792D01*
X66649683Y-56090204D01*
X66705011Y-56047540D01*
X66774624Y-56041561D01*
X66836420Y-56074166D01*
X66850313Y-56090199D01*
X66952560Y-56230931D01*
X66969896Y-56254792D01*
X67120213Y-56405109D01*
X67292184Y-56530051D01*
X67292184Y-56530052D01*
X67331793Y-56550233D01*
X67382590Y-56598206D01*
X67399500Y-56660718D01*
X67399500Y-56949902D01*
X67379815Y-57016941D01*
X67363181Y-57037583D01*
X60412083Y-63988681D01*
X60350760Y-64022166D01*
X60324402Y-64025000D01*
X59404146Y-64025000D01*
X59442630Y-63958343D01*
X59475000Y-63837535D01*
X59475000Y-63712465D01*
X59442630Y-63591657D01*
X59404146Y-63525000D01*
X60347030Y-63525000D01*
X60316757Y-63333872D01*
X60316757Y-63333869D01*
X60251095Y-63131782D01*
X60154620Y-62942442D01*
X60029727Y-62770540D01*
X60029723Y-62770535D01*
X59879464Y-62620276D01*
X59879459Y-62620272D01*
X59707557Y-62495379D01*
X59518215Y-62398903D01*
X59316124Y-62333241D01*
X59250000Y-62322768D01*
X59250000Y-63370854D01*
X59183343Y-63332370D01*
X59062535Y-63300000D01*
X58937465Y-63300000D01*
X58816657Y-63332370D01*
X58750000Y-63370854D01*
X58750000Y-62322768D01*
X58749999Y-62322768D01*
X58683875Y-62333241D01*
X58481784Y-62398903D01*
X58292442Y-62495379D01*
X58120540Y-62620272D01*
X58120535Y-62620276D01*
X57970276Y-62770535D01*
X57970272Y-62770540D01*
X57850627Y-62935218D01*
X57795297Y-62977884D01*
X57725684Y-62983863D01*
X57663889Y-62951257D01*
X57649991Y-62935218D01*
X57530109Y-62770214D01*
X57530105Y-62770209D01*
X57379786Y-62619890D01*
X57207820Y-62494951D01*
X57018414Y-62398444D01*
X57018413Y-62398443D01*
X57018412Y-62398443D01*
X56816243Y-62332754D01*
X56816241Y-62332753D01*
X56816240Y-62332753D01*
X56654957Y-62307208D01*
X56606287Y-62299500D01*
X56393713Y-62299500D01*
X56345042Y-62307208D01*
X56183760Y-62332753D01*
X55981585Y-62398444D01*
X55792179Y-62494951D01*
X55620215Y-62619889D01*
X55481398Y-62758706D01*
X55420075Y-62792190D01*
X55350383Y-62787206D01*
X55294450Y-62745334D01*
X55288178Y-62736120D01*
X55192712Y-62581344D01*
X55068657Y-62457289D01*
X55068656Y-62457288D01*
X54919334Y-62365186D01*
X54752797Y-62310001D01*
X54752795Y-62310000D01*
X54650010Y-62299500D01*
X53349998Y-62299500D01*
X53349981Y-62299501D01*
X53247203Y-62310000D01*
X53247200Y-62310001D01*
X53080668Y-62365185D01*
X53080663Y-62365187D01*
X52931342Y-62457289D01*
X52807289Y-62581342D01*
X52715187Y-62730663D01*
X52715185Y-62730668D01*
X52705894Y-62758706D01*
X52660001Y-62897203D01*
X52660001Y-62897204D01*
X52660000Y-62897204D01*
X52649500Y-62999983D01*
X52649500Y-64550001D01*
X52649501Y-64550018D01*
X52660000Y-64652796D01*
X52660001Y-64652799D01*
X52705749Y-64790856D01*
X52715186Y-64819334D01*
X52807288Y-64968656D01*
X52931344Y-65092712D01*
X53080666Y-65184814D01*
X53247203Y-65239999D01*
X53349991Y-65250500D01*
X54650008Y-65250499D01*
X54752797Y-65239999D01*
X54919334Y-65184814D01*
X55068656Y-65092712D01*
X55192712Y-64968656D01*
X55284814Y-64819334D01*
X55284814Y-64819331D01*
X55288178Y-64813879D01*
X55340126Y-64767154D01*
X55409088Y-64755931D01*
X55473170Y-64783774D01*
X55481398Y-64791294D01*
X55620213Y-64930109D01*
X55792179Y-65055048D01*
X55792181Y-65055049D01*
X55792184Y-65055051D01*
X55981588Y-65151557D01*
X56183757Y-65217246D01*
X56381725Y-65248601D01*
X56444860Y-65278530D01*
X56481791Y-65337842D01*
X56480793Y-65407704D01*
X56450008Y-65458755D01*
X52617999Y-69290764D01*
X52556676Y-69324249D01*
X52510919Y-69325556D01*
X52501095Y-69324000D01*
X52501092Y-69324000D01*
X52264908Y-69324000D01*
X52264903Y-69324000D01*
X52031631Y-69360946D01*
X51807003Y-69433933D01*
X51596566Y-69541157D01*
X51537052Y-69584397D01*
X51405490Y-69679983D01*
X51405488Y-69679985D01*
X51405487Y-69679985D01*
X51238485Y-69846987D01*
X51238485Y-69846988D01*
X51238483Y-69846990D01*
X51192712Y-69909988D01*
X51099657Y-70038066D01*
X50992433Y-70248503D01*
X50919446Y-70473131D01*
X50882500Y-70706402D01*
X50882500Y-70942597D01*
X50919446Y-71175868D01*
X50992433Y-71400496D01*
X51099519Y-71610663D01*
X51099657Y-71610933D01*
X51238483Y-71802010D01*
X51405490Y-71969017D01*
X51504028Y-72040609D01*
X51596568Y-72107844D01*
X51671177Y-72145858D01*
X51714794Y-72168082D01*
X51765590Y-72216056D01*
X51782500Y-72278567D01*
X51782500Y-75870431D01*
X51762815Y-75937470D01*
X51714796Y-75980915D01*
X51596568Y-76041155D01*
X51513044Y-76101840D01*
X51405490Y-76179983D01*
X51405488Y-76179985D01*
X51405487Y-76179985D01*
X51238485Y-76346987D01*
X51238485Y-76346988D01*
X51238483Y-76346990D01*
X51190284Y-76413330D01*
X51099657Y-76538066D01*
X50992433Y-76748503D01*
X50919446Y-76973131D01*
X50882500Y-77206402D01*
X50882500Y-77442597D01*
X50919446Y-77675868D01*
X50992433Y-77900496D01*
X51099519Y-78110663D01*
X51099657Y-78110933D01*
X51238483Y-78302010D01*
X51405490Y-78469017D01*
X51596567Y-78607843D01*
X51630240Y-78625000D01*
X51807003Y-78715066D01*
X51807005Y-78715066D01*
X51807008Y-78715068D01*
X51927412Y-78754189D01*
X52031631Y-78788053D01*
X52264903Y-78825000D01*
X52264908Y-78825000D01*
X52501097Y-78825000D01*
X52734368Y-78788053D01*
X52958992Y-78715068D01*
X53169433Y-78607843D01*
X53360510Y-78469017D01*
X53527517Y-78302010D01*
X53666343Y-78110933D01*
X53773568Y-77900492D01*
X53846553Y-77675868D01*
X53852706Y-77637018D01*
X53883500Y-77442597D01*
X53883500Y-77206447D01*
X55383000Y-77206447D01*
X55383000Y-77442552D01*
X55419934Y-77675747D01*
X55492897Y-77900302D01*
X55600087Y-78110674D01*
X55660338Y-78193604D01*
X55660340Y-78193605D01*
X56359212Y-77494733D01*
X56370482Y-77536792D01*
X56442890Y-77662208D01*
X56545292Y-77764610D01*
X56670708Y-77837018D01*
X56712765Y-77848287D01*
X56013893Y-78547158D01*
X56096828Y-78607414D01*
X56307197Y-78714602D01*
X56531752Y-78787565D01*
X56531751Y-78787565D01*
X56764948Y-78824500D01*
X57001052Y-78824500D01*
X57234247Y-78787565D01*
X57458802Y-78714602D01*
X57669163Y-78607418D01*
X57669169Y-78607414D01*
X57752104Y-78547158D01*
X57752105Y-78547158D01*
X57053233Y-77848287D01*
X57095292Y-77837018D01*
X57220708Y-77764610D01*
X57323110Y-77662208D01*
X57395518Y-77536792D01*
X57406787Y-77494734D01*
X58105658Y-78193605D01*
X58105658Y-78193604D01*
X58165914Y-78110669D01*
X58165918Y-78110663D01*
X58273102Y-77900302D01*
X58346065Y-77675747D01*
X58383000Y-77442552D01*
X58383000Y-77206447D01*
X58346065Y-76973252D01*
X58273102Y-76748697D01*
X58165914Y-76538328D01*
X58105658Y-76455394D01*
X58105658Y-76455393D01*
X57406787Y-77154265D01*
X57395518Y-77112208D01*
X57323110Y-76986792D01*
X57220708Y-76884390D01*
X57095292Y-76811982D01*
X57053234Y-76800712D01*
X57752105Y-76101840D01*
X57752104Y-76101838D01*
X57669174Y-76041587D01*
X57458802Y-75934397D01*
X57234247Y-75861434D01*
X57234248Y-75861434D01*
X57001052Y-75824500D01*
X56764948Y-75824500D01*
X56531752Y-75861434D01*
X56307197Y-75934397D01*
X56096830Y-76041584D01*
X56013894Y-76101840D01*
X56712766Y-76800712D01*
X56670708Y-76811982D01*
X56545292Y-76884390D01*
X56442890Y-76986792D01*
X56370482Y-77112208D01*
X56359212Y-77154266D01*
X55660340Y-76455394D01*
X55600084Y-76538330D01*
X55492897Y-76748697D01*
X55419934Y-76973252D01*
X55383000Y-77206447D01*
X53883500Y-77206447D01*
X53883500Y-77206402D01*
X53846553Y-76973131D01*
X53781569Y-76773132D01*
X53773568Y-76748508D01*
X53773566Y-76748505D01*
X53773566Y-76748503D01*
X53717002Y-76637491D01*
X53666343Y-76538067D01*
X53527517Y-76346990D01*
X53360510Y-76179983D01*
X53252953Y-76101838D01*
X53169431Y-76041155D01*
X53051204Y-75980915D01*
X53000409Y-75932941D01*
X52983500Y-75870431D01*
X52983500Y-72278567D01*
X53003185Y-72211528D01*
X53051205Y-72168082D01*
X53169433Y-72107843D01*
X53360510Y-71969017D01*
X53527517Y-71802010D01*
X53666343Y-71610933D01*
X53773568Y-71400492D01*
X53846553Y-71175868D01*
X53859320Y-71095261D01*
X53883500Y-70942597D01*
X53883500Y-70706447D01*
X55383000Y-70706447D01*
X55383000Y-70942552D01*
X55419934Y-71175747D01*
X55492897Y-71400302D01*
X55600087Y-71610674D01*
X55660338Y-71693604D01*
X55660340Y-71693605D01*
X56359212Y-70994733D01*
X56370482Y-71036792D01*
X56442890Y-71162208D01*
X56545292Y-71264610D01*
X56670708Y-71337018D01*
X56712765Y-71348287D01*
X56013893Y-72047158D01*
X56096828Y-72107414D01*
X56307197Y-72214602D01*
X56531752Y-72287565D01*
X56531751Y-72287565D01*
X56764948Y-72324500D01*
X57001052Y-72324500D01*
X57234247Y-72287565D01*
X57458802Y-72214602D01*
X57669163Y-72107418D01*
X57669169Y-72107414D01*
X57752104Y-72047158D01*
X57752105Y-72047158D01*
X57053233Y-71348287D01*
X57095292Y-71337018D01*
X57220708Y-71264610D01*
X57323110Y-71162208D01*
X57395518Y-71036792D01*
X57406787Y-70994734D01*
X58105658Y-71693605D01*
X58105658Y-71693604D01*
X58165914Y-71610669D01*
X58165918Y-71610663D01*
X58273102Y-71400302D01*
X58346065Y-71175747D01*
X58383000Y-70942552D01*
X58383000Y-70706447D01*
X58346065Y-70473252D01*
X58273102Y-70248697D01*
X58165914Y-70038328D01*
X58105658Y-69955394D01*
X58105658Y-69955393D01*
X57406787Y-70654265D01*
X57395518Y-70612208D01*
X57323110Y-70486792D01*
X57220708Y-70384390D01*
X57095292Y-70311982D01*
X57053234Y-70300712D01*
X57752105Y-69601840D01*
X57752104Y-69601838D01*
X57669174Y-69541587D01*
X57458802Y-69434397D01*
X57234247Y-69361434D01*
X57234248Y-69361434D01*
X57001052Y-69324500D01*
X56764948Y-69324500D01*
X56531752Y-69361434D01*
X56307197Y-69434397D01*
X56096830Y-69541584D01*
X56013894Y-69601840D01*
X56712766Y-70300712D01*
X56670708Y-70311982D01*
X56545292Y-70384390D01*
X56442890Y-70486792D01*
X56370482Y-70612208D01*
X56359212Y-70654266D01*
X55660340Y-69955394D01*
X55600084Y-70038330D01*
X55492897Y-70248697D01*
X55419934Y-70473252D01*
X55383000Y-70706447D01*
X53883500Y-70706447D01*
X53883500Y-70706402D01*
X53846553Y-70473131D01*
X53786007Y-70286792D01*
X53773568Y-70248508D01*
X53773566Y-70248505D01*
X53773566Y-70248503D01*
X53736646Y-70176044D01*
X53674441Y-70053961D01*
X53661546Y-69985295D01*
X53687822Y-69920555D01*
X53697237Y-69909997D01*
X57220417Y-66386819D01*
X57281740Y-66353334D01*
X57308098Y-66350500D01*
X59413331Y-66350500D01*
X59413347Y-66350501D01*
X59420943Y-66350501D01*
X59579054Y-66350501D01*
X59579057Y-66350501D01*
X59731785Y-66309577D01*
X59781904Y-66280639D01*
X59868716Y-66230520D01*
X59980520Y-66118716D01*
X59980520Y-66118714D01*
X59990728Y-66108507D01*
X59990729Y-66108504D01*
X60687820Y-65411414D01*
X60749142Y-65377930D01*
X60818834Y-65382914D01*
X60874767Y-65424786D01*
X60899184Y-65490250D01*
X60899500Y-65499096D01*
X60899500Y-76199902D01*
X60879815Y-76266941D01*
X60863181Y-76287583D01*
X51902481Y-85248282D01*
X51902479Y-85248285D01*
X51852361Y-85335094D01*
X51852359Y-85335096D01*
X51823425Y-85385209D01*
X51823424Y-85385210D01*
X51823423Y-85385215D01*
X51782499Y-85537943D01*
X51782499Y-85537945D01*
X51782499Y-85706046D01*
X51782500Y-85706059D01*
X51782500Y-90870431D01*
X51762815Y-90937470D01*
X51714796Y-90980915D01*
X51596568Y-91041155D01*
X51513044Y-91101840D01*
X51405490Y-91179983D01*
X51405488Y-91179985D01*
X51405487Y-91179985D01*
X51238485Y-91346987D01*
X51238485Y-91346988D01*
X51238483Y-91346990D01*
X51178862Y-91429050D01*
X51099657Y-91538066D01*
X50992433Y-91748503D01*
X50919446Y-91973131D01*
X50882500Y-92206402D01*
X50882500Y-92442597D01*
X50919446Y-92675868D01*
X50992433Y-92900496D01*
X51096536Y-93104808D01*
X51099657Y-93110933D01*
X51238483Y-93302010D01*
X51405490Y-93469017D01*
X51513042Y-93547158D01*
X51596568Y-93607844D01*
X51629258Y-93624500D01*
X51714794Y-93668082D01*
X51765590Y-93716056D01*
X51782500Y-93778567D01*
X51782500Y-97370431D01*
X51762815Y-97437470D01*
X51714796Y-97480915D01*
X51596568Y-97541155D01*
X51513044Y-97601840D01*
X51405490Y-97679983D01*
X51405488Y-97679985D01*
X51405487Y-97679985D01*
X51238485Y-97846987D01*
X51238485Y-97846988D01*
X51238483Y-97846990D01*
X51178862Y-97929050D01*
X51099657Y-98038066D01*
X50992433Y-98248503D01*
X50919446Y-98473131D01*
X50882500Y-98706402D01*
X50882500Y-98942597D01*
X50919446Y-99175868D01*
X50992433Y-99400496D01*
X51099519Y-99610663D01*
X51099657Y-99610933D01*
X51238483Y-99802010D01*
X51405490Y-99969017D01*
X51596567Y-100107843D01*
X51630240Y-100125000D01*
X51807003Y-100215066D01*
X51807005Y-100215066D01*
X51807008Y-100215068D01*
X51927412Y-100254189D01*
X52031631Y-100288053D01*
X52264903Y-100325000D01*
X52264908Y-100325000D01*
X52501097Y-100325000D01*
X52734368Y-100288053D01*
X52735870Y-100287565D01*
X52958992Y-100215068D01*
X53169433Y-100107843D01*
X53360510Y-99969017D01*
X53527517Y-99802010D01*
X53666343Y-99610933D01*
X53773568Y-99400492D01*
X53846553Y-99175868D01*
X53859037Y-99097048D01*
X53883500Y-98942597D01*
X53883500Y-98706447D01*
X55383000Y-98706447D01*
X55383000Y-98942552D01*
X55419934Y-99175747D01*
X55492897Y-99400302D01*
X55600087Y-99610674D01*
X55660338Y-99693604D01*
X55660340Y-99693605D01*
X56359212Y-98994733D01*
X56370482Y-99036792D01*
X56442890Y-99162208D01*
X56545292Y-99264610D01*
X56670708Y-99337018D01*
X56712765Y-99348287D01*
X56013893Y-100047158D01*
X56096828Y-100107414D01*
X56307197Y-100214602D01*
X56531752Y-100287565D01*
X56531751Y-100287565D01*
X56764948Y-100324500D01*
X57001052Y-100324500D01*
X57234247Y-100287565D01*
X57458802Y-100214602D01*
X57669163Y-100107418D01*
X57669169Y-100107414D01*
X57752104Y-100047158D01*
X57752105Y-100047158D01*
X57053233Y-99348287D01*
X57095292Y-99337018D01*
X57220708Y-99264610D01*
X57323110Y-99162208D01*
X57395518Y-99036792D01*
X57406787Y-98994734D01*
X58105658Y-99693605D01*
X58105658Y-99693604D01*
X58165914Y-99610669D01*
X58165918Y-99610663D01*
X58273102Y-99400302D01*
X58346065Y-99175747D01*
X58383000Y-98942552D01*
X58383000Y-98706447D01*
X58346065Y-98473252D01*
X58273102Y-98248697D01*
X58165914Y-98038328D01*
X58105658Y-97955394D01*
X58105658Y-97955393D01*
X57406787Y-98654265D01*
X57395518Y-98612208D01*
X57323110Y-98486792D01*
X57220708Y-98384390D01*
X57095292Y-98311982D01*
X57053234Y-98300712D01*
X57752105Y-97601840D01*
X57752104Y-97601838D01*
X57669174Y-97541587D01*
X57458802Y-97434397D01*
X57234247Y-97361434D01*
X57234248Y-97361434D01*
X57001052Y-97324500D01*
X56764948Y-97324500D01*
X56531752Y-97361434D01*
X56307197Y-97434397D01*
X56096830Y-97541584D01*
X56013894Y-97601840D01*
X56712766Y-98300712D01*
X56670708Y-98311982D01*
X56545292Y-98384390D01*
X56442890Y-98486792D01*
X56370482Y-98612208D01*
X56359212Y-98654266D01*
X55660340Y-97955394D01*
X55600084Y-98038330D01*
X55492897Y-98248697D01*
X55419934Y-98473252D01*
X55383000Y-98706447D01*
X53883500Y-98706447D01*
X53883500Y-98706402D01*
X53846553Y-98473131D01*
X53796722Y-98319769D01*
X53773568Y-98248508D01*
X53773566Y-98248505D01*
X53773566Y-98248503D01*
X53708505Y-98120814D01*
X53666343Y-98038067D01*
X53527517Y-97846990D01*
X53360510Y-97679983D01*
X53252953Y-97601838D01*
X53169431Y-97541155D01*
X53051204Y-97480915D01*
X53000409Y-97432941D01*
X52983500Y-97370431D01*
X52983500Y-93778567D01*
X53003185Y-93711528D01*
X53051205Y-93668082D01*
X53169433Y-93607843D01*
X53360510Y-93469017D01*
X53527517Y-93302010D01*
X53666343Y-93110933D01*
X53773568Y-92900492D01*
X53846553Y-92675868D01*
X53857069Y-92609475D01*
X53883500Y-92442597D01*
X53883500Y-92206447D01*
X55383000Y-92206447D01*
X55383000Y-92442552D01*
X55419934Y-92675747D01*
X55492897Y-92900302D01*
X55600087Y-93110674D01*
X55660338Y-93193604D01*
X55660340Y-93193605D01*
X56359212Y-92494733D01*
X56370482Y-92536792D01*
X56442890Y-92662208D01*
X56545292Y-92764610D01*
X56670708Y-92837018D01*
X56712765Y-92848287D01*
X56013893Y-93547158D01*
X56096828Y-93607414D01*
X56307197Y-93714602D01*
X56531752Y-93787565D01*
X56531751Y-93787565D01*
X56764948Y-93824500D01*
X57001052Y-93824500D01*
X57234247Y-93787565D01*
X57458802Y-93714602D01*
X57669163Y-93607418D01*
X57669169Y-93607414D01*
X57752104Y-93547158D01*
X57752105Y-93547158D01*
X57053233Y-92848287D01*
X57095292Y-92837018D01*
X57220708Y-92764610D01*
X57323110Y-92662208D01*
X57395518Y-92536792D01*
X57406787Y-92494734D01*
X58105658Y-93193605D01*
X58105658Y-93193604D01*
X58165914Y-93110669D01*
X58165918Y-93110663D01*
X58273102Y-92900302D01*
X58289468Y-92849935D01*
X58289468Y-92849934D01*
X58346065Y-92675745D01*
X58383000Y-92442552D01*
X58383000Y-92206447D01*
X58346065Y-91973252D01*
X58273102Y-91748697D01*
X58165914Y-91538328D01*
X58105658Y-91455394D01*
X58105658Y-91455393D01*
X57406787Y-92154265D01*
X57395518Y-92112208D01*
X57323110Y-91986792D01*
X57220708Y-91884390D01*
X57095292Y-91811982D01*
X57053234Y-91800712D01*
X57752105Y-91101840D01*
X57752104Y-91101838D01*
X57669174Y-91041587D01*
X57458802Y-90934397D01*
X57234247Y-90861434D01*
X57234248Y-90861434D01*
X57001052Y-90824500D01*
X56764948Y-90824500D01*
X56531752Y-90861434D01*
X56307197Y-90934397D01*
X56096830Y-91041584D01*
X56013894Y-91101840D01*
X56712766Y-91800712D01*
X56670708Y-91811982D01*
X56545292Y-91884390D01*
X56442890Y-91986792D01*
X56370482Y-92112208D01*
X56359212Y-92154266D01*
X55660340Y-91455394D01*
X55600084Y-91538330D01*
X55492897Y-91748697D01*
X55419934Y-91973252D01*
X55383000Y-92206447D01*
X53883500Y-92206447D01*
X53883500Y-92206402D01*
X53846553Y-91973131D01*
X53781569Y-91773132D01*
X53773568Y-91748508D01*
X53773566Y-91748505D01*
X53773566Y-91748503D01*
X53717002Y-91637491D01*
X53666343Y-91538067D01*
X53527517Y-91346990D01*
X53360510Y-91179983D01*
X53252953Y-91101838D01*
X53169431Y-91041155D01*
X53051204Y-90980915D01*
X53000409Y-90932941D01*
X52983500Y-90870431D01*
X52983500Y-85917096D01*
X53003185Y-85850057D01*
X53019814Y-85829420D01*
X61858506Y-76990727D01*
X61858511Y-76990724D01*
X61868714Y-76980520D01*
X61868716Y-76980520D01*
X61980520Y-76868716D01*
X62035705Y-76773132D01*
X62059577Y-76731785D01*
X62100501Y-76579057D01*
X62100501Y-76420943D01*
X62100501Y-76413348D01*
X62100500Y-76413330D01*
X62100500Y-73623019D01*
X62120185Y-73555980D01*
X62172989Y-73510225D01*
X62242147Y-73500281D01*
X62305703Y-73529306D01*
X62343477Y-73588084D01*
X62346117Y-73598828D01*
X62406064Y-73900212D01*
X62406067Y-73900223D01*
X62511614Y-74248165D01*
X62650754Y-74584078D01*
X62650756Y-74584083D01*
X62822140Y-74904720D01*
X62822151Y-74904738D01*
X63024140Y-75207035D01*
X63024150Y-75207049D01*
X63254807Y-75488106D01*
X63511893Y-75745192D01*
X63511898Y-75745196D01*
X63511899Y-75745197D01*
X63792956Y-75975854D01*
X64095268Y-76177853D01*
X64095277Y-76177858D01*
X64095279Y-76177859D01*
X64415916Y-76349243D01*
X64415918Y-76349243D01*
X64415924Y-76349247D01*
X64751836Y-76488386D01*
X65099767Y-76593930D01*
X65099773Y-76593931D01*
X65099776Y-76593932D01*
X65099787Y-76593935D01*
X65456369Y-76664862D01*
X65818206Y-76700500D01*
X65818209Y-76700500D01*
X66181791Y-76700500D01*
X66181794Y-76700500D01*
X66543631Y-76664862D01*
X66613045Y-76651054D01*
X66900212Y-76593935D01*
X66900223Y-76593932D01*
X66900223Y-76593931D01*
X66900233Y-76593930D01*
X67248164Y-76488386D01*
X67584076Y-76349247D01*
X67904732Y-76177853D01*
X68207044Y-75975854D01*
X68488101Y-75745197D01*
X68745197Y-75488101D01*
X68975854Y-75207044D01*
X69177853Y-74904732D01*
X69349247Y-74584076D01*
X69488386Y-74248164D01*
X69593930Y-73900233D01*
X69593932Y-73900223D01*
X69593935Y-73900212D01*
X69656020Y-73588084D01*
X69664862Y-73543631D01*
X69700500Y-73181794D01*
X69700500Y-72818206D01*
X69664862Y-72456369D01*
X69633858Y-72300499D01*
X69593935Y-72099787D01*
X69593932Y-72099776D01*
X69593931Y-72099773D01*
X69593930Y-72099767D01*
X69488386Y-71751836D01*
X69349247Y-71415924D01*
X69346579Y-71410933D01*
X69177859Y-71095279D01*
X69177858Y-71095277D01*
X69177853Y-71095268D01*
X68975854Y-70792956D01*
X68745197Y-70511899D01*
X68745196Y-70511898D01*
X68745192Y-70511893D01*
X68488106Y-70254807D01*
X68207049Y-70024150D01*
X68207048Y-70024149D01*
X68207044Y-70024146D01*
X67904732Y-69822147D01*
X67904727Y-69822144D01*
X67904720Y-69822140D01*
X67584083Y-69650756D01*
X67584078Y-69650754D01*
X67536788Y-69631166D01*
X67465989Y-69601840D01*
X67248165Y-69511614D01*
X66900223Y-69406067D01*
X66900212Y-69406064D01*
X66543630Y-69335137D01*
X66271111Y-69308296D01*
X66181794Y-69299500D01*
X65818206Y-69299500D01*
X65735679Y-69307628D01*
X65456369Y-69335137D01*
X65099787Y-69406064D01*
X65099776Y-69406067D01*
X64751834Y-69511614D01*
X64415921Y-69650754D01*
X64415916Y-69650756D01*
X64095279Y-69822140D01*
X64095261Y-69822151D01*
X63792964Y-70024140D01*
X63792950Y-70024150D01*
X63511893Y-70254807D01*
X63254807Y-70511893D01*
X63024150Y-70792950D01*
X63024140Y-70792964D01*
X62822151Y-71095261D01*
X62822140Y-71095279D01*
X62650756Y-71415916D01*
X62650754Y-71415921D01*
X62511614Y-71751834D01*
X62406067Y-72099776D01*
X62406064Y-72099787D01*
X62346117Y-72401171D01*
X62313733Y-72463082D01*
X62253017Y-72497656D01*
X62183247Y-72493917D01*
X62126575Y-72453051D01*
X62100994Y-72388033D01*
X62100500Y-72376980D01*
X62100500Y-64800096D01*
X62120185Y-64733057D01*
X62136814Y-64712420D01*
X70115974Y-56733259D01*
X70177295Y-56699776D01*
X70223047Y-56698469D01*
X70393713Y-56725500D01*
X70393714Y-56725500D01*
X70606286Y-56725500D01*
X70606287Y-56725500D01*
X70816243Y-56692246D01*
X71018412Y-56626557D01*
X71207816Y-56530051D01*
X71251705Y-56498164D01*
X71379786Y-56405109D01*
X71379788Y-56405106D01*
X71379792Y-56405104D01*
X71530104Y-56254792D01*
X71649683Y-56090204D01*
X71705011Y-56047540D01*
X71774624Y-56041561D01*
X71836420Y-56074166D01*
X71850313Y-56090199D01*
X71952560Y-56230931D01*
X71969896Y-56254792D01*
X72120213Y-56405109D01*
X72292179Y-56530048D01*
X72292181Y-56530049D01*
X72292184Y-56530051D01*
X72481588Y-56626557D01*
X72683757Y-56692246D01*
X72893713Y-56725500D01*
X72893714Y-56725500D01*
X73106286Y-56725500D01*
X73106287Y-56725500D01*
X73316243Y-56692246D01*
X73518412Y-56626557D01*
X73707816Y-56530051D01*
X73751705Y-56498164D01*
X73879786Y-56405109D01*
X73879788Y-56405106D01*
X73879792Y-56405104D01*
X74030104Y-56254792D01*
X74149683Y-56090204D01*
X74205011Y-56047540D01*
X74274624Y-56041561D01*
X74336420Y-56074166D01*
X74350313Y-56090199D01*
X74452560Y-56230931D01*
X74469896Y-56254792D01*
X74620213Y-56405109D01*
X74792179Y-56530048D01*
X74792181Y-56530049D01*
X74792184Y-56530051D01*
X74981588Y-56626557D01*
X75183757Y-56692246D01*
X75393713Y-56725500D01*
X75393714Y-56725500D01*
X75606286Y-56725500D01*
X75606287Y-56725500D01*
X75816243Y-56692246D01*
X76018412Y-56626557D01*
X76207816Y-56530051D01*
X76251705Y-56498164D01*
X76379786Y-56405109D01*
X76379788Y-56405106D01*
X76379792Y-56405104D01*
X76530104Y-56254792D01*
X76649683Y-56090204D01*
X76705011Y-56047540D01*
X76774624Y-56041561D01*
X76836420Y-56074166D01*
X76850313Y-56090199D01*
X76952560Y-56230931D01*
X76969896Y-56254792D01*
X77120213Y-56405109D01*
X77292184Y-56530051D01*
X77292184Y-56530052D01*
X77331793Y-56550233D01*
X77382590Y-56598206D01*
X77399500Y-56660718D01*
X77399500Y-60413330D01*
X77399499Y-60413348D01*
X77399499Y-60579054D01*
X77399498Y-60579054D01*
X77440423Y-60731785D01*
X77469358Y-60781900D01*
X77469359Y-60781904D01*
X77469360Y-60781904D01*
X77496461Y-60828846D01*
X77519479Y-60868714D01*
X77519481Y-60868717D01*
X77638349Y-60987585D01*
X77638355Y-60987590D01*
X80040425Y-63389660D01*
X80073910Y-63450983D01*
X80074361Y-63453149D01*
X80105261Y-63608491D01*
X80105264Y-63608501D01*
X80165602Y-63754172D01*
X80165609Y-63754185D01*
X80253210Y-63885288D01*
X80253213Y-63885292D01*
X80364707Y-63996786D01*
X80364711Y-63996789D01*
X80495814Y-64084390D01*
X80495827Y-64084397D01*
X80641498Y-64144735D01*
X80641503Y-64144737D01*
X80773249Y-64170943D01*
X80796153Y-64175499D01*
X80796156Y-64175500D01*
X80796158Y-64175500D01*
X80953844Y-64175500D01*
X80953845Y-64175499D01*
X81108497Y-64144737D01*
X81254179Y-64084394D01*
X81385289Y-63996789D01*
X81496789Y-63885289D01*
X81584394Y-63754179D01*
X81644737Y-63608497D01*
X81675500Y-63453842D01*
X81675500Y-63296158D01*
X81675500Y-63296155D01*
X81675499Y-63296153D01*
X81644737Y-63141503D01*
X81644735Y-63141498D01*
X81584397Y-62995827D01*
X81584390Y-62995814D01*
X81496789Y-62864711D01*
X81496786Y-62864707D01*
X81385292Y-62753213D01*
X81385288Y-62753210D01*
X81254185Y-62665609D01*
X81254172Y-62665602D01*
X81108501Y-62605264D01*
X81108491Y-62605261D01*
X80953149Y-62574361D01*
X80891238Y-62541976D01*
X80889660Y-62540425D01*
X78636819Y-60287584D01*
X78603334Y-60226261D01*
X78600500Y-60199903D01*
X78600500Y-56660718D01*
X78620185Y-56593679D01*
X78668207Y-56550233D01*
X78707815Y-56530052D01*
X78707815Y-56530051D01*
X78707816Y-56530051D01*
X78826728Y-56443657D01*
X78879786Y-56405109D01*
X78879788Y-56405106D01*
X78879792Y-56405104D01*
X79030104Y-56254792D01*
X79030106Y-56254788D01*
X79030109Y-56254786D01*
X79155048Y-56082820D01*
X79155047Y-56082820D01*
X79155051Y-56082816D01*
X79251557Y-55893412D01*
X79317246Y-55691243D01*
X79350500Y-55481287D01*
X79350500Y-55018713D01*
X79317246Y-54808757D01*
X79251557Y-54606588D01*
X79155051Y-54417184D01*
X79155049Y-54417181D01*
X79155048Y-54417179D01*
X79030109Y-54245213D01*
X78879786Y-54094890D01*
X78707820Y-53969951D01*
X78518414Y-53873444D01*
X78518413Y-53873443D01*
X78518412Y-53873443D01*
X78316243Y-53807754D01*
X78316241Y-53807753D01*
X78316239Y-53807753D01*
X78103597Y-53774074D01*
X78040462Y-53744145D01*
X78003531Y-53684833D01*
X78004529Y-53614971D01*
X78035314Y-53563920D01*
X78407895Y-53191340D01*
X78962416Y-52636819D01*
X79023739Y-52603334D01*
X79050097Y-52600500D01*
X104201283Y-52600500D01*
X104268322Y-52620185D01*
X104288964Y-52636819D01*
X106863181Y-55211036D01*
X106896666Y-55272359D01*
X106899500Y-55298717D01*
X106899500Y-57825500D01*
X106879815Y-57892539D01*
X106827011Y-57938294D01*
X106775500Y-57949500D01*
X106671155Y-57949500D01*
X106516510Y-57980261D01*
X106516498Y-57980264D01*
X106370827Y-58040602D01*
X106370814Y-58040609D01*
X106239711Y-58128210D01*
X106239707Y-58128213D01*
X106128213Y-58239707D01*
X106128210Y-58239711D01*
X106040609Y-58370814D01*
X106040602Y-58370827D01*
X105980264Y-58516498D01*
X105980261Y-58516510D01*
X105949500Y-58671153D01*
X105949500Y-58828846D01*
X105980261Y-58983489D01*
X105980264Y-58983501D01*
X106040602Y-59129172D01*
X106040609Y-59129185D01*
X106128602Y-59260874D01*
X106149480Y-59327551D01*
X106149500Y-59329765D01*
X106149500Y-79913330D01*
X106149499Y-79913348D01*
X106149499Y-80079054D01*
X106149498Y-80079054D01*
X106190423Y-80231785D01*
X106219358Y-80281900D01*
X106219359Y-80281904D01*
X106219360Y-80281904D01*
X106269479Y-80368714D01*
X106269481Y-80368717D01*
X106388349Y-80487585D01*
X106388355Y-80487590D01*
X113113181Y-87212416D01*
X113146666Y-87273739D01*
X113149500Y-87300097D01*
X113149500Y-91144190D01*
X113129815Y-91211229D01*
X113113181Y-91231871D01*
X112390787Y-91954265D01*
X112379518Y-91912208D01*
X112307110Y-91786792D01*
X112204708Y-91684390D01*
X112079292Y-91611982D01*
X112037234Y-91600712D01*
X112736105Y-90901840D01*
X112736104Y-90901838D01*
X112653174Y-90841587D01*
X112442802Y-90734397D01*
X112218247Y-90661434D01*
X112218248Y-90661434D01*
X111985052Y-90624500D01*
X111748948Y-90624500D01*
X111515752Y-90661434D01*
X111291197Y-90734397D01*
X111080830Y-90841584D01*
X110997894Y-90901840D01*
X111696766Y-91600712D01*
X111654708Y-91611982D01*
X111529292Y-91684390D01*
X111426890Y-91786792D01*
X111354482Y-91912208D01*
X111343212Y-91954266D01*
X110644340Y-91255394D01*
X110584084Y-91338330D01*
X110476897Y-91548697D01*
X110403934Y-91773252D01*
X110367000Y-92006447D01*
X110367000Y-92242552D01*
X110403934Y-92475747D01*
X110476897Y-92700302D01*
X110584087Y-92910674D01*
X110644338Y-92993604D01*
X110644340Y-92993605D01*
X111343212Y-92294733D01*
X111354482Y-92336792D01*
X111426890Y-92462208D01*
X111529292Y-92564610D01*
X111654708Y-92637018D01*
X111696765Y-92648287D01*
X110997893Y-93347158D01*
X111080828Y-93407414D01*
X111291197Y-93514602D01*
X111515752Y-93587565D01*
X111515751Y-93587565D01*
X111748948Y-93624500D01*
X111985052Y-93624500D01*
X112218247Y-93587565D01*
X112442802Y-93514602D01*
X112653163Y-93407418D01*
X112653169Y-93407414D01*
X112736104Y-93347158D01*
X112736105Y-93347158D01*
X112037233Y-92648287D01*
X112079292Y-92637018D01*
X112204708Y-92564610D01*
X112307110Y-92462208D01*
X112379518Y-92336792D01*
X112390787Y-92294733D01*
X113113181Y-93017127D01*
X113146666Y-93078450D01*
X113149500Y-93104808D01*
X113149500Y-97644190D01*
X113129815Y-97711229D01*
X113113181Y-97731871D01*
X112390787Y-98454265D01*
X112379518Y-98412208D01*
X112307110Y-98286792D01*
X112204708Y-98184390D01*
X112079292Y-98111982D01*
X112037234Y-98100712D01*
X112736105Y-97401840D01*
X112736104Y-97401838D01*
X112653174Y-97341587D01*
X112442802Y-97234397D01*
X112218247Y-97161434D01*
X112218248Y-97161434D01*
X111985052Y-97124500D01*
X111748948Y-97124500D01*
X111515752Y-97161434D01*
X111291197Y-97234397D01*
X111080830Y-97341584D01*
X110997894Y-97401840D01*
X111696766Y-98100712D01*
X111654708Y-98111982D01*
X111529292Y-98184390D01*
X111426890Y-98286792D01*
X111354482Y-98412208D01*
X111343212Y-98454266D01*
X110644340Y-97755394D01*
X110584084Y-97838330D01*
X110476897Y-98048697D01*
X110403934Y-98273252D01*
X110367000Y-98506447D01*
X110367000Y-98742552D01*
X110403934Y-98975747D01*
X110476897Y-99200302D01*
X110584087Y-99410674D01*
X110644338Y-99493604D01*
X110644340Y-99493605D01*
X111343212Y-98794733D01*
X111354482Y-98836792D01*
X111426890Y-98962208D01*
X111529292Y-99064610D01*
X111654708Y-99137018D01*
X111696765Y-99148287D01*
X110997893Y-99847158D01*
X111080828Y-99907414D01*
X111291197Y-100014602D01*
X111515752Y-100087565D01*
X111515751Y-100087565D01*
X111748948Y-100124500D01*
X111985052Y-100124500D01*
X112218247Y-100087565D01*
X112442802Y-100014602D01*
X112653163Y-99907418D01*
X112653169Y-99907414D01*
X112736104Y-99847158D01*
X112736105Y-99847158D01*
X112037233Y-99148287D01*
X112079292Y-99137018D01*
X112204708Y-99064610D01*
X112307110Y-98962208D01*
X112379518Y-98836792D01*
X112390787Y-98794733D01*
X113089658Y-99493605D01*
X113089658Y-99493604D01*
X113132546Y-99434576D01*
X113147350Y-99423160D01*
X113158553Y-99408195D01*
X113174445Y-99402267D01*
X113187876Y-99391911D01*
X113206500Y-99390311D01*
X113224017Y-99383778D01*
X113240591Y-99387383D01*
X113257490Y-99385932D01*
X113274022Y-99394655D01*
X113292290Y-99398629D01*
X113317928Y-99417822D01*
X113319285Y-99418538D01*
X113320475Y-99419711D01*
X113381284Y-99480520D01*
X113381286Y-99480521D01*
X113388356Y-99487591D01*
X114863181Y-100962416D01*
X114896666Y-101023739D01*
X114899500Y-101050097D01*
X114899500Y-106049902D01*
X114879815Y-106116941D01*
X114863181Y-106137583D01*
X114485339Y-106515425D01*
X114424016Y-106548910D01*
X114421850Y-106549361D01*
X114266508Y-106580261D01*
X114266498Y-106580264D01*
X114120827Y-106640602D01*
X114120814Y-106640609D01*
X113989711Y-106728210D01*
X113989707Y-106728213D01*
X113878213Y-106839707D01*
X113878210Y-106839711D01*
X113790609Y-106970814D01*
X113790602Y-106970827D01*
X113730264Y-107116498D01*
X113730261Y-107116510D01*
X113699500Y-107271153D01*
X113699500Y-107428846D01*
X113730261Y-107583489D01*
X113730264Y-107583501D01*
X113790602Y-107729172D01*
X113790609Y-107729185D01*
X113878210Y-107860288D01*
X113878213Y-107860292D01*
X113989710Y-107971789D01*
X114024818Y-107995247D01*
X114069623Y-108048859D01*
X114078330Y-108118184D01*
X114048176Y-108181211D01*
X113988733Y-108217931D01*
X113931736Y-108219966D01*
X113828846Y-108199500D01*
X113828842Y-108199500D01*
X113671158Y-108199500D01*
X113671155Y-108199500D01*
X113516510Y-108230261D01*
X113516498Y-108230264D01*
X113370827Y-108290602D01*
X113370814Y-108290609D01*
X113239711Y-108378210D01*
X113239707Y-108378213D01*
X113128213Y-108489707D01*
X113128210Y-108489711D01*
X113040609Y-108620814D01*
X113040602Y-108620827D01*
X112980264Y-108766498D01*
X112980261Y-108766508D01*
X112949362Y-108921849D01*
X112916977Y-108983759D01*
X112915426Y-108985338D01*
X112537584Y-109363181D01*
X112476261Y-109396666D01*
X112449903Y-109399500D01*
X111674500Y-109399500D01*
X111607461Y-109379815D01*
X111561706Y-109327011D01*
X111550500Y-109275500D01*
X111550500Y-109171155D01*
X111550499Y-109171153D01*
X111519738Y-109016510D01*
X111519737Y-109016503D01*
X111506174Y-108983759D01*
X111459397Y-108870827D01*
X111459390Y-108870814D01*
X111371789Y-108739711D01*
X111371786Y-108739707D01*
X111260292Y-108628213D01*
X111260288Y-108628210D01*
X111129185Y-108540609D01*
X111129172Y-108540602D01*
X110983501Y-108480264D01*
X110983489Y-108480261D01*
X110828845Y-108449500D01*
X110828842Y-108449500D01*
X110671158Y-108449500D01*
X110671155Y-108449500D01*
X110516510Y-108480261D01*
X110516498Y-108480264D01*
X110370827Y-108540602D01*
X110370814Y-108540609D01*
X110239125Y-108628602D01*
X110172447Y-108649480D01*
X110170234Y-108649500D01*
X108550098Y-108649500D01*
X108483059Y-108629815D01*
X108462417Y-108613181D01*
X102636819Y-102787583D01*
X102603334Y-102726260D01*
X102600500Y-102699902D01*
X102600500Y-100839060D01*
X102600501Y-100839047D01*
X102600501Y-100670944D01*
X102559576Y-100518214D01*
X102559573Y-100518209D01*
X102480524Y-100381290D01*
X102480518Y-100381282D01*
X101866160Y-99766924D01*
X101832675Y-99705601D01*
X101837659Y-99635909D01*
X101879531Y-99579976D01*
X101944995Y-99555559D01*
X101989832Y-99560581D01*
X102099767Y-99593930D01*
X102099773Y-99593931D01*
X102099776Y-99593932D01*
X102099787Y-99593935D01*
X102449049Y-99663406D01*
X102456369Y-99664862D01*
X102818206Y-99700500D01*
X102818209Y-99700500D01*
X103181791Y-99700500D01*
X103181794Y-99700500D01*
X103346696Y-99684258D01*
X103425511Y-99676496D01*
X103495097Y-99669642D01*
X103543631Y-99664862D01*
X103613045Y-99651054D01*
X103900212Y-99593935D01*
X103900223Y-99593932D01*
X103900223Y-99593931D01*
X103900233Y-99593930D01*
X104248164Y-99488386D01*
X104584076Y-99349247D01*
X104904732Y-99177853D01*
X105207044Y-98975854D01*
X105488101Y-98745197D01*
X105745197Y-98488101D01*
X105975854Y-98207044D01*
X106177853Y-97904732D01*
X106349247Y-97584076D01*
X106414454Y-97426651D01*
X106424812Y-97401646D01*
X106424812Y-97401645D01*
X106488386Y-97248164D01*
X106593930Y-96900233D01*
X106593932Y-96900223D01*
X106593935Y-96900212D01*
X106664862Y-96543630D01*
X106700500Y-96181790D01*
X106700500Y-95818209D01*
X106686541Y-95676485D01*
X106664862Y-95456369D01*
X106629883Y-95280514D01*
X106593935Y-95099787D01*
X106593932Y-95099776D01*
X106593931Y-95099773D01*
X106593930Y-95099767D01*
X106488386Y-94751836D01*
X106349247Y-94415924D01*
X106177853Y-94095268D01*
X105975854Y-93792956D01*
X105745197Y-93511899D01*
X105745196Y-93511898D01*
X105745192Y-93511893D01*
X105488106Y-93254807D01*
X105207049Y-93024150D01*
X105207048Y-93024149D01*
X105207044Y-93024146D01*
X104904732Y-92822147D01*
X104904727Y-92822144D01*
X104904720Y-92822140D01*
X104584083Y-92650756D01*
X104584078Y-92650754D01*
X104584073Y-92650752D01*
X104376108Y-92564610D01*
X104248165Y-92511614D01*
X103900223Y-92406067D01*
X103900212Y-92406064D01*
X103543630Y-92335137D01*
X103271111Y-92308296D01*
X103181794Y-92299500D01*
X102818206Y-92299500D01*
X102735679Y-92307628D01*
X102456369Y-92335137D01*
X102099787Y-92406064D01*
X102099776Y-92406067D01*
X101751834Y-92511614D01*
X101415921Y-92650754D01*
X101415916Y-92650756D01*
X101095279Y-92822140D01*
X101095261Y-92822151D01*
X100792964Y-93024140D01*
X100792950Y-93024150D01*
X100511893Y-93254807D01*
X100254807Y-93511893D01*
X100024150Y-93792950D01*
X100024140Y-93792964D01*
X99822151Y-94095261D01*
X99822140Y-94095279D01*
X99650756Y-94415916D01*
X99650754Y-94415921D01*
X99511614Y-94751834D01*
X99406067Y-95099776D01*
X99406064Y-95099787D01*
X99335137Y-95456369D01*
X99299500Y-95818209D01*
X99299500Y-96181790D01*
X99335137Y-96543630D01*
X99406064Y-96900212D01*
X99406067Y-96900223D01*
X99439417Y-97010163D01*
X99440040Y-97080030D01*
X99402791Y-97139143D01*
X99339497Y-97168734D01*
X99270253Y-97159407D01*
X99233075Y-97133839D01*
X94261819Y-92162583D01*
X94247115Y-92135655D01*
X94230523Y-92109837D01*
X94229631Y-92103636D01*
X94228334Y-92101260D01*
X94225500Y-92074902D01*
X94225500Y-89204765D01*
X94245185Y-89137726D01*
X94246398Y-89135874D01*
X94334390Y-89004185D01*
X94334390Y-89004184D01*
X94334394Y-89004179D01*
X94394737Y-88858497D01*
X94414113Y-88761085D01*
X94425638Y-88703150D01*
X94458023Y-88641239D01*
X94459518Y-88639716D01*
X103730520Y-79368716D01*
X103809577Y-79231784D01*
X103850501Y-79079057D01*
X103850501Y-78920942D01*
X103850501Y-78913347D01*
X103850500Y-78913329D01*
X103850500Y-54170945D01*
X103850500Y-54170943D01*
X103820660Y-54059577D01*
X103809577Y-54018215D01*
X103779657Y-53966392D01*
X103730520Y-53881284D01*
X103618716Y-53769480D01*
X103618715Y-53769479D01*
X103614385Y-53765149D01*
X103614374Y-53765139D01*
X102987590Y-53138355D01*
X102987588Y-53138352D01*
X102868717Y-53019481D01*
X102868716Y-53019480D01*
X102781904Y-52969360D01*
X102781904Y-52969359D01*
X102781900Y-52969358D01*
X102731785Y-52940423D01*
X102579057Y-52899499D01*
X102420943Y-52899499D01*
X102413347Y-52899499D01*
X102413331Y-52899500D01*
X100086670Y-52899500D01*
X100086654Y-52899499D01*
X100079058Y-52899499D01*
X99920943Y-52899499D01*
X99844579Y-52919961D01*
X99768214Y-52940423D01*
X99768209Y-52940426D01*
X99631290Y-53019475D01*
X99631282Y-53019481D01*
X98828867Y-53821896D01*
X98767544Y-53855381D01*
X98702868Y-53852146D01*
X98566240Y-53807753D01*
X98404957Y-53782208D01*
X98356287Y-53774500D01*
X98143713Y-53774500D01*
X98095042Y-53782208D01*
X97933760Y-53807753D01*
X97731585Y-53873444D01*
X97542179Y-53969951D01*
X97370213Y-54094890D01*
X97219894Y-54245209D01*
X97219890Y-54245214D01*
X97100318Y-54409793D01*
X97044989Y-54452459D01*
X96975375Y-54458438D01*
X96913580Y-54425833D01*
X96899682Y-54409793D01*
X96780109Y-54245214D01*
X96780105Y-54245209D01*
X96629786Y-54094890D01*
X96457820Y-53969951D01*
X96268414Y-53873444D01*
X96268413Y-53873443D01*
X96268412Y-53873443D01*
X96066243Y-53807754D01*
X96066241Y-53807753D01*
X96066240Y-53807753D01*
X95904957Y-53782208D01*
X95856287Y-53774500D01*
X95643713Y-53774500D01*
X95595042Y-53782208D01*
X95433760Y-53807753D01*
X95231585Y-53873444D01*
X95042179Y-53969951D01*
X94870213Y-54094890D01*
X94719894Y-54245209D01*
X94719890Y-54245214D01*
X94600318Y-54409793D01*
X94544989Y-54452459D01*
X94475375Y-54458438D01*
X94413580Y-54425833D01*
X94399682Y-54409793D01*
X94280109Y-54245214D01*
X94280105Y-54245209D01*
X94129786Y-54094890D01*
X93957820Y-53969951D01*
X93768414Y-53873444D01*
X93768413Y-53873443D01*
X93768412Y-53873443D01*
X93566243Y-53807754D01*
X93566241Y-53807753D01*
X93566240Y-53807753D01*
X93404957Y-53782208D01*
X93356287Y-53774500D01*
X93143713Y-53774500D01*
X93095042Y-53782208D01*
X92933760Y-53807753D01*
X92731585Y-53873444D01*
X92542179Y-53969951D01*
X92370213Y-54094890D01*
X92219894Y-54245209D01*
X92219890Y-54245214D01*
X92100318Y-54409793D01*
X92044989Y-54452459D01*
X91975375Y-54458438D01*
X91913580Y-54425833D01*
X91899682Y-54409793D01*
X91780109Y-54245214D01*
X91780105Y-54245209D01*
X91629786Y-54094890D01*
X91457820Y-53969951D01*
X91268414Y-53873444D01*
X91268413Y-53873443D01*
X91268412Y-53873443D01*
X91066243Y-53807754D01*
X91066241Y-53807753D01*
X91066240Y-53807753D01*
X90904957Y-53782208D01*
X90856287Y-53774500D01*
X90643713Y-53774500D01*
X90595042Y-53782208D01*
X90433760Y-53807753D01*
X90231585Y-53873444D01*
X90042179Y-53969951D01*
X89870213Y-54094890D01*
X89719894Y-54245209D01*
X89719890Y-54245214D01*
X89600318Y-54409793D01*
X89544989Y-54452459D01*
X89475375Y-54458438D01*
X89413580Y-54425833D01*
X89399682Y-54409793D01*
X89280109Y-54245214D01*
X89280105Y-54245209D01*
X89129786Y-54094890D01*
X88957820Y-53969951D01*
X88768414Y-53873444D01*
X88768413Y-53873443D01*
X88768412Y-53873443D01*
X88566243Y-53807754D01*
X88566241Y-53807753D01*
X88566240Y-53807753D01*
X88404957Y-53782208D01*
X88356287Y-53774500D01*
X88143713Y-53774500D01*
X88095042Y-53782208D01*
X87933760Y-53807753D01*
X87731585Y-53873444D01*
X87542179Y-53969951D01*
X87370215Y-54094889D01*
X87231398Y-54233706D01*
X87170075Y-54267190D01*
X87100383Y-54262206D01*
X87044450Y-54220334D01*
X87038178Y-54211120D01*
X86942712Y-54056344D01*
X86818657Y-53932289D01*
X86818656Y-53932288D01*
X86693969Y-53855381D01*
X86669336Y-53840187D01*
X86669331Y-53840185D01*
X86667862Y-53839698D01*
X86502797Y-53785001D01*
X86502795Y-53785000D01*
X86400010Y-53774500D01*
X85099998Y-53774500D01*
X85099981Y-53774501D01*
X84997203Y-53785000D01*
X84997200Y-53785001D01*
X84830668Y-53840185D01*
X84830663Y-53840187D01*
X84681342Y-53932289D01*
X84557289Y-54056342D01*
X84465187Y-54205663D01*
X84465185Y-54205668D01*
X84460325Y-54220334D01*
X84410001Y-54372203D01*
X84410001Y-54372204D01*
X84410000Y-54372204D01*
X84399500Y-54474983D01*
X84399500Y-56025001D01*
X84399501Y-56025018D01*
X84410000Y-56127796D01*
X84410001Y-56127799D01*
X84455894Y-56266294D01*
X84465186Y-56294334D01*
X84557288Y-56443656D01*
X84681344Y-56567712D01*
X84830666Y-56659814D01*
X84997203Y-56714999D01*
X85099991Y-56725500D01*
X86400008Y-56725499D01*
X86502797Y-56714999D01*
X86669334Y-56659814D01*
X86818656Y-56567712D01*
X86942712Y-56443656D01*
X87034814Y-56294334D01*
X87034814Y-56294331D01*
X87038178Y-56288879D01*
X87090126Y-56242154D01*
X87159088Y-56230931D01*
X87223170Y-56258774D01*
X87231398Y-56266294D01*
X87370213Y-56405109D01*
X87542179Y-56530048D01*
X87542181Y-56530049D01*
X87542184Y-56530051D01*
X87731588Y-56626557D01*
X87933757Y-56692246D01*
X88143713Y-56725500D01*
X88143714Y-56725500D01*
X88356286Y-56725500D01*
X88356287Y-56725500D01*
X88566243Y-56692246D01*
X88768412Y-56626557D01*
X88957816Y-56530051D01*
X89001705Y-56498164D01*
X89129786Y-56405109D01*
X89129788Y-56405106D01*
X89129792Y-56405104D01*
X89280104Y-56254792D01*
X89399683Y-56090204D01*
X89455011Y-56047540D01*
X89524624Y-56041561D01*
X89586420Y-56074166D01*
X89600313Y-56090199D01*
X89702560Y-56230931D01*
X89719896Y-56254792D01*
X89870213Y-56405109D01*
X90042184Y-56530051D01*
X90042184Y-56530052D01*
X90081793Y-56550233D01*
X90132590Y-56598206D01*
X90149500Y-56660718D01*
X90149500Y-62949902D01*
X90129815Y-63016941D01*
X90113181Y-63037583D01*
X87537584Y-65613181D01*
X87476261Y-65646666D01*
X87449903Y-65649500D01*
X83586670Y-65649500D01*
X83586654Y-65649499D01*
X83579058Y-65649499D01*
X83420943Y-65649499D01*
X83344579Y-65669961D01*
X83268214Y-65690423D01*
X83268209Y-65690426D01*
X83131290Y-65769475D01*
X83131282Y-65769481D01*
X80860339Y-68040425D01*
X80799016Y-68073910D01*
X80796850Y-68074361D01*
X80641508Y-68105261D01*
X80641498Y-68105264D01*
X80495827Y-68165602D01*
X80495814Y-68165609D01*
X80364711Y-68253210D01*
X80364707Y-68253213D01*
X80253213Y-68364707D01*
X80253210Y-68364711D01*
X80165609Y-68495814D01*
X80165602Y-68495827D01*
X80105264Y-68641498D01*
X80105261Y-68641510D01*
X80074500Y-68796153D01*
X80074500Y-68953846D01*
X80105261Y-69108489D01*
X80105264Y-69108501D01*
X80165602Y-69254172D01*
X80165609Y-69254185D01*
X80253210Y-69385288D01*
X80253213Y-69385292D01*
X80364707Y-69496786D01*
X80364711Y-69496789D01*
X80495814Y-69584390D01*
X80495827Y-69584397D01*
X80608739Y-69631166D01*
X80641503Y-69644737D01*
X80773249Y-69670943D01*
X80796153Y-69675499D01*
X80796156Y-69675500D01*
X80796158Y-69675500D01*
X80953844Y-69675500D01*
X80953845Y-69675499D01*
X81108497Y-69644737D01*
X81254179Y-69584394D01*
X81385289Y-69496789D01*
X81496789Y-69385289D01*
X81584394Y-69254179D01*
X81644737Y-69108497D01*
X81664113Y-69011085D01*
X81675638Y-68953150D01*
X81708023Y-68891239D01*
X81709517Y-68889717D01*
X83712417Y-66886819D01*
X83773740Y-66853334D01*
X83800098Y-66850500D01*
X87663331Y-66850500D01*
X87663347Y-66850501D01*
X87670943Y-66850501D01*
X87829054Y-66850501D01*
X87829057Y-66850501D01*
X87981785Y-66809577D01*
X88031904Y-66780639D01*
X88118716Y-66730520D01*
X88230520Y-66618716D01*
X88230520Y-66618714D01*
X88240728Y-66608507D01*
X88240729Y-66608504D01*
X91230520Y-63618716D01*
X91309577Y-63481784D01*
X91350501Y-63329057D01*
X91350501Y-63170942D01*
X91350501Y-63163347D01*
X91350500Y-63163329D01*
X91350500Y-56660718D01*
X91370185Y-56593679D01*
X91418207Y-56550233D01*
X91457815Y-56530052D01*
X91457815Y-56530051D01*
X91457816Y-56530051D01*
X91576728Y-56443657D01*
X91629786Y-56405109D01*
X91629788Y-56405106D01*
X91629792Y-56405104D01*
X91780104Y-56254792D01*
X91899683Y-56090204D01*
X91955011Y-56047540D01*
X92024624Y-56041561D01*
X92086420Y-56074166D01*
X92100313Y-56090199D01*
X92202560Y-56230931D01*
X92219896Y-56254792D01*
X92370213Y-56405109D01*
X92542184Y-56530051D01*
X92542184Y-56530052D01*
X92581793Y-56550233D01*
X92632590Y-56598206D01*
X92649500Y-56660718D01*
X92649500Y-69663330D01*
X92649499Y-69663348D01*
X92649499Y-69829054D01*
X92649498Y-69829054D01*
X92690423Y-69981786D01*
X92690424Y-69981787D01*
X92714880Y-70024146D01*
X92769480Y-70118716D01*
X92769482Y-70118718D01*
X92888349Y-70237585D01*
X92888355Y-70237590D01*
X94165425Y-71514660D01*
X94198910Y-71575983D01*
X94199361Y-71578149D01*
X94230261Y-71733491D01*
X94230264Y-71733501D01*
X94290602Y-71879172D01*
X94290609Y-71879185D01*
X94378210Y-72010288D01*
X94378213Y-72010292D01*
X94489707Y-72121786D01*
X94489711Y-72121789D01*
X94620814Y-72209390D01*
X94620827Y-72209397D01*
X94694013Y-72239711D01*
X94766503Y-72269737D01*
X94921153Y-72300499D01*
X94921156Y-72300500D01*
X94921158Y-72300500D01*
X95078844Y-72300500D01*
X95078845Y-72300499D01*
X95233497Y-72269737D01*
X95346166Y-72223067D01*
X95379172Y-72209397D01*
X95379172Y-72209396D01*
X95379179Y-72209394D01*
X95510289Y-72121789D01*
X95621789Y-72010289D01*
X95709394Y-71879179D01*
X95769737Y-71733497D01*
X95800500Y-71578842D01*
X95800500Y-71421158D01*
X95800500Y-71421155D01*
X95800499Y-71421153D01*
X95769738Y-71266510D01*
X95769737Y-71266503D01*
X95742396Y-71200496D01*
X95709397Y-71120827D01*
X95709390Y-71120814D01*
X95621789Y-70989711D01*
X95621786Y-70989707D01*
X95510292Y-70878213D01*
X95510288Y-70878210D01*
X95379185Y-70790609D01*
X95379172Y-70790602D01*
X95233501Y-70730264D01*
X95233491Y-70730261D01*
X95078151Y-70699362D01*
X95016241Y-70666977D01*
X95014662Y-70665426D01*
X94111417Y-69762181D01*
X94077932Y-69700858D01*
X94082916Y-69631166D01*
X94124788Y-69575233D01*
X94190252Y-69550816D01*
X94199098Y-69550500D01*
X94328844Y-69550500D01*
X94328845Y-69550499D01*
X94483497Y-69519737D01*
X94629179Y-69459394D01*
X94760289Y-69371789D01*
X94871789Y-69260289D01*
X94959394Y-69129179D01*
X95019737Y-68983497D01*
X95050500Y-68828842D01*
X95050500Y-68671158D01*
X95050500Y-68671155D01*
X95050499Y-68671153D01*
X95040069Y-68618717D01*
X95019737Y-68516503D01*
X95011170Y-68495821D01*
X94959397Y-68370827D01*
X94959390Y-68370814D01*
X94871398Y-68239125D01*
X94850520Y-68172447D01*
X94850500Y-68170234D01*
X94850500Y-57050096D01*
X94870185Y-56983057D01*
X94886815Y-56962419D01*
X95171133Y-56678100D01*
X95232454Y-56644617D01*
X95297126Y-56647851D01*
X95433757Y-56692246D01*
X95643713Y-56725500D01*
X95643714Y-56725500D01*
X95856286Y-56725500D01*
X95856287Y-56725500D01*
X96066243Y-56692246D01*
X96268412Y-56626557D01*
X96457816Y-56530051D01*
X96501705Y-56498164D01*
X96629786Y-56405109D01*
X96629788Y-56405106D01*
X96629792Y-56405104D01*
X96780104Y-56254792D01*
X96899683Y-56090204D01*
X96955011Y-56047540D01*
X97024624Y-56041561D01*
X97086420Y-56074166D01*
X97100313Y-56090199D01*
X97202560Y-56230931D01*
X97219896Y-56254792D01*
X97370213Y-56405109D01*
X97542179Y-56530048D01*
X97542181Y-56530049D01*
X97542184Y-56530051D01*
X97731588Y-56626557D01*
X97933757Y-56692246D01*
X98143713Y-56725500D01*
X98143714Y-56725500D01*
X98356286Y-56725500D01*
X98356287Y-56725500D01*
X98566243Y-56692246D01*
X98768412Y-56626557D01*
X98957816Y-56530051D01*
X99001705Y-56498164D01*
X99129786Y-56405109D01*
X99129788Y-56405106D01*
X99129792Y-56405104D01*
X99280104Y-56254792D01*
X99399683Y-56090204D01*
X99455011Y-56047540D01*
X99524624Y-56041561D01*
X99586420Y-56074166D01*
X99600313Y-56090199D01*
X99702560Y-56230931D01*
X99719896Y-56254792D01*
X99870213Y-56405109D01*
X100042184Y-56530051D01*
X100042184Y-56530052D01*
X100081793Y-56550233D01*
X100132590Y-56598206D01*
X100149500Y-56660718D01*
X100149500Y-67949903D01*
X100129815Y-68016942D01*
X100113181Y-68037584D01*
X94537584Y-73613181D01*
X94476261Y-73646666D01*
X94449903Y-73649500D01*
X82586670Y-73649500D01*
X82586654Y-73649499D01*
X82579058Y-73649499D01*
X82420943Y-73649499D01*
X82344579Y-73669961D01*
X82268214Y-73690423D01*
X82268209Y-73690426D01*
X82131290Y-73769475D01*
X82131282Y-73769481D01*
X79588181Y-76312583D01*
X79526858Y-76346068D01*
X79457166Y-76341084D01*
X79401233Y-76299212D01*
X79376816Y-76233748D01*
X79376500Y-76224902D01*
X79376500Y-70115059D01*
X79376501Y-70115046D01*
X79376501Y-69946945D01*
X79376501Y-69946943D01*
X79335577Y-69794215D01*
X79277463Y-69693559D01*
X79256520Y-69657284D01*
X79144716Y-69545480D01*
X79144713Y-69545478D01*
X70334574Y-60735339D01*
X70301089Y-60674016D01*
X70300638Y-60671849D01*
X70269738Y-60516510D01*
X70269737Y-60516503D01*
X70230155Y-60420943D01*
X70209397Y-60370827D01*
X70209390Y-60370814D01*
X70121789Y-60239711D01*
X70121786Y-60239707D01*
X70010292Y-60128213D01*
X70010288Y-60128210D01*
X69879185Y-60040609D01*
X69879172Y-60040602D01*
X69733501Y-59980264D01*
X69733489Y-59980261D01*
X69578845Y-59949500D01*
X69578842Y-59949500D01*
X69421158Y-59949500D01*
X69421155Y-59949500D01*
X69266510Y-59980261D01*
X69266498Y-59980264D01*
X69120827Y-60040602D01*
X69120814Y-60040609D01*
X68989711Y-60128210D01*
X68989707Y-60128213D01*
X68878213Y-60239707D01*
X68878210Y-60239711D01*
X68790609Y-60370814D01*
X68790602Y-60370827D01*
X68730264Y-60516498D01*
X68730261Y-60516510D01*
X68699500Y-60671153D01*
X68699500Y-60828846D01*
X68730261Y-60983489D01*
X68730264Y-60983501D01*
X68790602Y-61129172D01*
X68790609Y-61129185D01*
X68878210Y-61260288D01*
X68878213Y-61260292D01*
X68989707Y-61371786D01*
X68989711Y-61371789D01*
X69120814Y-61459390D01*
X69120827Y-61459397D01*
X69266498Y-61519735D01*
X69266503Y-61519737D01*
X69331147Y-61532595D01*
X69421849Y-61550638D01*
X69483760Y-61583023D01*
X69485339Y-61584574D01*
X78139181Y-70238416D01*
X78172666Y-70299739D01*
X78175500Y-70326097D01*
X78175500Y-104753812D01*
X78155815Y-104820851D01*
X78103011Y-104866606D01*
X78033853Y-104876550D01*
X78013182Y-104871743D01*
X77816240Y-104807753D01*
X77654957Y-104782208D01*
X77606287Y-104774500D01*
X77393713Y-104774500D01*
X77345042Y-104782208D01*
X77183760Y-104807753D01*
X76981585Y-104873444D01*
X76792179Y-104969951D01*
X76620213Y-105094890D01*
X76469894Y-105245209D01*
X76469890Y-105245214D01*
X76350008Y-105410218D01*
X76294678Y-105452884D01*
X76225065Y-105458863D01*
X76163270Y-105426257D01*
X76149372Y-105410218D01*
X76029727Y-105245540D01*
X76029723Y-105245535D01*
X75879464Y-105095276D01*
X75879459Y-105095272D01*
X75707557Y-104970379D01*
X75518215Y-104873903D01*
X75316124Y-104808241D01*
X75250000Y-104797768D01*
X75250000Y-105845854D01*
X75183343Y-105807370D01*
X75062535Y-105775000D01*
X74937465Y-105775000D01*
X74816657Y-105807370D01*
X74750000Y-105845854D01*
X74750000Y-104797768D01*
X74749999Y-104797768D01*
X74683875Y-104808241D01*
X74481784Y-104873903D01*
X74292442Y-104970379D01*
X74120540Y-105095272D01*
X74120535Y-105095276D01*
X73970276Y-105245535D01*
X73970272Y-105245540D01*
X73850318Y-105410644D01*
X73794988Y-105453310D01*
X73725375Y-105459289D01*
X73663580Y-105426684D01*
X73649682Y-105410644D01*
X73529727Y-105245540D01*
X73529723Y-105245535D01*
X73379464Y-105095276D01*
X73379459Y-105095272D01*
X73207557Y-104970379D01*
X73018215Y-104873903D01*
X72816124Y-104808241D01*
X72750000Y-104797768D01*
X72750000Y-105845854D01*
X72683343Y-105807370D01*
X72562535Y-105775000D01*
X72437465Y-105775000D01*
X72316657Y-105807370D01*
X72250000Y-105845854D01*
X72250000Y-104900596D01*
X72258644Y-104871155D01*
X72265168Y-104841169D01*
X72268922Y-104836153D01*
X72269685Y-104833557D01*
X72286319Y-104812915D01*
X72446312Y-104652922D01*
X74399332Y-102699902D01*
X77358506Y-99740728D01*
X77358511Y-99740724D01*
X77368714Y-99730520D01*
X77368716Y-99730520D01*
X77480520Y-99618716D01*
X77484408Y-99611980D01*
X77538544Y-99518216D01*
X77538545Y-99518214D01*
X77559574Y-99481790D01*
X77559575Y-99481789D01*
X77559575Y-99481787D01*
X77559577Y-99481785D01*
X77600501Y-99329057D01*
X77600501Y-99170943D01*
X77600501Y-99163348D01*
X77600500Y-99163330D01*
X77600500Y-73329765D01*
X77620185Y-73262726D01*
X77621398Y-73260874D01*
X77709390Y-73129185D01*
X77709390Y-73129184D01*
X77709394Y-73129179D01*
X77769737Y-72983497D01*
X77800500Y-72828842D01*
X77800500Y-72671158D01*
X77800500Y-72671155D01*
X77800499Y-72671153D01*
X77769738Y-72516510D01*
X77769737Y-72516503D01*
X77769735Y-72516498D01*
X77709397Y-72370827D01*
X77709390Y-72370814D01*
X77621789Y-72239711D01*
X77621786Y-72239707D01*
X77510292Y-72128213D01*
X77510288Y-72128210D01*
X77379185Y-72040609D01*
X77379172Y-72040602D01*
X77233501Y-71980264D01*
X77233489Y-71980261D01*
X77078845Y-71949500D01*
X77078842Y-71949500D01*
X76921158Y-71949500D01*
X76921155Y-71949500D01*
X76766510Y-71980261D01*
X76766498Y-71980264D01*
X76620827Y-72040602D01*
X76620814Y-72040609D01*
X76489711Y-72128210D01*
X76489707Y-72128213D01*
X76378213Y-72239707D01*
X76378210Y-72239711D01*
X76290609Y-72370814D01*
X76290602Y-72370827D01*
X76230264Y-72516498D01*
X76230261Y-72516510D01*
X76199500Y-72671153D01*
X76199500Y-72828846D01*
X76230261Y-72983489D01*
X76230264Y-72983501D01*
X76290602Y-73129172D01*
X76290609Y-73129185D01*
X76378602Y-73260874D01*
X76399480Y-73327551D01*
X76399500Y-73329765D01*
X76399500Y-91739078D01*
X76379815Y-91806117D01*
X76327011Y-91851872D01*
X76257853Y-91861816D01*
X76194298Y-91832792D01*
X76151513Y-91795719D01*
X75970951Y-91679679D01*
X75970938Y-91679672D01*
X75775715Y-91590517D01*
X75569774Y-91530047D01*
X75569764Y-91530044D01*
X75378754Y-91502582D01*
X75357318Y-91499500D01*
X75315892Y-91499500D01*
X61565892Y-91499500D01*
X61500000Y-91499500D01*
X61392682Y-91499500D01*
X61180235Y-91530044D01*
X61180225Y-91530047D01*
X60974284Y-91590517D01*
X60779061Y-91679672D01*
X60779048Y-91679679D01*
X60598485Y-91795720D01*
X60436275Y-91936275D01*
X60295720Y-92098485D01*
X60179679Y-92279048D01*
X60179672Y-92279061D01*
X60090517Y-92474284D01*
X60030047Y-92680225D01*
X60030044Y-92680235D01*
X60002114Y-92874500D01*
X59999500Y-92892682D01*
X59999500Y-92934108D01*
X59999500Y-97934108D01*
X59999500Y-98000000D01*
X59999500Y-98107318D01*
X60001442Y-98120827D01*
X60030044Y-98319764D01*
X60030047Y-98319774D01*
X60090517Y-98525715D01*
X60179672Y-98720938D01*
X60179679Y-98720951D01*
X60206435Y-98762584D01*
X60292760Y-98896909D01*
X60295720Y-98901514D01*
X60436275Y-99063724D01*
X60549932Y-99162208D01*
X60598487Y-99204281D01*
X60699941Y-99269481D01*
X60779048Y-99320320D01*
X60779061Y-99320327D01*
X60974284Y-99409482D01*
X60974288Y-99409483D01*
X60974290Y-99409484D01*
X61180231Y-99469954D01*
X61180232Y-99469954D01*
X61180235Y-99469955D01*
X61243584Y-99479062D01*
X61392682Y-99500500D01*
X61392683Y-99500500D01*
X75357317Y-99500500D01*
X75357318Y-99500500D01*
X75527851Y-99475980D01*
X75569764Y-99469955D01*
X75569765Y-99469954D01*
X75569769Y-99469954D01*
X75614740Y-99456748D01*
X75684609Y-99456747D01*
X75743388Y-99494520D01*
X75772414Y-99558075D01*
X75762472Y-99627234D01*
X75737358Y-99663406D01*
X70578867Y-104821896D01*
X70517544Y-104855381D01*
X70452868Y-104852146D01*
X70316240Y-104807753D01*
X70154957Y-104782208D01*
X70106287Y-104774500D01*
X69893713Y-104774500D01*
X69845042Y-104782208D01*
X69683760Y-104807753D01*
X69481585Y-104873444D01*
X69292179Y-104969951D01*
X69120213Y-105094890D01*
X68969894Y-105245209D01*
X68969890Y-105245214D01*
X68850318Y-105409793D01*
X68794989Y-105452459D01*
X68725375Y-105458438D01*
X68663580Y-105425833D01*
X68649682Y-105409793D01*
X68530109Y-105245214D01*
X68530105Y-105245209D01*
X68379786Y-105094890D01*
X68207820Y-104969951D01*
X68018414Y-104873444D01*
X68018413Y-104873443D01*
X68018412Y-104873443D01*
X67816243Y-104807754D01*
X67816241Y-104807753D01*
X67816240Y-104807753D01*
X67654957Y-104782208D01*
X67606287Y-104774500D01*
X67393713Y-104774500D01*
X67345042Y-104782208D01*
X67183760Y-104807753D01*
X66981585Y-104873444D01*
X66792179Y-104969951D01*
X66620213Y-105094890D01*
X66469894Y-105245209D01*
X66469890Y-105245214D01*
X66350318Y-105409793D01*
X66294989Y-105452459D01*
X66225375Y-105458438D01*
X66163580Y-105425833D01*
X66149682Y-105409793D01*
X66030109Y-105245214D01*
X66030105Y-105245209D01*
X65879786Y-105094890D01*
X65707820Y-104969951D01*
X65518414Y-104873444D01*
X65518413Y-104873443D01*
X65518412Y-104873443D01*
X65316243Y-104807754D01*
X65316241Y-104807753D01*
X65316240Y-104807753D01*
X65154957Y-104782208D01*
X65106287Y-104774500D01*
X64893713Y-104774500D01*
X64845042Y-104782208D01*
X64683760Y-104807753D01*
X64481585Y-104873444D01*
X64292179Y-104969951D01*
X64120215Y-105094889D01*
X63981035Y-105234069D01*
X63919712Y-105267553D01*
X63850020Y-105262569D01*
X63794087Y-105220697D01*
X63787815Y-105211484D01*
X63692315Y-105056654D01*
X63568345Y-104932684D01*
X63419124Y-104840643D01*
X63419119Y-104840641D01*
X63252697Y-104785494D01*
X63252690Y-104785493D01*
X63149986Y-104775000D01*
X62750000Y-104775000D01*
X62750000Y-105845854D01*
X62683343Y-105807370D01*
X62562535Y-105775000D01*
X62437465Y-105775000D01*
X62316657Y-105807370D01*
X62250000Y-105845854D01*
X62250000Y-104775000D01*
X61850028Y-104775000D01*
X61850012Y-104775001D01*
X61747302Y-104785494D01*
X61580880Y-104840641D01*
X61580875Y-104840643D01*
X61431654Y-104932684D01*
X61307684Y-105056654D01*
X61215643Y-105205875D01*
X61215641Y-105205880D01*
X61160494Y-105372302D01*
X61160493Y-105372309D01*
X61150000Y-105475013D01*
X61150000Y-106000000D01*
X62095854Y-106000000D01*
X62057370Y-106066657D01*
X62025000Y-106187465D01*
X62025000Y-106312535D01*
X62057370Y-106433343D01*
X62095854Y-106500000D01*
X61150001Y-106500000D01*
X61150001Y-107024986D01*
X61160494Y-107127697D01*
X61215641Y-107294119D01*
X61215643Y-107294124D01*
X61307684Y-107443345D01*
X61431654Y-107567315D01*
X61580875Y-107659356D01*
X61580880Y-107659358D01*
X61747302Y-107714505D01*
X61747309Y-107714506D01*
X61850019Y-107724999D01*
X62249999Y-107724999D01*
X62250000Y-107724998D01*
X62250000Y-106654145D01*
X62316657Y-106692630D01*
X62437465Y-106725000D01*
X62562535Y-106725000D01*
X62683343Y-106692630D01*
X62750000Y-106654145D01*
X62750000Y-107724999D01*
X63149972Y-107724999D01*
X63149986Y-107724998D01*
X63252697Y-107714505D01*
X63419119Y-107659358D01*
X63419124Y-107659356D01*
X63568345Y-107567315D01*
X63692317Y-107443343D01*
X63787815Y-107288516D01*
X63839763Y-107241791D01*
X63908725Y-107230568D01*
X63972808Y-107258412D01*
X63981035Y-107265931D01*
X64120213Y-107405109D01*
X64292179Y-107530048D01*
X64292181Y-107530049D01*
X64292184Y-107530051D01*
X64481588Y-107626557D01*
X64683757Y-107692246D01*
X64893713Y-107725500D01*
X64893714Y-107725500D01*
X65106286Y-107725500D01*
X65106287Y-107725500D01*
X65316243Y-107692246D01*
X65518412Y-107626557D01*
X65707816Y-107530051D01*
X65729789Y-107514086D01*
X65879786Y-107405109D01*
X65879788Y-107405106D01*
X65879792Y-107405104D01*
X66030104Y-107254792D01*
X66149683Y-107090204D01*
X66205011Y-107047540D01*
X66274624Y-107041561D01*
X66336420Y-107074166D01*
X66350313Y-107090199D01*
X66452296Y-107230568D01*
X66469896Y-107254792D01*
X66620213Y-107405109D01*
X66792179Y-107530048D01*
X66792181Y-107530049D01*
X66792184Y-107530051D01*
X66981588Y-107626557D01*
X67183757Y-107692246D01*
X67393713Y-107725500D01*
X67393714Y-107725500D01*
X67606286Y-107725500D01*
X67606287Y-107725500D01*
X67816243Y-107692246D01*
X68018412Y-107626557D01*
X68207816Y-107530051D01*
X68229789Y-107514086D01*
X68379786Y-107405109D01*
X68379788Y-107405106D01*
X68379792Y-107405104D01*
X68530104Y-107254792D01*
X68649683Y-107090204D01*
X68705011Y-107047540D01*
X68774624Y-107041561D01*
X68836420Y-107074166D01*
X68850313Y-107090199D01*
X68952296Y-107230568D01*
X68969896Y-107254792D01*
X69120213Y-107405109D01*
X69292179Y-107530048D01*
X69292181Y-107530049D01*
X69292184Y-107530051D01*
X69481588Y-107626557D01*
X69683757Y-107692246D01*
X69893713Y-107725500D01*
X69893714Y-107725500D01*
X70106286Y-107725500D01*
X70106287Y-107725500D01*
X70316243Y-107692246D01*
X70518412Y-107626557D01*
X70707816Y-107530051D01*
X70729789Y-107514086D01*
X70879786Y-107405109D01*
X70879788Y-107405106D01*
X70879792Y-107405104D01*
X71030104Y-107254792D01*
X71149991Y-107089779D01*
X71205320Y-107047115D01*
X71274933Y-107041136D01*
X71336729Y-107073741D01*
X71350627Y-107089781D01*
X71470272Y-107254459D01*
X71470276Y-107254464D01*
X71620535Y-107404723D01*
X71620540Y-107404727D01*
X71792442Y-107529620D01*
X71981782Y-107626095D01*
X72183871Y-107691757D01*
X72250000Y-107702231D01*
X72250000Y-106654145D01*
X72316657Y-106692630D01*
X72437465Y-106725000D01*
X72562535Y-106725000D01*
X72683343Y-106692630D01*
X72750000Y-106654145D01*
X72750000Y-107702230D01*
X72816126Y-107691757D01*
X72816129Y-107691757D01*
X73018217Y-107626095D01*
X73207557Y-107529620D01*
X73379459Y-107404727D01*
X73379464Y-107404723D01*
X73529727Y-107254460D01*
X73649682Y-107089355D01*
X73705011Y-107046689D01*
X73774625Y-107040710D01*
X73836420Y-107073315D01*
X73850318Y-107089355D01*
X73970272Y-107254460D01*
X74120535Y-107404723D01*
X74120540Y-107404727D01*
X74292442Y-107529620D01*
X74481782Y-107626095D01*
X74683871Y-107691757D01*
X74750000Y-107702231D01*
X74750000Y-106654145D01*
X74816657Y-106692630D01*
X74937465Y-106725000D01*
X75062535Y-106725000D01*
X75183343Y-106692630D01*
X75250000Y-106654145D01*
X75250000Y-107702230D01*
X75316126Y-107691757D01*
X75316129Y-107691757D01*
X75518217Y-107626095D01*
X75707557Y-107529620D01*
X75879459Y-107404727D01*
X75879464Y-107404723D01*
X76029721Y-107254466D01*
X76149371Y-107089781D01*
X76204701Y-107047115D01*
X76274314Y-107041136D01*
X76336110Y-107073741D01*
X76350008Y-107089781D01*
X76469890Y-107254785D01*
X76469894Y-107254790D01*
X76620213Y-107405109D01*
X76792179Y-107530048D01*
X76792181Y-107530049D01*
X76792184Y-107530051D01*
X76981588Y-107626557D01*
X77183757Y-107692246D01*
X77393713Y-107725500D01*
X77393714Y-107725500D01*
X77606286Y-107725500D01*
X77606287Y-107725500D01*
X77816243Y-107692246D01*
X78013183Y-107628255D01*
X78083023Y-107626261D01*
X78142856Y-107662341D01*
X78173684Y-107725042D01*
X78175500Y-107746187D01*
X78175500Y-111698902D01*
X78166855Y-111728339D01*
X78160332Y-111758330D01*
X78156576Y-111763346D01*
X78155815Y-111765941D01*
X78139185Y-111786578D01*
X78102996Y-111822768D01*
X78078867Y-111846897D01*
X78017543Y-111880381D01*
X77952868Y-111877146D01*
X77816240Y-111832753D01*
X77654957Y-111807208D01*
X77606287Y-111799500D01*
X77393713Y-111799500D01*
X77345042Y-111807208D01*
X77183760Y-111832753D01*
X77135471Y-111848443D01*
X77037202Y-111880373D01*
X76981585Y-111898444D01*
X76792179Y-111994951D01*
X76620213Y-112119890D01*
X76469894Y-112270209D01*
X76469890Y-112270214D01*
X76350318Y-112434793D01*
X76294989Y-112477459D01*
X76225375Y-112483438D01*
X76163580Y-112450833D01*
X76149682Y-112434793D01*
X76030109Y-112270214D01*
X76030105Y-112270209D01*
X75879786Y-112119890D01*
X75707820Y-111994951D01*
X75518414Y-111898444D01*
X75518413Y-111898443D01*
X75518412Y-111898443D01*
X75316243Y-111832754D01*
X75316241Y-111832753D01*
X75316240Y-111832753D01*
X75154957Y-111807208D01*
X75106287Y-111799500D01*
X74893713Y-111799500D01*
X74845042Y-111807208D01*
X74683760Y-111832753D01*
X74635471Y-111848443D01*
X74537202Y-111880373D01*
X74481585Y-111898444D01*
X74292179Y-111994951D01*
X74120213Y-112119890D01*
X73969894Y-112270209D01*
X73969890Y-112270214D01*
X73850008Y-112435218D01*
X73794678Y-112477884D01*
X73725065Y-112483863D01*
X73663270Y-112451257D01*
X73649372Y-112435218D01*
X73529727Y-112270540D01*
X73529723Y-112270535D01*
X73379464Y-112120276D01*
X73379459Y-112120272D01*
X73207557Y-111995379D01*
X73018215Y-111898903D01*
X72816124Y-111833241D01*
X72750000Y-111822768D01*
X72750000Y-112870854D01*
X72683343Y-112832370D01*
X72562535Y-112800000D01*
X72437465Y-112800000D01*
X72316657Y-112832370D01*
X72250000Y-112870854D01*
X72250000Y-111822768D01*
X72249999Y-111822768D01*
X72183875Y-111833241D01*
X71981784Y-111898903D01*
X71792442Y-111995379D01*
X71620540Y-112120272D01*
X71620535Y-112120276D01*
X71470276Y-112270535D01*
X71470272Y-112270540D01*
X71350318Y-112435644D01*
X71294988Y-112478310D01*
X71225375Y-112484289D01*
X71163580Y-112451684D01*
X71149682Y-112435644D01*
X71029727Y-112270540D01*
X71029723Y-112270535D01*
X70879464Y-112120276D01*
X70879459Y-112120272D01*
X70707557Y-111995379D01*
X70518215Y-111898903D01*
X70316124Y-111833241D01*
X70250000Y-111822768D01*
X70250000Y-112870854D01*
X70183343Y-112832370D01*
X70062535Y-112800000D01*
X69937465Y-112800000D01*
X69816657Y-112832370D01*
X69750000Y-112870854D01*
X69750000Y-111822768D01*
X69749999Y-111822768D01*
X69683875Y-111833241D01*
X69481784Y-111898903D01*
X69292442Y-111995379D01*
X69120540Y-112120272D01*
X69120535Y-112120276D01*
X68970276Y-112270535D01*
X68970272Y-112270540D01*
X68850318Y-112435644D01*
X68794988Y-112478310D01*
X68725375Y-112484289D01*
X68663580Y-112451684D01*
X68649682Y-112435644D01*
X68529727Y-112270540D01*
X68529723Y-112270535D01*
X68379464Y-112120276D01*
X68379459Y-112120272D01*
X68207557Y-111995379D01*
X68018215Y-111898903D01*
X67816124Y-111833241D01*
X67750000Y-111822768D01*
X67750000Y-112870854D01*
X67683343Y-112832370D01*
X67562535Y-112800000D01*
X67437465Y-112800000D01*
X67316657Y-112832370D01*
X67250000Y-112870854D01*
X67250000Y-111822768D01*
X67249999Y-111822768D01*
X67183875Y-111833241D01*
X66981784Y-111898903D01*
X66792442Y-111995379D01*
X66620540Y-112120272D01*
X66620535Y-112120276D01*
X66470276Y-112270535D01*
X66470272Y-112270540D01*
X66350318Y-112435644D01*
X66294988Y-112478310D01*
X66225375Y-112484289D01*
X66163580Y-112451684D01*
X66149682Y-112435644D01*
X66029727Y-112270540D01*
X66029723Y-112270535D01*
X65879464Y-112120276D01*
X65879459Y-112120272D01*
X65707557Y-111995379D01*
X65518215Y-111898903D01*
X65316124Y-111833241D01*
X65250000Y-111822768D01*
X65250000Y-112870854D01*
X65183343Y-112832370D01*
X65062535Y-112800000D01*
X64937465Y-112800000D01*
X64816657Y-112832370D01*
X64750000Y-112870854D01*
X64750000Y-111822768D01*
X64749999Y-111822768D01*
X64683875Y-111833241D01*
X64481784Y-111898903D01*
X64292442Y-111995379D01*
X64120541Y-112120271D01*
X63981305Y-112259507D01*
X63919982Y-112292991D01*
X63850290Y-112288007D01*
X63794357Y-112246135D01*
X63788085Y-112236922D01*
X63692315Y-112081654D01*
X63568345Y-111957684D01*
X63419124Y-111865643D01*
X63419119Y-111865641D01*
X63252697Y-111810494D01*
X63252690Y-111810493D01*
X63149986Y-111800000D01*
X62750000Y-111800000D01*
X62750000Y-112870854D01*
X62683343Y-112832370D01*
X62562535Y-112800000D01*
X62437465Y-112800000D01*
X62316657Y-112832370D01*
X62250000Y-112870854D01*
X62250000Y-111800000D01*
X61850028Y-111800000D01*
X61850012Y-111800001D01*
X61747302Y-111810494D01*
X61580880Y-111865641D01*
X61580875Y-111865643D01*
X61431654Y-111957684D01*
X61307684Y-112081654D01*
X61215643Y-112230875D01*
X61215641Y-112230880D01*
X61160494Y-112397302D01*
X61160493Y-112397309D01*
X61150000Y-112500013D01*
X61150000Y-113025000D01*
X62095854Y-113025000D01*
X62057370Y-113091657D01*
X62025000Y-113212465D01*
X62025000Y-113337535D01*
X62057370Y-113458343D01*
X62095854Y-113525000D01*
X61150001Y-113525000D01*
X61150001Y-114049986D01*
X61160494Y-114152697D01*
X61215641Y-114319119D01*
X61215643Y-114319124D01*
X61307684Y-114468345D01*
X61431654Y-114592315D01*
X61580875Y-114684356D01*
X61580880Y-114684358D01*
X61747302Y-114739505D01*
X61747309Y-114739506D01*
X61850019Y-114749999D01*
X62249999Y-114749999D01*
X62250000Y-114749998D01*
X62250000Y-113679145D01*
X62316657Y-113717630D01*
X62437465Y-113750000D01*
X62562535Y-113750000D01*
X62683343Y-113717630D01*
X62750000Y-113679145D01*
X62750000Y-114749999D01*
X63149972Y-114749999D01*
X63149986Y-114749998D01*
X63252697Y-114739505D01*
X63419119Y-114684358D01*
X63419124Y-114684356D01*
X63568345Y-114592315D01*
X63692317Y-114468343D01*
X63788085Y-114313078D01*
X63840033Y-114266353D01*
X63908995Y-114255130D01*
X63973077Y-114282973D01*
X63981305Y-114290493D01*
X64120535Y-114429723D01*
X64120540Y-114429727D01*
X64292442Y-114554620D01*
X64481782Y-114651095D01*
X64683871Y-114716757D01*
X64750000Y-114727231D01*
X64750000Y-113679145D01*
X64816657Y-113717630D01*
X64937465Y-113750000D01*
X65062535Y-113750000D01*
X65183343Y-113717630D01*
X65250000Y-113679145D01*
X65250000Y-114727230D01*
X65316126Y-114716757D01*
X65316129Y-114716757D01*
X65518217Y-114651095D01*
X65707557Y-114554620D01*
X65879459Y-114429727D01*
X65879464Y-114429723D01*
X66029727Y-114279460D01*
X66149682Y-114114355D01*
X66205011Y-114071689D01*
X66274625Y-114065710D01*
X66336420Y-114098315D01*
X66350318Y-114114355D01*
X66470272Y-114279460D01*
X66620535Y-114429723D01*
X66620540Y-114429727D01*
X66792442Y-114554620D01*
X66981782Y-114651095D01*
X67183871Y-114716757D01*
X67250000Y-114727231D01*
X67250000Y-113679145D01*
X67316657Y-113717630D01*
X67437465Y-113750000D01*
X67562535Y-113750000D01*
X67683343Y-113717630D01*
X67750000Y-113679145D01*
X67750000Y-114727230D01*
X67816126Y-114716757D01*
X67816129Y-114716757D01*
X68018217Y-114651095D01*
X68207557Y-114554620D01*
X68379459Y-114429727D01*
X68379464Y-114429723D01*
X68529727Y-114279460D01*
X68649682Y-114114355D01*
X68705011Y-114071689D01*
X68774625Y-114065710D01*
X68836420Y-114098315D01*
X68850318Y-114114355D01*
X68970272Y-114279460D01*
X69120535Y-114429723D01*
X69120540Y-114429727D01*
X69292442Y-114554620D01*
X69481782Y-114651095D01*
X69683871Y-114716757D01*
X69750000Y-114727231D01*
X69750000Y-113679145D01*
X69816657Y-113717630D01*
X69937465Y-113750000D01*
X70062535Y-113750000D01*
X70183343Y-113717630D01*
X70250000Y-113679145D01*
X70250000Y-114727231D01*
X70316126Y-114716757D01*
X70316129Y-114716757D01*
X70518217Y-114651095D01*
X70707557Y-114554620D01*
X70879459Y-114429727D01*
X70879464Y-114429723D01*
X71029727Y-114279460D01*
X71149682Y-114114355D01*
X71205011Y-114071689D01*
X71274625Y-114065710D01*
X71336420Y-114098315D01*
X71350318Y-114114355D01*
X71470272Y-114279460D01*
X71620535Y-114429723D01*
X71620540Y-114429727D01*
X71792442Y-114554620D01*
X71981782Y-114651095D01*
X72183871Y-114716757D01*
X72250000Y-114727231D01*
X72250000Y-113679145D01*
X72316657Y-113717630D01*
X72437465Y-113750000D01*
X72562535Y-113750000D01*
X72683343Y-113717630D01*
X72750000Y-113679145D01*
X72750000Y-114727231D01*
X72816126Y-114716757D01*
X72816129Y-114716757D01*
X73018217Y-114651095D01*
X73207557Y-114554620D01*
X73379459Y-114429727D01*
X73379464Y-114429723D01*
X73529721Y-114279466D01*
X73649371Y-114114781D01*
X73704701Y-114072115D01*
X73774314Y-114066136D01*
X73836110Y-114098741D01*
X73850008Y-114114781D01*
X73969890Y-114279785D01*
X73969894Y-114279790D01*
X74120213Y-114430109D01*
X74292179Y-114555048D01*
X74292181Y-114555049D01*
X74292184Y-114555051D01*
X74481588Y-114651557D01*
X74683757Y-114717246D01*
X74893713Y-114750500D01*
X74893714Y-114750500D01*
X75106286Y-114750500D01*
X75106287Y-114750500D01*
X75316243Y-114717246D01*
X75518412Y-114651557D01*
X75707816Y-114555051D01*
X75777229Y-114504620D01*
X75879786Y-114430109D01*
X75879788Y-114430106D01*
X75879792Y-114430104D01*
X76030104Y-114279792D01*
X76149683Y-114115204D01*
X76205011Y-114072540D01*
X76274624Y-114066561D01*
X76336420Y-114099166D01*
X76350313Y-114115199D01*
X76424387Y-114217154D01*
X76469896Y-114279792D01*
X76620213Y-114430109D01*
X76792179Y-114555048D01*
X76792181Y-114555049D01*
X76792184Y-114555051D01*
X76981588Y-114651557D01*
X77183757Y-114717246D01*
X77393713Y-114750500D01*
X77393714Y-114750500D01*
X77606286Y-114750500D01*
X77606287Y-114750500D01*
X77816243Y-114717246D01*
X78018412Y-114651557D01*
X78207816Y-114555051D01*
X78277229Y-114504620D01*
X78379786Y-114430109D01*
X78379788Y-114430106D01*
X78379792Y-114430104D01*
X78530104Y-114279792D01*
X78649991Y-114114779D01*
X78705320Y-114072115D01*
X78774933Y-114066136D01*
X78836729Y-114098741D01*
X78850627Y-114114781D01*
X78970272Y-114279459D01*
X78970276Y-114279464D01*
X79120535Y-114429723D01*
X79120540Y-114429727D01*
X79292442Y-114554620D01*
X79481782Y-114651095D01*
X79683871Y-114716757D01*
X79750000Y-114727231D01*
X79750000Y-113679145D01*
X79816657Y-113717630D01*
X79937465Y-113750000D01*
X80062535Y-113750000D01*
X80183343Y-113717630D01*
X80250000Y-113679145D01*
X80250000Y-114727231D01*
X80316126Y-114716757D01*
X80316129Y-114716757D01*
X80518217Y-114651095D01*
X80707557Y-114554620D01*
X80879459Y-114429727D01*
X80879464Y-114429723D01*
X81029727Y-114279460D01*
X81149682Y-114114355D01*
X81205011Y-114071689D01*
X81274625Y-114065710D01*
X81336420Y-114098315D01*
X81350318Y-114114355D01*
X81470272Y-114279460D01*
X81620535Y-114429723D01*
X81620540Y-114429727D01*
X81792442Y-114554620D01*
X81981782Y-114651095D01*
X82183871Y-114716757D01*
X82250000Y-114727231D01*
X82250000Y-113679145D01*
X82316657Y-113717630D01*
X82437465Y-113750000D01*
X82562535Y-113750000D01*
X82683343Y-113717630D01*
X82750000Y-113679145D01*
X82750000Y-114727231D01*
X82816126Y-114716757D01*
X82816129Y-114716757D01*
X83018217Y-114651095D01*
X83207557Y-114554620D01*
X83379459Y-114429727D01*
X83379464Y-114429723D01*
X83529727Y-114279460D01*
X83649682Y-114114355D01*
X83705011Y-114071689D01*
X83774625Y-114065710D01*
X83836420Y-114098315D01*
X83850318Y-114114355D01*
X83970272Y-114279460D01*
X84120535Y-114429723D01*
X84120540Y-114429727D01*
X84292442Y-114554620D01*
X84481782Y-114651095D01*
X84683871Y-114716757D01*
X84750000Y-114727231D01*
X84750000Y-113679145D01*
X84816657Y-113717630D01*
X84937465Y-113750000D01*
X85062535Y-113750000D01*
X85183343Y-113717630D01*
X85250000Y-113679145D01*
X85250000Y-114727231D01*
X85316126Y-114716757D01*
X85316129Y-114716757D01*
X85518217Y-114651095D01*
X85707557Y-114554620D01*
X85879459Y-114429727D01*
X85879464Y-114429723D01*
X86029723Y-114279464D01*
X86029727Y-114279459D01*
X86154620Y-114107557D01*
X86251095Y-113918217D01*
X86316757Y-113716130D01*
X86316757Y-113716127D01*
X86347030Y-113525000D01*
X85404146Y-113525000D01*
X85442630Y-113458343D01*
X85475000Y-113337535D01*
X85475000Y-113212465D01*
X85442630Y-113091657D01*
X85404146Y-113025000D01*
X86347030Y-113025000D01*
X86316757Y-112833872D01*
X86316757Y-112833869D01*
X86251095Y-112631782D01*
X86154620Y-112442442D01*
X86029727Y-112270540D01*
X86029723Y-112270535D01*
X85879464Y-112120276D01*
X85879459Y-112120272D01*
X85707557Y-111995379D01*
X85518215Y-111898903D01*
X85316124Y-111833241D01*
X85250000Y-111822768D01*
X85250000Y-112870854D01*
X85183343Y-112832370D01*
X85062535Y-112800000D01*
X84937465Y-112800000D01*
X84816657Y-112832370D01*
X84750000Y-112870854D01*
X84750000Y-111822768D01*
X84749999Y-111822768D01*
X84683875Y-111833241D01*
X84481784Y-111898903D01*
X84292442Y-111995379D01*
X84120540Y-112120272D01*
X84120535Y-112120276D01*
X83970276Y-112270535D01*
X83970272Y-112270540D01*
X83850318Y-112435644D01*
X83794988Y-112478310D01*
X83725375Y-112484289D01*
X83663580Y-112451684D01*
X83649682Y-112435644D01*
X83529727Y-112270540D01*
X83529723Y-112270535D01*
X83379464Y-112120276D01*
X83379459Y-112120272D01*
X83207557Y-111995379D01*
X83018215Y-111898903D01*
X82816124Y-111833241D01*
X82750000Y-111822768D01*
X82750000Y-112870854D01*
X82683343Y-112832370D01*
X82562535Y-112800000D01*
X82437465Y-112800000D01*
X82316657Y-112832370D01*
X82250000Y-112870854D01*
X82250000Y-111822768D01*
X82249999Y-111822768D01*
X82183875Y-111833241D01*
X81981784Y-111898903D01*
X81792442Y-111995379D01*
X81620540Y-112120272D01*
X81620535Y-112120276D01*
X81470276Y-112270535D01*
X81470272Y-112270540D01*
X81350318Y-112435644D01*
X81294988Y-112478310D01*
X81225375Y-112484289D01*
X81163580Y-112451684D01*
X81149682Y-112435644D01*
X81029727Y-112270540D01*
X81029723Y-112270535D01*
X80879464Y-112120276D01*
X80879459Y-112120272D01*
X80707557Y-111995379D01*
X80518215Y-111898903D01*
X80316124Y-111833241D01*
X80250000Y-111822768D01*
X80250000Y-112870854D01*
X80183343Y-112832370D01*
X80062535Y-112800000D01*
X79937465Y-112800000D01*
X79816657Y-112832370D01*
X79750000Y-112870854D01*
X79750000Y-111822768D01*
X79749999Y-111822768D01*
X79683875Y-111833241D01*
X79538817Y-111880373D01*
X79468976Y-111882368D01*
X79409144Y-111846287D01*
X79378316Y-111783586D01*
X79376500Y-111762442D01*
X79376500Y-107763082D01*
X79396185Y-107696043D01*
X79448989Y-107650288D01*
X79518147Y-107640344D01*
X79538802Y-107645147D01*
X79683757Y-107692246D01*
X79893713Y-107725500D01*
X79893714Y-107725500D01*
X80106286Y-107725500D01*
X80106287Y-107725500D01*
X80316243Y-107692246D01*
X80518412Y-107626557D01*
X80707816Y-107530051D01*
X80729789Y-107514086D01*
X80879786Y-107405109D01*
X80879788Y-107405106D01*
X80879792Y-107405104D01*
X81030104Y-107254792D01*
X81149991Y-107089779D01*
X81205320Y-107047115D01*
X81274933Y-107041136D01*
X81336729Y-107073741D01*
X81350627Y-107089781D01*
X81470272Y-107254459D01*
X81470276Y-107254464D01*
X81620535Y-107404723D01*
X81620540Y-107404727D01*
X81792442Y-107529620D01*
X81981782Y-107626095D01*
X82183871Y-107691757D01*
X82250000Y-107702231D01*
X82250000Y-106654145D01*
X82316657Y-106692630D01*
X82437465Y-106725000D01*
X82562535Y-106725000D01*
X82683343Y-106692630D01*
X82750000Y-106654145D01*
X82750000Y-107702230D01*
X82816126Y-107691757D01*
X82816129Y-107691757D01*
X83018217Y-107626095D01*
X83207557Y-107529620D01*
X83379459Y-107404727D01*
X83379464Y-107404723D01*
X83529727Y-107254460D01*
X83649682Y-107089355D01*
X83705011Y-107046689D01*
X83774625Y-107040710D01*
X83836420Y-107073315D01*
X83850318Y-107089355D01*
X83970272Y-107254460D01*
X84120535Y-107404723D01*
X84120540Y-107404727D01*
X84292442Y-107529620D01*
X84481782Y-107626095D01*
X84683871Y-107691757D01*
X84750000Y-107702231D01*
X84750000Y-106654145D01*
X84816657Y-106692630D01*
X84937465Y-106725000D01*
X85062535Y-106725000D01*
X85183343Y-106692630D01*
X85250000Y-106654145D01*
X85250000Y-107702230D01*
X85316126Y-107691757D01*
X85316129Y-107691757D01*
X85518217Y-107626095D01*
X85707557Y-107529620D01*
X85879459Y-107404727D01*
X85879464Y-107404723D01*
X86029723Y-107254464D01*
X86029727Y-107254459D01*
X86154620Y-107082557D01*
X86251094Y-106893219D01*
X86266522Y-106845735D01*
X86305959Y-106788059D01*
X86370317Y-106760860D01*
X86439163Y-106772773D01*
X86472135Y-106796370D01*
X91213584Y-111537819D01*
X91247069Y-111599142D01*
X91242085Y-111668834D01*
X91200213Y-111724767D01*
X91134749Y-111749184D01*
X91125903Y-111749500D01*
X90599998Y-111749500D01*
X90599980Y-111749501D01*
X90497203Y-111760000D01*
X90497200Y-111760001D01*
X90330668Y-111815185D01*
X90330663Y-111815187D01*
X90181342Y-111907289D01*
X90057289Y-112031342D01*
X89965187Y-112180663D01*
X89965185Y-112180668D01*
X89943492Y-112246135D01*
X89910001Y-112347203D01*
X89910001Y-112347204D01*
X89910000Y-112347204D01*
X89899500Y-112449983D01*
X89899500Y-114000001D01*
X89899501Y-114000018D01*
X89910000Y-114102796D01*
X89910001Y-114102799D01*
X89965185Y-114269331D01*
X89965187Y-114269336D01*
X89978237Y-114290493D01*
X90057288Y-114418656D01*
X90181344Y-114542712D01*
X90330666Y-114634814D01*
X90497203Y-114689999D01*
X90599991Y-114700500D01*
X91900008Y-114700499D01*
X92002797Y-114689999D01*
X92169334Y-114634814D01*
X92318656Y-114542712D01*
X92442712Y-114418656D01*
X92534814Y-114269334D01*
X92534814Y-114269331D01*
X92538178Y-114263879D01*
X92590126Y-114217154D01*
X92659088Y-114205931D01*
X92723170Y-114233774D01*
X92731398Y-114241294D01*
X92870213Y-114380109D01*
X93042179Y-114505048D01*
X93042181Y-114505049D01*
X93042184Y-114505051D01*
X93231588Y-114601557D01*
X93433757Y-114667246D01*
X93643713Y-114700500D01*
X93643714Y-114700500D01*
X93856286Y-114700500D01*
X93856287Y-114700500D01*
X94066243Y-114667246D01*
X94268412Y-114601557D01*
X94457816Y-114505051D01*
X94560966Y-114430109D01*
X94629786Y-114380109D01*
X94629788Y-114380106D01*
X94629792Y-114380104D01*
X94780104Y-114229792D01*
X94899991Y-114064779D01*
X94955320Y-114022115D01*
X95024933Y-114016136D01*
X95086729Y-114048741D01*
X95100627Y-114064781D01*
X95220272Y-114229459D01*
X95220276Y-114229464D01*
X95370535Y-114379723D01*
X95370540Y-114379727D01*
X95542442Y-114504620D01*
X95731782Y-114601095D01*
X95933871Y-114666757D01*
X96000000Y-114677231D01*
X96000000Y-113629145D01*
X96066657Y-113667630D01*
X96187465Y-113700000D01*
X96312535Y-113700000D01*
X96433343Y-113667630D01*
X96500000Y-113629145D01*
X96500000Y-114677230D01*
X96566126Y-114666757D01*
X96566129Y-114666757D01*
X96768217Y-114601095D01*
X96957557Y-114504620D01*
X97129459Y-114379727D01*
X97129464Y-114379723D01*
X97279723Y-114229464D01*
X97279727Y-114229459D01*
X97404620Y-114057557D01*
X97501095Y-113868217D01*
X97566757Y-113666130D01*
X97566757Y-113666127D01*
X97597030Y-113475000D01*
X96654146Y-113475000D01*
X96692630Y-113408343D01*
X96725000Y-113287535D01*
X96725000Y-113162465D01*
X96692630Y-113041657D01*
X96654146Y-112975000D01*
X97597030Y-112975000D01*
X97566757Y-112783872D01*
X97566757Y-112783869D01*
X97501095Y-112581782D01*
X97404620Y-112392442D01*
X97279727Y-112220540D01*
X97279723Y-112220535D01*
X97129464Y-112070276D01*
X97129459Y-112070272D01*
X96957557Y-111945379D01*
X96768215Y-111848903D01*
X96566124Y-111783241D01*
X96500000Y-111772768D01*
X96500000Y-112820854D01*
X96433343Y-112782370D01*
X96312535Y-112750000D01*
X96187465Y-112750000D01*
X96066657Y-112782370D01*
X96000000Y-112820854D01*
X96000000Y-111772768D01*
X95999999Y-111772768D01*
X95933875Y-111783241D01*
X95731784Y-111848903D01*
X95542442Y-111945379D01*
X95370540Y-112070272D01*
X95370535Y-112070276D01*
X95220276Y-112220535D01*
X95220272Y-112220540D01*
X95100627Y-112385218D01*
X95045297Y-112427884D01*
X94975684Y-112433863D01*
X94913889Y-112401257D01*
X94899991Y-112385218D01*
X94780109Y-112220214D01*
X94780105Y-112220209D01*
X94629786Y-112069890D01*
X94457820Y-111944951D01*
X94268414Y-111848444D01*
X94268413Y-111848443D01*
X94268412Y-111848443D01*
X94066243Y-111782754D01*
X94066241Y-111782753D01*
X94066240Y-111782753D01*
X93904957Y-111757208D01*
X93856287Y-111749500D01*
X93643713Y-111749500D01*
X93595042Y-111757208D01*
X93433760Y-111782753D01*
X93433757Y-111782754D01*
X93297129Y-111827147D01*
X93227290Y-111829142D01*
X93171132Y-111796897D01*
X86824218Y-105449983D01*
X89899500Y-105449983D01*
X89899500Y-107050001D01*
X89899501Y-107050018D01*
X89910000Y-107152796D01*
X89910001Y-107152799D01*
X89956832Y-107294124D01*
X89965186Y-107319334D01*
X90057288Y-107468656D01*
X90181344Y-107592712D01*
X90330666Y-107684814D01*
X90497203Y-107739999D01*
X90599991Y-107750500D01*
X91900008Y-107750499D01*
X92002797Y-107739999D01*
X92169334Y-107684814D01*
X92318656Y-107592712D01*
X92442712Y-107468656D01*
X92534814Y-107319334D01*
X92534814Y-107319331D01*
X92538178Y-107313879D01*
X92590126Y-107267154D01*
X92659088Y-107255931D01*
X92723170Y-107283774D01*
X92731398Y-107291294D01*
X92870213Y-107430109D01*
X93042179Y-107555048D01*
X93042181Y-107555049D01*
X93042184Y-107555051D01*
X93231588Y-107651557D01*
X93433757Y-107717246D01*
X93643713Y-107750500D01*
X93643714Y-107750500D01*
X93856286Y-107750500D01*
X93856287Y-107750500D01*
X94066243Y-107717246D01*
X94268412Y-107651557D01*
X94457816Y-107555051D01*
X94492819Y-107529620D01*
X94629786Y-107430109D01*
X94629788Y-107430106D01*
X94629792Y-107430104D01*
X94780104Y-107279792D01*
X94780106Y-107279788D01*
X94780109Y-107279786D01*
X94905048Y-107107820D01*
X94905047Y-107107820D01*
X94905051Y-107107816D01*
X95001557Y-106918412D01*
X95067246Y-106716243D01*
X95100500Y-106506287D01*
X95100500Y-105993713D01*
X95067246Y-105783757D01*
X95001557Y-105581588D01*
X94905051Y-105392184D01*
X94905049Y-105392181D01*
X94905048Y-105392179D01*
X94780109Y-105220213D01*
X94629786Y-105069890D01*
X94457820Y-104944951D01*
X94268414Y-104848444D01*
X94268413Y-104848443D01*
X94268412Y-104848443D01*
X94066243Y-104782754D01*
X94066241Y-104782753D01*
X94066240Y-104782753D01*
X93904957Y-104757208D01*
X93856287Y-104749500D01*
X93643713Y-104749500D01*
X93595042Y-104757208D01*
X93433760Y-104782753D01*
X93231585Y-104848444D01*
X93042179Y-104944951D01*
X92870215Y-105069889D01*
X92731398Y-105208706D01*
X92670075Y-105242190D01*
X92600383Y-105237206D01*
X92544450Y-105195334D01*
X92538178Y-105186120D01*
X92442712Y-105031344D01*
X92318657Y-104907289D01*
X92318656Y-104907288D01*
X92180213Y-104821896D01*
X92169336Y-104815187D01*
X92169331Y-104815185D01*
X92148375Y-104808241D01*
X92002797Y-104760001D01*
X92002795Y-104760000D01*
X91900010Y-104749500D01*
X90599998Y-104749500D01*
X90599981Y-104749501D01*
X90497203Y-104760000D01*
X90497200Y-104760001D01*
X90330668Y-104815185D01*
X90330663Y-104815187D01*
X90181342Y-104907289D01*
X90057289Y-105031342D01*
X89965187Y-105180663D01*
X89965185Y-105180668D01*
X89943689Y-105245540D01*
X89910001Y-105347203D01*
X89910001Y-105347204D01*
X89910000Y-105347204D01*
X89899500Y-105449983D01*
X86824218Y-105449983D01*
X80136819Y-98762584D01*
X80103334Y-98701261D01*
X80100500Y-98674903D01*
X80100500Y-77550097D01*
X80120185Y-77483058D01*
X80136819Y-77462416D01*
X82712417Y-74886819D01*
X82773740Y-74853334D01*
X82800098Y-74850500D01*
X94663331Y-74850500D01*
X94663347Y-74850501D01*
X94670943Y-74850501D01*
X94829054Y-74850501D01*
X94829057Y-74850501D01*
X94981785Y-74809577D01*
X95031904Y-74780639D01*
X95118716Y-74730520D01*
X95230520Y-74618716D01*
X95230520Y-74618714D01*
X95240728Y-74608507D01*
X95240730Y-74608504D01*
X101108506Y-68740728D01*
X101108511Y-68740724D01*
X101118714Y-68730520D01*
X101118716Y-68730520D01*
X101230520Y-68618716D01*
X101309577Y-68481784D01*
X101350500Y-68329057D01*
X101350500Y-56660718D01*
X101370185Y-56593679D01*
X101418207Y-56550233D01*
X101457815Y-56530052D01*
X101457815Y-56530051D01*
X101457816Y-56530051D01*
X101576728Y-56443657D01*
X101629786Y-56405109D01*
X101629788Y-56405106D01*
X101629792Y-56405104D01*
X101780104Y-56254792D01*
X101780106Y-56254788D01*
X101780109Y-56254786D01*
X101905048Y-56082820D01*
X101905047Y-56082820D01*
X101905051Y-56082816D01*
X102001557Y-55893412D01*
X102067246Y-55691243D01*
X102100500Y-55481287D01*
X102100500Y-55018713D01*
X102067246Y-54808757D01*
X102001557Y-54606588D01*
X101905051Y-54417184D01*
X101818013Y-54297385D01*
X101794533Y-54231579D01*
X101810359Y-54163525D01*
X101860464Y-54114830D01*
X101918331Y-54100500D01*
X102199903Y-54100500D01*
X102266942Y-54120185D01*
X102287584Y-54136819D01*
X102613181Y-54462416D01*
X102646666Y-54523739D01*
X102649500Y-54550097D01*
X102649500Y-78699902D01*
X102629815Y-78766941D01*
X102613181Y-78787583D01*
X93610339Y-87790425D01*
X93549016Y-87823910D01*
X93546850Y-87824361D01*
X93391508Y-87855261D01*
X93391498Y-87855264D01*
X93245827Y-87915602D01*
X93245814Y-87915609D01*
X93114711Y-88003210D01*
X93114707Y-88003213D01*
X93003213Y-88114707D01*
X93003210Y-88114711D01*
X92915609Y-88245814D01*
X92915602Y-88245827D01*
X92855264Y-88391498D01*
X92855261Y-88391510D01*
X92824500Y-88546153D01*
X92824500Y-88703846D01*
X92855261Y-88858489D01*
X92855264Y-88858501D01*
X92915602Y-89004172D01*
X92915609Y-89004185D01*
X93003602Y-89135874D01*
X93024480Y-89202551D01*
X93024500Y-89204765D01*
X93024500Y-92288330D01*
X93024499Y-92288348D01*
X93024499Y-92454054D01*
X93024498Y-92454054D01*
X93030311Y-92475747D01*
X93065423Y-92606785D01*
X93090808Y-92650753D01*
X93144477Y-92743712D01*
X93144481Y-92743717D01*
X93263349Y-92862585D01*
X93263355Y-92862590D01*
X100138583Y-99737819D01*
X100172068Y-99799142D01*
X100167084Y-99868834D01*
X100125212Y-99924767D01*
X100059748Y-99949184D01*
X100050902Y-99949500D01*
X96632940Y-99949500D01*
X96565901Y-99929815D01*
X96545259Y-99913181D01*
X94510292Y-97878213D01*
X94510288Y-97878210D01*
X94379185Y-97790609D01*
X94379172Y-97790602D01*
X94233501Y-97730264D01*
X94233489Y-97730261D01*
X94078845Y-97699500D01*
X94078842Y-97699500D01*
X88421158Y-97699500D01*
X88421155Y-97699500D01*
X88266510Y-97730261D01*
X88266498Y-97730264D01*
X88120827Y-97790602D01*
X88120814Y-97790609D01*
X87989711Y-97878210D01*
X87989707Y-97878213D01*
X87878213Y-97989707D01*
X87878210Y-97989711D01*
X87790609Y-98120814D01*
X87790602Y-98120827D01*
X87730264Y-98266498D01*
X87730261Y-98266508D01*
X87715042Y-98343020D01*
X87682657Y-98404931D01*
X87621941Y-98439505D01*
X87552171Y-98435764D01*
X87505744Y-98406509D01*
X84171192Y-95071957D01*
X84966000Y-95071957D01*
X84966000Y-95178043D01*
X84993457Y-95280514D01*
X85046499Y-95372387D01*
X85121513Y-95447401D01*
X85213386Y-95500443D01*
X85315857Y-95527900D01*
X85315859Y-95527900D01*
X85421941Y-95527900D01*
X85421943Y-95527900D01*
X85524414Y-95500443D01*
X85616287Y-95447401D01*
X85691301Y-95372387D01*
X85744343Y-95280514D01*
X85771800Y-95178043D01*
X85771800Y-95071957D01*
X85744343Y-94969486D01*
X85691301Y-94877613D01*
X85616287Y-94802599D01*
X85616286Y-94802598D01*
X85524414Y-94749557D01*
X85421943Y-94722100D01*
X85315857Y-94722100D01*
X85213386Y-94749557D01*
X85213385Y-94749557D01*
X85121513Y-94802598D01*
X85046498Y-94877613D01*
X84993457Y-94969485D01*
X84993457Y-94969486D01*
X84966000Y-95071957D01*
X84171192Y-95071957D01*
X84075719Y-94976484D01*
X84042234Y-94915161D01*
X84039400Y-94888803D01*
X84039400Y-91329765D01*
X84059085Y-91262726D01*
X84060298Y-91260874D01*
X84148290Y-91129185D01*
X84148290Y-91129184D01*
X84148294Y-91129179D01*
X84208637Y-90983497D01*
X84239400Y-90828842D01*
X84239400Y-90671158D01*
X84239400Y-90671155D01*
X84239399Y-90671153D01*
X84208638Y-90516510D01*
X84208637Y-90516503D01*
X84208635Y-90516498D01*
X84148297Y-90370827D01*
X84148290Y-90370814D01*
X84060689Y-90239711D01*
X84060686Y-90239707D01*
X83949192Y-90128213D01*
X83949188Y-90128210D01*
X83818085Y-90040609D01*
X83818072Y-90040602D01*
X83672401Y-89980264D01*
X83672389Y-89980261D01*
X83517745Y-89949500D01*
X83517742Y-89949500D01*
X83360058Y-89949500D01*
X83360055Y-89949500D01*
X83205410Y-89980261D01*
X83205398Y-89980264D01*
X83059727Y-90040602D01*
X83059714Y-90040609D01*
X82928611Y-90128210D01*
X82928607Y-90128213D01*
X82817113Y-90239707D01*
X82817110Y-90239711D01*
X82729509Y-90370814D01*
X82729502Y-90370827D01*
X82669164Y-90516498D01*
X82669161Y-90516510D01*
X82638400Y-90671153D01*
X82638400Y-90828846D01*
X82669161Y-90983489D01*
X82669164Y-90983501D01*
X82729502Y-91129172D01*
X82729509Y-91129185D01*
X82817502Y-91260874D01*
X82838380Y-91327551D01*
X82838400Y-91329765D01*
X82838400Y-95102230D01*
X82838399Y-95102248D01*
X82838399Y-95267954D01*
X82838398Y-95267954D01*
X82879323Y-95420685D01*
X82908258Y-95470800D01*
X82908259Y-95470804D01*
X82908260Y-95470804D01*
X82958379Y-95557614D01*
X82958381Y-95557617D01*
X83077249Y-95676485D01*
X83077255Y-95676490D01*
X87515139Y-100114374D01*
X87515149Y-100114385D01*
X87519479Y-100118715D01*
X87519480Y-100118716D01*
X87631284Y-100230520D01*
X87631286Y-100230521D01*
X87631290Y-100230524D01*
X87730935Y-100288053D01*
X87768216Y-100309577D01*
X87880019Y-100339534D01*
X87920942Y-100350500D01*
X87920943Y-100350500D01*
X93199903Y-100350500D01*
X93266942Y-100370185D01*
X93287584Y-100386819D01*
X103265139Y-110364374D01*
X103265149Y-110364385D01*
X103269479Y-110368715D01*
X103269480Y-110368716D01*
X103381284Y-110480520D01*
X103435142Y-110511614D01*
X103468095Y-110530639D01*
X103468097Y-110530641D01*
X103506151Y-110552611D01*
X103518215Y-110559577D01*
X103670943Y-110600501D01*
X103670946Y-110600501D01*
X103836653Y-110600501D01*
X103836669Y-110600500D01*
X112018213Y-110600500D01*
X112085252Y-110620185D01*
X112131007Y-110672989D01*
X112140951Y-110742147D01*
X112111926Y-110805703D01*
X112087104Y-110827602D01*
X111792964Y-111024140D01*
X111792950Y-111024150D01*
X111511893Y-111254807D01*
X111254807Y-111511893D01*
X111024150Y-111792950D01*
X111024140Y-111792964D01*
X110822151Y-112095261D01*
X110822140Y-112095279D01*
X110650756Y-112415916D01*
X110650754Y-112415921D01*
X110511614Y-112751834D01*
X110406067Y-113099776D01*
X110406064Y-113099787D01*
X110335137Y-113456369D01*
X110309406Y-113717630D01*
X110299500Y-113818206D01*
X110299500Y-114181794D01*
X110304620Y-114233774D01*
X110335137Y-114543630D01*
X110406064Y-114900212D01*
X110406067Y-114900223D01*
X110511614Y-115248165D01*
X110650754Y-115584078D01*
X110650756Y-115584083D01*
X110822140Y-115904720D01*
X110822151Y-115904738D01*
X111024140Y-116207035D01*
X111024150Y-116207049D01*
X111254807Y-116488106D01*
X111511893Y-116745192D01*
X111511898Y-116745196D01*
X111511899Y-116745197D01*
X111792956Y-116975854D01*
X112095268Y-117177853D01*
X112095277Y-117177858D01*
X112095279Y-117177859D01*
X112415916Y-117349243D01*
X112415918Y-117349243D01*
X112415924Y-117349247D01*
X112751836Y-117488386D01*
X113099767Y-117593930D01*
X113099773Y-117593931D01*
X113099776Y-117593932D01*
X113099787Y-117593935D01*
X113456369Y-117664862D01*
X113818206Y-117700500D01*
X113818209Y-117700500D01*
X114181791Y-117700500D01*
X114181794Y-117700500D01*
X114543631Y-117664862D01*
X114613045Y-117651054D01*
X114900212Y-117593935D01*
X114900223Y-117593932D01*
X114900223Y-117593931D01*
X114900233Y-117593930D01*
X115248164Y-117488386D01*
X115584076Y-117349247D01*
X115904732Y-117177853D01*
X116207044Y-116975854D01*
X116488101Y-116745197D01*
X116745197Y-116488101D01*
X116975854Y-116207044D01*
X117177853Y-115904732D01*
X117349247Y-115584076D01*
X117488386Y-115248164D01*
X117593930Y-114900233D01*
X117593932Y-114900223D01*
X117593935Y-114900212D01*
X117664862Y-114543630D01*
X117700500Y-114181794D01*
X117700500Y-113818206D01*
X117664862Y-113456369D01*
X117641225Y-113337535D01*
X117593935Y-113099787D01*
X117593932Y-113099776D01*
X117593931Y-113099773D01*
X117593930Y-113099767D01*
X117488386Y-112751836D01*
X117349247Y-112415924D01*
X117341407Y-112401257D01*
X117177859Y-112095279D01*
X117177858Y-112095277D01*
X117177853Y-112095268D01*
X116975854Y-111792956D01*
X116745197Y-111511899D01*
X116745196Y-111511898D01*
X116745192Y-111511893D01*
X116488106Y-111254807D01*
X116207049Y-111024150D01*
X116207048Y-111024149D01*
X116207044Y-111024146D01*
X115904732Y-110822147D01*
X115904727Y-110822144D01*
X115904720Y-110822140D01*
X115584083Y-110650756D01*
X115584078Y-110650754D01*
X115248165Y-110511614D01*
X114900223Y-110406067D01*
X114900212Y-110406064D01*
X114543630Y-110335137D01*
X114271111Y-110308296D01*
X114181794Y-110299500D01*
X113818206Y-110299500D01*
X113740901Y-110307113D01*
X113587978Y-110322175D01*
X113519332Y-110309156D01*
X113468622Y-110261091D01*
X113451947Y-110193240D01*
X113474603Y-110127145D01*
X113488138Y-110111096D01*
X113764665Y-109834570D01*
X113825984Y-109801088D01*
X113828151Y-109800637D01*
X113828840Y-109800500D01*
X113828842Y-109800500D01*
X113983497Y-109769737D01*
X114129179Y-109709394D01*
X114260289Y-109621789D01*
X114371789Y-109510289D01*
X114459394Y-109379179D01*
X114461222Y-109374767D01*
X114480244Y-109328842D01*
X114519737Y-109233497D01*
X114550500Y-109078842D01*
X114550500Y-108921158D01*
X114550500Y-108921155D01*
X114550499Y-108921153D01*
X114519738Y-108766510D01*
X114519738Y-108766508D01*
X114519737Y-108766503D01*
X114519735Y-108766498D01*
X114459397Y-108620827D01*
X114459390Y-108620814D01*
X114371789Y-108489711D01*
X114371786Y-108489707D01*
X114260292Y-108378213D01*
X114260288Y-108378210D01*
X114225181Y-108354752D01*
X114180376Y-108301139D01*
X114171669Y-108231814D01*
X114201824Y-108168787D01*
X114261267Y-108132068D01*
X114318264Y-108130033D01*
X114421155Y-108150500D01*
X114421158Y-108150500D01*
X114578844Y-108150500D01*
X114578845Y-108150499D01*
X114733497Y-108119737D01*
X114879179Y-108059394D01*
X115010289Y-107971789D01*
X115121789Y-107860289D01*
X115209394Y-107729179D01*
X115269737Y-107583497D01*
X115292580Y-107468657D01*
X115300638Y-107428150D01*
X115333023Y-107366239D01*
X115334515Y-107364719D01*
X115980520Y-106718716D01*
X116059577Y-106581784D01*
X116100501Y-106429057D01*
X116100501Y-106270942D01*
X116100501Y-106263347D01*
X116100500Y-106263329D01*
X116100500Y-100839060D01*
X116100501Y-100839047D01*
X116100501Y-100670944D01*
X116059576Y-100518214D01*
X116059573Y-100518209D01*
X115980524Y-100381290D01*
X115980518Y-100381282D01*
X115894451Y-100295215D01*
X115860966Y-100233892D01*
X115865950Y-100164200D01*
X115907822Y-100108267D01*
X115973286Y-100083850D01*
X116011075Y-100086959D01*
X116015623Y-100088050D01*
X116015632Y-100088053D01*
X116103110Y-100101908D01*
X116248903Y-100125000D01*
X116248908Y-100125000D01*
X116485097Y-100125000D01*
X116718368Y-100088053D01*
X116731303Y-100083850D01*
X116942992Y-100015068D01*
X117153433Y-99907843D01*
X117344510Y-99769017D01*
X117511517Y-99602010D01*
X117650343Y-99410933D01*
X117757568Y-99200492D01*
X117830553Y-98975868D01*
X117839253Y-98920939D01*
X117867500Y-98742597D01*
X117867500Y-98506402D01*
X117830553Y-98273131D01*
X117777921Y-98111149D01*
X117757568Y-98048508D01*
X117757566Y-98048505D01*
X117757566Y-98048503D01*
X117699278Y-97934108D01*
X117650343Y-97838067D01*
X117511517Y-97646990D01*
X117344510Y-97479983D01*
X117236686Y-97401644D01*
X117153431Y-97341155D01*
X117035204Y-97280915D01*
X116984409Y-97232941D01*
X116967500Y-97170431D01*
X116967500Y-93578567D01*
X116987185Y-93511528D01*
X117035205Y-93468082D01*
X117153433Y-93407843D01*
X117344510Y-93269017D01*
X117511517Y-93102010D01*
X117650343Y-92910933D01*
X117757568Y-92700492D01*
X117830553Y-92475868D01*
X117832717Y-92462208D01*
X117867500Y-92242597D01*
X117867500Y-92006402D01*
X117830553Y-91773131D01*
X117778192Y-91611982D01*
X117757568Y-91548508D01*
X117757566Y-91548505D01*
X117757566Y-91548503D01*
X117650342Y-91338066D01*
X117644311Y-91329765D01*
X117511517Y-91146990D01*
X117344510Y-90979983D01*
X117236953Y-90901838D01*
X117153431Y-90841155D01*
X117035204Y-90780915D01*
X116984409Y-90732941D01*
X116967500Y-90670431D01*
X116967500Y-88845195D01*
X116967501Y-88845182D01*
X116967501Y-88677079D01*
X116966605Y-88673735D01*
X116926577Y-88524351D01*
X116849878Y-88391503D01*
X116847524Y-88387425D01*
X116847518Y-88387417D01*
X108136819Y-79676718D01*
X108103334Y-79615395D01*
X108100500Y-79589037D01*
X108100500Y-77006447D01*
X110367000Y-77006447D01*
X110367000Y-77242552D01*
X110403934Y-77475747D01*
X110476897Y-77700302D01*
X110584087Y-77910674D01*
X110644338Y-77993604D01*
X110644340Y-77993605D01*
X111343212Y-77294733D01*
X111354482Y-77336792D01*
X111426890Y-77462208D01*
X111529292Y-77564610D01*
X111654708Y-77637018D01*
X111696765Y-77648287D01*
X110997893Y-78347158D01*
X111080828Y-78407414D01*
X111291197Y-78514602D01*
X111515752Y-78587565D01*
X111515751Y-78587565D01*
X111748948Y-78624500D01*
X111985052Y-78624500D01*
X112218247Y-78587565D01*
X112442802Y-78514602D01*
X112653163Y-78407418D01*
X112653169Y-78407414D01*
X112736104Y-78347158D01*
X112736105Y-78347158D01*
X112037233Y-77648287D01*
X112079292Y-77637018D01*
X112204708Y-77564610D01*
X112307110Y-77462208D01*
X112379518Y-77336792D01*
X112390787Y-77294733D01*
X113089658Y-77993605D01*
X113089658Y-77993604D01*
X113149914Y-77910669D01*
X113149918Y-77910663D01*
X113257102Y-77700302D01*
X113330065Y-77475747D01*
X113367000Y-77242552D01*
X113367000Y-77006447D01*
X113330065Y-76773252D01*
X113257102Y-76548697D01*
X113149914Y-76338328D01*
X113089658Y-76255394D01*
X113089658Y-76255393D01*
X112390787Y-76954265D01*
X112379518Y-76912208D01*
X112307110Y-76786792D01*
X112204708Y-76684390D01*
X112079292Y-76611982D01*
X112037234Y-76600712D01*
X112736105Y-75901840D01*
X112736104Y-75901838D01*
X112653174Y-75841587D01*
X112442802Y-75734397D01*
X112218247Y-75661434D01*
X112218248Y-75661434D01*
X111985052Y-75624500D01*
X111748948Y-75624500D01*
X111515752Y-75661434D01*
X111291197Y-75734397D01*
X111080830Y-75841584D01*
X110997894Y-75901840D01*
X111696766Y-76600712D01*
X111654708Y-76611982D01*
X111529292Y-76684390D01*
X111426890Y-76786792D01*
X111354482Y-76912208D01*
X111343212Y-76954266D01*
X110644340Y-76255394D01*
X110584084Y-76338330D01*
X110476897Y-76548697D01*
X110403934Y-76773252D01*
X110367000Y-77006447D01*
X108100500Y-77006447D01*
X108100500Y-70506447D01*
X110367000Y-70506447D01*
X110367000Y-70742552D01*
X110403934Y-70975747D01*
X110476897Y-71200302D01*
X110584087Y-71410674D01*
X110644338Y-71493604D01*
X110644340Y-71493605D01*
X111343212Y-70794733D01*
X111354482Y-70836792D01*
X111426890Y-70962208D01*
X111529292Y-71064610D01*
X111654708Y-71137018D01*
X111696765Y-71148287D01*
X110997893Y-71847158D01*
X111080828Y-71907414D01*
X111291197Y-72014602D01*
X111515752Y-72087565D01*
X111515751Y-72087565D01*
X111748948Y-72124500D01*
X111985052Y-72124500D01*
X112218247Y-72087565D01*
X112442802Y-72014602D01*
X112653163Y-71907418D01*
X112653169Y-71907414D01*
X112736104Y-71847158D01*
X112736105Y-71847158D01*
X112037233Y-71148287D01*
X112079292Y-71137018D01*
X112204708Y-71064610D01*
X112307110Y-70962208D01*
X112379518Y-70836792D01*
X112390787Y-70794733D01*
X113089658Y-71493605D01*
X113089658Y-71493604D01*
X113149914Y-71410669D01*
X113149918Y-71410663D01*
X113257102Y-71200302D01*
X113330065Y-70975747D01*
X113367000Y-70742552D01*
X113367000Y-70506447D01*
X113330065Y-70273252D01*
X113257102Y-70048697D01*
X113149914Y-69838328D01*
X113089658Y-69755394D01*
X113089658Y-69755393D01*
X112390787Y-70454265D01*
X112379518Y-70412208D01*
X112307110Y-70286792D01*
X112204708Y-70184390D01*
X112079292Y-70111982D01*
X112037234Y-70100712D01*
X112736105Y-69401840D01*
X112736104Y-69401838D01*
X112653174Y-69341587D01*
X112442802Y-69234397D01*
X112218247Y-69161434D01*
X112218248Y-69161434D01*
X111985052Y-69124500D01*
X111748948Y-69124500D01*
X111515752Y-69161434D01*
X111291197Y-69234397D01*
X111080830Y-69341584D01*
X110997894Y-69401840D01*
X111696766Y-70100712D01*
X111654708Y-70111982D01*
X111529292Y-70184390D01*
X111426890Y-70286792D01*
X111354482Y-70412208D01*
X111343212Y-70454266D01*
X110644340Y-69755394D01*
X110584084Y-69838330D01*
X110476897Y-70048697D01*
X110403934Y-70273252D01*
X110367000Y-70506447D01*
X108100500Y-70506447D01*
X108100500Y-55749097D01*
X108106738Y-55727851D01*
X108108318Y-55705763D01*
X108116390Y-55694979D01*
X108120185Y-55682058D01*
X108136918Y-55667558D01*
X108150190Y-55649830D01*
X108162810Y-55645122D01*
X108172989Y-55636303D01*
X108194906Y-55633151D01*
X108215654Y-55625413D01*
X108228814Y-55628275D01*
X108242147Y-55626359D01*
X108262290Y-55635558D01*
X108283927Y-55640265D01*
X108301652Y-55653533D01*
X108305703Y-55655384D01*
X108312181Y-55661416D01*
X108363181Y-55712416D01*
X108396666Y-55773739D01*
X108399500Y-55800097D01*
X108399500Y-64163330D01*
X108399499Y-64163348D01*
X108399499Y-64329054D01*
X108399498Y-64329054D01*
X108440423Y-64481786D01*
X108440424Y-64481787D01*
X108466608Y-64527139D01*
X108519480Y-64618716D01*
X108519482Y-64618718D01*
X108638349Y-64737585D01*
X108638355Y-64737590D01*
X114640139Y-70739374D01*
X114640149Y-70739385D01*
X114644479Y-70743715D01*
X114644480Y-70743716D01*
X114756284Y-70855520D01*
X114843095Y-70905639D01*
X114848066Y-70908509D01*
X114896285Y-70959072D01*
X114904003Y-70977581D01*
X114976432Y-71200492D01*
X115083657Y-71410933D01*
X115222483Y-71602010D01*
X115389490Y-71769017D01*
X115434904Y-71802012D01*
X115580568Y-71907844D01*
X115589153Y-71912218D01*
X115698794Y-71968082D01*
X115749590Y-72016056D01*
X115766500Y-72078567D01*
X115766500Y-75670431D01*
X115746815Y-75737470D01*
X115698796Y-75780915D01*
X115580568Y-75841155D01*
X115448004Y-75937470D01*
X115389490Y-75979983D01*
X115389488Y-75979985D01*
X115389487Y-75979985D01*
X115222485Y-76146987D01*
X115222485Y-76146988D01*
X115222483Y-76146990D01*
X115198512Y-76179983D01*
X115083657Y-76338066D01*
X114976433Y-76548503D01*
X114903446Y-76773131D01*
X114866500Y-77006402D01*
X114866500Y-77242597D01*
X114903446Y-77475868D01*
X114976433Y-77700496D01*
X115045995Y-77837018D01*
X115083657Y-77910933D01*
X115222483Y-78102010D01*
X115389490Y-78269017D01*
X115580567Y-78407843D01*
X115679991Y-78458502D01*
X115791003Y-78515066D01*
X115791005Y-78515066D01*
X115791008Y-78515068D01*
X115889771Y-78547158D01*
X116015631Y-78588053D01*
X116248903Y-78625000D01*
X116248908Y-78625000D01*
X116485097Y-78625000D01*
X116718368Y-78588053D01*
X116719870Y-78587565D01*
X116942992Y-78515068D01*
X117153433Y-78407843D01*
X117344510Y-78269017D01*
X117511517Y-78102010D01*
X117650343Y-77910933D01*
X117757568Y-77700492D01*
X117830553Y-77475868D01*
X117843059Y-77396909D01*
X117867500Y-77242597D01*
X117867500Y-77006402D01*
X117830553Y-76773131D01*
X117772327Y-76593932D01*
X117757568Y-76548508D01*
X117757566Y-76548505D01*
X117757566Y-76548503D01*
X117692568Y-76420939D01*
X117650343Y-76338067D01*
X117511517Y-76146990D01*
X117344510Y-75979983D01*
X117236953Y-75901838D01*
X117153431Y-75841155D01*
X117035204Y-75780915D01*
X116984409Y-75732941D01*
X116967500Y-75670431D01*
X116967500Y-72078567D01*
X116987185Y-72011528D01*
X117035205Y-71968082D01*
X117153433Y-71907843D01*
X117344510Y-71769017D01*
X117511517Y-71602010D01*
X117650343Y-71410933D01*
X117757568Y-71200492D01*
X117830553Y-70975868D01*
X117846020Y-70878213D01*
X117867500Y-70742597D01*
X117867500Y-70506402D01*
X117830553Y-70273131D01*
X117779192Y-70115059D01*
X117757568Y-70048508D01*
X117757566Y-70048505D01*
X117757566Y-70048503D01*
X117692373Y-69920555D01*
X117650343Y-69838067D01*
X117511517Y-69646990D01*
X117344510Y-69479983D01*
X117153433Y-69341157D01*
X117141618Y-69335137D01*
X116942996Y-69233933D01*
X116718368Y-69160946D01*
X116485097Y-69124000D01*
X116485092Y-69124000D01*
X116248908Y-69124000D01*
X116248903Y-69124000D01*
X116015631Y-69160946D01*
X115791003Y-69233933D01*
X115580566Y-69341157D01*
X115497047Y-69401838D01*
X115389490Y-69479983D01*
X115389488Y-69479985D01*
X115389487Y-69479985D01*
X115322035Y-69547438D01*
X115260712Y-69580923D01*
X115191020Y-69575939D01*
X115146673Y-69547438D01*
X111007006Y-65407771D01*
X110973521Y-65346448D01*
X110978505Y-65276756D01*
X111020377Y-65220823D01*
X111085841Y-65196406D01*
X111133687Y-65202383D01*
X111247203Y-65239999D01*
X111349991Y-65250500D01*
X112650008Y-65250499D01*
X112752797Y-65239999D01*
X112919334Y-65184814D01*
X113068656Y-65092712D01*
X113192712Y-64968656D01*
X113284814Y-64819334D01*
X113284814Y-64819331D01*
X113288448Y-64813441D01*
X113340395Y-64766716D01*
X113409358Y-64755493D01*
X113473440Y-64783336D01*
X113481668Y-64790856D01*
X113620535Y-64929723D01*
X113620540Y-64929727D01*
X113792442Y-65054620D01*
X113981782Y-65151095D01*
X114183871Y-65216757D01*
X114250000Y-65227231D01*
X114250000Y-64183012D01*
X114307007Y-64215925D01*
X114434174Y-64250000D01*
X114565826Y-64250000D01*
X114692993Y-64215925D01*
X114750000Y-64183012D01*
X114750000Y-65227230D01*
X114816126Y-65216757D01*
X114816129Y-65216757D01*
X115018217Y-65151095D01*
X115207557Y-65054620D01*
X115379459Y-64929727D01*
X115379464Y-64929723D01*
X115529723Y-64779464D01*
X115529727Y-64779459D01*
X115654620Y-64607557D01*
X115751095Y-64418217D01*
X115816757Y-64216130D01*
X115816757Y-64216127D01*
X115850000Y-64006246D01*
X115850000Y-64000000D01*
X114933012Y-64000000D01*
X114965925Y-63942993D01*
X115000000Y-63815826D01*
X115000000Y-63684174D01*
X114965925Y-63557007D01*
X114933012Y-63500000D01*
X115850000Y-63500000D01*
X115850000Y-63493753D01*
X115816757Y-63283872D01*
X115816757Y-63283869D01*
X115751095Y-63081782D01*
X115654620Y-62892442D01*
X115529727Y-62720540D01*
X115529723Y-62720535D01*
X115379464Y-62570276D01*
X115379459Y-62570272D01*
X115207557Y-62445379D01*
X115018215Y-62348903D01*
X114816124Y-62283241D01*
X114750000Y-62272768D01*
X114750000Y-63316988D01*
X114692993Y-63284075D01*
X114565826Y-63250000D01*
X114434174Y-63250000D01*
X114307007Y-63284075D01*
X114250000Y-63316988D01*
X114250000Y-62272768D01*
X114249999Y-62272768D01*
X114183875Y-62283241D01*
X113981784Y-62348903D01*
X113792442Y-62445379D01*
X113620541Y-62570271D01*
X113481668Y-62709144D01*
X113420345Y-62742628D01*
X113350653Y-62737644D01*
X113294720Y-62695772D01*
X113288448Y-62686558D01*
X113275522Y-62665602D01*
X113192712Y-62531344D01*
X113068656Y-62407288D01*
X112948606Y-62333241D01*
X112919336Y-62315187D01*
X112919331Y-62315185D01*
X112903684Y-62310000D01*
X112752797Y-62260001D01*
X112752795Y-62260000D01*
X112650010Y-62249500D01*
X111349998Y-62249500D01*
X111349981Y-62249501D01*
X111247203Y-62260000D01*
X111247200Y-62260001D01*
X111080668Y-62315185D01*
X111080663Y-62315187D01*
X110931342Y-62407289D01*
X110807289Y-62531342D01*
X110715187Y-62680663D01*
X110715185Y-62680668D01*
X110698617Y-62730668D01*
X110660001Y-62847203D01*
X110660001Y-62847204D01*
X110660000Y-62847204D01*
X110649500Y-62949983D01*
X110649500Y-64550001D01*
X110649501Y-64550018D01*
X110660000Y-64652796D01*
X110660001Y-64652799D01*
X110697615Y-64766308D01*
X110700017Y-64836136D01*
X110664285Y-64896178D01*
X110601765Y-64927371D01*
X110532306Y-64919811D01*
X110492228Y-64892993D01*
X109636819Y-64037584D01*
X109603334Y-63976261D01*
X109600500Y-63949903D01*
X109600500Y-55420946D01*
X109600500Y-55420943D01*
X109575880Y-55329057D01*
X109559577Y-55268215D01*
X109530639Y-55218095D01*
X109526564Y-55211036D01*
X109480524Y-55131290D01*
X109480521Y-55131286D01*
X109480520Y-55131284D01*
X109417445Y-55068209D01*
X110299500Y-55068209D01*
X110299500Y-55431790D01*
X110335137Y-55793630D01*
X110406064Y-56150212D01*
X110406067Y-56150223D01*
X110511614Y-56498165D01*
X110650754Y-56834078D01*
X110650756Y-56834083D01*
X110822140Y-57154720D01*
X110822151Y-57154738D01*
X111024140Y-57457035D01*
X111024150Y-57457049D01*
X111254807Y-57738106D01*
X111511893Y-57995192D01*
X111511898Y-57995196D01*
X111511899Y-57995197D01*
X111792956Y-58225854D01*
X112095268Y-58427853D01*
X112095277Y-58427858D01*
X112095279Y-58427859D01*
X112415916Y-58599243D01*
X112415918Y-58599243D01*
X112415924Y-58599247D01*
X112751836Y-58738386D01*
X113099767Y-58843930D01*
X113099773Y-58843931D01*
X113099776Y-58843932D01*
X113099787Y-58843935D01*
X113456369Y-58914862D01*
X113818206Y-58950500D01*
X113818209Y-58950500D01*
X114181791Y-58950500D01*
X114181794Y-58950500D01*
X114543631Y-58914862D01*
X114613045Y-58901054D01*
X114900212Y-58843935D01*
X114900223Y-58843932D01*
X114900223Y-58843931D01*
X114900233Y-58843930D01*
X115248164Y-58738386D01*
X115584076Y-58599247D01*
X115904732Y-58427853D01*
X116207044Y-58225854D01*
X116488101Y-57995197D01*
X116745197Y-57738101D01*
X116975854Y-57457044D01*
X117177853Y-57154732D01*
X117349247Y-56834076D01*
X117488386Y-56498164D01*
X117593930Y-56150233D01*
X117593932Y-56150223D01*
X117593935Y-56150212D01*
X117664862Y-55793630D01*
X117678478Y-55655384D01*
X117700500Y-55431794D01*
X117700500Y-55068206D01*
X117664862Y-54706369D01*
X117593935Y-54349787D01*
X117593932Y-54349776D01*
X117593931Y-54349773D01*
X117593930Y-54349767D01*
X117488386Y-54001836D01*
X117349247Y-53665924D01*
X117258561Y-53496263D01*
X117177859Y-53345279D01*
X117177858Y-53345277D01*
X117177853Y-53345268D01*
X116975854Y-53042956D01*
X116745197Y-52761899D01*
X116745196Y-52761898D01*
X116745192Y-52761893D01*
X116488106Y-52504807D01*
X116207049Y-52274150D01*
X116207048Y-52274149D01*
X116207044Y-52274146D01*
X115904732Y-52072147D01*
X115904727Y-52072144D01*
X115904720Y-52072140D01*
X115584083Y-51900756D01*
X115584078Y-51900754D01*
X115248165Y-51761614D01*
X114900223Y-51656067D01*
X114900212Y-51656064D01*
X114543630Y-51585137D01*
X114271111Y-51558296D01*
X114181794Y-51549500D01*
X113818206Y-51549500D01*
X113735679Y-51557628D01*
X113456369Y-51585137D01*
X113099787Y-51656064D01*
X113099776Y-51656067D01*
X112751834Y-51761614D01*
X112415921Y-51900754D01*
X112415916Y-51900756D01*
X112095279Y-52072140D01*
X112095261Y-52072151D01*
X111792964Y-52274140D01*
X111792950Y-52274150D01*
X111511893Y-52504807D01*
X111254807Y-52761893D01*
X111024150Y-53042950D01*
X111024140Y-53042964D01*
X110822151Y-53345261D01*
X110822140Y-53345279D01*
X110650756Y-53665916D01*
X110650754Y-53665921D01*
X110511614Y-54001834D01*
X110406067Y-54349776D01*
X110406064Y-54349787D01*
X110335137Y-54706369D01*
X110299500Y-55068209D01*
X109417445Y-55068209D01*
X109368716Y-55019480D01*
X109368715Y-55019479D01*
X109364385Y-55015149D01*
X109364374Y-55015139D01*
X105561416Y-51212181D01*
X105527931Y-51150858D01*
X105532915Y-51081166D01*
X105574787Y-51025233D01*
X105640251Y-51000816D01*
X105649097Y-51000500D01*
X115684108Y-51000500D01*
X115746249Y-51000500D01*
X115753736Y-51000726D01*
X116043796Y-51018271D01*
X116058657Y-51020075D01*
X116340798Y-51071780D01*
X116355335Y-51075363D01*
X116629172Y-51160695D01*
X116643163Y-51166000D01*
X116904743Y-51283727D01*
X116917989Y-51290680D01*
X117163465Y-51439075D01*
X117175776Y-51447573D01*
X117401573Y-51624473D01*
X117412781Y-51634403D01*
X117615596Y-51837218D01*
X117625526Y-51848426D01*
X117745481Y-52001538D01*
X117802422Y-52074217D01*
X117810926Y-52086537D01*
X117947333Y-52312181D01*
X117959316Y-52332004D01*
X117966275Y-52345263D01*
X118083997Y-52606831D01*
X118089306Y-52620832D01*
X118174635Y-52894663D01*
X118178219Y-52909201D01*
X118229923Y-53191340D01*
X118231728Y-53206205D01*
X118249274Y-53496263D01*
X118249500Y-53503750D01*
X118249500Y-115746249D01*
X118249274Y-115753736D01*
X118231728Y-116043794D01*
X118229923Y-116058659D01*
X118178219Y-116340798D01*
X118174635Y-116355336D01*
X118089306Y-116629167D01*
X118083997Y-116643168D01*
X117966275Y-116904736D01*
X117959316Y-116917995D01*
X117810928Y-117163459D01*
X117802422Y-117175782D01*
X117625526Y-117401573D01*
X117615596Y-117412781D01*
X117412781Y-117615596D01*
X117401573Y-117625526D01*
X117175782Y-117802422D01*
X117163459Y-117810928D01*
X116917995Y-117959316D01*
X116904736Y-117966275D01*
X116643168Y-118083997D01*
X116629167Y-118089306D01*
X116355336Y-118174635D01*
X116340798Y-118178219D01*
X116058659Y-118229923D01*
X116043794Y-118231728D01*
X115753736Y-118249274D01*
X115746249Y-118249500D01*
X53003751Y-118249500D01*
X52996264Y-118249274D01*
X52706205Y-118231728D01*
X52691340Y-118229923D01*
X52409201Y-118178219D01*
X52394663Y-118174635D01*
X52120832Y-118089306D01*
X52106831Y-118083997D01*
X51845263Y-117966275D01*
X51832004Y-117959316D01*
X51586540Y-117810928D01*
X51574217Y-117802422D01*
X51348426Y-117625526D01*
X51337218Y-117615596D01*
X51134403Y-117412781D01*
X51124473Y-117401573D01*
X51083475Y-117349243D01*
X50947573Y-117175776D01*
X50939075Y-117163465D01*
X50790680Y-116917989D01*
X50783727Y-116904743D01*
X50666000Y-116643163D01*
X50660693Y-116629167D01*
X50575364Y-116355336D01*
X50571780Y-116340798D01*
X50520076Y-116058659D01*
X50518271Y-116043794D01*
X50500726Y-115753736D01*
X50500500Y-115746249D01*
X50500500Y-113818206D01*
X51049500Y-113818206D01*
X51049500Y-114181794D01*
X51054620Y-114233774D01*
X51085137Y-114543630D01*
X51156064Y-114900212D01*
X51156067Y-114900223D01*
X51261614Y-115248165D01*
X51400754Y-115584078D01*
X51400756Y-115584083D01*
X51572140Y-115904720D01*
X51572151Y-115904738D01*
X51774140Y-116207035D01*
X51774150Y-116207049D01*
X52004807Y-116488106D01*
X52261893Y-116745192D01*
X52261898Y-116745196D01*
X52261899Y-116745197D01*
X52542956Y-116975854D01*
X52845268Y-117177853D01*
X52845277Y-117177858D01*
X52845279Y-117177859D01*
X53165916Y-117349243D01*
X53165918Y-117349243D01*
X53165924Y-117349247D01*
X53501836Y-117488386D01*
X53849767Y-117593930D01*
X53849773Y-117593931D01*
X53849776Y-117593932D01*
X53849787Y-117593935D01*
X54206369Y-117664862D01*
X54568206Y-117700500D01*
X54568209Y-117700500D01*
X54931791Y-117700500D01*
X54931794Y-117700500D01*
X55293631Y-117664862D01*
X55363045Y-117651054D01*
X55650212Y-117593935D01*
X55650223Y-117593932D01*
X55650223Y-117593931D01*
X55650233Y-117593930D01*
X55998164Y-117488386D01*
X56334076Y-117349247D01*
X56654732Y-117177853D01*
X56957044Y-116975854D01*
X57238101Y-116745197D01*
X57495197Y-116488101D01*
X57725854Y-116207044D01*
X57927853Y-115904732D01*
X58099247Y-115584076D01*
X58238386Y-115248164D01*
X58343930Y-114900233D01*
X58343932Y-114900223D01*
X58343935Y-114900212D01*
X58414862Y-114543630D01*
X58450500Y-114181794D01*
X58450500Y-113818206D01*
X58414862Y-113456369D01*
X58391225Y-113337535D01*
X58343935Y-113099787D01*
X58343932Y-113099776D01*
X58343931Y-113099773D01*
X58343930Y-113099767D01*
X58238386Y-112751836D01*
X58099247Y-112415924D01*
X58091407Y-112401257D01*
X57927859Y-112095279D01*
X57927858Y-112095277D01*
X57927853Y-112095268D01*
X57725854Y-111792956D01*
X57495197Y-111511899D01*
X57495196Y-111511898D01*
X57495192Y-111511893D01*
X57238106Y-111254807D01*
X56957049Y-111024150D01*
X56957048Y-111024149D01*
X56957044Y-111024146D01*
X56654732Y-110822147D01*
X56654727Y-110822144D01*
X56654720Y-110822140D01*
X56334083Y-110650756D01*
X56334078Y-110650754D01*
X55998165Y-110511614D01*
X55650223Y-110406067D01*
X55650212Y-110406064D01*
X55293630Y-110335137D01*
X55021111Y-110308296D01*
X54931794Y-110299500D01*
X54568206Y-110299500D01*
X54485679Y-110307628D01*
X54206369Y-110335137D01*
X53849787Y-110406064D01*
X53849776Y-110406067D01*
X53501834Y-110511614D01*
X53165921Y-110650754D01*
X53165916Y-110650756D01*
X52845279Y-110822140D01*
X52845261Y-110822151D01*
X52542964Y-111024140D01*
X52542950Y-111024150D01*
X52261893Y-111254807D01*
X52004807Y-111511893D01*
X51774150Y-111792950D01*
X51774140Y-111792964D01*
X51572151Y-112095261D01*
X51572140Y-112095279D01*
X51400756Y-112415916D01*
X51400754Y-112415921D01*
X51261614Y-112751834D01*
X51156067Y-113099776D01*
X51156064Y-113099787D01*
X51085137Y-113456369D01*
X51059406Y-113717630D01*
X51049500Y-113818206D01*
X50500500Y-113818206D01*
X50500500Y-55068209D01*
X51049500Y-55068209D01*
X51049500Y-55431790D01*
X51085137Y-55793630D01*
X51156064Y-56150212D01*
X51156067Y-56150223D01*
X51261614Y-56498165D01*
X51400754Y-56834078D01*
X51400756Y-56834083D01*
X51572140Y-57154720D01*
X51572151Y-57154738D01*
X51774140Y-57457035D01*
X51774150Y-57457049D01*
X52004807Y-57738106D01*
X52261893Y-57995192D01*
X52261898Y-57995196D01*
X52261899Y-57995197D01*
X52542956Y-58225854D01*
X52845268Y-58427853D01*
X52845277Y-58427858D01*
X52845279Y-58427859D01*
X53165916Y-58599243D01*
X53165918Y-58599243D01*
X53165924Y-58599247D01*
X53501836Y-58738386D01*
X53849767Y-58843930D01*
X53849773Y-58843931D01*
X53849776Y-58843932D01*
X53849787Y-58843935D01*
X54206369Y-58914862D01*
X54568206Y-58950500D01*
X54568209Y-58950500D01*
X54931791Y-58950500D01*
X54931794Y-58950500D01*
X55293631Y-58914862D01*
X55363045Y-58901054D01*
X55650212Y-58843935D01*
X55650223Y-58843932D01*
X55650223Y-58843931D01*
X55650233Y-58843930D01*
X55998164Y-58738386D01*
X56334076Y-58599247D01*
X56654732Y-58427853D01*
X56957044Y-58225854D01*
X57238101Y-57995197D01*
X57495197Y-57738101D01*
X57725854Y-57457044D01*
X57927853Y-57154732D01*
X58099247Y-56834076D01*
X58238386Y-56498164D01*
X58343930Y-56150233D01*
X58343932Y-56150223D01*
X58343935Y-56150212D01*
X58414862Y-55793630D01*
X58428478Y-55655384D01*
X58450500Y-55431794D01*
X58450500Y-55068206D01*
X58414862Y-54706369D01*
X58343935Y-54349787D01*
X58343932Y-54349776D01*
X58343931Y-54349773D01*
X58343930Y-54349767D01*
X58238386Y-54001836D01*
X58099247Y-53665924D01*
X58008561Y-53496263D01*
X57927859Y-53345279D01*
X57927858Y-53345277D01*
X57927853Y-53345268D01*
X57725854Y-53042956D01*
X57495197Y-52761899D01*
X57495196Y-52761898D01*
X57495192Y-52761893D01*
X57238106Y-52504807D01*
X56957049Y-52274150D01*
X56957048Y-52274149D01*
X56957044Y-52274146D01*
X56654732Y-52072147D01*
X56654727Y-52072144D01*
X56654720Y-52072140D01*
X56334083Y-51900756D01*
X56334078Y-51900754D01*
X55998165Y-51761614D01*
X55650223Y-51656067D01*
X55650212Y-51656064D01*
X55293630Y-51585137D01*
X55021111Y-51558296D01*
X54931794Y-51549500D01*
X54568206Y-51549500D01*
X54485679Y-51557628D01*
X54206369Y-51585137D01*
X53849787Y-51656064D01*
X53849776Y-51656067D01*
X53501834Y-51761614D01*
X53165921Y-51900754D01*
X53165916Y-51900756D01*
X52845279Y-52072140D01*
X52845261Y-52072151D01*
X52542964Y-52274140D01*
X52542950Y-52274150D01*
X52261893Y-52504807D01*
X52004807Y-52761893D01*
X51774150Y-53042950D01*
X51774140Y-53042964D01*
X51572151Y-53345261D01*
X51572140Y-53345279D01*
X51400756Y-53665916D01*
X51400754Y-53665921D01*
X51261614Y-54001834D01*
X51156067Y-54349776D01*
X51156064Y-54349787D01*
X51085137Y-54706369D01*
X51049500Y-55068209D01*
X50500500Y-55068209D01*
X50500500Y-53503750D01*
X50500726Y-53496263D01*
X50518271Y-53206205D01*
X50520076Y-53191340D01*
X50529787Y-53138352D01*
X50571780Y-52909197D01*
X50575364Y-52894663D01*
X50652096Y-52648422D01*
X50660696Y-52620822D01*
X50665998Y-52606841D01*
X50783731Y-52345249D01*
X50790676Y-52332016D01*
X50939080Y-52086526D01*
X50947567Y-52074230D01*
X51124480Y-51848417D01*
X51134395Y-51837226D01*
X51337226Y-51634395D01*
X51348417Y-51624480D01*
X51574230Y-51447567D01*
X51586526Y-51439080D01*
X51832016Y-51290676D01*
X51845249Y-51283731D01*
X52106841Y-51165998D01*
X52120822Y-51160696D01*
X52394668Y-51075362D01*
X52409197Y-51071780D01*
X52691344Y-51020075D01*
X52706201Y-51018271D01*
X52996264Y-51000726D01*
X53003751Y-51000500D01*
X53065892Y-51000500D01*
X76100902Y-51000500D01*
X76167941Y-51020185D01*
G37*
%TD.AperFunction*%
%TA.AperFunction,Conductor*%
G36*
X64557370Y-113091657D02*
G01*
X64525000Y-113212465D01*
X64525000Y-113337535D01*
X64557370Y-113458343D01*
X64595854Y-113525000D01*
X62904146Y-113525000D01*
X62942630Y-113458343D01*
X62975000Y-113337535D01*
X62975000Y-113212465D01*
X62942630Y-113091657D01*
X62904146Y-113025000D01*
X64595854Y-113025000D01*
X64557370Y-113091657D01*
G37*
%TD.AperFunction*%
%TA.AperFunction,Conductor*%
G36*
X67057370Y-113091657D02*
G01*
X67025000Y-113212465D01*
X67025000Y-113337535D01*
X67057370Y-113458343D01*
X67095854Y-113525000D01*
X65404146Y-113525000D01*
X65442630Y-113458343D01*
X65475000Y-113337535D01*
X65475000Y-113212465D01*
X65442630Y-113091657D01*
X65404146Y-113025000D01*
X67095854Y-113025000D01*
X67057370Y-113091657D01*
G37*
%TD.AperFunction*%
%TA.AperFunction,Conductor*%
G36*
X69557370Y-113091657D02*
G01*
X69525000Y-113212465D01*
X69525000Y-113337535D01*
X69557370Y-113458343D01*
X69595854Y-113525000D01*
X67904146Y-113525000D01*
X67942630Y-113458343D01*
X67975000Y-113337535D01*
X67975000Y-113212465D01*
X67942630Y-113091657D01*
X67904146Y-113025000D01*
X69595854Y-113025000D01*
X69557370Y-113091657D01*
G37*
%TD.AperFunction*%
%TA.AperFunction,Conductor*%
G36*
X72057370Y-113091657D02*
G01*
X72025000Y-113212465D01*
X72025000Y-113337535D01*
X72057370Y-113458343D01*
X72095854Y-113525000D01*
X70404146Y-113525000D01*
X70442630Y-113458343D01*
X70475000Y-113337535D01*
X70475000Y-113212465D01*
X70442630Y-113091657D01*
X70404146Y-113025000D01*
X72095854Y-113025000D01*
X72057370Y-113091657D01*
G37*
%TD.AperFunction*%
%TA.AperFunction,Conductor*%
G36*
X82057370Y-113091657D02*
G01*
X82025000Y-113212465D01*
X82025000Y-113337535D01*
X82057370Y-113458343D01*
X82095854Y-113525000D01*
X80404146Y-113525000D01*
X80442630Y-113458343D01*
X80475000Y-113337535D01*
X80475000Y-113212465D01*
X80442630Y-113091657D01*
X80404146Y-113025000D01*
X82095854Y-113025000D01*
X82057370Y-113091657D01*
G37*
%TD.AperFunction*%
%TA.AperFunction,Conductor*%
G36*
X84557370Y-113091657D02*
G01*
X84525000Y-113212465D01*
X84525000Y-113337535D01*
X84557370Y-113458343D01*
X84595854Y-113525000D01*
X82904146Y-113525000D01*
X82942630Y-113458343D01*
X82975000Y-113337535D01*
X82975000Y-113212465D01*
X82942630Y-113091657D01*
X82904146Y-113025000D01*
X84595854Y-113025000D01*
X84557370Y-113091657D01*
G37*
%TD.AperFunction*%
%TA.AperFunction,Conductor*%
G36*
X74557370Y-106066657D02*
G01*
X74525000Y-106187465D01*
X74525000Y-106312535D01*
X74557370Y-106433343D01*
X74595854Y-106500000D01*
X72904146Y-106500000D01*
X72942630Y-106433343D01*
X72975000Y-106312535D01*
X72975000Y-106187465D01*
X72942630Y-106066657D01*
X72904146Y-106000000D01*
X74595854Y-106000000D01*
X74557370Y-106066657D01*
G37*
%TD.AperFunction*%
%TA.AperFunction,Conductor*%
G36*
X84557370Y-106066657D02*
G01*
X84525000Y-106187465D01*
X84525000Y-106312535D01*
X84557370Y-106433343D01*
X84595854Y-106500000D01*
X82904146Y-106500000D01*
X82942630Y-106433343D01*
X82975000Y-106312535D01*
X82975000Y-106187465D01*
X82942630Y-106066657D01*
X82904146Y-106000000D01*
X84595854Y-106000000D01*
X84557370Y-106066657D01*
G37*
%TD.AperFunction*%
%TA.AperFunction,Conductor*%
G36*
X79581703Y-99906384D02*
G01*
X79588181Y-99912416D01*
X84406072Y-104730307D01*
X84439557Y-104791630D01*
X84434573Y-104861322D01*
X84392701Y-104917255D01*
X84374687Y-104928472D01*
X84292444Y-104970377D01*
X84120540Y-105095272D01*
X84120535Y-105095276D01*
X83970276Y-105245535D01*
X83970272Y-105245540D01*
X83850318Y-105410644D01*
X83794988Y-105453310D01*
X83725375Y-105459289D01*
X83663580Y-105426684D01*
X83649682Y-105410644D01*
X83529727Y-105245540D01*
X83529723Y-105245535D01*
X83379464Y-105095276D01*
X83379459Y-105095272D01*
X83207557Y-104970379D01*
X83018215Y-104873903D01*
X82816124Y-104808241D01*
X82750000Y-104797768D01*
X82750000Y-105845854D01*
X82683343Y-105807370D01*
X82562535Y-105775000D01*
X82437465Y-105775000D01*
X82316657Y-105807370D01*
X82250000Y-105845854D01*
X82250000Y-104797768D01*
X82249999Y-104797768D01*
X82183875Y-104808241D01*
X81981784Y-104873903D01*
X81792442Y-104970379D01*
X81620540Y-105095272D01*
X81620535Y-105095276D01*
X81470276Y-105245535D01*
X81470272Y-105245540D01*
X81350627Y-105410218D01*
X81295297Y-105452884D01*
X81225684Y-105458863D01*
X81163889Y-105426257D01*
X81149991Y-105410218D01*
X81030109Y-105245214D01*
X81030105Y-105245209D01*
X80879786Y-105094890D01*
X80707820Y-104969951D01*
X80518414Y-104873444D01*
X80518413Y-104873443D01*
X80518412Y-104873443D01*
X80316243Y-104807754D01*
X80316241Y-104807753D01*
X80316240Y-104807753D01*
X80154957Y-104782208D01*
X80106287Y-104774500D01*
X79893713Y-104774500D01*
X79854202Y-104780757D01*
X79683759Y-104807753D01*
X79683755Y-104807754D01*
X79538817Y-104854847D01*
X79468976Y-104856842D01*
X79409144Y-104820761D01*
X79378316Y-104758060D01*
X79376500Y-104736916D01*
X79376500Y-100000097D01*
X79396185Y-99933058D01*
X79448989Y-99887303D01*
X79518147Y-99877359D01*
X79581703Y-99906384D01*
G37*
%TD.AperFunction*%
%TD*%
M02*
