%TF.GenerationSoftware,KiCad,Pcbnew,9.0.2*%
%TF.CreationDate,2026-07-07T15:29:13-05:00*%
%TF.ProjectId,Tesseract,54657373-6572-4616-9374-2e6b69636164,rev?*%
%TF.SameCoordinates,Original*%
%TF.FileFunction,Soldermask,Top*%
%TF.FilePolarity,Negative*%
%FSLAX46Y46*%
G04 Gerber Fmt 4.6, Leading zero omitted, Abs format (unit mm)*
G04 Created by KiCad (PCBNEW 9.0.2) date 2026-07-07 15:29:13*
%MOMM*%
%LPD*%
G01*
G04 APERTURE LIST*
G04 Aperture macros list*
%AMRoundRect*
0 Rectangle with rounded corners*
0 $1 Rounding radius*
0 $2 $3 $4 $5 $6 $7 $8 $9 X,Y pos of 4 corners*
0 Add a 4 corners polygon primitive as box body*
4,1,4,$2,$3,$4,$5,$6,$7,$8,$9,$2,$3,0*
0 Add four circle primitives for the rounded corners*
1,1,$1+$1,$2,$3*
1,1,$1+$1,$4,$5*
1,1,$1+$1,$6,$7*
1,1,$1+$1,$8,$9*
0 Add four rect primitives between the rounded corners*
20,1,$1+$1,$2,$3,$4,$5,0*
20,1,$1+$1,$4,$5,$6,$7,0*
20,1,$1+$1,$6,$7,$8,$9,0*
20,1,$1+$1,$8,$9,$2,$3,0*%
G04 Aperture macros list end*
%ADD10C,0.000000*%
%ADD11RoundRect,0.250000X-0.337500X-0.475000X0.337500X-0.475000X0.337500X0.475000X-0.337500X0.475000X0*%
%ADD12C,2.000000*%
%ADD13RoundRect,0.250000X0.450000X-0.350000X0.450000X0.350000X-0.450000X0.350000X-0.450000X-0.350000X0*%
%ADD14C,3.600000*%
%ADD15C,6.400000*%
%ADD16RoundRect,0.250000X-0.600000X-0.725000X0.600000X-0.725000X0.600000X0.725000X-0.600000X0.725000X0*%
%ADD17O,1.700000X1.950000*%
%ADD18RoundRect,0.250000X-0.450000X0.350000X-0.450000X-0.350000X0.450000X-0.350000X0.450000X0.350000X0*%
%ADD19RoundRect,0.250000X0.337500X0.475000X-0.337500X0.475000X-0.337500X-0.475000X0.337500X-0.475000X0*%
%ADD20R,0.406400X0.609600*%
%ADD21R,0.050800X0.050800*%
%ADD22RoundRect,0.250000X0.475000X-0.337500X0.475000X0.337500X-0.475000X0.337500X-0.475000X-0.337500X0*%
%ADD23RoundRect,0.250000X-0.475000X0.337500X-0.475000X-0.337500X0.475000X-0.337500X0.475000X0.337500X0*%
%ADD24R,0.850000X0.300000*%
%ADD25R,0.300000X0.850000*%
%ADD26R,1.250000X1.250000*%
%ADD27RoundRect,0.250000X-0.600000X-0.750000X0.600000X-0.750000X0.600000X0.750000X-0.600000X0.750000X0*%
%ADD28O,1.700000X2.000000*%
G04 APERTURE END LIST*
D10*
%TO.C,MIC1*%
G36*
X86194400Y-95125000D02*
G01*
X86153997Y-95380094D01*
X86036744Y-95610217D01*
X85854117Y-95792844D01*
X85623994Y-95910097D01*
X85368900Y-95950500D01*
X85113806Y-95910097D01*
X84883683Y-95792844D01*
X84701056Y-95610217D01*
X84583803Y-95380094D01*
X84543400Y-95125000D01*
X84546541Y-95053053D01*
X84850181Y-95079618D01*
X84848200Y-95125000D01*
X84873685Y-95285905D01*
X84947645Y-95431060D01*
X85062840Y-95546255D01*
X85207995Y-95620215D01*
X85368900Y-95645700D01*
X85529805Y-95620215D01*
X85674960Y-95546255D01*
X85790155Y-95431060D01*
X85864115Y-95285905D01*
X85889600Y-95125000D01*
X85887619Y-95079618D01*
X86191259Y-95053053D01*
X86194400Y-95125000D01*
G37*
G36*
X85623994Y-94339903D02*
G01*
X85854117Y-94457156D01*
X86036744Y-94639783D01*
X86153997Y-94869906D01*
X86194400Y-95125000D01*
X86191259Y-95196947D01*
X85887619Y-95170382D01*
X85889600Y-95125000D01*
X85864115Y-94964095D01*
X85790155Y-94818940D01*
X85674960Y-94703745D01*
X85529805Y-94629785D01*
X85368900Y-94604300D01*
X85207995Y-94629785D01*
X85062840Y-94703745D01*
X84947645Y-94818940D01*
X84873685Y-94964095D01*
X84848200Y-95125000D01*
X84850181Y-95170382D01*
X84546541Y-95196947D01*
X84543400Y-95125000D01*
X84583803Y-94869906D01*
X84701056Y-94639783D01*
X84883683Y-94457156D01*
X85113806Y-94339903D01*
X85368900Y-94299500D01*
X85623994Y-94339903D01*
G37*
%TD*%
D11*
%TO.C,C2*%
X112000000Y-103000000D03*
X114075000Y-103000000D03*
%TD*%
D12*
%TO.C,SW1*%
X56883000Y-70824500D03*
X56883000Y-77324500D03*
X52383000Y-70824500D03*
X52383000Y-77324500D03*
%TD*%
D13*
%TO.C,R4*%
X80750000Y-93250000D03*
X80750000Y-91250000D03*
%TD*%
D14*
%TO.C,REF\u002A\u002A*%
X66375000Y-74625000D03*
D15*
X66375000Y-74625000D03*
%TD*%
D16*
%TO.C,J5*%
X91250000Y-113225000D03*
D17*
X93750000Y-113225000D03*
X96250000Y-113225000D03*
%TD*%
D18*
%TO.C,R1*%
X116250000Y-106250000D03*
X116250000Y-108250000D03*
%TD*%
%TO.C,R2*%
X116250000Y-102500000D03*
X116250000Y-104500000D03*
%TD*%
D14*
%TO.C,REF\u002A\u002A*%
X114000000Y-114000000D03*
D15*
X114000000Y-114000000D03*
%TD*%
D12*
%TO.C,SW4*%
X111867000Y-98624500D03*
X111867000Y-92124500D03*
X116367000Y-98624500D03*
X116367000Y-92124500D03*
%TD*%
D19*
%TO.C,C1*%
X110250000Y-103000000D03*
X108175000Y-103000000D03*
%TD*%
D12*
%TO.C,SW3*%
X111867000Y-77124500D03*
X111867000Y-70624500D03*
X116367000Y-77124500D03*
X116367000Y-70624500D03*
%TD*%
D20*
%TO.C,MIC1*%
X82788900Y-96200000D03*
X83438900Y-96200000D03*
X84088900Y-96200000D03*
D21*
X86042000Y-95125000D03*
D20*
X84088900Y-94050000D03*
X83438900Y-94050000D03*
X82788900Y-94050000D03*
%TD*%
D14*
%TO.C,REF\u002A\u002A*%
X102375000Y-94125000D03*
D15*
X102375000Y-94125000D03*
%TD*%
D22*
%TO.C,C4*%
X65750000Y-103500000D03*
X65750000Y-101425000D03*
%TD*%
D14*
%TO.C,REF\u002A\u002A*%
X54750000Y-55250000D03*
D15*
X54750000Y-55250000D03*
%TD*%
D12*
%TO.C,SW2*%
X56883000Y-92324500D03*
X56883000Y-98824500D03*
X52383000Y-92324500D03*
X52383000Y-98824500D03*
%TD*%
D14*
%TO.C,REF\u002A\u002A*%
X114000000Y-55250000D03*
D15*
X114000000Y-55250000D03*
%TD*%
D23*
%TO.C,C6*%
X83250000Y-98425000D03*
X83250000Y-100500000D03*
%TD*%
%TO.C,C3*%
X63500000Y-101425000D03*
X63500000Y-103500000D03*
%TD*%
D14*
%TO.C,REF\u002A\u002A*%
X54750000Y-114000000D03*
D15*
X54750000Y-114000000D03*
%TD*%
D24*
%TO.C,IC1*%
X113400000Y-107250000D03*
X113400000Y-106750000D03*
X113400000Y-106250000D03*
X113400000Y-105750000D03*
D25*
X112700000Y-105050000D03*
X112200000Y-105050000D03*
X111700000Y-105050000D03*
X111200000Y-105050000D03*
D24*
X110500000Y-105750000D03*
X110500000Y-106250000D03*
X110500000Y-106750000D03*
X110500000Y-107250000D03*
D25*
X111200000Y-107950000D03*
X111700000Y-107950000D03*
X112200000Y-107950000D03*
X112700000Y-107950000D03*
D26*
X111950000Y-106500000D03*
%TD*%
D23*
%TO.C,C5*%
X85250000Y-98425000D03*
X85250000Y-100500000D03*
%TD*%
D16*
%TO.C,J6*%
X88250000Y-55250000D03*
D17*
X90750000Y-55250000D03*
X93250000Y-55250000D03*
X95750000Y-55250000D03*
X98250000Y-55250000D03*
X100750000Y-55250000D03*
%TD*%
D27*
%TO.C,J3*%
X91250000Y-106250000D03*
D28*
X93750000Y-106250000D03*
%TD*%
D16*
%TO.C,J1*%
X62500000Y-106250000D03*
D17*
X65000000Y-106250000D03*
X67500000Y-106250000D03*
X70000000Y-106250000D03*
X72500000Y-106250000D03*
X75000000Y-106250000D03*
X77500000Y-106250000D03*
X80000000Y-106250000D03*
X82500000Y-106250000D03*
X85000000Y-106250000D03*
%TD*%
D27*
%TO.C,J2*%
X112000000Y-63750000D03*
D28*
X114500000Y-63750000D03*
%TD*%
D16*
%TO.C,J4*%
X54000000Y-63775000D03*
D17*
X56500000Y-63775000D03*
X59000000Y-63775000D03*
%TD*%
D16*
%TO.C,J8*%
X62500000Y-113275000D03*
D17*
X65000000Y-113275000D03*
X67500000Y-113275000D03*
X70000000Y-113275000D03*
X72500000Y-113275000D03*
X75000000Y-113275000D03*
X77500000Y-113275000D03*
X80000000Y-113275000D03*
X82500000Y-113275000D03*
X85000000Y-113275000D03*
%TD*%
D16*
%TO.C,J7*%
X63000000Y-55250000D03*
D17*
X65500000Y-55250000D03*
X68000000Y-55250000D03*
X70500000Y-55250000D03*
X73000000Y-55250000D03*
X75500000Y-55250000D03*
X78000000Y-55250000D03*
X80500000Y-55250000D03*
%TD*%
M02*
