%TF.GenerationSoftware,KiCad,Pcbnew,9.0.2*%
%TF.CreationDate,2026-07-09T15:26:05-05:00*%
%TF.ProjectId,Tesseract,54657373-6572-4616-9374-2e6b69636164,rev?*%
%TF.SameCoordinates,Original*%
%TF.FileFunction,Paste,Top*%
%TF.FilePolarity,Positive*%
%FSLAX46Y46*%
G04 Gerber Fmt 4.6, Leading zero omitted, Abs format (unit mm)*
G04 Created by KiCad (PCBNEW 9.0.2) date 2026-07-09 15:26:05*
%MOMM*%
%LPD*%
G01*
G04 APERTURE LIST*
G04 Aperture macros list*
%AMRoundRect*
0 Rectangle with rounded corners*
0 $1 Rounding radius*
0 $2 $3 $4 $5 $6 $7 $8 $9 X,Y pos of 4 corners*
0 Add a 4 corners polygon primitive as box body*
4,1,4,$2,$3,$4,$5,$6,$7,$8,$9,$2,$3,0*
0 Add four circle primitives for the rounded corners*
1,1,$1+$1,$2,$3*
1,1,$1+$1,$4,$5*
1,1,$1+$1,$6,$7*
1,1,$1+$1,$8,$9*
0 Add four rect primitives between the rounded corners*
20,1,$1+$1,$2,$3,$4,$5,0*
20,1,$1+$1,$4,$5,$6,$7,0*
20,1,$1+$1,$6,$7,$8,$9,0*
20,1,$1+$1,$8,$9,$2,$3,0*%
%AMFreePoly0*
4,1,51,0.928194,0.785097,1.158317,0.667844,1.340944,0.485217,1.458197,0.255094,1.487317,0.071234,1.495459,0.071947,1.498600,0.000000,1.495459,-0.071947,1.487317,-0.071234,1.458197,-0.255094,1.340944,-0.485217,1.158317,-0.667844,0.928194,-0.785097,0.673100,-0.825500,0.418006,-0.785097,0.187883,-0.667844,0.005256,-0.485217,-0.111997,-0.255094,-0.141117,-0.071234,-0.149259,-0.071947,
-0.152400,0.000000,0.152400,0.000000,0.177885,-0.160905,0.251845,-0.306060,0.367040,-0.421255,0.512195,-0.495215,0.673100,-0.520700,0.834005,-0.495215,0.979160,-0.421255,1.094355,-0.306060,1.168315,-0.160905,1.193800,0.000000,1.168315,0.160905,1.094355,0.306060,0.979160,0.421255,0.834005,0.495215,0.673100,0.520700,0.512195,0.495215,0.367040,0.421255,0.251845,0.306060,
0.177885,0.160905,0.152400,0.000000,-0.152400,0.000000,-0.149259,0.071947,-0.141117,0.071234,-0.111997,0.255094,0.005256,0.485217,0.187883,0.667844,0.418006,0.785097,0.673100,0.825500,0.928194,0.785097,0.928194,0.785097,$1*%
G04 Aperture macros list end*
%ADD10R,0.406400X0.609600*%
%ADD11FreePoly0,180.000000*%
%ADD12RoundRect,0.250000X-0.337500X-0.475000X0.337500X-0.475000X0.337500X0.475000X-0.337500X0.475000X0*%
%ADD13RoundRect,0.250000X0.450000X-0.350000X0.450000X0.350000X-0.450000X0.350000X-0.450000X-0.350000X0*%
%ADD14RoundRect,0.250000X-0.450000X0.350000X-0.450000X-0.350000X0.450000X-0.350000X0.450000X0.350000X0*%
%ADD15RoundRect,0.250000X0.337500X0.475000X-0.337500X0.475000X-0.337500X-0.475000X0.337500X-0.475000X0*%
%ADD16RoundRect,0.250000X0.475000X-0.337500X0.475000X0.337500X-0.475000X0.337500X-0.475000X-0.337500X0*%
%ADD17RoundRect,0.250000X-0.475000X0.337500X-0.475000X-0.337500X0.475000X-0.337500X0.475000X0.337500X0*%
%ADD18R,0.850000X0.300000*%
%ADD19R,0.300000X0.850000*%
%ADD20R,1.250000X1.250000*%
G04 APERTURE END LIST*
D10*
%TO.C,MIC1*%
X82788900Y-94050000D03*
X83438900Y-94050000D03*
X84088900Y-94050000D03*
D11*
X86042000Y-95125000D03*
D10*
X84088900Y-96200000D03*
X83438900Y-96200000D03*
X82788900Y-96200000D03*
%TD*%
D12*
%TO.C,C2*%
X112000000Y-103000000D03*
X114075000Y-103000000D03*
%TD*%
D13*
%TO.C,R4*%
X80750000Y-94750000D03*
X80750000Y-92750000D03*
%TD*%
D14*
%TO.C,R1*%
X116250000Y-106250000D03*
X116250000Y-108250000D03*
%TD*%
%TO.C,R2*%
X116250000Y-102500000D03*
X116250000Y-104500000D03*
%TD*%
D15*
%TO.C,C1*%
X110250000Y-103000000D03*
X108175000Y-103000000D03*
%TD*%
D16*
%TO.C,C4*%
X65750000Y-103500000D03*
X65750000Y-101425000D03*
%TD*%
D17*
%TO.C,C6*%
X83250000Y-98425000D03*
X83250000Y-100500000D03*
%TD*%
%TO.C,C3*%
X63500000Y-101425000D03*
X63500000Y-103500000D03*
%TD*%
D18*
%TO.C,IC1*%
X113400000Y-107250000D03*
X113400000Y-106750000D03*
X113400000Y-106250000D03*
X113400000Y-105750000D03*
D19*
X112700000Y-105050000D03*
X112200000Y-105050000D03*
X111700000Y-105050000D03*
X111200000Y-105050000D03*
D18*
X110500000Y-105750000D03*
X110500000Y-106250000D03*
X110500000Y-106750000D03*
X110500000Y-107250000D03*
D19*
X111200000Y-107950000D03*
X111700000Y-107950000D03*
X112200000Y-107950000D03*
X112700000Y-107950000D03*
D20*
X111950000Y-106500000D03*
%TD*%
D17*
%TO.C,C5*%
X85250000Y-98425000D03*
X85250000Y-100500000D03*
%TD*%
M02*
