%TF.GenerationSoftware,KiCad,Pcbnew,9.0.2*%
%TF.CreationDate,2026-07-09T15:26:05-05:00*%
%TF.ProjectId,Tesseract,54657373-6572-4616-9374-2e6b69636164,rev?*%
%TF.SameCoordinates,Original*%
%TF.FileFunction,Soldermask,Top*%
%TF.FilePolarity,Negative*%
%FSLAX46Y46*%
G04 Gerber Fmt 4.6, Leading zero omitted, Abs format (unit mm)*
G04 Created by KiCad (PCBNEW 9.0.2) date 2026-07-09 15:26:05*
%MOMM*%
%LPD*%
G01*
G04 APERTURE LIST*
G04 Aperture macros list*
%AMRoundRect*
0 Rectangle with rounded corners*
0 $1 Rounding radius*
0 $2 $3 $4 $5 $6 $7 $8 $9 X,Y pos of 4 corners*
0 Add a 4 corners polygon primitive as box body*
4,1,4,$2,$3,$4,$5,$6,$7,$8,$9,$2,$3,0*
0 Add four circle primitives for the rounded corners*
1,1,$1+$1,$2,$3*
1,1,$1+$1,$4,$5*
1,1,$1+$1,$6,$7*
1,1,$1+$1,$8,$9*
0 Add four rect primitives between the rounded corners*
20,1,$1+$1,$2,$3,$4,$5,0*
20,1,$1+$1,$4,$5,$6,$7,0*
20,1,$1+$1,$6,$7,$8,$9,0*
20,1,$1+$1,$8,$9,$2,$3,0*%
%AMFreePoly0*
4,1,51,0.928194,0.785097,1.158317,0.667844,1.340944,0.485217,1.458197,0.255094,1.487317,0.071234,1.495459,0.071947,1.498600,0.000000,1.495459,-0.071947,1.487317,-0.071234,1.458197,-0.255094,1.340944,-0.485217,1.158317,-0.667844,0.928194,-0.785097,0.673100,-0.825500,0.418006,-0.785097,0.187883,-0.667844,0.005256,-0.485217,-0.111997,-0.255094,-0.141117,-0.071234,-0.149259,-0.071947,
-0.152400,0.000000,0.152400,0.000000,0.177885,-0.160905,0.251845,-0.306060,0.367040,-0.421255,0.512195,-0.495215,0.673100,-0.520700,0.834005,-0.495215,0.979160,-0.421255,1.094355,-0.306060,1.168315,-0.160905,1.193800,0.000000,1.168315,0.160905,1.094355,0.306060,0.979160,0.421255,0.834005,0.495215,0.673100,0.520700,0.512195,0.495215,0.367040,0.421255,0.251845,0.306060,
0.177885,0.160905,0.152400,0.000000,-0.152400,0.000000,-0.149259,0.071947,-0.141117,0.071234,-0.111997,0.255094,0.005256,0.485217,0.187883,0.667844,0.418006,0.785097,0.673100,0.825500,0.928194,0.785097,0.928194,0.785097,$1*%
G04 Aperture macros list end*
%ADD10C,3.600000*%
%ADD11C,6.400000*%
%ADD12R,0.406400X0.609600*%
%ADD13FreePoly0,180.000000*%
%ADD14RoundRect,0.250000X-0.337500X-0.475000X0.337500X-0.475000X0.337500X0.475000X-0.337500X0.475000X0*%
%ADD15C,2.000000*%
%ADD16RoundRect,0.250000X0.450000X-0.350000X0.450000X0.350000X-0.450000X0.350000X-0.450000X-0.350000X0*%
%ADD17RoundRect,0.250000X-0.600000X-0.725000X0.600000X-0.725000X0.600000X0.725000X-0.600000X0.725000X0*%
%ADD18O,1.700000X1.950000*%
%ADD19RoundRect,0.250000X-0.450000X0.350000X-0.450000X-0.350000X0.450000X-0.350000X0.450000X0.350000X0*%
%ADD20RoundRect,0.250000X0.337500X0.475000X-0.337500X0.475000X-0.337500X-0.475000X0.337500X-0.475000X0*%
%ADD21RoundRect,0.250000X0.475000X-0.337500X0.475000X0.337500X-0.475000X0.337500X-0.475000X-0.337500X0*%
%ADD22RoundRect,0.250000X-0.475000X0.337500X-0.475000X-0.337500X0.475000X-0.337500X0.475000X0.337500X0*%
%ADD23R,0.850000X0.300000*%
%ADD24R,0.300000X0.850000*%
%ADD25R,1.250000X1.250000*%
%ADD26RoundRect,0.250000X-0.600000X-0.750000X0.600000X-0.750000X0.600000X0.750000X-0.600000X0.750000X0*%
%ADD27O,1.700000X2.000000*%
G04 APERTURE END LIST*
D10*
%TO.C,REF\u002A\u002A*%
X66000000Y-73000000D03*
D11*
X66000000Y-73000000D03*
%TD*%
D12*
%TO.C,MIC1*%
X82788900Y-94050000D03*
X83438900Y-94050000D03*
X84088900Y-94050000D03*
D13*
X86042000Y-95125000D03*
D12*
X84088900Y-96200000D03*
X83438900Y-96200000D03*
X82788900Y-96200000D03*
%TD*%
D14*
%TO.C,C2*%
X112000000Y-103000000D03*
X114075000Y-103000000D03*
%TD*%
D15*
%TO.C,SW1*%
X56883000Y-70824500D03*
X56883000Y-77324500D03*
X52383000Y-70824500D03*
X52383000Y-77324500D03*
%TD*%
D16*
%TO.C,R4*%
X80750000Y-94750000D03*
X80750000Y-92750000D03*
%TD*%
D17*
%TO.C,J5*%
X91250000Y-113225000D03*
D18*
X93750000Y-113225000D03*
X96250000Y-113225000D03*
%TD*%
D19*
%TO.C,R1*%
X116250000Y-106250000D03*
X116250000Y-108250000D03*
%TD*%
%TO.C,R2*%
X116250000Y-102500000D03*
X116250000Y-104500000D03*
%TD*%
D10*
%TO.C,REF\u002A\u002A*%
X114000000Y-114000000D03*
D11*
X114000000Y-114000000D03*
%TD*%
D15*
%TO.C,SW4*%
X111867000Y-98624500D03*
X111867000Y-92124500D03*
X116367000Y-98624500D03*
X116367000Y-92124500D03*
%TD*%
D20*
%TO.C,C1*%
X110250000Y-103000000D03*
X108175000Y-103000000D03*
%TD*%
D15*
%TO.C,SW3*%
X111867000Y-77124500D03*
X111867000Y-70624500D03*
X116367000Y-77124500D03*
X116367000Y-70624500D03*
%TD*%
D10*
%TO.C,REF\u002A\u002A*%
X103000000Y-96000000D03*
D11*
X103000000Y-96000000D03*
%TD*%
D21*
%TO.C,C4*%
X65750000Y-103500000D03*
X65750000Y-101425000D03*
%TD*%
D10*
%TO.C,REF\u002A\u002A*%
X54750000Y-55250000D03*
D11*
X54750000Y-55250000D03*
%TD*%
D15*
%TO.C,SW2*%
X56883000Y-92324500D03*
X56883000Y-98824500D03*
X52383000Y-92324500D03*
X52383000Y-98824500D03*
%TD*%
D10*
%TO.C,REF\u002A\u002A*%
X114000000Y-55250000D03*
D11*
X114000000Y-55250000D03*
%TD*%
D22*
%TO.C,C6*%
X83250000Y-98425000D03*
X83250000Y-100500000D03*
%TD*%
%TO.C,C3*%
X63500000Y-101425000D03*
X63500000Y-103500000D03*
%TD*%
D10*
%TO.C,REF\u002A\u002A*%
X54750000Y-114000000D03*
D11*
X54750000Y-114000000D03*
%TD*%
D23*
%TO.C,IC1*%
X113400000Y-107250000D03*
X113400000Y-106750000D03*
X113400000Y-106250000D03*
X113400000Y-105750000D03*
D24*
X112700000Y-105050000D03*
X112200000Y-105050000D03*
X111700000Y-105050000D03*
X111200000Y-105050000D03*
D23*
X110500000Y-105750000D03*
X110500000Y-106250000D03*
X110500000Y-106750000D03*
X110500000Y-107250000D03*
D24*
X111200000Y-107950000D03*
X111700000Y-107950000D03*
X112200000Y-107950000D03*
X112700000Y-107950000D03*
D25*
X111950000Y-106500000D03*
%TD*%
D22*
%TO.C,C5*%
X85250000Y-98425000D03*
X85250000Y-100500000D03*
%TD*%
D17*
%TO.C,J6*%
X85750000Y-55250000D03*
D18*
X88250000Y-55250000D03*
X90750000Y-55250000D03*
X93250000Y-55250000D03*
X95750000Y-55250000D03*
X98250000Y-55250000D03*
X100750000Y-55250000D03*
%TD*%
D26*
%TO.C,J3*%
X91250000Y-106250000D03*
D27*
X93750000Y-106250000D03*
%TD*%
D17*
%TO.C,J1*%
X62500000Y-106250000D03*
D18*
X65000000Y-106250000D03*
X67500000Y-106250000D03*
X70000000Y-106250000D03*
X72500000Y-106250000D03*
X75000000Y-106250000D03*
X77500000Y-106250000D03*
X80000000Y-106250000D03*
X82500000Y-106250000D03*
X85000000Y-106250000D03*
%TD*%
D26*
%TO.C,J2*%
X112000000Y-63750000D03*
D27*
X114500000Y-63750000D03*
%TD*%
D17*
%TO.C,J4*%
X54000000Y-63775000D03*
D18*
X56500000Y-63775000D03*
X59000000Y-63775000D03*
%TD*%
D17*
%TO.C,J8*%
X62500000Y-113275000D03*
D18*
X65000000Y-113275000D03*
X67500000Y-113275000D03*
X70000000Y-113275000D03*
X72500000Y-113275000D03*
X75000000Y-113275000D03*
X77500000Y-113275000D03*
X80000000Y-113275000D03*
X82500000Y-113275000D03*
X85000000Y-113275000D03*
%TD*%
D17*
%TO.C,J7*%
X63000000Y-55250000D03*
D18*
X65500000Y-55250000D03*
X68000000Y-55250000D03*
X70500000Y-55250000D03*
X73000000Y-55250000D03*
X75500000Y-55250000D03*
X78000000Y-55250000D03*
%TD*%
M02*
