M48
; DRILL file {KiCad 9.0.2} date 2026-07-09T15:26:07-0500
; FORMAT={-:-/ absolute / metric / decimal}
; #@! TF.CreationDate,2026-07-09T15:26:07-05:00
; #@! TF.GenerationSoftware,Kicad,Pcbnew,9.0.2
; #@! TF.FileFunction,MixedPlating,1,2
FMAT,2
METRIC
; #@! TA.AperFunction,Plated,PTH,ViaDrill
T1C0.300
; #@! TA.AperFunction,Plated,PTH,ComponentDrill
T2C0.950
; #@! TA.AperFunction,Plated,PTH,ComponentDrill
T3C1.000
; #@! TA.AperFunction,Plated,PTH,ComponentDrill
T4C1.100
; #@! TA.AperFunction,Plated,PTH,ComponentDrill
T5C3.200
; #@! TA.AperFunction,NonPlated,NPTH,ComponentDrill
T6C0.305
%
G90
G05
T1
X65.75Y-100.0
X69.5Y-60.75
X77.0Y-72.75
X80.75Y-91.0
X80.875Y-63.375
X80.875Y-68.875
X81.5Y-96.25
X83.439Y-90.75
X87.0Y-100.5
X87.248Y-94.748
X88.5Y-98.5
X93.625Y-88.625
X94.25Y-68.75
X95.0Y-71.5
X100.75Y-100.75
X105.75Y-102.0
X106.75Y-58.75
X110.75Y-109.25
X112.2Y-109.0
X113.75Y-109.0
X114.25Y-101.75
X114.5Y-107.35
X114.538Y-105.788
X116.5Y-110.25
T2
X54.0Y-63.775
X56.5Y-63.775
X59.0Y-63.775
X62.5Y-106.25
X62.5Y-113.275
X63.0Y-55.25
X65.0Y-106.25
X65.0Y-113.275
X65.5Y-55.25
X67.5Y-106.25
X67.5Y-113.275
X68.0Y-55.25
X70.0Y-106.25
X70.0Y-113.275
X70.5Y-55.25
X72.5Y-106.25
X72.5Y-113.275
X73.0Y-55.25
X75.0Y-106.25
X75.0Y-113.275
X75.5Y-55.25
X77.5Y-106.25
X77.5Y-113.275
X78.0Y-55.25
X80.0Y-106.25
X80.0Y-113.275
X82.5Y-106.25
X82.5Y-113.275
X85.0Y-106.25
X85.0Y-113.275
X85.75Y-55.25
X88.25Y-55.25
X90.75Y-55.25
X91.25Y-113.225
X93.25Y-55.25
X93.75Y-113.225
X95.75Y-55.25
X96.25Y-113.225
X98.25Y-55.25
X100.75Y-55.25
T3
X91.25Y-106.25
X93.75Y-106.25
X112.0Y-63.75
X114.5Y-63.75
T4
X52.383Y-70.825
X52.383Y-77.325
X52.383Y-92.325
X52.383Y-98.825
X56.883Y-70.825
X56.883Y-77.325
X56.883Y-92.325
X56.883Y-98.825
X111.867Y-70.624
X111.867Y-77.124
X111.867Y-92.124
X111.867Y-98.624
X116.367Y-70.624
X116.367Y-77.124
X116.367Y-92.124
X116.367Y-98.624
T5
X54.75Y-55.25
X54.75Y-114.0
X66.0Y-73.0
X103.0Y-96.0
X114.0Y-55.25
X114.0Y-114.0
T6
X85.369Y-95.125
M30
