%TF.GenerationSoftware,KiCad,Pcbnew,9.0.2*%
%TF.CreationDate,2026-07-09T15:26:04-05:00*%
%TF.ProjectId,Tesseract,54657373-6572-4616-9374-2e6b69636164,rev?*%
%TF.SameCoordinates,Original*%
%TF.FileFunction,Copper,L1,Top*%
%TF.FilePolarity,Positive*%
%FSLAX46Y46*%
G04 Gerber Fmt 4.6, Leading zero omitted, Abs format (unit mm)*
G04 Created by KiCad (PCBNEW 9.0.2) date 2026-07-09 15:26:04*
%MOMM*%
%LPD*%
G01*
G04 APERTURE LIST*
G04 Aperture macros list*
%AMRoundRect*
0 Rectangle with rounded corners*
0 $1 Rounding radius*
0 $2 $3 $4 $5 $6 $7 $8 $9 X,Y pos of 4 corners*
0 Add a 4 corners polygon primitive as box body*
4,1,4,$2,$3,$4,$5,$6,$7,$8,$9,$2,$3,0*
0 Add four circle primitives for the rounded corners*
1,1,$1+$1,$2,$3*
1,1,$1+$1,$4,$5*
1,1,$1+$1,$6,$7*
1,1,$1+$1,$8,$9*
0 Add four rect primitives between the rounded corners*
20,1,$1+$1,$2,$3,$4,$5,0*
20,1,$1+$1,$4,$5,$6,$7,0*
20,1,$1+$1,$6,$7,$8,$9,0*
20,1,$1+$1,$8,$9,$2,$3,0*%
%AMFreePoly0*
4,1,51,0.928194,0.785097,1.158317,0.667844,1.340944,0.485217,1.458197,0.255094,1.487317,0.071234,1.495459,0.071947,1.498600,0.000000,1.495459,-0.071947,1.487317,-0.071234,1.458197,-0.255094,1.340944,-0.485217,1.158317,-0.667844,0.928194,-0.785097,0.673100,-0.825500,0.418006,-0.785097,0.187883,-0.667844,0.005256,-0.485217,-0.111997,-0.255094,-0.141117,-0.071234,-0.149259,-0.071947,
-0.152400,0.000000,0.152400,0.000000,0.177885,-0.160905,0.251845,-0.306060,0.367040,-0.421255,0.512195,-0.495215,0.673100,-0.520700,0.834005,-0.495215,0.979160,-0.421255,1.094355,-0.306060,1.168315,-0.160905,1.193800,0.000000,1.168315,0.160905,1.094355,0.306060,0.979160,0.421255,0.834005,0.495215,0.673100,0.520700,0.512195,0.495215,0.367040,0.421255,0.251845,0.306060,
0.177885,0.160905,0.152400,0.000000,-0.152400,0.000000,-0.149259,0.071947,-0.141117,0.071234,-0.111997,0.255094,0.005256,0.485217,0.187883,0.667844,0.418006,0.785097,0.673100,0.825500,0.928194,0.785097,0.928194,0.785097,$1*%
G04 Aperture macros list end*
%TA.AperFunction,ComponentPad*%
%ADD10C,3.600000*%
%TD*%
%TA.AperFunction,ConnectorPad*%
%ADD11C,6.400000*%
%TD*%
%TA.AperFunction,SMDPad,CuDef*%
%ADD12R,0.406400X0.609600*%
%TD*%
%TA.AperFunction,SMDPad,CuDef*%
%ADD13FreePoly0,180.000000*%
%TD*%
%TA.AperFunction,SMDPad,CuDef*%
%ADD14RoundRect,0.250000X-0.337500X-0.475000X0.337500X-0.475000X0.337500X0.475000X-0.337500X0.475000X0*%
%TD*%
%TA.AperFunction,ComponentPad*%
%ADD15C,2.000000*%
%TD*%
%TA.AperFunction,SMDPad,CuDef*%
%ADD16RoundRect,0.250000X0.450000X-0.350000X0.450000X0.350000X-0.450000X0.350000X-0.450000X-0.350000X0*%
%TD*%
%TA.AperFunction,ComponentPad*%
%ADD17RoundRect,0.250000X-0.600000X-0.725000X0.600000X-0.725000X0.600000X0.725000X-0.600000X0.725000X0*%
%TD*%
%TA.AperFunction,ComponentPad*%
%ADD18O,1.700000X1.950000*%
%TD*%
%TA.AperFunction,SMDPad,CuDef*%
%ADD19RoundRect,0.250000X-0.450000X0.350000X-0.450000X-0.350000X0.450000X-0.350000X0.450000X0.350000X0*%
%TD*%
%TA.AperFunction,SMDPad,CuDef*%
%ADD20RoundRect,0.250000X0.337500X0.475000X-0.337500X0.475000X-0.337500X-0.475000X0.337500X-0.475000X0*%
%TD*%
%TA.AperFunction,SMDPad,CuDef*%
%ADD21RoundRect,0.250000X0.475000X-0.337500X0.475000X0.337500X-0.475000X0.337500X-0.475000X-0.337500X0*%
%TD*%
%TA.AperFunction,SMDPad,CuDef*%
%ADD22RoundRect,0.250000X-0.475000X0.337500X-0.475000X-0.337500X0.475000X-0.337500X0.475000X0.337500X0*%
%TD*%
%TA.AperFunction,SMDPad,CuDef*%
%ADD23R,0.850000X0.300000*%
%TD*%
%TA.AperFunction,SMDPad,CuDef*%
%ADD24R,0.300000X0.850000*%
%TD*%
%TA.AperFunction,SMDPad,CuDef*%
%ADD25R,1.250000X1.250000*%
%TD*%
%TA.AperFunction,ComponentPad*%
%ADD26RoundRect,0.250000X-0.600000X-0.750000X0.600000X-0.750000X0.600000X0.750000X-0.600000X0.750000X0*%
%TD*%
%TA.AperFunction,ComponentPad*%
%ADD27O,1.700000X2.000000*%
%TD*%
%TA.AperFunction,ViaPad*%
%ADD28C,0.600000*%
%TD*%
%TA.AperFunction,Conductor*%
%ADD29C,0.200000*%
%TD*%
%TA.AperFunction,Conductor*%
%ADD30C,1.000000*%
%TD*%
%TA.AperFunction,Conductor*%
%ADD31C,0.600000*%
%TD*%
%TA.AperFunction,Conductor*%
%ADD32C,0.800000*%
%TD*%
%TA.AperFunction,Conductor*%
%ADD33C,0.400000*%
%TD*%
%TA.AperFunction,Conductor*%
%ADD34C,0.300000*%
%TD*%
%TA.AperFunction,Conductor*%
%ADD35C,0.500000*%
%TD*%
%TA.AperFunction,Conductor*%
%ADD36C,0.700000*%
%TD*%
G04 APERTURE END LIST*
D10*
%TO.P,REF\u002A\u002A,1*%
%TO.N,N/C*%
X66000000Y-73000000D03*
D11*
X66000000Y-73000000D03*
%TD*%
D12*
%TO.P,MIC1,7,SD*%
%TO.N,SD*%
X82788900Y-94050000D03*
%TO.P,MIC1,6,SCK*%
%TO.N,SCK*%
X83438900Y-94050000D03*
%TO.P,MIC1,5,WS*%
%TO.N,WS*%
X84088900Y-94050000D03*
D13*
%TO.P,MIC1,4,GND*%
%TO.N,GND*%
X86042000Y-95125000D03*
D12*
%TO.P,MIC1,3,VDD*%
%TO.N,+3V3*%
X84088900Y-96200000D03*
%TO.P,MIC1,2,CONFIG*%
%TO.N,GND*%
X83438900Y-96200000D03*
%TO.P,MIC1,1,LR*%
X82788900Y-96200000D03*
%TD*%
D14*
%TO.P,C2,1*%
%TO.N,+5V*%
X112000000Y-103000000D03*
%TO.P,C2,2*%
%TO.N,GND*%
X114075000Y-103000000D03*
%TD*%
D15*
%TO.P,SW1,1,1*%
%TO.N,GND*%
X56883000Y-70824500D03*
X56883000Y-77324500D03*
%TO.P,SW1,2,2*%
%TO.N,SW1*%
X52383000Y-70824500D03*
X52383000Y-77324500D03*
%TD*%
D16*
%TO.P,R4,1*%
%TO.N,SD*%
X80750000Y-94750000D03*
%TO.P,R4,2*%
%TO.N,GND*%
X80750000Y-92750000D03*
%TD*%
D17*
%TO.P,J5,1,Pin_1*%
%TO.N,+5V*%
X91250000Y-113225000D03*
D18*
%TO.P,J5,2,Pin_2*%
%TO.N,LED_DIN*%
X93750000Y-113225000D03*
%TO.P,J5,3,Pin_3*%
%TO.N,GND*%
X96250000Y-113225000D03*
%TD*%
D19*
%TO.P,R1,1*%
%TO.N,Net-(IC1-GAIN_SLOT)*%
X116250000Y-106250000D03*
%TO.P,R1,2*%
%TO.N,GND*%
X116250000Y-108250000D03*
%TD*%
%TO.P,R2,1*%
%TO.N,+3V3*%
X116250000Y-102500000D03*
%TO.P,R2,2*%
%TO.N,Net-(IC1-~{SD_MODE})*%
X116250000Y-104500000D03*
%TD*%
D10*
%TO.P,REF\u002A\u002A,1*%
%TO.N,N/C*%
X114000000Y-114000000D03*
D11*
X114000000Y-114000000D03*
%TD*%
D15*
%TO.P,SW4,1,1*%
%TO.N,GND*%
X111867000Y-98624500D03*
X111867000Y-92124500D03*
%TO.P,SW4,2,2*%
%TO.N,SW4*%
X116367000Y-98624500D03*
X116367000Y-92124500D03*
%TD*%
D20*
%TO.P,C1,1*%
%TO.N,+5V*%
X110250000Y-103000000D03*
%TO.P,C1,2*%
%TO.N,GND*%
X108175000Y-103000000D03*
%TD*%
D15*
%TO.P,SW3,1,1*%
%TO.N,GND*%
X111867000Y-77124500D03*
X111867000Y-70624500D03*
%TO.P,SW3,2,2*%
%TO.N,SW3*%
X116367000Y-77124500D03*
X116367000Y-70624500D03*
%TD*%
D10*
%TO.P,REF\u002A\u002A,1*%
%TO.N,N/C*%
X103000000Y-96000000D03*
D11*
X103000000Y-96000000D03*
%TD*%
D21*
%TO.P,C4,1*%
%TO.N,+5V*%
X65750000Y-103500000D03*
%TO.P,C4,2*%
%TO.N,GND*%
X65750000Y-101425000D03*
%TD*%
D10*
%TO.P,REF\u002A\u002A,1*%
%TO.N,N/C*%
X54750000Y-55250000D03*
D11*
X54750000Y-55250000D03*
%TD*%
D15*
%TO.P,SW2,1,1*%
%TO.N,GND*%
X56883000Y-92324500D03*
X56883000Y-98824500D03*
%TO.P,SW2,2,2*%
%TO.N,SW2*%
X52383000Y-92324500D03*
X52383000Y-98824500D03*
%TD*%
D10*
%TO.P,REF\u002A\u002A,1*%
%TO.N,N/C*%
X114000000Y-55250000D03*
D11*
X114000000Y-55250000D03*
%TD*%
D22*
%TO.P,C6,1*%
%TO.N,+3V3*%
X83250000Y-98425000D03*
%TO.P,C6,2*%
%TO.N,GND*%
X83250000Y-100500000D03*
%TD*%
%TO.P,C3,1*%
%TO.N,GND*%
X63500000Y-101425000D03*
%TO.P,C3,2*%
%TO.N,+5V*%
X63500000Y-103500000D03*
%TD*%
D10*
%TO.P,REF\u002A\u002A,1*%
%TO.N,N/C*%
X54750000Y-114000000D03*
D11*
X54750000Y-114000000D03*
%TD*%
D23*
%TO.P,IC1,1,DIN*%
%TO.N,DIN*%
X113400000Y-107250000D03*
%TO.P,IC1,2,GAIN_SLOT*%
%TO.N,Net-(IC1-GAIN_SLOT)*%
X113400000Y-106750000D03*
%TO.P,IC1,3,GND_1*%
%TO.N,GND*%
X113400000Y-106250000D03*
%TO.P,IC1,4,~{SD_MODE}*%
%TO.N,Net-(IC1-~{SD_MODE})*%
X113400000Y-105750000D03*
D24*
%TO.P,IC1,5,N.C._1*%
%TO.N,unconnected-(IC1-N.C._1-Pad5)*%
X112700000Y-105050000D03*
%TO.P,IC1,6,N.C._2*%
%TO.N,unconnected-(IC1-N.C._2-Pad6)*%
X112200000Y-105050000D03*
%TO.P,IC1,7,VDD_1*%
%TO.N,+5V*%
X111700000Y-105050000D03*
%TO.P,IC1,8,VDD_2*%
X111200000Y-105050000D03*
D23*
%TO.P,IC1,9,OUTP*%
%TO.N,OUTP*%
X110500000Y-105750000D03*
%TO.P,IC1,10,OUTN*%
%TO.N,OUTN*%
X110500000Y-106250000D03*
%TO.P,IC1,11,GND_2*%
%TO.N,GND*%
X110500000Y-106750000D03*
%TO.P,IC1,12,N.C._3*%
%TO.N,unconnected-(IC1-N.C._3-Pad12)*%
X110500000Y-107250000D03*
D24*
%TO.P,IC1,13,N.C._4*%
%TO.N,unconnected-(IC1-N.C._4-Pad13)*%
X111200000Y-107950000D03*
%TO.P,IC1,14,LRCLK*%
%TO.N,WS*%
X111700000Y-107950000D03*
%TO.P,IC1,15,GND_3*%
%TO.N,GND*%
X112200000Y-107950000D03*
%TO.P,IC1,16,BCLK*%
%TO.N,SCK*%
X112700000Y-107950000D03*
D25*
%TO.P,IC1,17,THERMAL_PAD*%
%TO.N,GND*%
X111950000Y-106500000D03*
%TD*%
D22*
%TO.P,C5,1*%
%TO.N,+3V3*%
X85250000Y-98425000D03*
%TO.P,C5,2*%
%TO.N,GND*%
X85250000Y-100500000D03*
%TD*%
D17*
%TO.P,J6,1,Pin_1*%
%TO.N,DIN*%
X85750000Y-55250000D03*
D18*
%TO.P,J6,2,Pin_2*%
%TO.N,RES#*%
X88250000Y-55250000D03*
%TO.P,J6,3,Pin_3*%
%TO.N,D{slash}C#*%
X90750000Y-55250000D03*
%TO.P,J6,4,Pin_4*%
%TO.N,SDIN*%
X93250000Y-55250000D03*
%TO.P,J6,5,Pin_5*%
%TO.N,SCLK*%
X95750000Y-55250000D03*
%TO.P,J6,6,Pin_6*%
%TO.N,WS*%
X98250000Y-55250000D03*
%TO.P,J6,7,Pin_7*%
%TO.N,LED_DIN*%
X100750000Y-55250000D03*
%TD*%
D26*
%TO.P,J3,1,Pin_1*%
%TO.N,OUTP*%
X91250000Y-106250000D03*
D27*
%TO.P,J3,2,Pin_2*%
%TO.N,OUTN*%
X93750000Y-106250000D03*
%TD*%
D17*
%TO.P,J1,1,Pin_1*%
%TO.N,GND*%
X62500000Y-106250000D03*
D18*
%TO.P,J1,2,Pin_2*%
%TO.N,+5V*%
X65000000Y-106250000D03*
%TO.P,J1,3,Pin_3*%
%TO.N,unconnected-(J1-Pin_3-Pad3)*%
X67500000Y-106250000D03*
%TO.P,J1,4,Pin_4*%
%TO.N,D{slash}C#*%
X70000000Y-106250000D03*
%TO.P,J1,5,Pin_5*%
%TO.N,GND*%
X72500000Y-106250000D03*
%TO.P,J1,6,Pin_6*%
X75000000Y-106250000D03*
%TO.P,J1,7,Pin_7*%
%TO.N,SCLK*%
X77500000Y-106250000D03*
%TO.P,J1,8,Pin_8*%
%TO.N,SDIN*%
X80000000Y-106250000D03*
%TO.P,J1,9,Pin_9*%
%TO.N,GND*%
X82500000Y-106250000D03*
%TO.P,J1,10,Pin_10*%
X85000000Y-106250000D03*
%TD*%
D26*
%TO.P,J2,1,Pin_1*%
%TO.N,+5V*%
X112000000Y-63750000D03*
D27*
%TO.P,J2,2,Pin_2*%
%TO.N,GND*%
X114500000Y-63750000D03*
%TD*%
D17*
%TO.P,J4,1,Pin_1*%
%TO.N,+5V*%
X54000000Y-63775000D03*
D18*
%TO.P,J4,2,Pin_2*%
%TO.N,+3V3*%
X56500000Y-63775000D03*
%TO.P,J4,3,Pin_3*%
%TO.N,GND*%
X59000000Y-63775000D03*
%TD*%
D17*
%TO.P,J8,1,Pin_1*%
%TO.N,GND*%
X62500000Y-113275000D03*
D18*
%TO.P,J8,2,Pin_2*%
X65000000Y-113275000D03*
%TO.P,J8,3,Pin_3*%
X67500000Y-113275000D03*
%TO.P,J8,4,Pin_4*%
X70000000Y-113275000D03*
%TO.P,J8,5,Pin_5*%
X72500000Y-113275000D03*
%TO.P,J8,6,Pin_6*%
%TO.N,RES#*%
X75000000Y-113275000D03*
%TO.P,J8,7,Pin_7*%
%TO.N,CS#*%
X77500000Y-113275000D03*
%TO.P,J8,8,Pin_8*%
%TO.N,GND*%
X80000000Y-113275000D03*
%TO.P,J8,9,Pin_9*%
X82500000Y-113275000D03*
%TO.P,J8,10,Pin_10*%
X85000000Y-113275000D03*
%TD*%
D17*
%TO.P,J7,1,Pin_1*%
%TO.N,SCK*%
X63000000Y-55250000D03*
D18*
%TO.P,J7,2,Pin_2*%
%TO.N,CS#*%
X65500000Y-55250000D03*
%TO.P,J7,3,Pin_3*%
%TO.N,SW1*%
X68000000Y-55250000D03*
%TO.P,J7,4,Pin_4*%
%TO.N,SW2*%
X70500000Y-55250000D03*
%TO.P,J7,5,Pin_5*%
%TO.N,SW3*%
X73000000Y-55250000D03*
%TO.P,J7,6,Pin_6*%
%TO.N,SW4*%
X75500000Y-55250000D03*
%TO.P,J7,7,Pin_7*%
%TO.N,SD*%
X78000000Y-55250000D03*
%TD*%
D28*
%TO.N,GND*%
X80750000Y-91000000D03*
%TO.N,+3V3*%
X88500000Y-98500000D03*
X100750000Y-100750000D03*
%TO.N,GND*%
X81500000Y-96250000D03*
X114538500Y-105788500D03*
X87000000Y-100500000D03*
X116500000Y-110250000D03*
X114250000Y-101750000D03*
X65750000Y-100000000D03*
X105750000Y-102000000D03*
X87248223Y-94748223D03*
X112200000Y-109000000D03*
%TO.N,DIN*%
X106750000Y-58750000D03*
X114500000Y-107350000D03*
%TO.N,SDIN*%
X95000000Y-71500000D03*
%TO.N,SCLK*%
X94250000Y-68750000D03*
%TO.N,D{slash}C#*%
X77000000Y-72750000D03*
X80875000Y-68875000D03*
%TO.N,CS#*%
X69500000Y-60750000D03*
%TO.N,SD*%
X80875000Y-63375000D03*
%TO.N,WS*%
X110750000Y-109250000D03*
X93625000Y-88625000D03*
%TO.N,SCK*%
X113750000Y-109000000D03*
X83438900Y-90750000D03*
%TD*%
D29*
%TO.N,GND*%
X80750000Y-92750000D02*
X80750000Y-91000000D01*
%TO.N,SD*%
X80750000Y-94750000D02*
X82088900Y-94750000D01*
X82088900Y-94750000D02*
X82788900Y-94050000D01*
D30*
%TO.N,+3V3*%
X80925000Y-98425000D02*
X83250000Y-98425000D01*
X78250000Y-95750000D02*
X80925000Y-98425000D01*
D31*
X100750000Y-100750000D02*
X114849943Y-100750000D01*
D32*
X84250000Y-98425000D02*
X85250000Y-98425000D01*
D30*
X56500000Y-63775000D02*
X58975000Y-66250000D01*
D31*
X114849943Y-100750000D02*
X116250000Y-102150057D01*
D32*
X83250000Y-98425000D02*
X84250000Y-98425000D01*
D29*
X84088900Y-98263900D02*
X84250000Y-98425000D01*
D31*
X88500000Y-98500000D02*
X85325000Y-98500000D01*
D33*
X84088900Y-96200000D02*
X84088900Y-98263900D01*
D30*
X66750000Y-66250000D02*
X78250000Y-77750000D01*
X78250000Y-77750000D02*
X78250000Y-95750000D01*
D29*
X85325000Y-98500000D02*
X85250000Y-98425000D01*
D30*
X58975000Y-66250000D02*
X66750000Y-66250000D01*
D29*
X116250000Y-102500000D02*
X116250000Y-102150057D01*
%TO.N,GND*%
X116250000Y-108250000D02*
X116250000Y-110000000D01*
X112200000Y-109000000D02*
X112200000Y-107950000D01*
D33*
X114500000Y-67500000D02*
X114500000Y-63750000D01*
X111867000Y-70375000D02*
X111867000Y-70133000D01*
D29*
X87250000Y-94750000D02*
X87248223Y-94748223D01*
D34*
X114242143Y-101757857D02*
X114075000Y-101925000D01*
D35*
X82550000Y-96200000D02*
X82788900Y-96200000D01*
D34*
X108175000Y-103000000D02*
X106750000Y-103000000D01*
D29*
X112200000Y-106750000D02*
X112200000Y-107950000D01*
X108000000Y-102400000D02*
X108175000Y-102575000D01*
D34*
X114075000Y-101925000D02*
X114075000Y-103000000D01*
D33*
X82788900Y-96200000D02*
X83387900Y-96200000D01*
D31*
X85250000Y-100500000D02*
X87000000Y-100500000D01*
D35*
X82500000Y-96250000D02*
X82550000Y-96200000D01*
D34*
X106750000Y-103000000D02*
X105750000Y-102000000D01*
D29*
X111950000Y-106500000D02*
X112200000Y-106750000D01*
D35*
X81500000Y-96250000D02*
X82500000Y-96250000D01*
D29*
X112200000Y-106250000D02*
X113400000Y-106250000D01*
D33*
X111867000Y-70133000D02*
X114500000Y-67500000D01*
D34*
X65750000Y-101425000D02*
X65750000Y-100000000D01*
D29*
X108175000Y-102575000D02*
X108175000Y-103000000D01*
X114250000Y-101750000D02*
X114242143Y-101757857D01*
D32*
X85250000Y-100500000D02*
X83250000Y-100500000D01*
D29*
X87248223Y-94748223D02*
X86871446Y-95125000D01*
X116250000Y-110000000D02*
X116500000Y-110250000D01*
X111700000Y-106750000D02*
X110500000Y-106750000D01*
X111950000Y-106500000D02*
X112200000Y-106250000D01*
X114538500Y-105788500D02*
X114077000Y-106250000D01*
D33*
X111867000Y-76875000D02*
X111867000Y-70375000D01*
D35*
X63500000Y-101425000D02*
X65750000Y-101425000D01*
D29*
X114077000Y-106250000D02*
X113400000Y-106250000D01*
X111950000Y-106500000D02*
X111700000Y-106750000D01*
X86871446Y-95125000D02*
X86080815Y-95125000D01*
D36*
%TO.N,+5V*%
X63500000Y-103500000D02*
X63500000Y-104750000D01*
D35*
X63500000Y-103500000D02*
X65750000Y-103500000D01*
D36*
X65750000Y-103500000D02*
X65750000Y-105500000D01*
D29*
X112000000Y-103000000D02*
X111700000Y-103300000D01*
D34*
X111200000Y-103950000D02*
X110250000Y-103000000D01*
D36*
X63500000Y-104750000D02*
X65000000Y-106250000D01*
D35*
X112000000Y-103000000D02*
X110250000Y-103000000D01*
D34*
X111200000Y-105050000D02*
X111200000Y-103950000D01*
D35*
X65750000Y-105500000D02*
X65000000Y-106250000D01*
D34*
X111700000Y-103300000D02*
X111700000Y-105050000D01*
D29*
%TO.N,OUTP*%
X110500000Y-105750000D02*
X96750000Y-105750000D01*
X96750000Y-105750000D02*
X95750000Y-104750000D01*
X95750000Y-104750000D02*
X92750000Y-104750000D01*
X92750000Y-104750000D02*
X91250000Y-106250000D01*
%TO.N,Net-(IC1-~{SD_MODE})*%
X114000000Y-104500000D02*
X116250000Y-104500000D01*
X113400000Y-105100000D02*
X114000000Y-104500000D01*
X113400000Y-105750000D02*
X113400000Y-105100000D01*
%TO.N,Net-(IC1-GAIN_SLOT)*%
X115750000Y-106750000D02*
X116250000Y-106250000D01*
X113400000Y-106750000D02*
X115750000Y-106750000D01*
%TO.N,OUTN*%
X93750000Y-106250000D02*
X110500000Y-106250000D01*
%TO.N,DIN*%
X106750000Y-55250000D02*
X106750000Y-58750000D01*
X88250000Y-52750000D02*
X104250000Y-52750000D01*
X113400000Y-107250000D02*
X114400000Y-107250000D01*
X114400000Y-107250000D02*
X114500000Y-107350000D01*
X85750000Y-55250000D02*
X88250000Y-52750000D01*
X104250000Y-52750000D02*
X106750000Y-55250000D01*
%TO.N,SDIN*%
X95000000Y-94470896D02*
X85970896Y-103500000D01*
X85970896Y-103500000D02*
X82750000Y-103500000D01*
X95000000Y-71500000D02*
X95000000Y-94470896D01*
X82750000Y-103500000D02*
X80000000Y-106250000D01*
%TO.N,SCLK*%
X85750000Y-103099000D02*
X80651000Y-103099000D01*
X94250000Y-68750000D02*
X94250000Y-94599000D01*
X80651000Y-103099000D02*
X77500000Y-106250000D01*
X94250000Y-94599000D02*
X85750000Y-103099000D01*
%TO.N,D{slash}C#*%
X80875000Y-68875000D02*
X77000000Y-72750000D01*
%TO.N,LED_DIN*%
X100750000Y-55750000D02*
X100750000Y-55250000D01*
%TO.N,CS#*%
X65500000Y-56750000D02*
X65500000Y-55250000D01*
X69500000Y-60750000D02*
X65500000Y-56750000D01*
%TO.N,RES#*%
X95750000Y-94888974D02*
X87651000Y-102987974D01*
X91750000Y-65000000D02*
X91750000Y-63500000D01*
X95750000Y-69000000D02*
X95750000Y-94888974D01*
X87651000Y-107166100D02*
X85666100Y-109151000D01*
X79124000Y-109151000D02*
X75000000Y-113275000D01*
X91750000Y-65000000D02*
X95750000Y-69000000D01*
X91750000Y-63500000D02*
X88250000Y-60000000D01*
X88250000Y-60000000D02*
X88250000Y-55250000D01*
X85666100Y-109151000D02*
X79124000Y-109151000D01*
X87651000Y-102987974D02*
X87651000Y-107166100D01*
%TO.N,SD*%
X80875000Y-63375000D02*
X82788900Y-65288900D01*
X82788900Y-65288900D02*
X82788900Y-94050000D01*
%TO.N,WS*%
X84138900Y-94000000D02*
X88250000Y-94000000D01*
X111100057Y-109250000D02*
X110750000Y-109250000D01*
X111700000Y-107950000D02*
X111700000Y-108650057D01*
X111700000Y-108650057D02*
X111100057Y-109250000D01*
X88250000Y-94000000D02*
X93625000Y-88625000D01*
X84088900Y-94050000D02*
X84138900Y-94000000D01*
%TO.N,SCK*%
X83438900Y-90750000D02*
X83438900Y-65088957D01*
X83438900Y-94050000D02*
X83438900Y-90750000D01*
X80849943Y-62500000D02*
X70250000Y-62500000D01*
X83438900Y-65088957D02*
X80849943Y-62500000D01*
X112700000Y-107950000D02*
X113750000Y-109000000D01*
X70250000Y-62500000D02*
X63000000Y-55250000D01*
%TD*%
%TA.AperFunction,Conductor*%
%TO.N,+5V*%
G36*
X115753736Y-51000726D02*
G01*
X116043796Y-51018271D01*
X116058659Y-51020076D01*
X116340798Y-51071780D01*
X116355335Y-51075363D01*
X116629172Y-51160695D01*
X116643163Y-51166000D01*
X116904743Y-51283727D01*
X116917989Y-51290680D01*
X117163465Y-51439075D01*
X117175776Y-51447573D01*
X117401573Y-51624473D01*
X117412781Y-51634403D01*
X117615596Y-51837218D01*
X117625526Y-51848426D01*
X117745481Y-52001538D01*
X117802422Y-52074217D01*
X117810926Y-52086537D01*
X117891219Y-52219358D01*
X117959316Y-52332004D01*
X117966275Y-52345263D01*
X118083997Y-52606831D01*
X118089306Y-52620832D01*
X118174635Y-52894663D01*
X118178219Y-52909201D01*
X118229923Y-53191340D01*
X118231728Y-53206205D01*
X118249274Y-53496263D01*
X118249500Y-53503750D01*
X118249500Y-115746249D01*
X118249274Y-115753736D01*
X118231728Y-116043794D01*
X118229923Y-116058659D01*
X118178219Y-116340798D01*
X118174635Y-116355336D01*
X118089306Y-116629167D01*
X118083997Y-116643168D01*
X117966275Y-116904736D01*
X117959316Y-116917995D01*
X117810928Y-117163459D01*
X117802422Y-117175782D01*
X117625526Y-117401573D01*
X117615596Y-117412781D01*
X117412781Y-117615596D01*
X117401573Y-117625526D01*
X117175782Y-117802422D01*
X117163459Y-117810928D01*
X116917995Y-117959316D01*
X116904736Y-117966275D01*
X116643168Y-118083997D01*
X116629167Y-118089306D01*
X116355336Y-118174635D01*
X116340798Y-118178219D01*
X116058659Y-118229923D01*
X116043794Y-118231728D01*
X115753736Y-118249274D01*
X115746249Y-118249500D01*
X53003751Y-118249500D01*
X52996264Y-118249274D01*
X52706205Y-118231728D01*
X52691340Y-118229923D01*
X52409201Y-118178219D01*
X52394663Y-118174635D01*
X52120832Y-118089306D01*
X52106831Y-118083997D01*
X51845263Y-117966275D01*
X51832004Y-117959316D01*
X51586540Y-117810928D01*
X51574217Y-117802422D01*
X51348426Y-117625526D01*
X51337218Y-117615596D01*
X51134403Y-117412781D01*
X51124473Y-117401573D01*
X51083475Y-117349243D01*
X50947573Y-117175776D01*
X50939075Y-117163465D01*
X50790680Y-116917989D01*
X50783727Y-116904743D01*
X50666000Y-116643163D01*
X50660693Y-116629167D01*
X50575364Y-116355336D01*
X50571780Y-116340798D01*
X50520076Y-116058659D01*
X50518271Y-116043794D01*
X50500726Y-115753736D01*
X50500500Y-115746249D01*
X50500500Y-113818206D01*
X51049500Y-113818206D01*
X51049500Y-114181794D01*
X51054584Y-114233412D01*
X51085137Y-114543630D01*
X51156064Y-114900212D01*
X51156067Y-114900223D01*
X51261614Y-115248165D01*
X51400754Y-115584078D01*
X51400756Y-115584083D01*
X51572140Y-115904720D01*
X51572151Y-115904738D01*
X51774140Y-116207035D01*
X51774150Y-116207049D01*
X52004807Y-116488106D01*
X52261893Y-116745192D01*
X52261898Y-116745196D01*
X52261899Y-116745197D01*
X52542956Y-116975854D01*
X52845268Y-117177853D01*
X52845277Y-117177858D01*
X52845279Y-117177859D01*
X53165916Y-117349243D01*
X53165918Y-117349243D01*
X53165924Y-117349247D01*
X53501836Y-117488386D01*
X53849767Y-117593930D01*
X53849773Y-117593931D01*
X53849776Y-117593932D01*
X53849787Y-117593935D01*
X54206369Y-117664862D01*
X54568206Y-117700500D01*
X54568209Y-117700500D01*
X54931791Y-117700500D01*
X54931794Y-117700500D01*
X55293631Y-117664862D01*
X55363045Y-117651054D01*
X55650212Y-117593935D01*
X55650223Y-117593932D01*
X55650223Y-117593931D01*
X55650233Y-117593930D01*
X55998164Y-117488386D01*
X56334076Y-117349247D01*
X56654732Y-117177853D01*
X56957044Y-116975854D01*
X57238101Y-116745197D01*
X57495197Y-116488101D01*
X57725854Y-116207044D01*
X57927853Y-115904732D01*
X58099247Y-115584076D01*
X58238386Y-115248164D01*
X58343930Y-114900233D01*
X58343932Y-114900223D01*
X58343935Y-114900212D01*
X58414862Y-114543630D01*
X58422246Y-114468656D01*
X58450500Y-114181794D01*
X58450500Y-113818206D01*
X58414862Y-113456369D01*
X58405309Y-113408343D01*
X58343935Y-113099787D01*
X58343932Y-113099776D01*
X58343931Y-113099773D01*
X58343930Y-113099767D01*
X58238386Y-112751836D01*
X58099247Y-112415924D01*
X58089240Y-112397203D01*
X57927859Y-112095279D01*
X57927858Y-112095277D01*
X57927853Y-112095268D01*
X57725854Y-111792956D01*
X57495197Y-111511899D01*
X57495196Y-111511898D01*
X57495192Y-111511893D01*
X57238106Y-111254807D01*
X56957049Y-111024150D01*
X56957048Y-111024149D01*
X56957044Y-111024146D01*
X56654732Y-110822147D01*
X56654727Y-110822144D01*
X56654720Y-110822140D01*
X56334083Y-110650756D01*
X56334078Y-110650754D01*
X56331084Y-110649514D01*
X56094185Y-110551387D01*
X55998165Y-110511614D01*
X55650223Y-110406067D01*
X55650212Y-110406064D01*
X55293630Y-110335137D01*
X55021111Y-110308296D01*
X54931794Y-110299500D01*
X54568206Y-110299500D01*
X54485679Y-110307628D01*
X54206369Y-110335137D01*
X53849787Y-110406064D01*
X53849776Y-110406067D01*
X53501834Y-110511614D01*
X53165921Y-110650754D01*
X53165916Y-110650756D01*
X52845279Y-110822140D01*
X52845261Y-110822151D01*
X52542964Y-111024140D01*
X52542950Y-111024150D01*
X52261893Y-111254807D01*
X52004807Y-111511893D01*
X51774150Y-111792950D01*
X51774140Y-111792964D01*
X51572151Y-112095261D01*
X51572140Y-112095279D01*
X51400756Y-112415916D01*
X51400754Y-112415921D01*
X51261614Y-112751834D01*
X51156067Y-113099776D01*
X51156064Y-113099787D01*
X51085137Y-113456369D01*
X51057628Y-113735679D01*
X51049500Y-113818206D01*
X50500500Y-113818206D01*
X50500500Y-98706402D01*
X50882500Y-98706402D01*
X50882500Y-98942597D01*
X50919446Y-99175868D01*
X50992433Y-99400496D01*
X51099657Y-99610933D01*
X51238483Y-99802010D01*
X51405490Y-99969017D01*
X51596567Y-100107843D01*
X51695991Y-100158502D01*
X51807003Y-100215066D01*
X51807005Y-100215066D01*
X51807008Y-100215068D01*
X51885929Y-100240711D01*
X52031631Y-100288053D01*
X52264903Y-100325000D01*
X52264908Y-100325000D01*
X52501097Y-100325000D01*
X52734368Y-100288053D01*
X52824962Y-100258617D01*
X52958992Y-100215068D01*
X53169433Y-100107843D01*
X53360510Y-99969017D01*
X53527517Y-99802010D01*
X53666343Y-99610933D01*
X53773568Y-99400492D01*
X53846553Y-99175868D01*
X53878230Y-98975868D01*
X53883500Y-98942597D01*
X53883500Y-98706402D01*
X55382500Y-98706402D01*
X55382500Y-98942597D01*
X55419446Y-99175868D01*
X55492433Y-99400496D01*
X55599657Y-99610933D01*
X55738483Y-99802010D01*
X55905490Y-99969017D01*
X56096567Y-100107843D01*
X56195991Y-100158502D01*
X56307003Y-100215066D01*
X56307005Y-100215066D01*
X56307008Y-100215068D01*
X56385929Y-100240711D01*
X56531631Y-100288053D01*
X56764903Y-100325000D01*
X56764908Y-100325000D01*
X57001097Y-100325000D01*
X57234368Y-100288053D01*
X57324962Y-100258617D01*
X57458992Y-100215068D01*
X57669433Y-100107843D01*
X57860510Y-99969017D01*
X58027517Y-99802010D01*
X58166343Y-99610933D01*
X58273568Y-99400492D01*
X58346553Y-99175868D01*
X58378230Y-98975868D01*
X58383500Y-98942597D01*
X58383500Y-98706402D01*
X58346553Y-98473131D01*
X58296722Y-98319769D01*
X58273568Y-98248508D01*
X58273566Y-98248505D01*
X58273566Y-98248503D01*
X58201628Y-98107318D01*
X58166343Y-98038067D01*
X58027517Y-97846990D01*
X57860510Y-97679983D01*
X57669433Y-97541157D01*
X57458996Y-97433933D01*
X57234368Y-97360946D01*
X57001097Y-97324000D01*
X57001092Y-97324000D01*
X56764908Y-97324000D01*
X56764903Y-97324000D01*
X56531631Y-97360946D01*
X56307003Y-97433933D01*
X56096566Y-97541157D01*
X55989642Y-97618843D01*
X55905490Y-97679983D01*
X55905488Y-97679985D01*
X55905487Y-97679985D01*
X55738485Y-97846987D01*
X55738485Y-97846988D01*
X55738483Y-97846990D01*
X55678862Y-97929050D01*
X55599657Y-98038066D01*
X55492433Y-98248503D01*
X55419446Y-98473131D01*
X55382500Y-98706402D01*
X53883500Y-98706402D01*
X53846553Y-98473131D01*
X53796722Y-98319769D01*
X53773568Y-98248508D01*
X53773566Y-98248505D01*
X53773566Y-98248503D01*
X53701628Y-98107318D01*
X53666343Y-98038067D01*
X53527517Y-97846990D01*
X53360510Y-97679983D01*
X53169433Y-97541157D01*
X52958996Y-97433933D01*
X52734368Y-97360946D01*
X52501097Y-97324000D01*
X52501092Y-97324000D01*
X52264908Y-97324000D01*
X52264903Y-97324000D01*
X52031631Y-97360946D01*
X51807003Y-97433933D01*
X51596566Y-97541157D01*
X51489642Y-97618843D01*
X51405490Y-97679983D01*
X51405488Y-97679985D01*
X51405487Y-97679985D01*
X51238485Y-97846987D01*
X51238485Y-97846988D01*
X51238483Y-97846990D01*
X51178862Y-97929050D01*
X51099657Y-98038066D01*
X50992433Y-98248503D01*
X50919446Y-98473131D01*
X50882500Y-98706402D01*
X50500500Y-98706402D01*
X50500500Y-92206402D01*
X50882500Y-92206402D01*
X50882500Y-92442597D01*
X50919446Y-92675868D01*
X50992433Y-92900496D01*
X51099657Y-93110933D01*
X51238483Y-93302010D01*
X51405490Y-93469017D01*
X51596567Y-93607843D01*
X51630240Y-93625000D01*
X51807003Y-93715066D01*
X51807005Y-93715066D01*
X51807008Y-93715068D01*
X51914517Y-93750000D01*
X52031631Y-93788053D01*
X52264903Y-93825000D01*
X52264908Y-93825000D01*
X52501097Y-93825000D01*
X52734368Y-93788053D01*
X52770361Y-93776358D01*
X52958992Y-93715068D01*
X53169433Y-93607843D01*
X53360510Y-93469017D01*
X53527517Y-93302010D01*
X53666343Y-93110933D01*
X53773568Y-92900492D01*
X53846553Y-92675868D01*
X53872345Y-92513024D01*
X53883500Y-92442597D01*
X53883500Y-92206402D01*
X55382500Y-92206402D01*
X55382500Y-92442597D01*
X55419446Y-92675868D01*
X55492433Y-92900496D01*
X55599657Y-93110933D01*
X55738483Y-93302010D01*
X55905490Y-93469017D01*
X56096567Y-93607843D01*
X56130240Y-93625000D01*
X56307003Y-93715066D01*
X56307005Y-93715066D01*
X56307008Y-93715068D01*
X56414517Y-93750000D01*
X56531631Y-93788053D01*
X56764903Y-93825000D01*
X56764908Y-93825000D01*
X57001097Y-93825000D01*
X57234368Y-93788053D01*
X57270361Y-93776358D01*
X57458992Y-93715068D01*
X57669433Y-93607843D01*
X57860510Y-93469017D01*
X58027517Y-93302010D01*
X58166343Y-93110933D01*
X58273568Y-92900492D01*
X58276106Y-92892682D01*
X59999500Y-92892682D01*
X59999500Y-92934108D01*
X59999500Y-97934108D01*
X59999500Y-98000000D01*
X59999500Y-98107318D01*
X60001442Y-98120827D01*
X60030044Y-98319764D01*
X60030047Y-98319774D01*
X60090517Y-98525715D01*
X60179672Y-98720938D01*
X60179679Y-98720951D01*
X60295720Y-98901514D01*
X60436275Y-99063724D01*
X60560277Y-99171172D01*
X60598487Y-99204281D01*
X60701679Y-99270598D01*
X60779048Y-99320320D01*
X60779061Y-99320327D01*
X60974284Y-99409482D01*
X60974288Y-99409483D01*
X60974290Y-99409484D01*
X61180231Y-99469954D01*
X61180232Y-99469954D01*
X61180235Y-99469955D01*
X61234008Y-99477686D01*
X61392682Y-99500500D01*
X61434108Y-99500500D01*
X64904866Y-99500500D01*
X64971905Y-99520185D01*
X65017660Y-99572989D01*
X65027604Y-99642147D01*
X65019427Y-99671950D01*
X65007602Y-99700500D01*
X64980263Y-99766502D01*
X64980261Y-99766510D01*
X64949500Y-99921153D01*
X64949500Y-100078846D01*
X64976597Y-100215068D01*
X64980263Y-100233497D01*
X64990668Y-100258617D01*
X64998136Y-100328086D01*
X64966860Y-100390565D01*
X64941203Y-100411607D01*
X64806342Y-100494789D01*
X64712681Y-100588451D01*
X64651358Y-100621936D01*
X64581666Y-100616952D01*
X64537319Y-100588451D01*
X64443657Y-100494789D01*
X64443656Y-100494788D01*
X64350888Y-100437569D01*
X64294336Y-100402687D01*
X64294331Y-100402685D01*
X64257755Y-100390565D01*
X64127797Y-100347501D01*
X64127795Y-100347500D01*
X64025010Y-100337000D01*
X62974998Y-100337000D01*
X62974980Y-100337001D01*
X62872203Y-100347500D01*
X62872200Y-100347501D01*
X62705668Y-100402685D01*
X62705663Y-100402687D01*
X62556342Y-100494789D01*
X62432289Y-100618842D01*
X62340187Y-100768163D01*
X62340186Y-100768166D01*
X62285001Y-100934703D01*
X62285001Y-100934704D01*
X62285000Y-100934704D01*
X62274500Y-101037483D01*
X62274500Y-101812501D01*
X62274501Y-101812519D01*
X62285000Y-101915296D01*
X62285001Y-101915299D01*
X62340185Y-102081831D01*
X62340187Y-102081836D01*
X62355328Y-102106383D01*
X62432288Y-102231156D01*
X62556344Y-102355212D01*
X62559628Y-102357237D01*
X62559653Y-102357253D01*
X62561445Y-102359246D01*
X62562011Y-102359693D01*
X62561934Y-102359789D01*
X62606379Y-102409199D01*
X62617603Y-102478161D01*
X62589761Y-102542244D01*
X62559665Y-102568326D01*
X62556660Y-102570179D01*
X62556655Y-102570183D01*
X62432684Y-102694154D01*
X62340643Y-102843375D01*
X62340641Y-102843380D01*
X62285494Y-103009802D01*
X62285493Y-103009809D01*
X62275000Y-103112513D01*
X62275000Y-103250000D01*
X66974999Y-103250000D01*
X66974999Y-103112528D01*
X66974998Y-103112513D01*
X66964505Y-103009802D01*
X66909358Y-102843380D01*
X66909356Y-102843375D01*
X66817315Y-102694154D01*
X66693344Y-102570183D01*
X66693341Y-102570181D01*
X66690339Y-102568329D01*
X66688713Y-102566521D01*
X66687677Y-102565702D01*
X66687817Y-102565524D01*
X66643617Y-102516380D01*
X66632397Y-102447417D01*
X66660243Y-102383336D01*
X66690344Y-102357254D01*
X66693656Y-102355212D01*
X66817712Y-102231156D01*
X66909814Y-102081834D01*
X66964999Y-101915297D01*
X66975500Y-101812509D01*
X66975499Y-101037492D01*
X66964999Y-100934703D01*
X66909814Y-100768166D01*
X66817712Y-100618844D01*
X66693656Y-100494788D01*
X66601904Y-100438195D01*
X66558796Y-100411606D01*
X66512072Y-100359658D01*
X66500849Y-100290695D01*
X66509330Y-100258619D01*
X66519737Y-100233497D01*
X66550500Y-100078842D01*
X66550500Y-99921158D01*
X66550500Y-99921155D01*
X66550499Y-99921153D01*
X66541957Y-99878210D01*
X66519737Y-99766503D01*
X66480572Y-99671951D01*
X66473104Y-99602483D01*
X66504379Y-99540004D01*
X66564468Y-99504352D01*
X66595134Y-99500500D01*
X75357317Y-99500500D01*
X75357318Y-99500500D01*
X75527851Y-99475980D01*
X75569764Y-99469955D01*
X75569765Y-99469954D01*
X75569769Y-99469954D01*
X75775710Y-99409484D01*
X75775713Y-99409482D01*
X75775715Y-99409482D01*
X75970938Y-99320327D01*
X75970944Y-99320323D01*
X75970950Y-99320321D01*
X76151513Y-99204281D01*
X76313724Y-99063724D01*
X76454281Y-98901513D01*
X76570321Y-98720950D01*
X76570323Y-98720944D01*
X76570327Y-98720938D01*
X76659482Y-98525715D01*
X76659482Y-98525713D01*
X76659484Y-98525710D01*
X76719954Y-98319769D01*
X76750500Y-98107318D01*
X76750500Y-98000000D01*
X76750500Y-97934108D01*
X76750500Y-92934108D01*
X76750500Y-92892682D01*
X76719954Y-92680231D01*
X76659484Y-92474290D01*
X76659483Y-92474288D01*
X76659482Y-92474284D01*
X76570327Y-92279061D01*
X76570320Y-92279048D01*
X76523633Y-92206402D01*
X76454281Y-92098487D01*
X76374489Y-92006402D01*
X76313724Y-91936275D01*
X76151514Y-91795720D01*
X76151513Y-91795719D01*
X76026202Y-91715187D01*
X75970951Y-91679679D01*
X75970938Y-91679672D01*
X75775715Y-91590517D01*
X75569774Y-91530047D01*
X75569764Y-91530044D01*
X75378754Y-91502582D01*
X75357318Y-91499500D01*
X75315892Y-91499500D01*
X61565892Y-91499500D01*
X61500000Y-91499500D01*
X61392682Y-91499500D01*
X61180235Y-91530044D01*
X61180225Y-91530047D01*
X60974284Y-91590517D01*
X60779061Y-91679672D01*
X60779048Y-91679679D01*
X60598485Y-91795720D01*
X60436275Y-91936275D01*
X60295720Y-92098485D01*
X60179679Y-92279048D01*
X60179672Y-92279061D01*
X60090517Y-92474284D01*
X60030047Y-92680225D01*
X60030044Y-92680235D01*
X60005646Y-92849934D01*
X59999500Y-92892682D01*
X58276106Y-92892682D01*
X58346553Y-92675868D01*
X58372345Y-92513024D01*
X58383500Y-92442597D01*
X58383500Y-92206402D01*
X58346553Y-91973131D01*
X58281569Y-91773132D01*
X58273568Y-91748508D01*
X58273566Y-91748505D01*
X58273566Y-91748503D01*
X58216594Y-91636690D01*
X58166343Y-91538067D01*
X58027517Y-91346990D01*
X57860510Y-91179983D01*
X57669433Y-91041157D01*
X57458996Y-90933933D01*
X57234368Y-90860946D01*
X57001097Y-90824000D01*
X57001092Y-90824000D01*
X56764908Y-90824000D01*
X56764903Y-90824000D01*
X56531631Y-90860946D01*
X56307003Y-90933933D01*
X56096566Y-91041157D01*
X55987550Y-91120362D01*
X55905490Y-91179983D01*
X55905488Y-91179985D01*
X55905487Y-91179985D01*
X55738485Y-91346987D01*
X55738485Y-91346988D01*
X55738483Y-91346990D01*
X55715093Y-91379184D01*
X55599657Y-91538066D01*
X55492433Y-91748503D01*
X55419446Y-91973131D01*
X55382500Y-92206402D01*
X53883500Y-92206402D01*
X53846553Y-91973131D01*
X53781569Y-91773132D01*
X53773568Y-91748508D01*
X53773566Y-91748505D01*
X53773566Y-91748503D01*
X53716594Y-91636690D01*
X53666343Y-91538067D01*
X53527517Y-91346990D01*
X53360510Y-91179983D01*
X53169433Y-91041157D01*
X52958996Y-90933933D01*
X52734368Y-90860946D01*
X52501097Y-90824000D01*
X52501092Y-90824000D01*
X52264908Y-90824000D01*
X52264903Y-90824000D01*
X52031631Y-90860946D01*
X51807003Y-90933933D01*
X51596566Y-91041157D01*
X51487550Y-91120362D01*
X51405490Y-91179983D01*
X51405488Y-91179985D01*
X51405487Y-91179985D01*
X51238485Y-91346987D01*
X51238485Y-91346988D01*
X51238483Y-91346990D01*
X51215093Y-91379184D01*
X51099657Y-91538066D01*
X50992433Y-91748503D01*
X50919446Y-91973131D01*
X50882500Y-92206402D01*
X50500500Y-92206402D01*
X50500500Y-77206402D01*
X50882500Y-77206402D01*
X50882500Y-77442597D01*
X50919446Y-77675868D01*
X50992433Y-77900496D01*
X51099657Y-78110933D01*
X51238483Y-78302010D01*
X51405490Y-78469017D01*
X51596567Y-78607843D01*
X51630240Y-78625000D01*
X51807003Y-78715066D01*
X51807005Y-78715066D01*
X51807008Y-78715068D01*
X51927412Y-78754189D01*
X52031631Y-78788053D01*
X52264903Y-78825000D01*
X52264908Y-78825000D01*
X52501097Y-78825000D01*
X52734368Y-78788053D01*
X52958992Y-78715068D01*
X53169433Y-78607843D01*
X53360510Y-78469017D01*
X53527517Y-78302010D01*
X53666343Y-78110933D01*
X53773568Y-77900492D01*
X53846553Y-77675868D01*
X53850419Y-77651459D01*
X53883500Y-77442597D01*
X53883500Y-77206402D01*
X55382500Y-77206402D01*
X55382500Y-77442597D01*
X55419446Y-77675868D01*
X55492433Y-77900496D01*
X55599657Y-78110933D01*
X55738483Y-78302010D01*
X55905490Y-78469017D01*
X56096567Y-78607843D01*
X56130240Y-78625000D01*
X56307003Y-78715066D01*
X56307005Y-78715066D01*
X56307008Y-78715068D01*
X56427412Y-78754189D01*
X56531631Y-78788053D01*
X56764903Y-78825000D01*
X56764908Y-78825000D01*
X57001097Y-78825000D01*
X57234368Y-78788053D01*
X57458992Y-78715068D01*
X57669433Y-78607843D01*
X57860510Y-78469017D01*
X58027517Y-78302010D01*
X58166343Y-78110933D01*
X58273568Y-77900492D01*
X58346553Y-77675868D01*
X58350419Y-77651459D01*
X58383500Y-77442597D01*
X58383500Y-77206402D01*
X58346553Y-76973131D01*
X58281569Y-76773132D01*
X58273568Y-76748508D01*
X58273566Y-76748505D01*
X58273566Y-76748503D01*
X58194809Y-76593935D01*
X58166343Y-76538067D01*
X58027517Y-76346990D01*
X57860510Y-76179983D01*
X57669433Y-76041157D01*
X57458996Y-75933933D01*
X57234368Y-75860946D01*
X57001097Y-75824000D01*
X57001092Y-75824000D01*
X56764908Y-75824000D01*
X56764903Y-75824000D01*
X56531631Y-75860946D01*
X56307003Y-75933933D01*
X56096566Y-76041157D01*
X55987550Y-76120362D01*
X55905490Y-76179983D01*
X55905488Y-76179985D01*
X55905487Y-76179985D01*
X55738485Y-76346987D01*
X55738485Y-76346988D01*
X55738483Y-76346990D01*
X55678862Y-76429050D01*
X55599657Y-76538066D01*
X55492433Y-76748503D01*
X55419446Y-76973131D01*
X55382500Y-77206402D01*
X53883500Y-77206402D01*
X53846553Y-76973131D01*
X53781569Y-76773132D01*
X53773568Y-76748508D01*
X53773566Y-76748505D01*
X53773566Y-76748503D01*
X53694809Y-76593935D01*
X53666343Y-76538067D01*
X53527517Y-76346990D01*
X53360510Y-76179983D01*
X53169433Y-76041157D01*
X52958996Y-75933933D01*
X52734368Y-75860946D01*
X52501097Y-75824000D01*
X52501092Y-75824000D01*
X52264908Y-75824000D01*
X52264903Y-75824000D01*
X52031631Y-75860946D01*
X51807003Y-75933933D01*
X51596566Y-76041157D01*
X51487550Y-76120362D01*
X51405490Y-76179983D01*
X51405488Y-76179985D01*
X51405487Y-76179985D01*
X51238485Y-76346987D01*
X51238485Y-76346988D01*
X51238483Y-76346990D01*
X51178862Y-76429050D01*
X51099657Y-76538066D01*
X50992433Y-76748503D01*
X50919446Y-76973131D01*
X50882500Y-77206402D01*
X50500500Y-77206402D01*
X50500500Y-72818206D01*
X62299500Y-72818206D01*
X62299500Y-73181794D01*
X62310337Y-73291829D01*
X62335137Y-73543630D01*
X62406064Y-73900212D01*
X62406067Y-73900223D01*
X62511614Y-74248165D01*
X62650754Y-74584078D01*
X62650756Y-74584083D01*
X62822140Y-74904720D01*
X62822151Y-74904738D01*
X63024140Y-75207035D01*
X63024150Y-75207049D01*
X63254807Y-75488106D01*
X63511893Y-75745192D01*
X63511898Y-75745196D01*
X63511899Y-75745197D01*
X63792956Y-75975854D01*
X64095268Y-76177853D01*
X64095277Y-76177858D01*
X64095279Y-76177859D01*
X64415916Y-76349243D01*
X64415918Y-76349243D01*
X64415924Y-76349247D01*
X64751836Y-76488386D01*
X65099767Y-76593930D01*
X65099773Y-76593931D01*
X65099776Y-76593932D01*
X65099787Y-76593935D01*
X65456369Y-76664862D01*
X65818206Y-76700500D01*
X65818209Y-76700500D01*
X66181791Y-76700500D01*
X66181794Y-76700500D01*
X66543631Y-76664862D01*
X66613045Y-76651054D01*
X66900212Y-76593935D01*
X66900223Y-76593932D01*
X66900223Y-76593931D01*
X66900233Y-76593930D01*
X67248164Y-76488386D01*
X67584076Y-76349247D01*
X67904732Y-76177853D01*
X68207044Y-75975854D01*
X68488101Y-75745197D01*
X68745197Y-75488101D01*
X68975854Y-75207044D01*
X69177853Y-74904732D01*
X69349247Y-74584076D01*
X69488386Y-74248164D01*
X69593930Y-73900233D01*
X69593932Y-73900223D01*
X69593935Y-73900212D01*
X69664862Y-73543630D01*
X69667215Y-73519737D01*
X69700500Y-73181794D01*
X69700500Y-72818206D01*
X69664862Y-72456369D01*
X69647844Y-72370814D01*
X69593935Y-72099787D01*
X69593932Y-72099776D01*
X69593931Y-72099773D01*
X69593930Y-72099767D01*
X69488386Y-71751836D01*
X69349247Y-71415924D01*
X69346579Y-71410933D01*
X69177859Y-71095279D01*
X69177858Y-71095277D01*
X69177853Y-71095268D01*
X68975854Y-70792956D01*
X68745197Y-70511899D01*
X68745196Y-70511898D01*
X68745192Y-70511893D01*
X68488106Y-70254807D01*
X68207049Y-70024150D01*
X68207048Y-70024149D01*
X68207044Y-70024146D01*
X67904732Y-69822147D01*
X67904727Y-69822144D01*
X67904720Y-69822140D01*
X67584083Y-69650756D01*
X67584078Y-69650754D01*
X67248165Y-69511614D01*
X66900223Y-69406067D01*
X66900212Y-69406064D01*
X66543630Y-69335137D01*
X66271111Y-69308296D01*
X66181794Y-69299500D01*
X65818206Y-69299500D01*
X65735679Y-69307628D01*
X65456369Y-69335137D01*
X65099787Y-69406064D01*
X65099776Y-69406067D01*
X64751834Y-69511614D01*
X64415921Y-69650754D01*
X64415916Y-69650756D01*
X64095279Y-69822140D01*
X64095261Y-69822151D01*
X63792964Y-70024140D01*
X63792950Y-70024150D01*
X63511893Y-70254807D01*
X63254807Y-70511893D01*
X63024150Y-70792950D01*
X63024140Y-70792964D01*
X62822151Y-71095261D01*
X62822140Y-71095279D01*
X62650756Y-71415916D01*
X62650754Y-71415921D01*
X62511614Y-71751834D01*
X62406067Y-72099776D01*
X62406064Y-72099787D01*
X62335137Y-72456369D01*
X62313983Y-72671158D01*
X62299500Y-72818206D01*
X50500500Y-72818206D01*
X50500500Y-70706402D01*
X50882500Y-70706402D01*
X50882500Y-70942597D01*
X50919446Y-71175868D01*
X50992433Y-71400496D01*
X51099657Y-71610933D01*
X51238483Y-71802010D01*
X51405490Y-71969017D01*
X51596567Y-72107843D01*
X51695991Y-72158502D01*
X51807003Y-72215066D01*
X51807005Y-72215066D01*
X51807008Y-72215068D01*
X51927412Y-72254189D01*
X52031631Y-72288053D01*
X52264903Y-72325000D01*
X52264908Y-72325000D01*
X52501097Y-72325000D01*
X52734368Y-72288053D01*
X52958992Y-72215068D01*
X53169433Y-72107843D01*
X53360510Y-71969017D01*
X53527517Y-71802010D01*
X53666343Y-71610933D01*
X53773568Y-71400492D01*
X53846553Y-71175868D01*
X53878230Y-70975868D01*
X53883500Y-70942597D01*
X53883500Y-70706402D01*
X55382500Y-70706402D01*
X55382500Y-70942597D01*
X55419446Y-71175868D01*
X55492433Y-71400496D01*
X55599657Y-71610933D01*
X55738483Y-71802010D01*
X55905490Y-71969017D01*
X56096567Y-72107843D01*
X56195991Y-72158502D01*
X56307003Y-72215066D01*
X56307005Y-72215066D01*
X56307008Y-72215068D01*
X56427412Y-72254189D01*
X56531631Y-72288053D01*
X56764903Y-72325000D01*
X56764908Y-72325000D01*
X57001097Y-72325000D01*
X57234368Y-72288053D01*
X57458992Y-72215068D01*
X57669433Y-72107843D01*
X57860510Y-71969017D01*
X58027517Y-71802010D01*
X58166343Y-71610933D01*
X58273568Y-71400492D01*
X58346553Y-71175868D01*
X58378230Y-70975868D01*
X58383500Y-70942597D01*
X58383500Y-70706402D01*
X58346553Y-70473131D01*
X58281569Y-70273132D01*
X58273568Y-70248508D01*
X58273566Y-70248505D01*
X58273566Y-70248503D01*
X58166342Y-70038066D01*
X58027517Y-69846990D01*
X57860510Y-69679983D01*
X57669433Y-69541157D01*
X57611452Y-69511614D01*
X57458996Y-69433933D01*
X57234368Y-69360946D01*
X57001097Y-69324000D01*
X57001092Y-69324000D01*
X56764908Y-69324000D01*
X56764903Y-69324000D01*
X56531631Y-69360946D01*
X56307003Y-69433933D01*
X56096566Y-69541157D01*
X56037052Y-69584397D01*
X55905490Y-69679983D01*
X55905488Y-69679985D01*
X55905487Y-69679985D01*
X55738485Y-69846987D01*
X55738485Y-69846988D01*
X55738483Y-69846990D01*
X55685564Y-69919826D01*
X55599657Y-70038066D01*
X55492433Y-70248503D01*
X55419446Y-70473131D01*
X55382500Y-70706402D01*
X53883500Y-70706402D01*
X53846553Y-70473131D01*
X53781569Y-70273132D01*
X53773568Y-70248508D01*
X53773566Y-70248505D01*
X53773566Y-70248503D01*
X53666342Y-70038066D01*
X53527517Y-69846990D01*
X53360510Y-69679983D01*
X53169433Y-69541157D01*
X53111452Y-69511614D01*
X52958996Y-69433933D01*
X52734368Y-69360946D01*
X52501097Y-69324000D01*
X52501092Y-69324000D01*
X52264908Y-69324000D01*
X52264903Y-69324000D01*
X52031631Y-69360946D01*
X51807003Y-69433933D01*
X51596566Y-69541157D01*
X51537052Y-69584397D01*
X51405490Y-69679983D01*
X51405488Y-69679985D01*
X51405487Y-69679985D01*
X51238485Y-69846987D01*
X51238485Y-69846988D01*
X51238483Y-69846990D01*
X51185564Y-69919826D01*
X51099657Y-70038066D01*
X50992433Y-70248503D01*
X50919446Y-70473131D01*
X50882500Y-70706402D01*
X50500500Y-70706402D01*
X50500500Y-63000013D01*
X52650000Y-63000013D01*
X52650000Y-63525000D01*
X53595854Y-63525000D01*
X53557370Y-63591657D01*
X53525000Y-63712465D01*
X53525000Y-63837535D01*
X53557370Y-63958343D01*
X53595854Y-64025000D01*
X52650001Y-64025000D01*
X52650001Y-64549986D01*
X52660494Y-64652697D01*
X52715641Y-64819119D01*
X52715643Y-64819124D01*
X52807684Y-64968345D01*
X52931654Y-65092315D01*
X53080875Y-65184356D01*
X53080880Y-65184358D01*
X53247302Y-65239505D01*
X53247309Y-65239506D01*
X53350019Y-65249999D01*
X53749999Y-65249999D01*
X53750000Y-65249998D01*
X53750000Y-64179145D01*
X53816657Y-64217630D01*
X53937465Y-64250000D01*
X54062535Y-64250000D01*
X54183343Y-64217630D01*
X54250000Y-64179145D01*
X54250000Y-65249999D01*
X54649972Y-65249999D01*
X54649986Y-65249998D01*
X54752697Y-65239505D01*
X54919119Y-65184358D01*
X54919124Y-65184356D01*
X55068345Y-65092315D01*
X55192317Y-64968343D01*
X55287815Y-64813516D01*
X55339763Y-64766791D01*
X55408725Y-64755568D01*
X55472808Y-64783412D01*
X55481035Y-64790931D01*
X55620213Y-64930109D01*
X55792179Y-65055048D01*
X55792181Y-65055049D01*
X55792184Y-65055051D01*
X55981588Y-65151557D01*
X56183757Y-65217246D01*
X56393713Y-65250500D01*
X56509218Y-65250500D01*
X56576257Y-65270185D01*
X56596899Y-65286819D01*
X58337215Y-67027137D01*
X58337219Y-67027140D01*
X58501079Y-67136628D01*
X58501085Y-67136631D01*
X58501086Y-67136632D01*
X58683165Y-67212052D01*
X58854647Y-67246162D01*
X58876455Y-67250500D01*
X58876458Y-67250501D01*
X58876460Y-67250501D01*
X59079655Y-67250501D01*
X59079675Y-67250500D01*
X66284218Y-67250500D01*
X66351257Y-67270185D01*
X66371899Y-67286819D01*
X77213181Y-78128101D01*
X77246666Y-78189424D01*
X77249500Y-78215782D01*
X77249500Y-95848541D01*
X77249884Y-95850472D01*
X77249887Y-95850500D01*
X77249890Y-95850500D01*
X77278766Y-95995673D01*
X77287946Y-96041828D01*
X77287949Y-96041837D01*
X77363364Y-96223907D01*
X77363371Y-96223920D01*
X77472859Y-96387780D01*
X77472860Y-96387781D01*
X77472861Y-96387782D01*
X77612218Y-96527139D01*
X77612219Y-96527139D01*
X77619286Y-96534206D01*
X77619285Y-96534206D01*
X77619288Y-96534208D01*
X80147860Y-99062781D01*
X80147861Y-99062782D01*
X80260947Y-99175868D01*
X80287219Y-99202140D01*
X80451079Y-99311628D01*
X80451092Y-99311635D01*
X80579833Y-99364961D01*
X80599215Y-99372989D01*
X80633164Y-99387051D01*
X80700777Y-99400500D01*
X80716955Y-99403718D01*
X80826456Y-99425500D01*
X80826459Y-99425500D01*
X80826460Y-99425500D01*
X81023540Y-99425500D01*
X82151270Y-99425500D01*
X82218309Y-99445185D01*
X82264064Y-99497989D01*
X82274008Y-99567147D01*
X82244983Y-99630703D01*
X82238951Y-99637181D01*
X82182289Y-99693842D01*
X82090187Y-99843163D01*
X82090185Y-99843168D01*
X82068754Y-99907842D01*
X82035001Y-100009703D01*
X82035001Y-100009704D01*
X82035000Y-100009704D01*
X82024500Y-100112483D01*
X82024500Y-100887501D01*
X82024501Y-100887519D01*
X82035000Y-100990296D01*
X82035001Y-100990299D01*
X82081020Y-101129172D01*
X82090186Y-101156834D01*
X82182288Y-101306156D01*
X82306344Y-101430212D01*
X82455666Y-101522314D01*
X82622203Y-101577499D01*
X82724991Y-101588000D01*
X83775008Y-101587999D01*
X83775016Y-101587998D01*
X83775019Y-101587998D01*
X83849701Y-101580369D01*
X83877797Y-101577499D01*
X84044334Y-101522314D01*
X84184905Y-101435609D01*
X84252296Y-101417170D01*
X84315094Y-101435609D01*
X84455666Y-101522314D01*
X84622203Y-101577499D01*
X84724991Y-101588000D01*
X85775008Y-101587999D01*
X85775016Y-101587998D01*
X85775019Y-101587998D01*
X85849701Y-101580369D01*
X85877797Y-101577499D01*
X86044334Y-101522314D01*
X86193656Y-101430212D01*
X86287049Y-101336819D01*
X86313976Y-101322115D01*
X86339795Y-101305523D01*
X86345995Y-101304631D01*
X86348372Y-101303334D01*
X86374730Y-101300500D01*
X86399903Y-101300500D01*
X86466942Y-101320185D01*
X86512697Y-101372989D01*
X86522641Y-101442147D01*
X86493616Y-101505703D01*
X86487584Y-101512181D01*
X85537584Y-102462181D01*
X85476261Y-102495666D01*
X85449903Y-102498500D01*
X80737669Y-102498500D01*
X80737653Y-102498499D01*
X80730057Y-102498499D01*
X80571943Y-102498499D01*
X80457397Y-102529192D01*
X80419214Y-102539423D01*
X80400030Y-102550500D01*
X80400027Y-102550501D01*
X80282290Y-102618475D01*
X80282282Y-102618481D01*
X80170478Y-102730286D01*
X78078867Y-104821896D01*
X78017544Y-104855381D01*
X77952868Y-104852146D01*
X77816240Y-104807753D01*
X77654957Y-104782208D01*
X77606287Y-104774500D01*
X77393713Y-104774500D01*
X77345042Y-104782208D01*
X77183760Y-104807753D01*
X76981585Y-104873444D01*
X76792179Y-104969951D01*
X76620213Y-105094890D01*
X76469894Y-105245209D01*
X76469890Y-105245214D01*
X76350318Y-105409793D01*
X76294989Y-105452459D01*
X76225375Y-105458438D01*
X76163580Y-105425833D01*
X76149682Y-105409793D01*
X76030109Y-105245214D01*
X76030105Y-105245209D01*
X75879786Y-105094890D01*
X75707820Y-104969951D01*
X75518414Y-104873444D01*
X75518413Y-104873443D01*
X75518412Y-104873443D01*
X75316243Y-104807754D01*
X75316241Y-104807753D01*
X75316240Y-104807753D01*
X75154957Y-104782208D01*
X75106287Y-104774500D01*
X74893713Y-104774500D01*
X74845042Y-104782208D01*
X74683760Y-104807753D01*
X74481585Y-104873444D01*
X74292179Y-104969951D01*
X74120213Y-105094890D01*
X73969894Y-105245209D01*
X73969890Y-105245214D01*
X73850318Y-105409793D01*
X73794989Y-105452459D01*
X73725375Y-105458438D01*
X73663580Y-105425833D01*
X73649682Y-105409793D01*
X73530109Y-105245214D01*
X73530105Y-105245209D01*
X73379786Y-105094890D01*
X73207820Y-104969951D01*
X73018414Y-104873444D01*
X73018413Y-104873443D01*
X73018412Y-104873443D01*
X72816243Y-104807754D01*
X72816241Y-104807753D01*
X72816240Y-104807753D01*
X72654957Y-104782208D01*
X72606287Y-104774500D01*
X72393713Y-104774500D01*
X72345042Y-104782208D01*
X72183760Y-104807753D01*
X71981585Y-104873444D01*
X71792179Y-104969951D01*
X71620213Y-105094890D01*
X71469894Y-105245209D01*
X71469890Y-105245214D01*
X71350318Y-105409793D01*
X71294989Y-105452459D01*
X71225375Y-105458438D01*
X71163580Y-105425833D01*
X71149682Y-105409793D01*
X71030109Y-105245214D01*
X71030105Y-105245209D01*
X70879786Y-105094890D01*
X70707820Y-104969951D01*
X70518414Y-104873444D01*
X70518413Y-104873443D01*
X70518412Y-104873443D01*
X70316243Y-104807754D01*
X70316241Y-104807753D01*
X70316240Y-104807753D01*
X70154957Y-104782208D01*
X70106287Y-104774500D01*
X69893713Y-104774500D01*
X69845042Y-104782208D01*
X69683760Y-104807753D01*
X69481585Y-104873444D01*
X69292179Y-104969951D01*
X69120213Y-105094890D01*
X68969894Y-105245209D01*
X68969890Y-105245214D01*
X68850318Y-105409793D01*
X68794989Y-105452459D01*
X68725375Y-105458438D01*
X68663580Y-105425833D01*
X68649682Y-105409793D01*
X68530109Y-105245214D01*
X68530105Y-105245209D01*
X68379786Y-105094890D01*
X68207820Y-104969951D01*
X68018414Y-104873444D01*
X68018413Y-104873443D01*
X68018412Y-104873443D01*
X67816243Y-104807754D01*
X67816241Y-104807753D01*
X67816240Y-104807753D01*
X67654957Y-104782208D01*
X67606287Y-104774500D01*
X67393713Y-104774500D01*
X67345042Y-104782208D01*
X67183760Y-104807753D01*
X66981585Y-104873444D01*
X66792179Y-104969951D01*
X66620213Y-105094890D01*
X66469894Y-105245209D01*
X66469890Y-105245214D01*
X66350008Y-105410218D01*
X66294678Y-105452884D01*
X66225065Y-105458863D01*
X66163270Y-105426257D01*
X66149372Y-105410218D01*
X66029727Y-105245540D01*
X66029723Y-105245535D01*
X65879464Y-105095276D01*
X65879459Y-105095272D01*
X65707557Y-104970379D01*
X65518217Y-104873904D01*
X65381337Y-104829430D01*
X65323662Y-104789993D01*
X65296463Y-104725634D01*
X65308377Y-104656788D01*
X65355621Y-104605312D01*
X65419655Y-104587499D01*
X65499999Y-104587499D01*
X66000000Y-104587499D01*
X66274972Y-104587499D01*
X66274986Y-104587498D01*
X66377697Y-104577005D01*
X66544119Y-104521858D01*
X66544124Y-104521856D01*
X66693345Y-104429815D01*
X66817315Y-104305845D01*
X66909356Y-104156624D01*
X66909358Y-104156619D01*
X66964505Y-103990197D01*
X66964506Y-103990190D01*
X66974999Y-103887486D01*
X66975000Y-103887473D01*
X66975000Y-103750000D01*
X66000000Y-103750000D01*
X66000000Y-104587499D01*
X65499999Y-104587499D01*
X65500000Y-104587498D01*
X65500000Y-103750000D01*
X63750000Y-103750000D01*
X63750000Y-104587499D01*
X64024972Y-104587499D01*
X64024986Y-104587498D01*
X64127697Y-104577005D01*
X64294119Y-104521858D01*
X64294124Y-104521856D01*
X64443345Y-104429815D01*
X64537319Y-104335842D01*
X64598642Y-104302357D01*
X64668334Y-104307341D01*
X64712681Y-104335842D01*
X64806654Y-104429815D01*
X64955875Y-104521856D01*
X64955880Y-104521858D01*
X65122302Y-104577005D01*
X65122310Y-104577006D01*
X65178941Y-104582792D01*
X65243633Y-104609188D01*
X65283784Y-104666368D01*
X65286648Y-104736179D01*
X65251314Y-104796456D01*
X65250000Y-104797634D01*
X65250000Y-105845854D01*
X65183343Y-105807370D01*
X65062535Y-105775000D01*
X64937465Y-105775000D01*
X64816657Y-105807370D01*
X64750000Y-105845854D01*
X64750000Y-104797768D01*
X64749999Y-104797768D01*
X64683875Y-104808241D01*
X64481784Y-104873903D01*
X64292442Y-104970379D01*
X64120541Y-105095271D01*
X63981668Y-105234144D01*
X63920345Y-105267628D01*
X63850653Y-105262644D01*
X63794720Y-105220772D01*
X63788448Y-105211558D01*
X63762405Y-105169336D01*
X63692712Y-105056344D01*
X63568656Y-104932288D01*
X63443969Y-104855381D01*
X63419336Y-104840187D01*
X63419331Y-104840185D01*
X63417372Y-104839536D01*
X63293178Y-104798382D01*
X63235735Y-104758610D01*
X63208912Y-104694094D01*
X63221227Y-104625319D01*
X63244503Y-104592996D01*
X63250000Y-104587499D01*
X63250000Y-103750000D01*
X62275001Y-103750000D01*
X62275001Y-103887486D01*
X62285494Y-103990197D01*
X62340641Y-104156619D01*
X62340643Y-104156624D01*
X62432684Y-104305845D01*
X62556654Y-104429815D01*
X62705875Y-104521856D01*
X62705882Y-104521859D01*
X62738882Y-104532794D01*
X62796327Y-104572566D01*
X62823151Y-104637082D01*
X62810836Y-104705857D01*
X62763294Y-104757058D01*
X62699879Y-104774500D01*
X61849998Y-104774500D01*
X61849981Y-104774501D01*
X61747203Y-104785000D01*
X61747200Y-104785001D01*
X61580668Y-104840185D01*
X61580663Y-104840187D01*
X61431342Y-104932289D01*
X61307289Y-105056342D01*
X61215187Y-105205663D01*
X61215185Y-105205668D01*
X61202083Y-105245208D01*
X61160001Y-105372203D01*
X61160001Y-105372204D01*
X61160000Y-105372204D01*
X61149500Y-105474983D01*
X61149500Y-107025001D01*
X61149501Y-107025018D01*
X61160000Y-107127796D01*
X61160001Y-107127799D01*
X61200495Y-107250000D01*
X61215186Y-107294334D01*
X61307288Y-107443656D01*
X61431344Y-107567712D01*
X61580666Y-107659814D01*
X61747203Y-107714999D01*
X61849991Y-107725500D01*
X63150008Y-107725499D01*
X63252797Y-107714999D01*
X63419334Y-107659814D01*
X63568656Y-107567712D01*
X63692712Y-107443656D01*
X63784814Y-107294334D01*
X63784814Y-107294331D01*
X63788448Y-107288441D01*
X63840395Y-107241716D01*
X63909358Y-107230493D01*
X63973440Y-107258336D01*
X63981668Y-107265856D01*
X64120535Y-107404723D01*
X64120540Y-107404727D01*
X64292442Y-107529620D01*
X64481782Y-107626095D01*
X64683871Y-107691757D01*
X64750000Y-107702231D01*
X64750000Y-106654145D01*
X64816657Y-106692630D01*
X64937465Y-106725000D01*
X65062535Y-106725000D01*
X65183343Y-106692630D01*
X65250000Y-106654145D01*
X65250000Y-107702230D01*
X65316126Y-107691757D01*
X65316129Y-107691757D01*
X65518217Y-107626095D01*
X65707557Y-107529620D01*
X65879459Y-107404727D01*
X65879464Y-107404723D01*
X66029721Y-107254466D01*
X66149371Y-107089781D01*
X66204701Y-107047115D01*
X66274314Y-107041136D01*
X66336110Y-107073741D01*
X66350008Y-107089781D01*
X66469890Y-107254785D01*
X66469894Y-107254790D01*
X66620213Y-107405109D01*
X66792179Y-107530048D01*
X66792181Y-107530049D01*
X66792184Y-107530051D01*
X66981588Y-107626557D01*
X67183757Y-107692246D01*
X67393713Y-107725500D01*
X67393714Y-107725500D01*
X67606286Y-107725500D01*
X67606287Y-107725500D01*
X67816243Y-107692246D01*
X68018412Y-107626557D01*
X68207816Y-107530051D01*
X68238878Y-107507483D01*
X68379786Y-107405109D01*
X68379788Y-107405106D01*
X68379792Y-107405104D01*
X68530104Y-107254792D01*
X68649683Y-107090204D01*
X68705011Y-107047540D01*
X68774624Y-107041561D01*
X68836420Y-107074166D01*
X68850313Y-107090199D01*
X68902711Y-107162319D01*
X68969896Y-107254792D01*
X69120213Y-107405109D01*
X69292179Y-107530048D01*
X69292181Y-107530049D01*
X69292184Y-107530051D01*
X69481588Y-107626557D01*
X69683757Y-107692246D01*
X69893713Y-107725500D01*
X69893714Y-107725500D01*
X70106286Y-107725500D01*
X70106287Y-107725500D01*
X70316243Y-107692246D01*
X70518412Y-107626557D01*
X70707816Y-107530051D01*
X70738878Y-107507483D01*
X70879786Y-107405109D01*
X70879788Y-107405106D01*
X70879792Y-107405104D01*
X71030104Y-107254792D01*
X71149683Y-107090204D01*
X71205011Y-107047540D01*
X71274624Y-107041561D01*
X71336420Y-107074166D01*
X71350313Y-107090199D01*
X71402711Y-107162319D01*
X71469896Y-107254792D01*
X71620213Y-107405109D01*
X71792179Y-107530048D01*
X71792181Y-107530049D01*
X71792184Y-107530051D01*
X71981588Y-107626557D01*
X72183757Y-107692246D01*
X72393713Y-107725500D01*
X72393714Y-107725500D01*
X72606286Y-107725500D01*
X72606287Y-107725500D01*
X72816243Y-107692246D01*
X73018412Y-107626557D01*
X73207816Y-107530051D01*
X73238878Y-107507483D01*
X73379786Y-107405109D01*
X73379788Y-107405106D01*
X73379792Y-107405104D01*
X73530104Y-107254792D01*
X73649683Y-107090204D01*
X73705011Y-107047540D01*
X73774624Y-107041561D01*
X73836420Y-107074166D01*
X73850313Y-107090199D01*
X73902711Y-107162319D01*
X73969896Y-107254792D01*
X74120213Y-107405109D01*
X74292179Y-107530048D01*
X74292181Y-107530049D01*
X74292184Y-107530051D01*
X74481588Y-107626557D01*
X74683757Y-107692246D01*
X74893713Y-107725500D01*
X74893714Y-107725500D01*
X75106286Y-107725500D01*
X75106287Y-107725500D01*
X75316243Y-107692246D01*
X75518412Y-107626557D01*
X75707816Y-107530051D01*
X75738878Y-107507483D01*
X75879786Y-107405109D01*
X75879788Y-107405106D01*
X75879792Y-107405104D01*
X76030104Y-107254792D01*
X76149683Y-107090204D01*
X76205011Y-107047540D01*
X76274624Y-107041561D01*
X76336420Y-107074166D01*
X76350313Y-107090199D01*
X76402711Y-107162319D01*
X76469896Y-107254792D01*
X76620213Y-107405109D01*
X76792179Y-107530048D01*
X76792181Y-107530049D01*
X76792184Y-107530051D01*
X76981588Y-107626557D01*
X77183757Y-107692246D01*
X77393713Y-107725500D01*
X77393714Y-107725500D01*
X77606286Y-107725500D01*
X77606287Y-107725500D01*
X77816243Y-107692246D01*
X78018412Y-107626557D01*
X78207816Y-107530051D01*
X78238878Y-107507483D01*
X78379786Y-107405109D01*
X78379788Y-107405106D01*
X78379792Y-107405104D01*
X78530104Y-107254792D01*
X78649683Y-107090204D01*
X78705011Y-107047540D01*
X78774624Y-107041561D01*
X78836420Y-107074166D01*
X78850313Y-107090199D01*
X78902711Y-107162319D01*
X78969896Y-107254792D01*
X79120213Y-107405109D01*
X79292179Y-107530048D01*
X79292181Y-107530049D01*
X79292184Y-107530051D01*
X79481588Y-107626557D01*
X79683757Y-107692246D01*
X79893713Y-107725500D01*
X79893714Y-107725500D01*
X80106286Y-107725500D01*
X80106287Y-107725500D01*
X80316243Y-107692246D01*
X80518412Y-107626557D01*
X80707816Y-107530051D01*
X80738878Y-107507483D01*
X80879786Y-107405109D01*
X80879788Y-107405106D01*
X80879792Y-107405104D01*
X81030104Y-107254792D01*
X81149683Y-107090204D01*
X81205011Y-107047540D01*
X81274624Y-107041561D01*
X81336420Y-107074166D01*
X81350313Y-107090199D01*
X81402711Y-107162319D01*
X81469896Y-107254792D01*
X81620213Y-107405109D01*
X81792179Y-107530048D01*
X81792181Y-107530049D01*
X81792184Y-107530051D01*
X81981588Y-107626557D01*
X82183757Y-107692246D01*
X82393713Y-107725500D01*
X82393714Y-107725500D01*
X82606286Y-107725500D01*
X82606287Y-107725500D01*
X82816243Y-107692246D01*
X83018412Y-107626557D01*
X83207816Y-107530051D01*
X83238878Y-107507483D01*
X83379786Y-107405109D01*
X83379788Y-107405106D01*
X83379792Y-107405104D01*
X83530104Y-107254792D01*
X83649683Y-107090204D01*
X83705011Y-107047540D01*
X83774624Y-107041561D01*
X83836420Y-107074166D01*
X83850313Y-107090199D01*
X83902711Y-107162319D01*
X83969896Y-107254792D01*
X84120213Y-107405109D01*
X84292179Y-107530048D01*
X84292181Y-107530049D01*
X84292184Y-107530051D01*
X84481588Y-107626557D01*
X84683757Y-107692246D01*
X84893713Y-107725500D01*
X84893714Y-107725500D01*
X85106286Y-107725500D01*
X85106287Y-107725500D01*
X85316243Y-107692246D01*
X85518412Y-107626557D01*
X85707816Y-107530051D01*
X85738878Y-107507483D01*
X85879786Y-107405109D01*
X85879788Y-107405106D01*
X85879792Y-107405104D01*
X86030104Y-107254792D01*
X86030106Y-107254788D01*
X86030109Y-107254786D01*
X86155048Y-107082820D01*
X86155047Y-107082820D01*
X86155051Y-107082816D01*
X86251557Y-106893412D01*
X86317246Y-106691243D01*
X86350500Y-106481287D01*
X86350500Y-106018713D01*
X86317246Y-105808757D01*
X86251557Y-105606588D01*
X86155051Y-105417184D01*
X86155049Y-105417181D01*
X86155048Y-105417179D01*
X86030109Y-105245213D01*
X85879786Y-105094890D01*
X85707820Y-104969951D01*
X85518414Y-104873444D01*
X85518413Y-104873443D01*
X85518412Y-104873443D01*
X85316243Y-104807754D01*
X85316241Y-104807753D01*
X85316240Y-104807753D01*
X85154957Y-104782208D01*
X85106287Y-104774500D01*
X84893713Y-104774500D01*
X84845042Y-104782208D01*
X84683760Y-104807753D01*
X84481585Y-104873444D01*
X84292179Y-104969951D01*
X84120213Y-105094890D01*
X83969894Y-105245209D01*
X83969890Y-105245214D01*
X83850318Y-105409793D01*
X83794989Y-105452459D01*
X83725375Y-105458438D01*
X83663580Y-105425833D01*
X83649682Y-105409793D01*
X83530109Y-105245214D01*
X83530105Y-105245209D01*
X83379786Y-105094890D01*
X83207820Y-104969951D01*
X83018414Y-104873444D01*
X83018413Y-104873443D01*
X83018412Y-104873443D01*
X82816243Y-104807754D01*
X82816241Y-104807753D01*
X82816239Y-104807753D01*
X82603597Y-104774074D01*
X82540462Y-104744145D01*
X82503531Y-104684833D01*
X82504529Y-104614971D01*
X82535314Y-104563920D01*
X82669420Y-104429815D01*
X82962416Y-104136819D01*
X83023739Y-104103334D01*
X83050097Y-104100500D01*
X85884227Y-104100500D01*
X85884243Y-104100501D01*
X85891839Y-104100501D01*
X86049950Y-104100501D01*
X86049953Y-104100501D01*
X86202681Y-104059577D01*
X86272129Y-104019481D01*
X86339612Y-103980520D01*
X86451416Y-103868716D01*
X86451416Y-103868714D01*
X86461620Y-103858511D01*
X86461623Y-103858506D01*
X86838820Y-103481310D01*
X86900142Y-103447826D01*
X86969834Y-103452810D01*
X87025767Y-103494682D01*
X87050184Y-103560146D01*
X87050500Y-103568992D01*
X87050500Y-106866003D01*
X87030815Y-106933042D01*
X87014181Y-106953684D01*
X85453684Y-108514181D01*
X85392361Y-108547666D01*
X85366003Y-108550500D01*
X79210670Y-108550500D01*
X79210654Y-108550499D01*
X79203058Y-108550499D01*
X79044943Y-108550499D01*
X78968579Y-108570961D01*
X78892214Y-108591423D01*
X78892209Y-108591426D01*
X78755290Y-108670475D01*
X78755282Y-108670481D01*
X75578867Y-111846896D01*
X75517544Y-111880381D01*
X75452868Y-111877146D01*
X75316240Y-111832753D01*
X75154957Y-111807208D01*
X75106287Y-111799500D01*
X74893713Y-111799500D01*
X74845042Y-111807208D01*
X74683760Y-111832753D01*
X74481585Y-111898444D01*
X74292179Y-111994951D01*
X74120213Y-112119890D01*
X73969894Y-112270209D01*
X73969890Y-112270214D01*
X73850318Y-112434793D01*
X73794989Y-112477459D01*
X73725375Y-112483438D01*
X73663580Y-112450833D01*
X73649682Y-112434793D01*
X73530109Y-112270214D01*
X73530105Y-112270209D01*
X73379786Y-112119890D01*
X73207820Y-111994951D01*
X73018414Y-111898444D01*
X73018413Y-111898443D01*
X73018412Y-111898443D01*
X72816243Y-111832754D01*
X72816241Y-111832753D01*
X72816240Y-111832753D01*
X72654957Y-111807208D01*
X72606287Y-111799500D01*
X72393713Y-111799500D01*
X72345042Y-111807208D01*
X72183760Y-111832753D01*
X71981585Y-111898444D01*
X71792179Y-111994951D01*
X71620213Y-112119890D01*
X71469894Y-112270209D01*
X71469890Y-112270214D01*
X71350318Y-112434793D01*
X71294989Y-112477459D01*
X71225375Y-112483438D01*
X71163580Y-112450833D01*
X71149682Y-112434793D01*
X71030109Y-112270214D01*
X71030105Y-112270209D01*
X70879786Y-112119890D01*
X70707820Y-111994951D01*
X70518414Y-111898444D01*
X70518413Y-111898443D01*
X70518412Y-111898443D01*
X70316243Y-111832754D01*
X70316241Y-111832753D01*
X70316240Y-111832753D01*
X70154957Y-111807208D01*
X70106287Y-111799500D01*
X69893713Y-111799500D01*
X69845042Y-111807208D01*
X69683760Y-111832753D01*
X69481585Y-111898444D01*
X69292179Y-111994951D01*
X69120213Y-112119890D01*
X68969894Y-112270209D01*
X68969890Y-112270214D01*
X68850318Y-112434793D01*
X68794989Y-112477459D01*
X68725375Y-112483438D01*
X68663580Y-112450833D01*
X68649682Y-112434793D01*
X68530109Y-112270214D01*
X68530105Y-112270209D01*
X68379786Y-112119890D01*
X68207820Y-111994951D01*
X68018414Y-111898444D01*
X68018413Y-111898443D01*
X68018412Y-111898443D01*
X67816243Y-111832754D01*
X67816241Y-111832753D01*
X67816240Y-111832753D01*
X67654957Y-111807208D01*
X67606287Y-111799500D01*
X67393713Y-111799500D01*
X67345042Y-111807208D01*
X67183760Y-111832753D01*
X66981585Y-111898444D01*
X66792179Y-111994951D01*
X66620213Y-112119890D01*
X66469894Y-112270209D01*
X66469890Y-112270214D01*
X66350318Y-112434793D01*
X66294989Y-112477459D01*
X66225375Y-112483438D01*
X66163580Y-112450833D01*
X66149682Y-112434793D01*
X66030109Y-112270214D01*
X66030105Y-112270209D01*
X65879786Y-112119890D01*
X65707820Y-111994951D01*
X65518414Y-111898444D01*
X65518413Y-111898443D01*
X65518412Y-111898443D01*
X65316243Y-111832754D01*
X65316241Y-111832753D01*
X65316240Y-111832753D01*
X65154957Y-111807208D01*
X65106287Y-111799500D01*
X64893713Y-111799500D01*
X64845042Y-111807208D01*
X64683760Y-111832753D01*
X64481585Y-111898444D01*
X64292179Y-111994951D01*
X64120215Y-112119889D01*
X63981398Y-112258706D01*
X63920075Y-112292190D01*
X63850383Y-112287206D01*
X63794450Y-112245334D01*
X63788178Y-112236120D01*
X63692712Y-112081344D01*
X63568657Y-111957289D01*
X63568656Y-111957288D01*
X63443969Y-111880381D01*
X63419336Y-111865187D01*
X63419331Y-111865185D01*
X63417862Y-111864698D01*
X63252797Y-111810001D01*
X63252795Y-111810000D01*
X63150010Y-111799500D01*
X61849998Y-111799500D01*
X61849981Y-111799501D01*
X61747203Y-111810000D01*
X61747200Y-111810001D01*
X61580668Y-111865185D01*
X61580663Y-111865187D01*
X61431342Y-111957289D01*
X61307289Y-112081342D01*
X61215187Y-112230663D01*
X61215185Y-112230668D01*
X61211247Y-112242553D01*
X61160001Y-112397203D01*
X61160001Y-112397204D01*
X61160000Y-112397204D01*
X61149500Y-112499983D01*
X61149500Y-114050001D01*
X61149501Y-114050018D01*
X61160000Y-114152796D01*
X61160001Y-114152799D01*
X61205894Y-114291294D01*
X61215186Y-114319334D01*
X61307288Y-114468656D01*
X61431344Y-114592712D01*
X61580666Y-114684814D01*
X61747203Y-114739999D01*
X61849991Y-114750500D01*
X63150008Y-114750499D01*
X63252797Y-114739999D01*
X63419334Y-114684814D01*
X63568656Y-114592712D01*
X63692712Y-114468656D01*
X63784814Y-114319334D01*
X63784814Y-114319331D01*
X63788178Y-114313879D01*
X63840126Y-114267154D01*
X63909088Y-114255931D01*
X63973170Y-114283774D01*
X63981398Y-114291294D01*
X64120213Y-114430109D01*
X64292179Y-114555048D01*
X64292181Y-114555049D01*
X64292184Y-114555051D01*
X64481588Y-114651557D01*
X64683757Y-114717246D01*
X64893713Y-114750500D01*
X64893714Y-114750500D01*
X65106286Y-114750500D01*
X65106287Y-114750500D01*
X65316243Y-114717246D01*
X65518412Y-114651557D01*
X65707816Y-114555051D01*
X65776640Y-114505048D01*
X65879786Y-114430109D01*
X65879788Y-114430106D01*
X65879792Y-114430104D01*
X66030104Y-114279792D01*
X66149683Y-114115204D01*
X66205011Y-114072540D01*
X66274624Y-114066561D01*
X66336420Y-114099166D01*
X66350313Y-114115199D01*
X66433565Y-114229786D01*
X66469896Y-114279792D01*
X66620213Y-114430109D01*
X66792179Y-114555048D01*
X66792181Y-114555049D01*
X66792184Y-114555051D01*
X66981588Y-114651557D01*
X67183757Y-114717246D01*
X67393713Y-114750500D01*
X67393714Y-114750500D01*
X67606286Y-114750500D01*
X67606287Y-114750500D01*
X67816243Y-114717246D01*
X68018412Y-114651557D01*
X68207816Y-114555051D01*
X68276640Y-114505048D01*
X68379786Y-114430109D01*
X68379788Y-114430106D01*
X68379792Y-114430104D01*
X68530104Y-114279792D01*
X68649683Y-114115204D01*
X68705011Y-114072540D01*
X68774624Y-114066561D01*
X68836420Y-114099166D01*
X68850313Y-114115199D01*
X68933565Y-114229786D01*
X68969896Y-114279792D01*
X69120213Y-114430109D01*
X69292179Y-114555048D01*
X69292181Y-114555049D01*
X69292184Y-114555051D01*
X69481588Y-114651557D01*
X69683757Y-114717246D01*
X69893713Y-114750500D01*
X69893714Y-114750500D01*
X70106286Y-114750500D01*
X70106287Y-114750500D01*
X70316243Y-114717246D01*
X70518412Y-114651557D01*
X70707816Y-114555051D01*
X70776640Y-114505048D01*
X70879786Y-114430109D01*
X70879788Y-114430106D01*
X70879792Y-114430104D01*
X71030104Y-114279792D01*
X71149683Y-114115204D01*
X71205011Y-114072540D01*
X71274624Y-114066561D01*
X71336420Y-114099166D01*
X71350313Y-114115199D01*
X71433565Y-114229786D01*
X71469896Y-114279792D01*
X71620213Y-114430109D01*
X71792179Y-114555048D01*
X71792181Y-114555049D01*
X71792184Y-114555051D01*
X71981588Y-114651557D01*
X72183757Y-114717246D01*
X72393713Y-114750500D01*
X72393714Y-114750500D01*
X72606286Y-114750500D01*
X72606287Y-114750500D01*
X72816243Y-114717246D01*
X73018412Y-114651557D01*
X73207816Y-114555051D01*
X73276640Y-114505048D01*
X73379786Y-114430109D01*
X73379788Y-114430106D01*
X73379792Y-114430104D01*
X73530104Y-114279792D01*
X73649683Y-114115204D01*
X73705011Y-114072540D01*
X73774624Y-114066561D01*
X73836420Y-114099166D01*
X73850313Y-114115199D01*
X73933565Y-114229786D01*
X73969896Y-114279792D01*
X74120213Y-114430109D01*
X74292179Y-114555048D01*
X74292181Y-114555049D01*
X74292184Y-114555051D01*
X74481588Y-114651557D01*
X74683757Y-114717246D01*
X74893713Y-114750500D01*
X74893714Y-114750500D01*
X75106286Y-114750500D01*
X75106287Y-114750500D01*
X75316243Y-114717246D01*
X75518412Y-114651557D01*
X75707816Y-114555051D01*
X75776640Y-114505048D01*
X75879786Y-114430109D01*
X75879788Y-114430106D01*
X75879792Y-114430104D01*
X76030104Y-114279792D01*
X76149683Y-114115204D01*
X76205011Y-114072540D01*
X76274624Y-114066561D01*
X76336420Y-114099166D01*
X76350313Y-114115199D01*
X76433565Y-114229786D01*
X76469896Y-114279792D01*
X76620213Y-114430109D01*
X76792179Y-114555048D01*
X76792181Y-114555049D01*
X76792184Y-114555051D01*
X76981588Y-114651557D01*
X77183757Y-114717246D01*
X77393713Y-114750500D01*
X77393714Y-114750500D01*
X77606286Y-114750500D01*
X77606287Y-114750500D01*
X77816243Y-114717246D01*
X78018412Y-114651557D01*
X78207816Y-114555051D01*
X78276640Y-114505048D01*
X78379786Y-114430109D01*
X78379788Y-114430106D01*
X78379792Y-114430104D01*
X78530104Y-114279792D01*
X78649683Y-114115204D01*
X78705011Y-114072540D01*
X78774624Y-114066561D01*
X78836420Y-114099166D01*
X78850313Y-114115199D01*
X78933565Y-114229786D01*
X78969896Y-114279792D01*
X79120213Y-114430109D01*
X79292179Y-114555048D01*
X79292181Y-114555049D01*
X79292184Y-114555051D01*
X79481588Y-114651557D01*
X79683757Y-114717246D01*
X79893713Y-114750500D01*
X79893714Y-114750500D01*
X80106286Y-114750500D01*
X80106287Y-114750500D01*
X80316243Y-114717246D01*
X80518412Y-114651557D01*
X80707816Y-114555051D01*
X80776640Y-114505048D01*
X80879786Y-114430109D01*
X80879788Y-114430106D01*
X80879792Y-114430104D01*
X81030104Y-114279792D01*
X81149683Y-114115204D01*
X81205011Y-114072540D01*
X81274624Y-114066561D01*
X81336420Y-114099166D01*
X81350313Y-114115199D01*
X81433565Y-114229786D01*
X81469896Y-114279792D01*
X81620213Y-114430109D01*
X81792179Y-114555048D01*
X81792181Y-114555049D01*
X81792184Y-114555051D01*
X81981588Y-114651557D01*
X82183757Y-114717246D01*
X82393713Y-114750500D01*
X82393714Y-114750500D01*
X82606286Y-114750500D01*
X82606287Y-114750500D01*
X82816243Y-114717246D01*
X83018412Y-114651557D01*
X83207816Y-114555051D01*
X83276640Y-114505048D01*
X83379786Y-114430109D01*
X83379788Y-114430106D01*
X83379792Y-114430104D01*
X83530104Y-114279792D01*
X83649683Y-114115204D01*
X83705011Y-114072540D01*
X83774624Y-114066561D01*
X83836420Y-114099166D01*
X83850313Y-114115199D01*
X83933565Y-114229786D01*
X83969896Y-114279792D01*
X84120213Y-114430109D01*
X84292179Y-114555048D01*
X84292181Y-114555049D01*
X84292184Y-114555051D01*
X84481588Y-114651557D01*
X84683757Y-114717246D01*
X84893713Y-114750500D01*
X84893714Y-114750500D01*
X85106286Y-114750500D01*
X85106287Y-114750500D01*
X85316243Y-114717246D01*
X85518412Y-114651557D01*
X85707816Y-114555051D01*
X85776640Y-114505048D01*
X85879786Y-114430109D01*
X85879788Y-114430106D01*
X85879792Y-114430104D01*
X86030104Y-114279792D01*
X86030106Y-114279788D01*
X86030109Y-114279786D01*
X86155048Y-114107820D01*
X86155047Y-114107820D01*
X86155051Y-114107816D01*
X86251557Y-113918412D01*
X86317246Y-113716243D01*
X86350500Y-113506287D01*
X86350500Y-113043713D01*
X86317246Y-112833757D01*
X86251557Y-112631588D01*
X86159040Y-112450013D01*
X89900000Y-112450013D01*
X89900000Y-112975000D01*
X90845854Y-112975000D01*
X90807370Y-113041657D01*
X90775000Y-113162465D01*
X90775000Y-113287535D01*
X90807370Y-113408343D01*
X90845854Y-113475000D01*
X89900001Y-113475000D01*
X89900001Y-113999986D01*
X89910494Y-114102697D01*
X89965641Y-114269119D01*
X89965643Y-114269124D01*
X90057684Y-114418345D01*
X90181654Y-114542315D01*
X90330875Y-114634356D01*
X90330880Y-114634358D01*
X90497302Y-114689505D01*
X90497309Y-114689506D01*
X90600019Y-114699999D01*
X90999999Y-114699999D01*
X91000000Y-114699998D01*
X91000000Y-113629145D01*
X91066657Y-113667630D01*
X91187465Y-113700000D01*
X91312535Y-113700000D01*
X91433343Y-113667630D01*
X91500000Y-113629145D01*
X91500000Y-114699999D01*
X91899972Y-114699999D01*
X91899986Y-114699998D01*
X92002697Y-114689505D01*
X92169119Y-114634358D01*
X92169124Y-114634356D01*
X92318345Y-114542315D01*
X92442317Y-114418343D01*
X92537815Y-114263516D01*
X92589763Y-114216791D01*
X92658725Y-114205568D01*
X92722808Y-114233412D01*
X92731035Y-114240931D01*
X92870213Y-114380109D01*
X93042179Y-114505048D01*
X93042181Y-114505049D01*
X93042184Y-114505051D01*
X93231588Y-114601557D01*
X93433757Y-114667246D01*
X93643713Y-114700500D01*
X93643714Y-114700500D01*
X93856286Y-114700500D01*
X93856287Y-114700500D01*
X94066243Y-114667246D01*
X94268412Y-114601557D01*
X94457816Y-114505051D01*
X94479789Y-114489086D01*
X94629786Y-114380109D01*
X94629788Y-114380106D01*
X94629792Y-114380104D01*
X94780104Y-114229792D01*
X94899683Y-114065204D01*
X94955011Y-114022540D01*
X95024624Y-114016561D01*
X95086420Y-114049166D01*
X95100313Y-114065199D01*
X95163958Y-114152799D01*
X95219896Y-114229792D01*
X95370213Y-114380109D01*
X95542179Y-114505048D01*
X95542181Y-114505049D01*
X95542184Y-114505051D01*
X95731588Y-114601557D01*
X95933757Y-114667246D01*
X96143713Y-114700500D01*
X96143714Y-114700500D01*
X96356286Y-114700500D01*
X96356287Y-114700500D01*
X96566243Y-114667246D01*
X96768412Y-114601557D01*
X96957816Y-114505051D01*
X96979789Y-114489086D01*
X97129786Y-114380109D01*
X97129788Y-114380106D01*
X97129792Y-114380104D01*
X97280104Y-114229792D01*
X97280106Y-114229788D01*
X97280109Y-114229786D01*
X97405048Y-114057820D01*
X97405047Y-114057820D01*
X97405051Y-114057816D01*
X97501557Y-113868412D01*
X97567246Y-113666243D01*
X97600500Y-113456287D01*
X97600500Y-112993713D01*
X97567246Y-112783757D01*
X97501557Y-112581588D01*
X97405051Y-112392184D01*
X97405049Y-112392181D01*
X97405048Y-112392179D01*
X97280109Y-112220213D01*
X97129786Y-112069890D01*
X96957820Y-111944951D01*
X96768414Y-111848444D01*
X96768413Y-111848443D01*
X96768412Y-111848443D01*
X96566243Y-111782754D01*
X96566241Y-111782753D01*
X96566240Y-111782753D01*
X96404957Y-111757208D01*
X96356287Y-111749500D01*
X96143713Y-111749500D01*
X96095042Y-111757208D01*
X95933760Y-111782753D01*
X95731585Y-111848444D01*
X95542179Y-111944951D01*
X95370213Y-112069890D01*
X95219894Y-112220209D01*
X95219890Y-112220214D01*
X95100318Y-112384793D01*
X95044989Y-112427459D01*
X94975375Y-112433438D01*
X94913580Y-112400833D01*
X94899682Y-112384793D01*
X94780109Y-112220214D01*
X94780105Y-112220209D01*
X94629786Y-112069890D01*
X94457820Y-111944951D01*
X94268414Y-111848444D01*
X94268413Y-111848443D01*
X94268412Y-111848443D01*
X94066243Y-111782754D01*
X94066241Y-111782753D01*
X94066240Y-111782753D01*
X93904957Y-111757208D01*
X93856287Y-111749500D01*
X93643713Y-111749500D01*
X93595042Y-111757208D01*
X93433760Y-111782753D01*
X93231585Y-111848444D01*
X93042179Y-111944951D01*
X92870215Y-112069889D01*
X92731035Y-112209069D01*
X92669712Y-112242553D01*
X92600020Y-112237569D01*
X92544087Y-112195697D01*
X92537815Y-112186484D01*
X92442315Y-112031654D01*
X92318345Y-111907684D01*
X92169124Y-111815643D01*
X92169119Y-111815641D01*
X92002697Y-111760494D01*
X92002690Y-111760493D01*
X91899986Y-111750000D01*
X91500000Y-111750000D01*
X91500000Y-112820854D01*
X91433343Y-112782370D01*
X91312535Y-112750000D01*
X91187465Y-112750000D01*
X91066657Y-112782370D01*
X91000000Y-112820854D01*
X91000000Y-111750000D01*
X90600028Y-111750000D01*
X90600012Y-111750001D01*
X90497302Y-111760494D01*
X90330880Y-111815641D01*
X90330875Y-111815643D01*
X90181654Y-111907684D01*
X90057684Y-112031654D01*
X89965643Y-112180875D01*
X89965641Y-112180880D01*
X89910494Y-112347302D01*
X89910493Y-112347309D01*
X89900000Y-112450013D01*
X86159040Y-112450013D01*
X86155051Y-112442184D01*
X86155049Y-112442181D01*
X86155048Y-112442179D01*
X86030109Y-112270213D01*
X85879786Y-112119890D01*
X85707820Y-111994951D01*
X85518414Y-111898444D01*
X85518413Y-111898443D01*
X85518412Y-111898443D01*
X85316243Y-111832754D01*
X85316241Y-111832753D01*
X85316240Y-111832753D01*
X85154957Y-111807208D01*
X85106287Y-111799500D01*
X84893713Y-111799500D01*
X84845042Y-111807208D01*
X84683760Y-111832753D01*
X84481585Y-111898444D01*
X84292179Y-111994951D01*
X84120213Y-112119890D01*
X83969894Y-112270209D01*
X83969890Y-112270214D01*
X83850318Y-112434793D01*
X83794989Y-112477459D01*
X83725375Y-112483438D01*
X83663580Y-112450833D01*
X83649682Y-112434793D01*
X83530109Y-112270214D01*
X83530105Y-112270209D01*
X83379786Y-112119890D01*
X83207820Y-111994951D01*
X83018414Y-111898444D01*
X83018413Y-111898443D01*
X83018412Y-111898443D01*
X82816243Y-111832754D01*
X82816241Y-111832753D01*
X82816240Y-111832753D01*
X82654957Y-111807208D01*
X82606287Y-111799500D01*
X82393713Y-111799500D01*
X82345042Y-111807208D01*
X82183760Y-111832753D01*
X81981585Y-111898444D01*
X81792179Y-111994951D01*
X81620213Y-112119890D01*
X81469894Y-112270209D01*
X81469890Y-112270214D01*
X81350318Y-112434793D01*
X81294989Y-112477459D01*
X81225375Y-112483438D01*
X81163580Y-112450833D01*
X81149682Y-112434793D01*
X81030109Y-112270214D01*
X81030105Y-112270209D01*
X80879786Y-112119890D01*
X80707820Y-111994951D01*
X80518414Y-111898444D01*
X80518413Y-111898443D01*
X80518412Y-111898443D01*
X80316243Y-111832754D01*
X80316241Y-111832753D01*
X80316240Y-111832753D01*
X80154957Y-111807208D01*
X80106287Y-111799500D01*
X79893713Y-111799500D01*
X79845042Y-111807208D01*
X79683760Y-111832753D01*
X79481585Y-111898444D01*
X79292179Y-111994951D01*
X79120213Y-112119890D01*
X78969894Y-112270209D01*
X78969890Y-112270214D01*
X78850318Y-112434793D01*
X78794989Y-112477459D01*
X78725375Y-112483438D01*
X78663580Y-112450833D01*
X78649682Y-112434793D01*
X78530109Y-112270214D01*
X78530105Y-112270209D01*
X78379786Y-112119890D01*
X78207820Y-111994951D01*
X78018414Y-111898444D01*
X78018413Y-111898443D01*
X78018412Y-111898443D01*
X77816243Y-111832754D01*
X77816241Y-111832753D01*
X77816239Y-111832753D01*
X77603597Y-111799074D01*
X77540462Y-111769145D01*
X77503531Y-111709833D01*
X77504529Y-111639971D01*
X77535312Y-111588922D01*
X79336417Y-109787819D01*
X79397740Y-109754334D01*
X79424098Y-109751500D01*
X85579431Y-109751500D01*
X85579447Y-109751501D01*
X85587043Y-109751501D01*
X85745154Y-109751501D01*
X85745157Y-109751501D01*
X85897885Y-109710577D01*
X85962043Y-109673535D01*
X86034816Y-109631520D01*
X86146620Y-109519716D01*
X86146620Y-109519714D01*
X86156824Y-109509511D01*
X86156828Y-109509506D01*
X88009506Y-107656828D01*
X88009511Y-107656824D01*
X88019714Y-107646620D01*
X88019716Y-107646620D01*
X88131520Y-107534816D01*
X88210577Y-107397884D01*
X88244591Y-107270942D01*
X88251500Y-107245158D01*
X88251500Y-107087043D01*
X88251500Y-105449983D01*
X89899500Y-105449983D01*
X89899500Y-107050001D01*
X89899501Y-107050018D01*
X89910000Y-107152796D01*
X89910001Y-107152799D01*
X89954949Y-107288441D01*
X89965186Y-107319334D01*
X90057288Y-107468656D01*
X90181344Y-107592712D01*
X90330666Y-107684814D01*
X90497203Y-107739999D01*
X90599991Y-107750500D01*
X91900008Y-107750499D01*
X92002797Y-107739999D01*
X92169334Y-107684814D01*
X92318656Y-107592712D01*
X92442712Y-107468656D01*
X92534814Y-107319334D01*
X92534814Y-107319331D01*
X92538178Y-107313879D01*
X92590126Y-107267154D01*
X92659088Y-107255931D01*
X92723170Y-107283774D01*
X92731398Y-107291294D01*
X92870213Y-107430109D01*
X93042179Y-107555048D01*
X93042181Y-107555049D01*
X93042184Y-107555051D01*
X93231588Y-107651557D01*
X93433757Y-107717246D01*
X93643713Y-107750500D01*
X93643714Y-107750500D01*
X93856286Y-107750500D01*
X93856287Y-107750500D01*
X94066243Y-107717246D01*
X94268412Y-107651557D01*
X94457816Y-107555051D01*
X94523288Y-107507483D01*
X94629786Y-107430109D01*
X94629788Y-107430106D01*
X94629792Y-107430104D01*
X94780104Y-107279792D01*
X94780106Y-107279788D01*
X94780109Y-107279786D01*
X94843371Y-107192712D01*
X94905051Y-107107816D01*
X94976134Y-106968305D01*
X95001663Y-106918205D01*
X95049638Y-106867409D01*
X95112148Y-106850500D01*
X109452649Y-106850500D01*
X109454853Y-106851147D01*
X109457081Y-106850579D01*
X109488224Y-106860946D01*
X109519688Y-106870185D01*
X109521191Y-106871920D01*
X109523374Y-106872647D01*
X109543967Y-106898205D01*
X109565443Y-106922989D01*
X109566220Y-106925822D01*
X109567212Y-106927053D01*
X109575939Y-106961251D01*
X109578679Y-106986748D01*
X109578679Y-107013250D01*
X109574500Y-107052122D01*
X109574500Y-107447870D01*
X109574501Y-107447876D01*
X109580908Y-107507483D01*
X109631202Y-107642328D01*
X109631206Y-107642335D01*
X109717452Y-107757544D01*
X109717455Y-107757547D01*
X109832664Y-107843793D01*
X109832671Y-107843797D01*
X109849249Y-107849980D01*
X109967517Y-107894091D01*
X110027127Y-107900500D01*
X110425500Y-107900499D01*
X110492539Y-107920183D01*
X110538294Y-107972987D01*
X110549500Y-108024499D01*
X110549500Y-108383740D01*
X110529815Y-108450779D01*
X110477011Y-108496534D01*
X110472953Y-108498301D01*
X110370824Y-108540604D01*
X110370814Y-108540609D01*
X110239711Y-108628210D01*
X110239707Y-108628213D01*
X110128213Y-108739707D01*
X110128210Y-108739711D01*
X110040609Y-108870814D01*
X110040602Y-108870827D01*
X109980264Y-109016498D01*
X109980261Y-109016510D01*
X109949500Y-109171153D01*
X109949500Y-109328846D01*
X109980261Y-109483489D01*
X109980264Y-109483501D01*
X110040602Y-109629172D01*
X110040609Y-109629185D01*
X110128210Y-109760288D01*
X110128213Y-109760292D01*
X110239707Y-109871786D01*
X110239711Y-109871789D01*
X110370814Y-109959390D01*
X110370827Y-109959397D01*
X110508683Y-110016498D01*
X110516503Y-110019737D01*
X110671153Y-110050499D01*
X110671156Y-110050500D01*
X110671158Y-110050500D01*
X110828844Y-110050500D01*
X110828845Y-110050499D01*
X110983497Y-110019737D01*
X111129179Y-109959394D01*
X111260289Y-109871789D01*
X111298456Y-109833620D01*
X111324285Y-109813830D01*
X111331530Y-109809660D01*
X111331842Y-109809577D01*
X111381961Y-109780639D01*
X111468773Y-109730520D01*
X111550490Y-109648802D01*
X111611811Y-109615318D01*
X111681502Y-109620302D01*
X111707061Y-109633382D01*
X111820814Y-109709390D01*
X111820827Y-109709397D01*
X111966498Y-109769735D01*
X111966503Y-109769737D01*
X112121153Y-109800499D01*
X112121156Y-109800500D01*
X112121158Y-109800500D01*
X112278844Y-109800500D01*
X112278845Y-109800499D01*
X112433497Y-109769737D01*
X112579179Y-109709394D01*
X112710289Y-109621789D01*
X112821789Y-109510289D01*
X112871898Y-109435296D01*
X112925510Y-109390491D01*
X112994835Y-109381784D01*
X113057862Y-109411938D01*
X113078102Y-109435296D01*
X113128210Y-109510288D01*
X113128213Y-109510292D01*
X113239707Y-109621786D01*
X113239711Y-109621789D01*
X113370814Y-109709390D01*
X113370827Y-109709397D01*
X113516498Y-109769735D01*
X113516503Y-109769737D01*
X113671153Y-109800499D01*
X113671156Y-109800500D01*
X113671158Y-109800500D01*
X113828844Y-109800500D01*
X113828845Y-109800499D01*
X113983497Y-109769737D01*
X114129179Y-109709394D01*
X114260289Y-109621789D01*
X114371789Y-109510289D01*
X114459394Y-109379179D01*
X114519737Y-109233497D01*
X114550500Y-109078842D01*
X114550500Y-108921158D01*
X114550500Y-108921155D01*
X114550499Y-108921153D01*
X114519738Y-108766510D01*
X114519737Y-108766503D01*
X114514060Y-108752797D01*
X114459397Y-108620827D01*
X114459390Y-108620814D01*
X114371789Y-108489711D01*
X114371786Y-108489707D01*
X114260292Y-108378213D01*
X114260288Y-108378210D01*
X114225181Y-108354752D01*
X114180376Y-108301139D01*
X114171669Y-108231814D01*
X114201824Y-108168787D01*
X114261267Y-108132068D01*
X114318264Y-108130033D01*
X114421155Y-108150500D01*
X114421158Y-108150500D01*
X114578844Y-108150500D01*
X114578845Y-108150499D01*
X114733497Y-108119737D01*
X114878049Y-108059861D01*
X114947516Y-108052393D01*
X115009996Y-108083668D01*
X115045648Y-108143757D01*
X115049500Y-108174423D01*
X115049500Y-108650001D01*
X115049501Y-108650019D01*
X115060000Y-108752796D01*
X115060001Y-108752799D01*
X115099108Y-108870814D01*
X115115186Y-108919334D01*
X115207288Y-109068656D01*
X115331344Y-109192712D01*
X115480666Y-109284814D01*
X115564505Y-109312595D01*
X115621948Y-109352366D01*
X115648772Y-109416882D01*
X115649500Y-109430300D01*
X115649500Y-109913330D01*
X115649499Y-109913348D01*
X115649499Y-110079054D01*
X115649498Y-110079054D01*
X115649499Y-110079057D01*
X115674176Y-110171153D01*
X115692527Y-110239636D01*
X115691832Y-110239821D01*
X115699500Y-110278364D01*
X115699500Y-110328846D01*
X115730261Y-110483489D01*
X115732031Y-110489324D01*
X115730456Y-110489801D01*
X115737074Y-110551387D01*
X115705795Y-110613865D01*
X115645705Y-110649514D01*
X115575880Y-110647016D01*
X115567592Y-110643925D01*
X115248165Y-110511614D01*
X114900223Y-110406067D01*
X114900212Y-110406064D01*
X114543630Y-110335137D01*
X114271111Y-110308296D01*
X114181794Y-110299500D01*
X113818206Y-110299500D01*
X113735679Y-110307628D01*
X113456369Y-110335137D01*
X113099787Y-110406064D01*
X113099776Y-110406067D01*
X112751834Y-110511614D01*
X112415921Y-110650754D01*
X112415916Y-110650756D01*
X112095279Y-110822140D01*
X112095261Y-110822151D01*
X111792964Y-111024140D01*
X111792950Y-111024150D01*
X111511893Y-111254807D01*
X111254807Y-111511893D01*
X111024150Y-111792950D01*
X111024140Y-111792964D01*
X110822151Y-112095261D01*
X110822140Y-112095279D01*
X110650756Y-112415916D01*
X110650754Y-112415921D01*
X110511614Y-112751834D01*
X110406067Y-113099776D01*
X110406064Y-113099787D01*
X110335137Y-113456369D01*
X110307628Y-113735679D01*
X110299500Y-113818206D01*
X110299500Y-114181794D01*
X110304584Y-114233412D01*
X110335137Y-114543630D01*
X110406064Y-114900212D01*
X110406067Y-114900223D01*
X110511614Y-115248165D01*
X110650754Y-115584078D01*
X110650756Y-115584083D01*
X110822140Y-115904720D01*
X110822151Y-115904738D01*
X111024140Y-116207035D01*
X111024150Y-116207049D01*
X111254807Y-116488106D01*
X111511893Y-116745192D01*
X111511898Y-116745196D01*
X111511899Y-116745197D01*
X111792956Y-116975854D01*
X112095268Y-117177853D01*
X112095277Y-117177858D01*
X112095279Y-117177859D01*
X112415916Y-117349243D01*
X112415918Y-117349243D01*
X112415924Y-117349247D01*
X112751836Y-117488386D01*
X113099767Y-117593930D01*
X113099773Y-117593931D01*
X113099776Y-117593932D01*
X113099787Y-117593935D01*
X113456369Y-117664862D01*
X113818206Y-117700500D01*
X113818209Y-117700500D01*
X114181791Y-117700500D01*
X114181794Y-117700500D01*
X114543631Y-117664862D01*
X114613045Y-117651054D01*
X114900212Y-117593935D01*
X114900223Y-117593932D01*
X114900223Y-117593931D01*
X114900233Y-117593930D01*
X115248164Y-117488386D01*
X115584076Y-117349247D01*
X115904732Y-117177853D01*
X116207044Y-116975854D01*
X116488101Y-116745197D01*
X116745197Y-116488101D01*
X116975854Y-116207044D01*
X117177853Y-115904732D01*
X117349247Y-115584076D01*
X117488386Y-115248164D01*
X117593930Y-114900233D01*
X117593932Y-114900223D01*
X117593935Y-114900212D01*
X117664862Y-114543630D01*
X117672246Y-114468656D01*
X117700500Y-114181794D01*
X117700500Y-113818206D01*
X117664862Y-113456369D01*
X117655309Y-113408343D01*
X117593935Y-113099787D01*
X117593932Y-113099776D01*
X117593931Y-113099773D01*
X117593930Y-113099767D01*
X117488386Y-112751836D01*
X117349247Y-112415924D01*
X117339240Y-112397203D01*
X117177859Y-112095279D01*
X117177858Y-112095277D01*
X117177853Y-112095268D01*
X116975854Y-111792956D01*
X116745197Y-111511899D01*
X116745196Y-111511898D01*
X116745192Y-111511893D01*
X116495480Y-111262181D01*
X116461995Y-111200858D01*
X116466979Y-111131166D01*
X116508851Y-111075233D01*
X116572809Y-111051377D01*
X116572782Y-111051097D01*
X116573841Y-111050992D01*
X116574315Y-111050816D01*
X116576387Y-111050741D01*
X116578836Y-111050500D01*
X116578842Y-111050500D01*
X116733497Y-111019737D01*
X116879179Y-110959394D01*
X117010289Y-110871789D01*
X117121789Y-110760289D01*
X117209394Y-110629179D01*
X117269737Y-110483497D01*
X117300500Y-110328842D01*
X117300500Y-110171158D01*
X117300500Y-110171155D01*
X117300499Y-110171153D01*
X117269738Y-110016510D01*
X117269737Y-110016503D01*
X117230155Y-109920943D01*
X117209397Y-109870827D01*
X117209390Y-109870814D01*
X117121789Y-109739711D01*
X117121786Y-109739707D01*
X117010289Y-109628210D01*
X116905609Y-109558266D01*
X116900518Y-109552174D01*
X116893297Y-109548877D01*
X116878433Y-109525749D01*
X116860804Y-109504654D01*
X116858852Y-109495279D01*
X116855523Y-109490099D01*
X116850500Y-109455164D01*
X116850500Y-109430300D01*
X116870185Y-109363261D01*
X116922989Y-109317506D01*
X116935482Y-109312599D01*
X117019334Y-109284814D01*
X117168656Y-109192712D01*
X117292712Y-109068656D01*
X117384814Y-108919334D01*
X117439999Y-108752797D01*
X117450500Y-108650009D01*
X117450499Y-107849992D01*
X117439999Y-107747203D01*
X117384814Y-107580666D01*
X117292712Y-107431344D01*
X117199049Y-107337681D01*
X117165564Y-107276358D01*
X117170548Y-107206666D01*
X117199049Y-107162319D01*
X117233572Y-107127796D01*
X117292712Y-107068656D01*
X117384814Y-106919334D01*
X117439999Y-106752797D01*
X117450500Y-106650009D01*
X117450499Y-105849992D01*
X117442838Y-105775000D01*
X117439999Y-105747203D01*
X117439998Y-105747200D01*
X117407623Y-105649500D01*
X117384814Y-105580666D01*
X117298109Y-105440094D01*
X117279670Y-105372704D01*
X117298109Y-105309905D01*
X117384814Y-105169334D01*
X117439999Y-105002797D01*
X117450500Y-104900009D01*
X117450499Y-104099992D01*
X117447201Y-104067710D01*
X117439999Y-103997203D01*
X117439998Y-103997200D01*
X117422256Y-103943659D01*
X117384814Y-103830666D01*
X117292712Y-103681344D01*
X117199049Y-103587681D01*
X117165564Y-103526358D01*
X117170548Y-103456666D01*
X117199049Y-103412319D01*
X117292712Y-103318656D01*
X117384814Y-103169334D01*
X117439999Y-103002797D01*
X117450500Y-102900009D01*
X117450499Y-102099992D01*
X117448644Y-102081836D01*
X117439999Y-101997203D01*
X117439998Y-101997200D01*
X117418619Y-101932684D01*
X117384814Y-101830666D01*
X117292712Y-101681344D01*
X117168656Y-101557288D01*
X117019334Y-101465186D01*
X116852797Y-101410001D01*
X116852795Y-101410000D01*
X116750016Y-101399500D01*
X116750009Y-101399500D01*
X116682883Y-101399500D01*
X116615844Y-101379815D01*
X116595202Y-101363181D01*
X115360235Y-100128213D01*
X115360231Y-100128210D01*
X115229128Y-100040609D01*
X115229115Y-100040602D01*
X115083444Y-99980264D01*
X115083432Y-99980261D01*
X114928788Y-99949500D01*
X114928785Y-99949500D01*
X112963389Y-99949500D01*
X112896350Y-99929815D01*
X112850595Y-99877011D01*
X112840651Y-99807853D01*
X112869676Y-99744297D01*
X112875708Y-99737819D01*
X112941574Y-99671953D01*
X113011517Y-99602010D01*
X113150343Y-99410933D01*
X113257568Y-99200492D01*
X113330553Y-98975868D01*
X113335823Y-98942592D01*
X113367500Y-98742597D01*
X113367500Y-98506402D01*
X114866500Y-98506402D01*
X114866500Y-98742597D01*
X114903446Y-98975868D01*
X114976433Y-99200496D01*
X115078337Y-99400492D01*
X115083657Y-99410933D01*
X115222483Y-99602010D01*
X115389490Y-99769017D01*
X115580567Y-99907843D01*
X115661703Y-99949184D01*
X115791003Y-100015066D01*
X115791005Y-100015066D01*
X115791008Y-100015068D01*
X115869606Y-100040606D01*
X116015631Y-100088053D01*
X116248903Y-100125000D01*
X116248908Y-100125000D01*
X116485097Y-100125000D01*
X116718368Y-100088053D01*
X116746716Y-100078842D01*
X116942992Y-100015068D01*
X117153433Y-99907843D01*
X117344510Y-99769017D01*
X117511517Y-99602010D01*
X117650343Y-99410933D01*
X117757568Y-99200492D01*
X117830553Y-98975868D01*
X117835823Y-98942592D01*
X117867500Y-98742597D01*
X117867500Y-98506402D01*
X117830553Y-98273131D01*
X117777921Y-98111149D01*
X117757568Y-98048508D01*
X117757566Y-98048505D01*
X117757566Y-98048503D01*
X117699278Y-97934108D01*
X117650343Y-97838067D01*
X117511517Y-97646990D01*
X117344510Y-97479983D01*
X117153433Y-97341157D01*
X117145276Y-97337001D01*
X116942996Y-97233933D01*
X116718368Y-97160946D01*
X116485097Y-97124000D01*
X116485092Y-97124000D01*
X116248908Y-97124000D01*
X116248903Y-97124000D01*
X116015631Y-97160946D01*
X115791003Y-97233933D01*
X115580566Y-97341157D01*
X115491266Y-97406038D01*
X115389490Y-97479983D01*
X115389488Y-97479985D01*
X115389487Y-97479985D01*
X115222485Y-97646987D01*
X115222485Y-97646988D01*
X115222483Y-97646990D01*
X115198634Y-97679815D01*
X115083657Y-97838066D01*
X114976433Y-98048503D01*
X114903446Y-98273131D01*
X114866500Y-98506402D01*
X113367500Y-98506402D01*
X113330553Y-98273131D01*
X113277921Y-98111149D01*
X113257568Y-98048508D01*
X113257566Y-98048505D01*
X113257566Y-98048503D01*
X113199278Y-97934108D01*
X113150343Y-97838067D01*
X113011517Y-97646990D01*
X112844510Y-97479983D01*
X112653433Y-97341157D01*
X112645276Y-97337001D01*
X112442996Y-97233933D01*
X112218368Y-97160946D01*
X111985097Y-97124000D01*
X111985092Y-97124000D01*
X111748908Y-97124000D01*
X111748903Y-97124000D01*
X111515631Y-97160946D01*
X111291003Y-97233933D01*
X111080566Y-97341157D01*
X110991266Y-97406038D01*
X110889490Y-97479983D01*
X110889488Y-97479985D01*
X110889487Y-97479985D01*
X110722485Y-97646987D01*
X110722485Y-97646988D01*
X110722483Y-97646990D01*
X110698634Y-97679815D01*
X110583657Y-97838066D01*
X110476433Y-98048503D01*
X110403446Y-98273131D01*
X110366500Y-98506402D01*
X110366500Y-98742597D01*
X110403446Y-98975868D01*
X110476433Y-99200496D01*
X110578337Y-99400492D01*
X110583657Y-99410933D01*
X110722483Y-99602010D01*
X110722485Y-99602012D01*
X110858292Y-99737819D01*
X110891777Y-99799142D01*
X110886793Y-99868834D01*
X110844921Y-99924767D01*
X110779457Y-99949184D01*
X110770611Y-99949500D01*
X100671155Y-99949500D01*
X100516510Y-99980261D01*
X100516498Y-99980264D01*
X100370827Y-100040602D01*
X100370814Y-100040609D01*
X100239711Y-100128210D01*
X100239707Y-100128213D01*
X100128213Y-100239707D01*
X100128210Y-100239711D01*
X100040609Y-100370814D01*
X100040602Y-100370827D01*
X99980264Y-100516498D01*
X99980261Y-100516510D01*
X99949500Y-100671153D01*
X99949500Y-100828846D01*
X99980261Y-100983489D01*
X99980264Y-100983501D01*
X100040602Y-101129172D01*
X100040609Y-101129185D01*
X100128210Y-101260288D01*
X100128213Y-101260292D01*
X100239707Y-101371786D01*
X100239711Y-101371789D01*
X100370814Y-101459390D01*
X100370827Y-101459397D01*
X100498261Y-101512181D01*
X100516503Y-101519737D01*
X100671153Y-101550499D01*
X100671156Y-101550500D01*
X100671158Y-101550500D01*
X100828842Y-101550500D01*
X104884155Y-101550500D01*
X104951194Y-101570185D01*
X104996949Y-101622989D01*
X105006893Y-101692147D01*
X104998716Y-101721952D01*
X104980264Y-101766498D01*
X104980261Y-101766510D01*
X104949500Y-101921153D01*
X104949500Y-102078846D01*
X104980261Y-102233489D01*
X104980264Y-102233501D01*
X105040602Y-102379172D01*
X105040609Y-102379185D01*
X105128210Y-102510288D01*
X105128213Y-102510292D01*
X105239707Y-102621786D01*
X105239711Y-102621789D01*
X105370814Y-102709390D01*
X105370827Y-102709397D01*
X105421254Y-102730284D01*
X105516503Y-102769737D01*
X105583580Y-102783079D01*
X105645488Y-102815461D01*
X105647068Y-102817014D01*
X106335325Y-103505272D01*
X106335332Y-103505278D01*
X106441863Y-103576459D01*
X106441867Y-103576461D01*
X106441874Y-103576466D01*
X106499896Y-103600499D01*
X106560256Y-103625501D01*
X106560260Y-103625501D01*
X106560261Y-103625502D01*
X106685928Y-103650500D01*
X106685931Y-103650500D01*
X106814069Y-103650500D01*
X107015483Y-103650500D01*
X107082522Y-103670185D01*
X107128277Y-103722989D01*
X107133186Y-103735489D01*
X107152686Y-103794334D01*
X107244788Y-103943656D01*
X107368844Y-104067712D01*
X107518166Y-104159814D01*
X107684703Y-104214999D01*
X107787491Y-104225500D01*
X108562508Y-104225499D01*
X108562516Y-104225498D01*
X108562519Y-104225498D01*
X108618802Y-104219748D01*
X108665297Y-104214999D01*
X108831834Y-104159814D01*
X108981156Y-104067712D01*
X109105212Y-103943656D01*
X109107252Y-103940347D01*
X109109245Y-103938555D01*
X109109693Y-103937989D01*
X109109789Y-103938065D01*
X109159194Y-103893623D01*
X109228156Y-103882395D01*
X109292240Y-103910234D01*
X109318329Y-103940339D01*
X109320181Y-103943341D01*
X109320183Y-103943344D01*
X109444154Y-104067315D01*
X109593375Y-104159356D01*
X109593380Y-104159358D01*
X109759802Y-104214505D01*
X109759809Y-104214506D01*
X109862519Y-104224999D01*
X109999999Y-104224999D01*
X110000000Y-104224998D01*
X110000000Y-103124000D01*
X110019685Y-103056961D01*
X110072489Y-103011206D01*
X110124000Y-103000000D01*
X110250000Y-103000000D01*
X110250000Y-102874000D01*
X110269685Y-102806961D01*
X110322489Y-102761206D01*
X110374000Y-102750000D01*
X111876000Y-102750000D01*
X111943039Y-102769685D01*
X111988794Y-102822489D01*
X112000000Y-102874000D01*
X112000000Y-103126000D01*
X111980315Y-103193039D01*
X111927511Y-103238794D01*
X111876000Y-103250000D01*
X110500000Y-103250000D01*
X110500000Y-104224999D01*
X110505424Y-104230423D01*
X110553990Y-104244684D01*
X110599745Y-104297488D01*
X110609689Y-104366646D01*
X110603133Y-104392332D01*
X110556403Y-104517620D01*
X110556401Y-104517627D01*
X110550000Y-104577155D01*
X110550000Y-104910126D01*
X110571304Y-104949142D01*
X110566320Y-105018834D01*
X110524448Y-105074767D01*
X110458984Y-105099184D01*
X110450138Y-105099500D01*
X110027129Y-105099500D01*
X110027123Y-105099501D01*
X109967516Y-105105908D01*
X109871604Y-105141682D01*
X109828271Y-105149500D01*
X97050098Y-105149500D01*
X96983059Y-105129815D01*
X96962417Y-105113181D01*
X96237590Y-104388355D01*
X96237588Y-104388352D01*
X96118717Y-104269481D01*
X96118716Y-104269480D01*
X96024351Y-104214999D01*
X96024350Y-104214998D01*
X95981783Y-104190422D01*
X95925881Y-104175443D01*
X95829057Y-104149499D01*
X95670943Y-104149499D01*
X95663347Y-104149499D01*
X95663331Y-104149500D01*
X92670940Y-104149500D01*
X92630019Y-104160464D01*
X92630019Y-104160465D01*
X92592751Y-104170451D01*
X92518214Y-104190423D01*
X92518209Y-104190426D01*
X92381290Y-104269475D01*
X92381282Y-104269481D01*
X92269478Y-104381286D01*
X91937582Y-104713181D01*
X91876259Y-104746666D01*
X91849901Y-104749500D01*
X90599998Y-104749500D01*
X90599981Y-104749501D01*
X90497203Y-104760000D01*
X90497200Y-104760001D01*
X90330668Y-104815185D01*
X90330663Y-104815187D01*
X90181342Y-104907289D01*
X90057289Y-105031342D01*
X89965187Y-105180663D01*
X89965185Y-105180668D01*
X89943689Y-105245540D01*
X89910001Y-105347203D01*
X89910001Y-105347204D01*
X89910000Y-105347204D01*
X89899500Y-105449983D01*
X88251500Y-105449983D01*
X88251500Y-103288071D01*
X88271185Y-103221032D01*
X88287819Y-103200390D01*
X95670004Y-95818206D01*
X99299500Y-95818206D01*
X99299500Y-96181794D01*
X99303649Y-96223920D01*
X99335137Y-96543630D01*
X99406064Y-96900212D01*
X99406067Y-96900223D01*
X99511614Y-97248165D01*
X99588561Y-97433932D01*
X99632975Y-97541157D01*
X99650754Y-97584078D01*
X99650756Y-97584083D01*
X99822140Y-97904720D01*
X99822151Y-97904738D01*
X100024140Y-98207035D01*
X100024150Y-98207049D01*
X100254807Y-98488106D01*
X100511893Y-98745192D01*
X100511898Y-98745196D01*
X100511899Y-98745197D01*
X100792956Y-98975854D01*
X101095268Y-99177853D01*
X101095277Y-99177858D01*
X101095279Y-99177859D01*
X101415916Y-99349243D01*
X101415918Y-99349243D01*
X101415924Y-99349247D01*
X101751836Y-99488386D01*
X102099767Y-99593930D01*
X102099773Y-99593931D01*
X102099776Y-99593932D01*
X102099787Y-99593935D01*
X102456369Y-99664862D01*
X102818206Y-99700500D01*
X102818209Y-99700500D01*
X103181791Y-99700500D01*
X103181794Y-99700500D01*
X103543631Y-99664862D01*
X103613045Y-99651054D01*
X103900212Y-99593935D01*
X103900223Y-99593932D01*
X103900223Y-99593931D01*
X103900233Y-99593930D01*
X104248164Y-99488386D01*
X104584076Y-99349247D01*
X104904732Y-99177853D01*
X105207044Y-98975854D01*
X105488101Y-98745197D01*
X105745197Y-98488101D01*
X105975854Y-98207044D01*
X106177853Y-97904732D01*
X106349247Y-97584076D01*
X106488386Y-97248164D01*
X106593930Y-96900233D01*
X106593932Y-96900223D01*
X106593935Y-96900212D01*
X106657143Y-96582436D01*
X106664862Y-96543631D01*
X106700500Y-96181794D01*
X106700500Y-95818206D01*
X106664862Y-95456369D01*
X106652596Y-95394701D01*
X106593935Y-95099787D01*
X106593932Y-95099776D01*
X106593931Y-95099773D01*
X106593930Y-95099767D01*
X106488386Y-94751836D01*
X106349247Y-94415924D01*
X106259064Y-94247204D01*
X106177859Y-94095279D01*
X106177858Y-94095277D01*
X106177853Y-94095268D01*
X105975854Y-93792956D01*
X105745197Y-93511899D01*
X105745196Y-93511898D01*
X105745192Y-93511893D01*
X105488106Y-93254807D01*
X105207049Y-93024150D01*
X105207048Y-93024149D01*
X105207044Y-93024146D01*
X104904732Y-92822147D01*
X104904727Y-92822144D01*
X104904720Y-92822140D01*
X104584083Y-92650756D01*
X104584078Y-92650754D01*
X104248165Y-92511614D01*
X103900223Y-92406067D01*
X103900212Y-92406064D01*
X103543630Y-92335137D01*
X103271111Y-92308296D01*
X103181794Y-92299500D01*
X102818206Y-92299500D01*
X102735679Y-92307628D01*
X102456369Y-92335137D01*
X102099787Y-92406064D01*
X102099776Y-92406067D01*
X101751834Y-92511614D01*
X101415921Y-92650754D01*
X101415916Y-92650756D01*
X101095279Y-92822140D01*
X101095261Y-92822151D01*
X100792964Y-93024140D01*
X100792950Y-93024150D01*
X100511893Y-93254807D01*
X100254807Y-93511893D01*
X100024150Y-93792950D01*
X100024140Y-93792964D01*
X99822151Y-94095261D01*
X99822140Y-94095279D01*
X99650756Y-94415916D01*
X99650754Y-94415921D01*
X99511614Y-94751834D01*
X99406067Y-95099776D01*
X99406064Y-95099787D01*
X99335137Y-95456369D01*
X99312661Y-95684577D01*
X99299500Y-95818206D01*
X95670004Y-95818206D01*
X95760729Y-95727481D01*
X95991859Y-95496351D01*
X96230520Y-95257690D01*
X96309577Y-95120758D01*
X96350501Y-94968031D01*
X96350501Y-94809916D01*
X96350501Y-94802321D01*
X96350500Y-94802303D01*
X96350500Y-92006402D01*
X110366500Y-92006402D01*
X110366500Y-92242597D01*
X110403446Y-92475868D01*
X110476433Y-92700496D01*
X110538418Y-92822147D01*
X110583657Y-92910933D01*
X110722483Y-93102010D01*
X110889490Y-93269017D01*
X111080567Y-93407843D01*
X111179991Y-93458502D01*
X111291003Y-93515066D01*
X111291005Y-93515066D01*
X111291008Y-93515068D01*
X111411412Y-93554189D01*
X111515631Y-93588053D01*
X111748903Y-93625000D01*
X111748908Y-93625000D01*
X111985097Y-93625000D01*
X112218368Y-93588053D01*
X112442992Y-93515068D01*
X112653433Y-93407843D01*
X112844510Y-93269017D01*
X113011517Y-93102010D01*
X113150343Y-92910933D01*
X113257568Y-92700492D01*
X113330553Y-92475868D01*
X113341608Y-92406070D01*
X113367500Y-92242597D01*
X113367500Y-92006402D01*
X114866500Y-92006402D01*
X114866500Y-92242597D01*
X114903446Y-92475868D01*
X114976433Y-92700496D01*
X115038418Y-92822147D01*
X115083657Y-92910933D01*
X115222483Y-93102010D01*
X115389490Y-93269017D01*
X115580567Y-93407843D01*
X115679991Y-93458502D01*
X115791003Y-93515066D01*
X115791005Y-93515066D01*
X115791008Y-93515068D01*
X115911412Y-93554189D01*
X116015631Y-93588053D01*
X116248903Y-93625000D01*
X116248908Y-93625000D01*
X116485097Y-93625000D01*
X116718368Y-93588053D01*
X116942992Y-93515068D01*
X117153433Y-93407843D01*
X117344510Y-93269017D01*
X117511517Y-93102010D01*
X117650343Y-92910933D01*
X117757568Y-92700492D01*
X117830553Y-92475868D01*
X117841608Y-92406070D01*
X117867500Y-92242597D01*
X117867500Y-92006402D01*
X117830553Y-91773131D01*
X117786220Y-91636690D01*
X117757568Y-91548508D01*
X117757566Y-91548505D01*
X117757566Y-91548503D01*
X117701002Y-91437491D01*
X117650343Y-91338067D01*
X117511517Y-91146990D01*
X117344510Y-90979983D01*
X117153433Y-90841157D01*
X116942996Y-90733933D01*
X116718368Y-90660946D01*
X116485097Y-90624000D01*
X116485092Y-90624000D01*
X116248908Y-90624000D01*
X116248903Y-90624000D01*
X116015631Y-90660946D01*
X115791003Y-90733933D01*
X115580566Y-90841157D01*
X115553328Y-90860947D01*
X115389490Y-90979983D01*
X115389488Y-90979985D01*
X115389487Y-90979985D01*
X115222485Y-91146987D01*
X115222485Y-91146988D01*
X115222483Y-91146990D01*
X115198512Y-91179983D01*
X115083657Y-91338066D01*
X114976433Y-91548503D01*
X114903446Y-91773131D01*
X114866500Y-92006402D01*
X113367500Y-92006402D01*
X113330553Y-91773131D01*
X113286220Y-91636690D01*
X113257568Y-91548508D01*
X113257566Y-91548505D01*
X113257566Y-91548503D01*
X113201002Y-91437491D01*
X113150343Y-91338067D01*
X113011517Y-91146990D01*
X112844510Y-90979983D01*
X112653433Y-90841157D01*
X112442996Y-90733933D01*
X112218368Y-90660946D01*
X111985097Y-90624000D01*
X111985092Y-90624000D01*
X111748908Y-90624000D01*
X111748903Y-90624000D01*
X111515631Y-90660946D01*
X111291003Y-90733933D01*
X111080566Y-90841157D01*
X111053328Y-90860947D01*
X110889490Y-90979983D01*
X110889488Y-90979985D01*
X110889487Y-90979985D01*
X110722485Y-91146987D01*
X110722485Y-91146988D01*
X110722483Y-91146990D01*
X110698512Y-91179983D01*
X110583657Y-91338066D01*
X110476433Y-91548503D01*
X110403446Y-91773131D01*
X110366500Y-92006402D01*
X96350500Y-92006402D01*
X96350500Y-70506402D01*
X110366500Y-70506402D01*
X110366500Y-70742597D01*
X110403446Y-70975868D01*
X110476433Y-71200496D01*
X110578337Y-71400492D01*
X110583657Y-71410933D01*
X110722483Y-71602010D01*
X110889490Y-71769017D01*
X111080567Y-71907843D01*
X111098794Y-71917130D01*
X111149590Y-71965103D01*
X111166500Y-72027615D01*
X111166500Y-75721383D01*
X111146815Y-75788422D01*
X111098799Y-75831866D01*
X111080569Y-75841155D01*
X111053328Y-75860947D01*
X110889490Y-75979983D01*
X110889488Y-75979985D01*
X110889487Y-75979985D01*
X110722485Y-76146987D01*
X110722485Y-76146988D01*
X110722483Y-76146990D01*
X110698512Y-76179983D01*
X110583657Y-76338066D01*
X110476433Y-76548503D01*
X110403446Y-76773131D01*
X110366500Y-77006402D01*
X110366500Y-77242597D01*
X110403446Y-77475868D01*
X110476433Y-77700496D01*
X110578337Y-77900492D01*
X110583657Y-77910933D01*
X110722483Y-78102010D01*
X110889490Y-78269017D01*
X111080567Y-78407843D01*
X111179991Y-78458502D01*
X111291003Y-78515066D01*
X111291005Y-78515066D01*
X111291008Y-78515068D01*
X111411412Y-78554189D01*
X111515631Y-78588053D01*
X111748903Y-78625000D01*
X111748908Y-78625000D01*
X111985097Y-78625000D01*
X112218368Y-78588053D01*
X112442992Y-78515068D01*
X112653433Y-78407843D01*
X112844510Y-78269017D01*
X113011517Y-78102010D01*
X113150343Y-77910933D01*
X113257568Y-77700492D01*
X113330553Y-77475868D01*
X113355424Y-77318838D01*
X113367500Y-77242597D01*
X113367500Y-77006402D01*
X114866500Y-77006402D01*
X114866500Y-77242597D01*
X114903446Y-77475868D01*
X114976433Y-77700496D01*
X115078337Y-77900492D01*
X115083657Y-77910933D01*
X115222483Y-78102010D01*
X115389490Y-78269017D01*
X115580567Y-78407843D01*
X115679991Y-78458502D01*
X115791003Y-78515066D01*
X115791005Y-78515066D01*
X115791008Y-78515068D01*
X115911412Y-78554189D01*
X116015631Y-78588053D01*
X116248903Y-78625000D01*
X116248908Y-78625000D01*
X116485097Y-78625000D01*
X116718368Y-78588053D01*
X116942992Y-78515068D01*
X117153433Y-78407843D01*
X117344510Y-78269017D01*
X117511517Y-78102010D01*
X117650343Y-77910933D01*
X117757568Y-77700492D01*
X117830553Y-77475868D01*
X117855424Y-77318838D01*
X117867500Y-77242597D01*
X117867500Y-77006402D01*
X117830553Y-76773131D01*
X117772327Y-76593932D01*
X117757568Y-76548508D01*
X117757566Y-76548505D01*
X117757566Y-76548503D01*
X117650342Y-76338066D01*
X117511517Y-76146990D01*
X117344510Y-75979983D01*
X117153433Y-75841157D01*
X117153429Y-75841155D01*
X116942996Y-75733933D01*
X116718368Y-75660946D01*
X116485097Y-75624000D01*
X116485092Y-75624000D01*
X116248908Y-75624000D01*
X116248903Y-75624000D01*
X116015631Y-75660946D01*
X115791003Y-75733933D01*
X115580566Y-75841157D01*
X115553328Y-75860947D01*
X115389490Y-75979983D01*
X115389488Y-75979985D01*
X115389487Y-75979985D01*
X115222485Y-76146987D01*
X115222485Y-76146988D01*
X115222483Y-76146990D01*
X115198512Y-76179983D01*
X115083657Y-76338066D01*
X114976433Y-76548503D01*
X114903446Y-76773131D01*
X114866500Y-77006402D01*
X113367500Y-77006402D01*
X113330553Y-76773131D01*
X113272327Y-76593932D01*
X113257568Y-76548508D01*
X113257566Y-76548505D01*
X113257566Y-76548503D01*
X113150342Y-76338066D01*
X113011517Y-76146990D01*
X112844510Y-75979983D01*
X112653433Y-75841157D01*
X112653432Y-75841156D01*
X112653430Y-75841155D01*
X112635201Y-75831866D01*
X112584407Y-75783890D01*
X112567500Y-75721383D01*
X112567500Y-72027615D01*
X112587185Y-71960576D01*
X112635205Y-71917130D01*
X112653433Y-71907843D01*
X112844510Y-71769017D01*
X113011517Y-71602010D01*
X113150343Y-71410933D01*
X113257568Y-71200492D01*
X113330553Y-70975868D01*
X113335823Y-70942592D01*
X113367500Y-70742597D01*
X113367500Y-70506402D01*
X114866500Y-70506402D01*
X114866500Y-70742597D01*
X114903446Y-70975868D01*
X114976433Y-71200496D01*
X115078337Y-71400492D01*
X115083657Y-71410933D01*
X115222483Y-71602010D01*
X115389490Y-71769017D01*
X115580567Y-71907843D01*
X115661166Y-71948910D01*
X115791003Y-72015066D01*
X115791005Y-72015066D01*
X115791008Y-72015068D01*
X115869606Y-72040606D01*
X116015631Y-72088053D01*
X116248903Y-72125000D01*
X116248908Y-72125000D01*
X116485097Y-72125000D01*
X116718368Y-72088053D01*
X116942992Y-72015068D01*
X117153433Y-71907843D01*
X117344510Y-71769017D01*
X117511517Y-71602010D01*
X117650343Y-71410933D01*
X117757568Y-71200492D01*
X117830553Y-70975868D01*
X117835823Y-70942592D01*
X117867500Y-70742597D01*
X117867500Y-70506402D01*
X117830553Y-70273131D01*
X117757566Y-70048503D01*
X117692001Y-69919826D01*
X117650343Y-69838067D01*
X117511517Y-69646990D01*
X117344510Y-69479983D01*
X117153433Y-69341157D01*
X117126730Y-69327551D01*
X116942996Y-69233933D01*
X116718368Y-69160946D01*
X116485097Y-69124000D01*
X116485092Y-69124000D01*
X116248908Y-69124000D01*
X116248903Y-69124000D01*
X116015631Y-69160946D01*
X115791003Y-69233933D01*
X115580566Y-69341157D01*
X115491230Y-69406064D01*
X115389490Y-69479983D01*
X115389488Y-69479985D01*
X115389487Y-69479985D01*
X115222485Y-69646987D01*
X115222485Y-69646988D01*
X115222483Y-69646990D01*
X115201670Y-69675637D01*
X115083657Y-69838066D01*
X114976433Y-70048503D01*
X114903446Y-70273131D01*
X114866500Y-70506402D01*
X113367500Y-70506402D01*
X113330553Y-70273131D01*
X113257566Y-70048503D01*
X113192001Y-69919826D01*
X113179105Y-69851157D01*
X113205381Y-69786416D01*
X113214796Y-69775859D01*
X115044113Y-67946543D01*
X115044114Y-67946542D01*
X115120775Y-67831811D01*
X115173580Y-67704328D01*
X115200500Y-67568993D01*
X115200500Y-65123547D01*
X115220185Y-65056508D01*
X115251614Y-65023230D01*
X115379792Y-64930104D01*
X115530104Y-64779792D01*
X115530106Y-64779788D01*
X115530109Y-64779786D01*
X115655048Y-64607820D01*
X115655047Y-64607820D01*
X115655051Y-64607816D01*
X115751557Y-64418412D01*
X115817246Y-64216243D01*
X115850500Y-64006287D01*
X115850500Y-63493713D01*
X115817246Y-63283757D01*
X115751557Y-63081588D01*
X115655051Y-62892184D01*
X115655049Y-62892181D01*
X115655048Y-62892179D01*
X115530109Y-62720213D01*
X115379786Y-62569890D01*
X115207820Y-62444951D01*
X115018414Y-62348444D01*
X115018413Y-62348443D01*
X115018412Y-62348443D01*
X114816243Y-62282754D01*
X114816241Y-62282753D01*
X114816240Y-62282753D01*
X114654957Y-62257208D01*
X114606287Y-62249500D01*
X114393713Y-62249500D01*
X114345042Y-62257208D01*
X114183760Y-62282753D01*
X113981585Y-62348444D01*
X113792179Y-62444951D01*
X113620215Y-62569889D01*
X113481035Y-62709069D01*
X113419712Y-62742553D01*
X113350020Y-62737569D01*
X113294087Y-62695697D01*
X113287815Y-62686484D01*
X113192315Y-62531654D01*
X113068345Y-62407684D01*
X112919124Y-62315643D01*
X112919119Y-62315641D01*
X112752697Y-62260494D01*
X112752690Y-62260493D01*
X112649986Y-62250000D01*
X112250000Y-62250000D01*
X112250000Y-63316988D01*
X112192993Y-63284075D01*
X112065826Y-63250000D01*
X111934174Y-63250000D01*
X111807007Y-63284075D01*
X111750000Y-63316988D01*
X111750000Y-62250000D01*
X111350028Y-62250000D01*
X111350012Y-62250001D01*
X111247302Y-62260494D01*
X111080880Y-62315641D01*
X111080875Y-62315643D01*
X110931654Y-62407684D01*
X110807684Y-62531654D01*
X110715643Y-62680875D01*
X110715641Y-62680880D01*
X110660494Y-62847302D01*
X110660493Y-62847309D01*
X110650000Y-62950013D01*
X110650000Y-63500000D01*
X111566988Y-63500000D01*
X111534075Y-63557007D01*
X111500000Y-63684174D01*
X111500000Y-63815826D01*
X111534075Y-63942993D01*
X111566988Y-64000000D01*
X110650001Y-64000000D01*
X110650001Y-64549986D01*
X110660494Y-64652697D01*
X110715641Y-64819119D01*
X110715643Y-64819124D01*
X110807684Y-64968345D01*
X110931654Y-65092315D01*
X111080875Y-65184356D01*
X111080880Y-65184358D01*
X111247302Y-65239505D01*
X111247309Y-65239506D01*
X111350019Y-65249999D01*
X111749999Y-65249999D01*
X111750000Y-65249998D01*
X111750000Y-64183012D01*
X111807007Y-64215925D01*
X111934174Y-64250000D01*
X112065826Y-64250000D01*
X112192993Y-64215925D01*
X112250000Y-64183012D01*
X112250000Y-65249999D01*
X112649972Y-65249999D01*
X112649986Y-65249998D01*
X112752697Y-65239505D01*
X112919119Y-65184358D01*
X112919124Y-65184356D01*
X113068345Y-65092315D01*
X113192317Y-64968343D01*
X113287815Y-64813516D01*
X113339763Y-64766791D01*
X113408725Y-64755568D01*
X113472808Y-64783412D01*
X113481035Y-64790931D01*
X113620211Y-64930107D01*
X113691200Y-64981682D01*
X113748385Y-65023229D01*
X113791051Y-65078558D01*
X113799500Y-65123547D01*
X113799500Y-67158481D01*
X113779815Y-67225520D01*
X113763181Y-67246162D01*
X111921662Y-69087681D01*
X111860339Y-69121166D01*
X111833981Y-69124000D01*
X111748903Y-69124000D01*
X111515631Y-69160946D01*
X111291003Y-69233933D01*
X111080566Y-69341157D01*
X110991230Y-69406064D01*
X110889490Y-69479983D01*
X110889488Y-69479985D01*
X110889487Y-69479985D01*
X110722485Y-69646987D01*
X110722485Y-69646988D01*
X110722483Y-69646990D01*
X110701670Y-69675637D01*
X110583657Y-69838066D01*
X110476433Y-70048503D01*
X110403446Y-70273131D01*
X110366500Y-70506402D01*
X96350500Y-70506402D01*
X96350500Y-68920946D01*
X96350500Y-68920943D01*
X96333838Y-68858759D01*
X96321864Y-68814067D01*
X96321864Y-68814066D01*
X96309578Y-68768218D01*
X96309577Y-68768215D01*
X96253541Y-68671158D01*
X96230520Y-68631284D01*
X96118716Y-68519480D01*
X96118713Y-68519478D01*
X92386819Y-64787584D01*
X92353334Y-64726261D01*
X92350500Y-64699903D01*
X92350500Y-63420945D01*
X92350500Y-63420943D01*
X92309577Y-63268216D01*
X92294526Y-63242147D01*
X92230524Y-63131290D01*
X92230521Y-63131286D01*
X92230520Y-63131284D01*
X92118716Y-63019480D01*
X92118713Y-63019478D01*
X88886819Y-59787584D01*
X88853334Y-59726261D01*
X88850500Y-59699903D01*
X88850500Y-56660718D01*
X88870185Y-56593679D01*
X88918207Y-56550233D01*
X88957815Y-56530052D01*
X88957815Y-56530051D01*
X88957816Y-56530051D01*
X89076728Y-56443657D01*
X89129786Y-56405109D01*
X89129788Y-56405106D01*
X89129792Y-56405104D01*
X89280104Y-56254792D01*
X89399683Y-56090204D01*
X89455011Y-56047540D01*
X89524624Y-56041561D01*
X89586420Y-56074166D01*
X89600313Y-56090199D01*
X89702560Y-56230931D01*
X89719896Y-56254792D01*
X89870213Y-56405109D01*
X90042179Y-56530048D01*
X90042181Y-56530049D01*
X90042184Y-56530051D01*
X90231588Y-56626557D01*
X90433757Y-56692246D01*
X90643713Y-56725500D01*
X90643714Y-56725500D01*
X90856286Y-56725500D01*
X90856287Y-56725500D01*
X91066243Y-56692246D01*
X91268412Y-56626557D01*
X91457816Y-56530051D01*
X91529792Y-56477758D01*
X91629786Y-56405109D01*
X91629788Y-56405106D01*
X91629792Y-56405104D01*
X91780104Y-56254792D01*
X91899683Y-56090204D01*
X91955011Y-56047540D01*
X92024624Y-56041561D01*
X92086420Y-56074166D01*
X92100313Y-56090199D01*
X92202560Y-56230931D01*
X92219896Y-56254792D01*
X92370213Y-56405109D01*
X92542179Y-56530048D01*
X92542181Y-56530049D01*
X92542184Y-56530051D01*
X92731588Y-56626557D01*
X92933757Y-56692246D01*
X93143713Y-56725500D01*
X93143714Y-56725500D01*
X93356286Y-56725500D01*
X93356287Y-56725500D01*
X93566243Y-56692246D01*
X93768412Y-56626557D01*
X93957816Y-56530051D01*
X94029792Y-56477758D01*
X94129786Y-56405109D01*
X94129788Y-56405106D01*
X94129792Y-56405104D01*
X94280104Y-56254792D01*
X94399683Y-56090204D01*
X94455011Y-56047540D01*
X94524624Y-56041561D01*
X94586420Y-56074166D01*
X94600313Y-56090199D01*
X94702560Y-56230931D01*
X94719896Y-56254792D01*
X94870213Y-56405109D01*
X95042179Y-56530048D01*
X95042181Y-56530049D01*
X95042184Y-56530051D01*
X95231588Y-56626557D01*
X95433757Y-56692246D01*
X95643713Y-56725500D01*
X95643714Y-56725500D01*
X95856286Y-56725500D01*
X95856287Y-56725500D01*
X96066243Y-56692246D01*
X96268412Y-56626557D01*
X96457816Y-56530051D01*
X96529792Y-56477758D01*
X96629786Y-56405109D01*
X96629788Y-56405106D01*
X96629792Y-56405104D01*
X96780104Y-56254792D01*
X96899683Y-56090204D01*
X96955011Y-56047540D01*
X97024624Y-56041561D01*
X97086420Y-56074166D01*
X97100313Y-56090199D01*
X97202560Y-56230931D01*
X97219896Y-56254792D01*
X97370213Y-56405109D01*
X97542179Y-56530048D01*
X97542181Y-56530049D01*
X97542184Y-56530051D01*
X97731588Y-56626557D01*
X97933757Y-56692246D01*
X98143713Y-56725500D01*
X98143714Y-56725500D01*
X98356286Y-56725500D01*
X98356287Y-56725500D01*
X98566243Y-56692246D01*
X98768412Y-56626557D01*
X98957816Y-56530051D01*
X99029792Y-56477758D01*
X99129786Y-56405109D01*
X99129788Y-56405106D01*
X99129792Y-56405104D01*
X99280104Y-56254792D01*
X99399683Y-56090204D01*
X99455011Y-56047540D01*
X99524624Y-56041561D01*
X99586420Y-56074166D01*
X99600313Y-56090199D01*
X99702560Y-56230931D01*
X99719896Y-56254792D01*
X99870213Y-56405109D01*
X100042179Y-56530048D01*
X100042181Y-56530049D01*
X100042184Y-56530051D01*
X100231588Y-56626557D01*
X100433757Y-56692246D01*
X100643713Y-56725500D01*
X100643714Y-56725500D01*
X100856286Y-56725500D01*
X100856287Y-56725500D01*
X101066243Y-56692246D01*
X101268412Y-56626557D01*
X101457816Y-56530051D01*
X101529792Y-56477758D01*
X101629786Y-56405109D01*
X101629788Y-56405106D01*
X101629792Y-56405104D01*
X101780104Y-56254792D01*
X101780106Y-56254788D01*
X101780109Y-56254786D01*
X101905048Y-56082820D01*
X101905047Y-56082820D01*
X101905051Y-56082816D01*
X102001557Y-55893412D01*
X102067246Y-55691243D01*
X102100500Y-55481287D01*
X102100500Y-55018713D01*
X102067246Y-54808757D01*
X102001557Y-54606588D01*
X101905051Y-54417184D01*
X101905049Y-54417181D01*
X101905048Y-54417179D01*
X101780109Y-54245213D01*
X101629786Y-54094890D01*
X101457820Y-53969951D01*
X101268414Y-53873444D01*
X101268413Y-53873443D01*
X101268412Y-53873443D01*
X101066243Y-53807754D01*
X101066241Y-53807753D01*
X101066240Y-53807753D01*
X100904957Y-53782208D01*
X100856287Y-53774500D01*
X100643713Y-53774500D01*
X100595042Y-53782208D01*
X100433760Y-53807753D01*
X100231585Y-53873444D01*
X100042179Y-53969951D01*
X99870213Y-54094890D01*
X99719894Y-54245209D01*
X99719890Y-54245214D01*
X99600318Y-54409793D01*
X99544989Y-54452459D01*
X99475375Y-54458438D01*
X99413580Y-54425833D01*
X99399682Y-54409793D01*
X99280109Y-54245214D01*
X99280105Y-54245209D01*
X99129786Y-54094890D01*
X98957820Y-53969951D01*
X98768414Y-53873444D01*
X98768413Y-53873443D01*
X98768412Y-53873443D01*
X98566243Y-53807754D01*
X98566241Y-53807753D01*
X98566240Y-53807753D01*
X98404957Y-53782208D01*
X98356287Y-53774500D01*
X98143713Y-53774500D01*
X98095042Y-53782208D01*
X97933760Y-53807753D01*
X97731585Y-53873444D01*
X97542179Y-53969951D01*
X97370213Y-54094890D01*
X97219894Y-54245209D01*
X97219890Y-54245214D01*
X97100318Y-54409793D01*
X97044989Y-54452459D01*
X96975375Y-54458438D01*
X96913580Y-54425833D01*
X96899682Y-54409793D01*
X96780109Y-54245214D01*
X96780105Y-54245209D01*
X96629786Y-54094890D01*
X96457820Y-53969951D01*
X96268414Y-53873444D01*
X96268413Y-53873443D01*
X96268412Y-53873443D01*
X96066243Y-53807754D01*
X96066241Y-53807753D01*
X96066240Y-53807753D01*
X95904957Y-53782208D01*
X95856287Y-53774500D01*
X95643713Y-53774500D01*
X95595042Y-53782208D01*
X95433760Y-53807753D01*
X95231585Y-53873444D01*
X95042179Y-53969951D01*
X94870213Y-54094890D01*
X94719894Y-54245209D01*
X94719890Y-54245214D01*
X94600318Y-54409793D01*
X94544989Y-54452459D01*
X94475375Y-54458438D01*
X94413580Y-54425833D01*
X94399682Y-54409793D01*
X94280109Y-54245214D01*
X94280105Y-54245209D01*
X94129786Y-54094890D01*
X93957820Y-53969951D01*
X93768414Y-53873444D01*
X93768413Y-53873443D01*
X93768412Y-53873443D01*
X93566243Y-53807754D01*
X93566241Y-53807753D01*
X93566240Y-53807753D01*
X93404957Y-53782208D01*
X93356287Y-53774500D01*
X93143713Y-53774500D01*
X93095042Y-53782208D01*
X92933760Y-53807753D01*
X92731585Y-53873444D01*
X92542179Y-53969951D01*
X92370213Y-54094890D01*
X92219894Y-54245209D01*
X92219890Y-54245214D01*
X92100318Y-54409793D01*
X92044989Y-54452459D01*
X91975375Y-54458438D01*
X91913580Y-54425833D01*
X91899682Y-54409793D01*
X91780109Y-54245214D01*
X91780105Y-54245209D01*
X91629786Y-54094890D01*
X91457820Y-53969951D01*
X91268414Y-53873444D01*
X91268413Y-53873443D01*
X91268412Y-53873443D01*
X91066243Y-53807754D01*
X91066241Y-53807753D01*
X91066240Y-53807753D01*
X90904957Y-53782208D01*
X90856287Y-53774500D01*
X90643713Y-53774500D01*
X90595042Y-53782208D01*
X90433760Y-53807753D01*
X90231585Y-53873444D01*
X90042179Y-53969951D01*
X89870213Y-54094890D01*
X89719894Y-54245209D01*
X89719890Y-54245214D01*
X89600318Y-54409793D01*
X89544989Y-54452459D01*
X89475375Y-54458438D01*
X89413580Y-54425833D01*
X89399682Y-54409793D01*
X89280109Y-54245214D01*
X89280105Y-54245209D01*
X89129786Y-54094890D01*
X88957820Y-53969951D01*
X88768414Y-53873444D01*
X88768413Y-53873443D01*
X88768412Y-53873443D01*
X88566243Y-53807754D01*
X88566241Y-53807753D01*
X88566239Y-53807753D01*
X88353597Y-53774074D01*
X88290462Y-53744145D01*
X88253531Y-53684833D01*
X88254529Y-53614971D01*
X88285313Y-53563921D01*
X88462416Y-53386819D01*
X88523739Y-53353334D01*
X88550097Y-53350500D01*
X103949903Y-53350500D01*
X104016942Y-53370185D01*
X104037584Y-53386819D01*
X106113181Y-55462416D01*
X106146666Y-55523739D01*
X106149500Y-55550097D01*
X106149500Y-58170234D01*
X106129815Y-58237273D01*
X106128602Y-58239125D01*
X106040609Y-58370814D01*
X106040602Y-58370827D01*
X105980264Y-58516498D01*
X105980261Y-58516510D01*
X105949500Y-58671153D01*
X105949500Y-58828846D01*
X105980261Y-58983489D01*
X105980264Y-58983501D01*
X106040602Y-59129172D01*
X106040609Y-59129185D01*
X106128210Y-59260288D01*
X106128213Y-59260292D01*
X106239707Y-59371786D01*
X106239711Y-59371789D01*
X106370814Y-59459390D01*
X106370827Y-59459397D01*
X106516498Y-59519735D01*
X106516503Y-59519737D01*
X106671153Y-59550499D01*
X106671156Y-59550500D01*
X106671158Y-59550500D01*
X106828844Y-59550500D01*
X106828845Y-59550499D01*
X106983497Y-59519737D01*
X107129179Y-59459394D01*
X107260289Y-59371789D01*
X107371789Y-59260289D01*
X107459394Y-59129179D01*
X107519737Y-58983497D01*
X107550500Y-58828842D01*
X107550500Y-58671158D01*
X107550500Y-58671155D01*
X107550499Y-58671153D01*
X107536196Y-58599247D01*
X107519737Y-58516503D01*
X107483020Y-58427859D01*
X107459397Y-58370827D01*
X107459390Y-58370814D01*
X107371398Y-58239125D01*
X107350520Y-58172447D01*
X107350500Y-58170234D01*
X107350500Y-55339059D01*
X107350501Y-55339046D01*
X107350501Y-55170945D01*
X107350501Y-55170943D01*
X107322973Y-55068209D01*
X110299500Y-55068209D01*
X110299500Y-55431790D01*
X110335137Y-55793630D01*
X110406064Y-56150212D01*
X110406067Y-56150223D01*
X110511614Y-56498165D01*
X110650754Y-56834078D01*
X110650756Y-56834083D01*
X110822140Y-57154720D01*
X110822151Y-57154738D01*
X111024140Y-57457035D01*
X111024150Y-57457049D01*
X111254807Y-57738106D01*
X111511893Y-57995192D01*
X111511898Y-57995196D01*
X111511899Y-57995197D01*
X111792956Y-58225854D01*
X112095268Y-58427853D01*
X112095277Y-58427858D01*
X112095279Y-58427859D01*
X112415916Y-58599243D01*
X112415918Y-58599243D01*
X112415924Y-58599247D01*
X112751836Y-58738386D01*
X113099767Y-58843930D01*
X113099773Y-58843931D01*
X113099776Y-58843932D01*
X113099787Y-58843935D01*
X113456369Y-58914862D01*
X113818206Y-58950500D01*
X113818209Y-58950500D01*
X114181791Y-58950500D01*
X114181794Y-58950500D01*
X114543631Y-58914862D01*
X114613045Y-58901054D01*
X114900212Y-58843935D01*
X114900223Y-58843932D01*
X114900223Y-58843931D01*
X114900233Y-58843930D01*
X115248164Y-58738386D01*
X115584076Y-58599247D01*
X115904732Y-58427853D01*
X116207044Y-58225854D01*
X116488101Y-57995197D01*
X116745197Y-57738101D01*
X116975854Y-57457044D01*
X117177853Y-57154732D01*
X117349247Y-56834076D01*
X117488386Y-56498164D01*
X117593930Y-56150233D01*
X117593932Y-56150223D01*
X117593935Y-56150212D01*
X117664862Y-55793630D01*
X117700500Y-55431790D01*
X117700500Y-55068209D01*
X117689603Y-54957574D01*
X117664862Y-54706369D01*
X117593935Y-54349787D01*
X117593932Y-54349776D01*
X117593931Y-54349773D01*
X117593930Y-54349767D01*
X117488386Y-54001836D01*
X117349247Y-53665924D01*
X117258561Y-53496263D01*
X117177859Y-53345279D01*
X117177858Y-53345277D01*
X117177853Y-53345268D01*
X116975854Y-53042956D01*
X116745197Y-52761899D01*
X116745196Y-52761898D01*
X116745192Y-52761893D01*
X116488106Y-52504807D01*
X116207049Y-52274150D01*
X116207048Y-52274149D01*
X116207044Y-52274146D01*
X115904732Y-52072147D01*
X115904727Y-52072144D01*
X115904720Y-52072140D01*
X115584083Y-51900756D01*
X115584078Y-51900754D01*
X115248165Y-51761614D01*
X114900223Y-51656067D01*
X114900212Y-51656064D01*
X114543630Y-51585137D01*
X114271111Y-51558296D01*
X114181794Y-51549500D01*
X113818206Y-51549500D01*
X113735679Y-51557628D01*
X113456369Y-51585137D01*
X113099787Y-51656064D01*
X113099776Y-51656067D01*
X112751834Y-51761614D01*
X112415921Y-51900754D01*
X112415916Y-51900756D01*
X112095279Y-52072140D01*
X112095261Y-52072151D01*
X111792964Y-52274140D01*
X111792950Y-52274150D01*
X111511893Y-52504807D01*
X111254807Y-52761893D01*
X111024150Y-53042950D01*
X111024140Y-53042964D01*
X110822151Y-53345261D01*
X110822140Y-53345279D01*
X110650756Y-53665916D01*
X110650754Y-53665921D01*
X110511614Y-54001834D01*
X110406067Y-54349776D01*
X110406064Y-54349787D01*
X110335137Y-54706369D01*
X110299500Y-55068209D01*
X107322973Y-55068209D01*
X107309577Y-55018215D01*
X107279117Y-54965457D01*
X107230520Y-54881284D01*
X107118716Y-54769480D01*
X107118715Y-54769479D01*
X107114385Y-54765149D01*
X107114374Y-54765139D01*
X104737590Y-52388355D01*
X104737588Y-52388352D01*
X104618717Y-52269481D01*
X104618716Y-52269480D01*
X104531904Y-52219360D01*
X104531904Y-52219359D01*
X104531900Y-52219358D01*
X104481785Y-52190423D01*
X104329057Y-52149499D01*
X104170943Y-52149499D01*
X104163347Y-52149499D01*
X104163331Y-52149500D01*
X88336669Y-52149500D01*
X88336653Y-52149499D01*
X88329057Y-52149499D01*
X88170943Y-52149499D01*
X88063587Y-52178265D01*
X88018210Y-52190424D01*
X88018209Y-52190425D01*
X87968096Y-52219359D01*
X87968095Y-52219360D01*
X87924689Y-52244420D01*
X87881285Y-52269479D01*
X87881282Y-52269481D01*
X87769478Y-52381286D01*
X86412582Y-53738181D01*
X86351259Y-53771666D01*
X86324901Y-53774500D01*
X85099998Y-53774500D01*
X85099981Y-53774501D01*
X84997203Y-53785000D01*
X84997200Y-53785001D01*
X84830668Y-53840185D01*
X84830663Y-53840187D01*
X84681342Y-53932289D01*
X84557289Y-54056342D01*
X84465187Y-54205663D01*
X84465185Y-54205668D01*
X84460325Y-54220334D01*
X84410001Y-54372203D01*
X84410001Y-54372204D01*
X84410000Y-54372204D01*
X84399500Y-54474983D01*
X84399500Y-56025001D01*
X84399501Y-56025018D01*
X84410000Y-56127796D01*
X84410001Y-56127799D01*
X84455894Y-56266294D01*
X84465186Y-56294334D01*
X84557288Y-56443656D01*
X84681344Y-56567712D01*
X84830666Y-56659814D01*
X84997203Y-56714999D01*
X85099991Y-56725500D01*
X86400008Y-56725499D01*
X86502797Y-56714999D01*
X86669334Y-56659814D01*
X86818656Y-56567712D01*
X86942712Y-56443656D01*
X87034814Y-56294334D01*
X87034814Y-56294331D01*
X87038178Y-56288879D01*
X87090126Y-56242154D01*
X87159088Y-56230931D01*
X87223170Y-56258774D01*
X87231398Y-56266294D01*
X87370213Y-56405109D01*
X87542184Y-56530051D01*
X87542184Y-56530052D01*
X87581793Y-56550233D01*
X87632590Y-56598206D01*
X87649500Y-56660718D01*
X87649500Y-59913330D01*
X87649499Y-59913348D01*
X87649499Y-60079054D01*
X87649498Y-60079054D01*
X87690423Y-60231785D01*
X87719358Y-60281900D01*
X87719359Y-60281904D01*
X87719360Y-60281904D01*
X87769479Y-60368714D01*
X87769481Y-60368717D01*
X87888349Y-60487585D01*
X87888355Y-60487590D01*
X91113181Y-63712416D01*
X91146666Y-63773739D01*
X91149500Y-63800097D01*
X91149500Y-64913330D01*
X91149499Y-64913348D01*
X91149499Y-65079054D01*
X91149498Y-65079054D01*
X91157215Y-65107853D01*
X91190423Y-65231785D01*
X91211750Y-65268724D01*
X91219358Y-65281900D01*
X91219359Y-65281904D01*
X91219360Y-65281904D01*
X91266392Y-65363368D01*
X91269479Y-65368714D01*
X91269481Y-65368717D01*
X91388349Y-65487585D01*
X91388355Y-65487590D01*
X93806272Y-67905507D01*
X93839757Y-67966830D01*
X93834773Y-68036522D01*
X93792901Y-68092455D01*
X93787483Y-68096289D01*
X93739713Y-68128208D01*
X93739707Y-68128213D01*
X93628213Y-68239707D01*
X93628210Y-68239711D01*
X93540609Y-68370814D01*
X93540602Y-68370827D01*
X93480264Y-68516498D01*
X93480261Y-68516510D01*
X93449500Y-68671153D01*
X93449500Y-68828846D01*
X93480261Y-68983489D01*
X93480264Y-68983501D01*
X93540602Y-69129172D01*
X93540609Y-69129185D01*
X93628602Y-69260874D01*
X93649480Y-69327551D01*
X93649500Y-69329765D01*
X93649500Y-87702179D01*
X93629815Y-87769218D01*
X93577011Y-87814973D01*
X93549692Y-87823796D01*
X93391508Y-87855261D01*
X93391498Y-87855264D01*
X93245827Y-87915602D01*
X93245814Y-87915609D01*
X93114711Y-88003210D01*
X93114707Y-88003213D01*
X93003213Y-88114707D01*
X93003210Y-88114711D01*
X92915609Y-88245814D01*
X92915602Y-88245827D01*
X92855264Y-88391498D01*
X92855261Y-88391508D01*
X92824361Y-88546850D01*
X92791976Y-88608761D01*
X92790425Y-88610339D01*
X88037584Y-93363181D01*
X87976261Y-93396666D01*
X87949903Y-93399500D01*
X84706741Y-93399500D01*
X84639702Y-93379815D01*
X84632441Y-93374774D01*
X84534431Y-93301404D01*
X84534428Y-93301402D01*
X84399582Y-93251108D01*
X84399583Y-93251108D01*
X84339983Y-93244701D01*
X84339981Y-93244700D01*
X84339973Y-93244700D01*
X84339965Y-93244700D01*
X84163400Y-93244700D01*
X84096361Y-93225015D01*
X84050606Y-93172211D01*
X84039400Y-93120700D01*
X84039400Y-91329765D01*
X84059085Y-91262726D01*
X84060298Y-91260874D01*
X84148290Y-91129185D01*
X84148290Y-91129184D01*
X84148294Y-91129179D01*
X84208637Y-90983497D01*
X84239400Y-90828842D01*
X84239400Y-90671158D01*
X84239400Y-90671155D01*
X84239399Y-90671153D01*
X84208638Y-90516510D01*
X84208637Y-90516503D01*
X84208635Y-90516498D01*
X84148297Y-90370827D01*
X84148290Y-90370814D01*
X84060298Y-90239125D01*
X84039420Y-90172447D01*
X84039400Y-90170234D01*
X84039400Y-65009902D01*
X84039400Y-65009900D01*
X83998477Y-64857173D01*
X83998477Y-64857172D01*
X83973272Y-64813516D01*
X83953801Y-64779791D01*
X83953800Y-64779790D01*
X83936610Y-64750016D01*
X83919420Y-64720241D01*
X83807616Y-64608437D01*
X83807615Y-64608436D01*
X83803285Y-64604106D01*
X83803274Y-64604096D01*
X81337533Y-62138355D01*
X81337531Y-62138352D01*
X81218660Y-62019481D01*
X81218659Y-62019480D01*
X81131847Y-61969360D01*
X81131847Y-61969359D01*
X81131843Y-61969358D01*
X81081728Y-61940423D01*
X80929000Y-61899499D01*
X80770886Y-61899499D01*
X80763290Y-61899499D01*
X80763274Y-61899500D01*
X70550097Y-61899500D01*
X70483058Y-61879815D01*
X70462416Y-61863181D01*
X70078337Y-61479102D01*
X70044852Y-61417779D01*
X70049836Y-61348087D01*
X70078337Y-61303740D01*
X70121789Y-61260289D01*
X70209394Y-61129179D01*
X70269737Y-60983497D01*
X70300500Y-60828842D01*
X70300500Y-60671158D01*
X70300500Y-60671155D01*
X70300499Y-60671153D01*
X70269738Y-60516510D01*
X70269737Y-60516503D01*
X70254833Y-60480521D01*
X70209397Y-60370827D01*
X70209390Y-60370814D01*
X70121789Y-60239711D01*
X70121786Y-60239707D01*
X70010292Y-60128213D01*
X70010288Y-60128210D01*
X69879185Y-60040609D01*
X69879172Y-60040602D01*
X69733501Y-59980264D01*
X69733491Y-59980261D01*
X69578149Y-59949361D01*
X69516238Y-59916976D01*
X69514660Y-59915425D01*
X66264993Y-56665758D01*
X66231508Y-56604435D01*
X66236492Y-56534743D01*
X66278364Y-56478810D01*
X66279683Y-56477836D01*
X66379792Y-56405104D01*
X66530104Y-56254792D01*
X66649683Y-56090204D01*
X66705011Y-56047540D01*
X66774624Y-56041561D01*
X66836420Y-56074166D01*
X66850313Y-56090199D01*
X66952560Y-56230931D01*
X66969896Y-56254792D01*
X67120213Y-56405109D01*
X67292179Y-56530048D01*
X67292181Y-56530049D01*
X67292184Y-56530051D01*
X67481588Y-56626557D01*
X67683757Y-56692246D01*
X67893713Y-56725500D01*
X67893714Y-56725500D01*
X68106286Y-56725500D01*
X68106287Y-56725500D01*
X68316243Y-56692246D01*
X68518412Y-56626557D01*
X68707816Y-56530051D01*
X68779792Y-56477758D01*
X68879786Y-56405109D01*
X68879788Y-56405106D01*
X68879792Y-56405104D01*
X69030104Y-56254792D01*
X69149683Y-56090204D01*
X69205011Y-56047540D01*
X69274624Y-56041561D01*
X69336420Y-56074166D01*
X69350313Y-56090199D01*
X69452560Y-56230931D01*
X69469896Y-56254792D01*
X69620213Y-56405109D01*
X69792179Y-56530048D01*
X69792181Y-56530049D01*
X69792184Y-56530051D01*
X69981588Y-56626557D01*
X70183757Y-56692246D01*
X70393713Y-56725500D01*
X70393714Y-56725500D01*
X70606286Y-56725500D01*
X70606287Y-56725500D01*
X70816243Y-56692246D01*
X71018412Y-56626557D01*
X71207816Y-56530051D01*
X71279792Y-56477758D01*
X71379786Y-56405109D01*
X71379788Y-56405106D01*
X71379792Y-56405104D01*
X71530104Y-56254792D01*
X71649683Y-56090204D01*
X71705011Y-56047540D01*
X71774624Y-56041561D01*
X71836420Y-56074166D01*
X71850313Y-56090199D01*
X71952560Y-56230931D01*
X71969896Y-56254792D01*
X72120213Y-56405109D01*
X72292179Y-56530048D01*
X72292181Y-56530049D01*
X72292184Y-56530051D01*
X72481588Y-56626557D01*
X72683757Y-56692246D01*
X72893713Y-56725500D01*
X72893714Y-56725500D01*
X73106286Y-56725500D01*
X73106287Y-56725500D01*
X73316243Y-56692246D01*
X73518412Y-56626557D01*
X73707816Y-56530051D01*
X73779792Y-56477758D01*
X73879786Y-56405109D01*
X73879788Y-56405106D01*
X73879792Y-56405104D01*
X74030104Y-56254792D01*
X74149683Y-56090204D01*
X74205011Y-56047540D01*
X74274624Y-56041561D01*
X74336420Y-56074166D01*
X74350313Y-56090199D01*
X74452560Y-56230931D01*
X74469896Y-56254792D01*
X74620213Y-56405109D01*
X74792179Y-56530048D01*
X74792181Y-56530049D01*
X74792184Y-56530051D01*
X74981588Y-56626557D01*
X75183757Y-56692246D01*
X75393713Y-56725500D01*
X75393714Y-56725500D01*
X75606286Y-56725500D01*
X75606287Y-56725500D01*
X75816243Y-56692246D01*
X76018412Y-56626557D01*
X76207816Y-56530051D01*
X76279792Y-56477758D01*
X76379786Y-56405109D01*
X76379788Y-56405106D01*
X76379792Y-56405104D01*
X76530104Y-56254792D01*
X76649683Y-56090204D01*
X76705011Y-56047540D01*
X76774624Y-56041561D01*
X76836420Y-56074166D01*
X76850313Y-56090199D01*
X76952560Y-56230931D01*
X76969896Y-56254792D01*
X77120213Y-56405109D01*
X77292179Y-56530048D01*
X77292181Y-56530049D01*
X77292184Y-56530051D01*
X77481588Y-56626557D01*
X77683757Y-56692246D01*
X77893713Y-56725500D01*
X77893714Y-56725500D01*
X78106286Y-56725500D01*
X78106287Y-56725500D01*
X78316243Y-56692246D01*
X78518412Y-56626557D01*
X78707816Y-56530051D01*
X78779792Y-56477758D01*
X78879786Y-56405109D01*
X78879788Y-56405106D01*
X78879792Y-56405104D01*
X79030104Y-56254792D01*
X79030106Y-56254788D01*
X79030109Y-56254786D01*
X79155048Y-56082820D01*
X79155047Y-56082820D01*
X79155051Y-56082816D01*
X79251557Y-55893412D01*
X79317246Y-55691243D01*
X79350500Y-55481287D01*
X79350500Y-55018713D01*
X79317246Y-54808757D01*
X79251557Y-54606588D01*
X79155051Y-54417184D01*
X79155049Y-54417181D01*
X79155048Y-54417179D01*
X79030109Y-54245213D01*
X78879786Y-54094890D01*
X78707820Y-53969951D01*
X78518414Y-53873444D01*
X78518413Y-53873443D01*
X78518412Y-53873443D01*
X78316243Y-53807754D01*
X78316241Y-53807753D01*
X78316240Y-53807753D01*
X78154957Y-53782208D01*
X78106287Y-53774500D01*
X77893713Y-53774500D01*
X77845042Y-53782208D01*
X77683760Y-53807753D01*
X77481585Y-53873444D01*
X77292179Y-53969951D01*
X77120213Y-54094890D01*
X76969894Y-54245209D01*
X76969890Y-54245214D01*
X76850318Y-54409793D01*
X76794989Y-54452459D01*
X76725375Y-54458438D01*
X76663580Y-54425833D01*
X76649682Y-54409793D01*
X76530109Y-54245214D01*
X76530105Y-54245209D01*
X76379786Y-54094890D01*
X76207820Y-53969951D01*
X76018414Y-53873444D01*
X76018413Y-53873443D01*
X76018412Y-53873443D01*
X75816243Y-53807754D01*
X75816241Y-53807753D01*
X75816240Y-53807753D01*
X75654957Y-53782208D01*
X75606287Y-53774500D01*
X75393713Y-53774500D01*
X75345042Y-53782208D01*
X75183760Y-53807753D01*
X74981585Y-53873444D01*
X74792179Y-53969951D01*
X74620213Y-54094890D01*
X74469894Y-54245209D01*
X74469890Y-54245214D01*
X74350318Y-54409793D01*
X74294989Y-54452459D01*
X74225375Y-54458438D01*
X74163580Y-54425833D01*
X74149682Y-54409793D01*
X74030109Y-54245214D01*
X74030105Y-54245209D01*
X73879786Y-54094890D01*
X73707820Y-53969951D01*
X73518414Y-53873444D01*
X73518413Y-53873443D01*
X73518412Y-53873443D01*
X73316243Y-53807754D01*
X73316241Y-53807753D01*
X73316240Y-53807753D01*
X73154957Y-53782208D01*
X73106287Y-53774500D01*
X72893713Y-53774500D01*
X72845042Y-53782208D01*
X72683760Y-53807753D01*
X72481585Y-53873444D01*
X72292179Y-53969951D01*
X72120213Y-54094890D01*
X71969894Y-54245209D01*
X71969890Y-54245214D01*
X71850318Y-54409793D01*
X71794989Y-54452459D01*
X71725375Y-54458438D01*
X71663580Y-54425833D01*
X71649682Y-54409793D01*
X71530109Y-54245214D01*
X71530105Y-54245209D01*
X71379786Y-54094890D01*
X71207820Y-53969951D01*
X71018414Y-53873444D01*
X71018413Y-53873443D01*
X71018412Y-53873443D01*
X70816243Y-53807754D01*
X70816241Y-53807753D01*
X70816240Y-53807753D01*
X70654957Y-53782208D01*
X70606287Y-53774500D01*
X70393713Y-53774500D01*
X70345042Y-53782208D01*
X70183760Y-53807753D01*
X69981585Y-53873444D01*
X69792179Y-53969951D01*
X69620213Y-54094890D01*
X69469894Y-54245209D01*
X69469890Y-54245214D01*
X69350318Y-54409793D01*
X69294989Y-54452459D01*
X69225375Y-54458438D01*
X69163580Y-54425833D01*
X69149682Y-54409793D01*
X69030109Y-54245214D01*
X69030105Y-54245209D01*
X68879786Y-54094890D01*
X68707820Y-53969951D01*
X68518414Y-53873444D01*
X68518413Y-53873443D01*
X68518412Y-53873443D01*
X68316243Y-53807754D01*
X68316241Y-53807753D01*
X68316240Y-53807753D01*
X68154957Y-53782208D01*
X68106287Y-53774500D01*
X67893713Y-53774500D01*
X67845042Y-53782208D01*
X67683760Y-53807753D01*
X67481585Y-53873444D01*
X67292179Y-53969951D01*
X67120213Y-54094890D01*
X66969894Y-54245209D01*
X66969890Y-54245214D01*
X66850318Y-54409793D01*
X66794989Y-54452459D01*
X66725375Y-54458438D01*
X66663580Y-54425833D01*
X66649682Y-54409793D01*
X66530109Y-54245214D01*
X66530105Y-54245209D01*
X66379786Y-54094890D01*
X66207820Y-53969951D01*
X66018414Y-53873444D01*
X66018413Y-53873443D01*
X66018412Y-53873443D01*
X65816243Y-53807754D01*
X65816241Y-53807753D01*
X65816240Y-53807753D01*
X65654957Y-53782208D01*
X65606287Y-53774500D01*
X65393713Y-53774500D01*
X65345042Y-53782208D01*
X65183760Y-53807753D01*
X64981585Y-53873444D01*
X64792179Y-53969951D01*
X64620215Y-54094889D01*
X64481398Y-54233706D01*
X64420075Y-54267190D01*
X64350383Y-54262206D01*
X64294450Y-54220334D01*
X64288178Y-54211120D01*
X64192712Y-54056344D01*
X64068657Y-53932289D01*
X64068656Y-53932288D01*
X63919334Y-53840186D01*
X63752797Y-53785001D01*
X63752795Y-53785000D01*
X63650010Y-53774500D01*
X62349998Y-53774500D01*
X62349981Y-53774501D01*
X62247203Y-53785000D01*
X62247200Y-53785001D01*
X62080668Y-53840185D01*
X62080663Y-53840187D01*
X61931342Y-53932289D01*
X61807289Y-54056342D01*
X61715187Y-54205663D01*
X61715185Y-54205668D01*
X61710325Y-54220334D01*
X61660001Y-54372203D01*
X61660001Y-54372204D01*
X61660000Y-54372204D01*
X61649500Y-54474983D01*
X61649500Y-56025001D01*
X61649501Y-56025018D01*
X61660000Y-56127796D01*
X61660001Y-56127799D01*
X61705894Y-56266294D01*
X61715186Y-56294334D01*
X61807288Y-56443656D01*
X61931344Y-56567712D01*
X62080666Y-56659814D01*
X62247203Y-56714999D01*
X62349991Y-56725500D01*
X63574902Y-56725499D01*
X63641941Y-56745184D01*
X63662583Y-56761818D01*
X69765139Y-62864374D01*
X69765149Y-62864385D01*
X69769479Y-62868715D01*
X69769480Y-62868716D01*
X69881284Y-62980520D01*
X69881286Y-62980521D01*
X69881290Y-62980524D01*
X70018209Y-63059573D01*
X70018216Y-63059577D01*
X70130019Y-63089534D01*
X70170942Y-63100500D01*
X70170943Y-63100500D01*
X79962324Y-63100500D01*
X80029363Y-63120185D01*
X80075118Y-63172989D01*
X80085062Y-63242147D01*
X80083941Y-63248691D01*
X80074500Y-63296153D01*
X80074500Y-63453846D01*
X80105261Y-63608489D01*
X80105264Y-63608501D01*
X80165602Y-63754172D01*
X80165609Y-63754185D01*
X80253210Y-63885288D01*
X80253213Y-63885292D01*
X80364707Y-63996786D01*
X80364711Y-63996789D01*
X80495814Y-64084390D01*
X80495827Y-64084397D01*
X80641498Y-64144735D01*
X80641503Y-64144737D01*
X80693576Y-64155095D01*
X80796849Y-64175638D01*
X80858760Y-64208023D01*
X80860339Y-64209574D01*
X82152081Y-65501316D01*
X82185566Y-65562639D01*
X82188400Y-65588997D01*
X82188400Y-92244812D01*
X82168715Y-92311851D01*
X82115911Y-92357606D01*
X82046753Y-92367550D01*
X81983197Y-92338525D01*
X81945423Y-92279747D01*
X81941042Y-92257414D01*
X81939999Y-92247203D01*
X81884814Y-92080666D01*
X81792712Y-91931344D01*
X81668656Y-91807288D01*
X81519334Y-91715186D01*
X81519333Y-91715185D01*
X81519325Y-91715182D01*
X81441002Y-91689228D01*
X81383557Y-91649455D01*
X81356735Y-91584939D01*
X81369051Y-91516163D01*
X81376905Y-91502632D01*
X81378998Y-91499500D01*
X81459394Y-91379179D01*
X81519737Y-91233497D01*
X81550500Y-91078842D01*
X81550500Y-90921158D01*
X81550500Y-90921155D01*
X81550499Y-90921153D01*
X81538523Y-90860946D01*
X81519737Y-90766503D01*
X81476015Y-90660947D01*
X81459397Y-90620827D01*
X81459390Y-90620814D01*
X81371789Y-90489711D01*
X81371786Y-90489707D01*
X81260292Y-90378213D01*
X81260288Y-90378210D01*
X81129185Y-90290609D01*
X81129172Y-90290602D01*
X80983501Y-90230264D01*
X80983489Y-90230261D01*
X80828845Y-90199500D01*
X80828842Y-90199500D01*
X80671158Y-90199500D01*
X80671155Y-90199500D01*
X80516510Y-90230261D01*
X80516498Y-90230264D01*
X80370827Y-90290602D01*
X80370814Y-90290609D01*
X80239711Y-90378210D01*
X80239707Y-90378213D01*
X80128213Y-90489707D01*
X80128210Y-90489711D01*
X80040609Y-90620814D01*
X80040602Y-90620827D01*
X79980264Y-90766498D01*
X79980261Y-90766510D01*
X79949500Y-90921153D01*
X79949500Y-91078846D01*
X79980261Y-91233489D01*
X79980264Y-91233501D01*
X80040602Y-91379172D01*
X80040609Y-91379185D01*
X80123094Y-91502632D01*
X80143972Y-91569310D01*
X80125487Y-91636690D01*
X80073509Y-91683380D01*
X80058998Y-91689228D01*
X79980672Y-91715184D01*
X79980663Y-91715187D01*
X79831342Y-91807289D01*
X79707289Y-91931342D01*
X79615187Y-92080663D01*
X79615185Y-92080668D01*
X79587349Y-92164670D01*
X79560001Y-92247203D01*
X79560001Y-92247204D01*
X79560000Y-92247204D01*
X79549500Y-92349983D01*
X79549500Y-93150001D01*
X79549501Y-93150019D01*
X79560000Y-93252796D01*
X79560001Y-93252799D01*
X79608609Y-93399486D01*
X79615186Y-93419334D01*
X79666710Y-93502869D01*
X79707289Y-93568657D01*
X79800951Y-93662319D01*
X79834436Y-93723642D01*
X79829452Y-93793334D01*
X79800951Y-93837681D01*
X79707289Y-93931342D01*
X79615187Y-94080663D01*
X79615185Y-94080668D01*
X79587349Y-94164670D01*
X79560001Y-94247203D01*
X79560001Y-94247204D01*
X79560000Y-94247204D01*
X79549500Y-94349983D01*
X79549500Y-95150001D01*
X79549501Y-95150019D01*
X79560000Y-95252796D01*
X79560001Y-95252799D01*
X79589841Y-95342848D01*
X79592243Y-95412676D01*
X79556511Y-95472718D01*
X79493991Y-95503911D01*
X79424532Y-95496351D01*
X79384454Y-95469533D01*
X79286819Y-95371898D01*
X79253334Y-95310575D01*
X79250500Y-95284217D01*
X79250500Y-77651456D01*
X79237439Y-77585798D01*
X79219532Y-77495775D01*
X79212051Y-77458164D01*
X79155460Y-77321542D01*
X79136632Y-77276086D01*
X79136628Y-77276080D01*
X79027139Y-77112217D01*
X78884686Y-76969764D01*
X78884655Y-76969735D01*
X74586073Y-72671153D01*
X76199500Y-72671153D01*
X76199500Y-72828846D01*
X76230261Y-72983489D01*
X76230264Y-72983501D01*
X76290602Y-73129172D01*
X76290609Y-73129185D01*
X76378210Y-73260288D01*
X76378213Y-73260292D01*
X76489707Y-73371786D01*
X76489711Y-73371789D01*
X76620814Y-73459390D01*
X76620827Y-73459397D01*
X76766498Y-73519735D01*
X76766503Y-73519737D01*
X76921153Y-73550499D01*
X76921156Y-73550500D01*
X76921158Y-73550500D01*
X77078844Y-73550500D01*
X77078845Y-73550499D01*
X77233497Y-73519737D01*
X77379179Y-73459394D01*
X77510289Y-73371789D01*
X77621789Y-73260289D01*
X77709394Y-73129179D01*
X77769737Y-72983497D01*
X77789113Y-72886085D01*
X77800638Y-72828150D01*
X77833023Y-72766239D01*
X77834518Y-72764717D01*
X80889664Y-69709571D01*
X80950985Y-69676088D01*
X80953152Y-69675637D01*
X80953841Y-69675500D01*
X80953842Y-69675500D01*
X81108497Y-69644737D01*
X81254179Y-69584394D01*
X81385289Y-69496789D01*
X81496789Y-69385289D01*
X81584394Y-69254179D01*
X81644737Y-69108497D01*
X81675500Y-68953842D01*
X81675500Y-68796158D01*
X81675500Y-68796155D01*
X81675499Y-68796153D01*
X81652724Y-68681657D01*
X81644737Y-68641503D01*
X81591178Y-68512199D01*
X81584397Y-68495827D01*
X81584390Y-68495814D01*
X81496789Y-68364711D01*
X81496786Y-68364707D01*
X81385292Y-68253213D01*
X81385288Y-68253210D01*
X81254185Y-68165609D01*
X81254172Y-68165602D01*
X81108501Y-68105264D01*
X81108489Y-68105261D01*
X80953845Y-68074500D01*
X80953842Y-68074500D01*
X80796158Y-68074500D01*
X80796155Y-68074500D01*
X80641510Y-68105261D01*
X80641498Y-68105264D01*
X80495827Y-68165602D01*
X80495814Y-68165609D01*
X80364711Y-68253210D01*
X80364707Y-68253213D01*
X80253213Y-68364707D01*
X80253210Y-68364711D01*
X80165609Y-68495814D01*
X80165602Y-68495827D01*
X80105264Y-68641498D01*
X80105261Y-68641508D01*
X80074362Y-68796848D01*
X80041977Y-68858759D01*
X80040426Y-68860337D01*
X76985339Y-71915425D01*
X76924016Y-71948910D01*
X76921850Y-71949361D01*
X76766508Y-71980261D01*
X76766498Y-71980264D01*
X76620827Y-72040602D01*
X76620814Y-72040609D01*
X76489711Y-72128210D01*
X76489707Y-72128213D01*
X76378213Y-72239707D01*
X76378210Y-72239711D01*
X76290609Y-72370814D01*
X76290602Y-72370827D01*
X76230264Y-72516498D01*
X76230261Y-72516510D01*
X76199500Y-72671153D01*
X74586073Y-72671153D01*
X67531479Y-65616559D01*
X67531459Y-65616537D01*
X67387785Y-65472863D01*
X67387781Y-65472860D01*
X67223920Y-65363371D01*
X67223911Y-65363366D01*
X67151315Y-65333296D01*
X67095165Y-65310038D01*
X67041836Y-65287949D01*
X67041832Y-65287948D01*
X67041828Y-65287946D01*
X66945188Y-65268724D01*
X66848544Y-65249500D01*
X66848541Y-65249500D01*
X59821814Y-65249500D01*
X59754775Y-65229815D01*
X59709020Y-65177011D01*
X59699076Y-65107853D01*
X59728101Y-65044297D01*
X59748929Y-65025182D01*
X59879785Y-64930109D01*
X59879783Y-64930109D01*
X59879792Y-64930104D01*
X60030104Y-64779792D01*
X60030106Y-64779788D01*
X60030109Y-64779786D01*
X60155048Y-64607820D01*
X60155047Y-64607820D01*
X60155051Y-64607816D01*
X60251557Y-64418412D01*
X60317246Y-64216243D01*
X60350500Y-64006287D01*
X60350500Y-63543713D01*
X60317246Y-63333757D01*
X60251557Y-63131588D01*
X60155051Y-62942184D01*
X60155049Y-62942181D01*
X60155048Y-62942179D01*
X60030109Y-62770213D01*
X59879786Y-62619890D01*
X59707820Y-62494951D01*
X59518414Y-62398444D01*
X59518413Y-62398443D01*
X59518412Y-62398443D01*
X59316243Y-62332754D01*
X59316241Y-62332753D01*
X59316240Y-62332753D01*
X59154957Y-62307208D01*
X59106287Y-62299500D01*
X58893713Y-62299500D01*
X58845042Y-62307208D01*
X58683760Y-62332753D01*
X58481585Y-62398444D01*
X58292179Y-62494951D01*
X58120213Y-62619890D01*
X57969894Y-62770209D01*
X57969890Y-62770214D01*
X57850318Y-62934793D01*
X57794989Y-62977459D01*
X57725375Y-62983438D01*
X57663580Y-62950833D01*
X57649682Y-62934793D01*
X57530109Y-62770214D01*
X57530105Y-62770209D01*
X57379786Y-62619890D01*
X57207820Y-62494951D01*
X57018414Y-62398444D01*
X57018413Y-62398443D01*
X57018412Y-62398443D01*
X56816243Y-62332754D01*
X56816241Y-62332753D01*
X56816240Y-62332753D01*
X56654957Y-62307208D01*
X56606287Y-62299500D01*
X56393713Y-62299500D01*
X56345042Y-62307208D01*
X56183760Y-62332753D01*
X55981585Y-62398444D01*
X55792179Y-62494951D01*
X55620215Y-62619889D01*
X55481035Y-62759069D01*
X55419712Y-62792553D01*
X55350020Y-62787569D01*
X55294087Y-62745697D01*
X55287815Y-62736484D01*
X55192315Y-62581654D01*
X55068345Y-62457684D01*
X54919124Y-62365643D01*
X54919119Y-62365641D01*
X54752697Y-62310494D01*
X54752690Y-62310493D01*
X54649986Y-62300000D01*
X54250000Y-62300000D01*
X54250000Y-63370854D01*
X54183343Y-63332370D01*
X54062535Y-63300000D01*
X53937465Y-63300000D01*
X53816657Y-63332370D01*
X53750000Y-63370854D01*
X53750000Y-62300000D01*
X53350028Y-62300000D01*
X53350012Y-62300001D01*
X53247302Y-62310494D01*
X53080880Y-62365641D01*
X53080875Y-62365643D01*
X52931654Y-62457684D01*
X52807684Y-62581654D01*
X52715643Y-62730875D01*
X52715641Y-62730880D01*
X52660494Y-62897302D01*
X52660493Y-62897309D01*
X52650000Y-63000013D01*
X50500500Y-63000013D01*
X50500500Y-55068209D01*
X51049500Y-55068209D01*
X51049500Y-55431790D01*
X51085137Y-55793630D01*
X51156064Y-56150212D01*
X51156067Y-56150223D01*
X51261614Y-56498165D01*
X51400754Y-56834078D01*
X51400756Y-56834083D01*
X51572140Y-57154720D01*
X51572151Y-57154738D01*
X51774140Y-57457035D01*
X51774150Y-57457049D01*
X52004807Y-57738106D01*
X52261893Y-57995192D01*
X52261898Y-57995196D01*
X52261899Y-57995197D01*
X52542956Y-58225854D01*
X52845268Y-58427853D01*
X52845277Y-58427858D01*
X52845279Y-58427859D01*
X53165916Y-58599243D01*
X53165918Y-58599243D01*
X53165924Y-58599247D01*
X53501836Y-58738386D01*
X53849767Y-58843930D01*
X53849773Y-58843931D01*
X53849776Y-58843932D01*
X53849787Y-58843935D01*
X54206369Y-58914862D01*
X54568206Y-58950500D01*
X54568209Y-58950500D01*
X54931791Y-58950500D01*
X54931794Y-58950500D01*
X55293631Y-58914862D01*
X55363045Y-58901054D01*
X55650212Y-58843935D01*
X55650223Y-58843932D01*
X55650223Y-58843931D01*
X55650233Y-58843930D01*
X55998164Y-58738386D01*
X56334076Y-58599247D01*
X56654732Y-58427853D01*
X56957044Y-58225854D01*
X57238101Y-57995197D01*
X57495197Y-57738101D01*
X57725854Y-57457044D01*
X57927853Y-57154732D01*
X58099247Y-56834076D01*
X58238386Y-56498164D01*
X58343930Y-56150233D01*
X58343932Y-56150223D01*
X58343935Y-56150212D01*
X58414862Y-55793630D01*
X58450500Y-55431790D01*
X58450500Y-55068209D01*
X58439603Y-54957574D01*
X58414862Y-54706369D01*
X58343935Y-54349787D01*
X58343932Y-54349776D01*
X58343931Y-54349773D01*
X58343930Y-54349767D01*
X58238386Y-54001836D01*
X58099247Y-53665924D01*
X58008561Y-53496263D01*
X57927859Y-53345279D01*
X57927858Y-53345277D01*
X57927853Y-53345268D01*
X57725854Y-53042956D01*
X57495197Y-52761899D01*
X57495196Y-52761898D01*
X57495192Y-52761893D01*
X57238106Y-52504807D01*
X56957049Y-52274150D01*
X56957048Y-52274149D01*
X56957044Y-52274146D01*
X56654732Y-52072147D01*
X56654727Y-52072144D01*
X56654720Y-52072140D01*
X56334083Y-51900756D01*
X56334078Y-51900754D01*
X55998165Y-51761614D01*
X55650223Y-51656067D01*
X55650212Y-51656064D01*
X55293630Y-51585137D01*
X55021111Y-51558296D01*
X54931794Y-51549500D01*
X54568206Y-51549500D01*
X54485679Y-51557628D01*
X54206369Y-51585137D01*
X53849787Y-51656064D01*
X53849776Y-51656067D01*
X53501834Y-51761614D01*
X53165921Y-51900754D01*
X53165916Y-51900756D01*
X52845279Y-52072140D01*
X52845261Y-52072151D01*
X52542964Y-52274140D01*
X52542950Y-52274150D01*
X52261893Y-52504807D01*
X52004807Y-52761893D01*
X51774150Y-53042950D01*
X51774140Y-53042964D01*
X51572151Y-53345261D01*
X51572140Y-53345279D01*
X51400756Y-53665916D01*
X51400754Y-53665921D01*
X51261614Y-54001834D01*
X51156067Y-54349776D01*
X51156064Y-54349787D01*
X51085137Y-54706369D01*
X51049500Y-55068209D01*
X50500500Y-55068209D01*
X50500500Y-53503750D01*
X50500726Y-53496263D01*
X50508352Y-53370185D01*
X50518271Y-53206201D01*
X50520076Y-53191340D01*
X50547269Y-53042956D01*
X50571780Y-52909197D01*
X50575364Y-52894663D01*
X50652096Y-52648422D01*
X50660696Y-52620822D01*
X50665998Y-52606841D01*
X50783731Y-52345249D01*
X50790676Y-52332016D01*
X50939080Y-52086526D01*
X50947567Y-52074230D01*
X51124480Y-51848417D01*
X51134395Y-51837226D01*
X51337226Y-51634395D01*
X51348417Y-51624480D01*
X51574230Y-51447567D01*
X51586526Y-51439080D01*
X51832016Y-51290676D01*
X51845249Y-51283731D01*
X52106841Y-51165998D01*
X52120822Y-51160696D01*
X52394668Y-51075362D01*
X52409197Y-51071780D01*
X52691344Y-51020075D01*
X52706201Y-51018271D01*
X52996264Y-51000726D01*
X53003751Y-51000500D01*
X53065892Y-51000500D01*
X115684108Y-51000500D01*
X115746249Y-51000500D01*
X115753736Y-51000726D01*
G37*
%TD.AperFunction*%
%TD*%
M02*
